<svg width="161" height="117" viewBox="0 0 161 117" fill="none" xmlns="http://www.w3.org/2000/svg">
<path d="M26.5003 66.0111C25.4003 66.0111 24.3003 65.5112 23.5003 64.7112C18.2003 58.7112 15.5003 51.0111 16.0003 43.0111C16.5003 35.0111 20.0003 27.7111 26.0003 22.4111C38.2003 11.6111 56.5003 12.4112 67.6003 24.2112C69.1003 25.8112 69.1003 28.3111 67.4003 29.9111C65.8003 31.4111 63.3002 31.4112 61.7002 29.7112C53.5002 21.0112 40.1002 20.5111 31.2002 28.4111C26.8002 32.3111 24.2003 37.7111 23.9003 43.5111C23.6003 49.4111 25.5003 55.0111 29.4003 59.4111C30.9003 61.1111 30.7003 63.6111 29.1003 65.0111C28.4003 65.7111 27.4003 66.0111 26.5003 66.0111Z" fill="#FFC44C"/>
<path d="M32.5996 9.01098C31.5996 9.01098 30.4997 8.61097 29.7997 7.81097C29.5997 7.61097 29.3997 7.41099 29.2997 7.21099C29.1997 7.01099 28.9997 6.81098 28.8997 6.51098C28.7997 6.31098 28.6996 6.01099 28.6996 5.71099C28.5996 5.41099 28.5996 5.21094 28.5996 4.91094C28.5996 4.61094 28.5996 4.41096 28.6996 4.11096C28.6996 3.81096 28.7997 3.61097 28.8997 3.31097C28.9997 3.11097 29.0997 2.81096 29.2997 2.61096C29.3997 2.41096 29.5997 2.21098 29.7997 2.01098C30.6997 1.11098 32.0997 0.610943 33.3997 0.910943C33.5997 0.910943 33.8996 1.01096 34.1996 1.11096C34.3996 1.21096 34.6997 1.31098 34.8997 1.51098C35.0997 1.61098 35.2996 1.81098 35.4996 2.01098C36.1996 2.81098 36.6996 3.81097 36.6996 4.81097C36.6996 5.81097 36.2996 6.91096 35.4996 7.61096C34.6996 8.61096 33.5996 9.01098 32.5996 9.01098Z" fill="#FFC44C"/>
<path d="M4.90039 56.7112C3.80039 56.7112 2.80034 56.3112 2.10034 55.5112C1.90034 55.3112 1.70034 55.1112 1.60034 54.9112C1.50034 54.7112 1.30032 54.4112 1.20032 54.2112C1.10032 54.0112 1.00037 53.7112 1.00037 53.4112C1.00037 53.1112 0.900391 52.9112 0.900391 52.6112C0.900391 51.5112 1.30034 50.5112 2.10034 49.8112C3.00034 48.9112 4.40032 48.4112 5.70032 48.7112C5.90032 48.7112 6.20039 48.8112 6.40039 48.9112C6.60039 49.0112 6.90034 49.1112 7.10034 49.3112C7.30034 49.4112 7.50032 49.6112 7.70032 49.8112C7.90032 50.0112 8.10032 50.2112 8.20032 50.4112C8.30032 50.6112 8.50034 50.9112 8.60034 51.1112C8.70034 51.3112 8.80042 51.6112 8.80042 51.9112C8.80042 52.2112 8.90039 52.4112 8.90039 52.7112C8.90039 53.0112 8.90042 53.2112 8.80042 53.5112C8.70042 53.7112 8.70034 54.0112 8.60034 54.3112C8.50034 54.5112 8.40032 54.8112 8.20032 55.0112C8.10032 55.2112 7.90032 55.4112 7.70032 55.6112C7.00032 56.2112 6.00039 56.7112 4.90039 56.7112Z" fill="#FFC44C"/>
<path d="M62.1 12.911C61.8 12.911 61.6 12.911 61.3 12.811C61.1 12.711 60.8 12.711 60.5 12.611C60.3 12.511 60 12.411 59.8 12.211C59.6 12.111 59.4 11.911 59.2 11.711C58.4 11.011 58 9.911 58 8.911C58 7.811 58.4 6.81101 59.2 6.11101C59.4 5.91101 59.6 5.71101 59.8 5.61101C60 5.41101 60.3 5.31105 60.5 5.21105C60.7 5.11105 61 5.01104 61.3 5.01104C61.8 4.91104 62.4 4.91104 62.9 5.01104C63.2 5.01104 63.4 5.11105 63.7 5.21105C63.9 5.31105 64.2 5.41101 64.4 5.61101C64.6 5.71101 64.8 5.91101 65 6.11101C65.2 6.31101 65.3 6.51105 65.5 6.71105C65.6 6.91105 65.8 7.211 65.9 7.411C66 7.611 66.1 7.91105 66.1 8.21105C66.2 8.51105 66.2 8.71104 66.2 9.01103C66.2 9.31104 66.2 9.51102 66.1 9.81102C66.1 10.011 66 10.311 65.9 10.511C65.8 10.711 65.7 11.011 65.5 11.211C65.3 11.411 65.2 11.611 65 11.811C64.8 12.011 64.6 12.211 64.4 12.311C64.2 12.411 64 12.611 63.7 12.711C63.5 12.811 63.2 12.911 62.9 12.911C62.7 12.911 62.4 12.911 62.1 12.911Z" fill="#FFC44C"/>
<path d="M8.90039 27.1107C7.80039 27.1107 6.80034 26.7107 6.10034 25.9107C5.40034 25.2107 4.90039 24.1107 4.90039 23.1107C4.90039 22.8107 4.90037 22.6107 5.00037 22.3107C5.00037 22.1107 5.10032 21.8107 5.20032 21.5107C5.30032 21.3107 5.40034 21.0107 5.60034 20.8107C5.70034 20.6107 5.90034 20.4108 6.10034 20.2108C6.80034 19.5108 7.90039 19.0107 8.90039 19.0107C9.90039 19.0107 11.0003 19.4108 11.7003 20.2108C11.9003 20.4108 12.1003 20.6107 12.2003 20.8107C12.3003 21.0107 12.5003 21.3107 12.6003 21.5107C12.7003 21.7107 12.8004 22.0107 12.8004 22.3107C12.8004 22.6107 12.9004 22.8107 12.9004 23.1107C12.9004 24.2107 12.5003 25.2107 11.7003 25.9107C11.0003 26.7107 9.90039 27.1107 8.90039 27.1107Z" fill="#FFC44C"/>
<path d="M44.9007 116.911C44.8007 116.911 44.8006 116.911 44.7006 116.911C33.2006 116.411 22.9007 110.111 17.3007 100.011C8.40073 84.1107 14.1007 63.9107 30.0007 55.0107C35.6007 51.9107 41.7006 50.5107 47.7006 50.8107C49.5006 31.1107 65.9007 16.0107 85.9007 16.0107C96.1007 16.0107 105.801 20.0108 113.001 27.2108C119.101 33.3108 122.901 41.2108 123.901 49.7108C125.401 49.6108 126.901 49.5107 128.401 49.6107C146.601 50.4107 160.801 65.9107 160.001 84.1107C159.201 102.311 143.801 116.411 125.601 115.711L44.9007 116.911ZM46.1007 58.7108C42.0007 58.7108 37.8007 59.7107 33.9007 61.9107C21.8007 68.7107 17.5006 84.0107 24.2006 96.1107C28.5006 103.711 36.2007 108.511 44.9007 108.911L125.501 107.711C125.601 107.711 125.701 107.711 125.701 107.711C139.501 108.311 151.301 97.6107 151.901 83.8107C152.501 70.0107 141.801 58.2107 128.001 57.6107C125.701 57.5107 123.301 57.7107 121.101 58.3107C119.901 58.6107 118.701 58.3107 117.701 57.5107C116.701 56.7107 116.201 55.6107 116.201 54.4107C116.201 46.3107 113.101 38.7107 107.301 32.9107C101.601 27.2107 94.0007 24.0107 85.9007 24.0107C69.9007 24.0107 56.8007 36.3107 55.6007 52.1107C63.6007 54.5107 70.7007 59.8107 75.0007 67.6107C76.1007 69.5107 75.4007 72.0107 73.5007 73.0107C71.6007 74.1107 69.1007 73.4107 68.1007 71.5107C63.5007 63.3107 54.9007 58.7108 46.1007 58.7108Z" fill="#3B404E"/>
</svg>
