<svg width="151" height="104" viewBox="0 0 151 104" fill="none" xmlns="http://www.w3.org/2000/svg">
<path d="M32.2003 103.3C32.1003 103.3 32.0001 103.3 32.0001 103.3C13.4001 102.2 -0.899808 86.1997 0.100192 67.5997C0.600192 58.5997 4.6 50.2998 11.4 44.2998C18.2 38.2998 26.8 35.1998 35.9 35.7998C36 35.7998 36.0002 35.7998 36.1002 35.7998C38.2002 15.0998 56.2999 -0.500315 77.2999 0.599685C96.6999 1.69968 112.1 16.6997 114.1 35.5997C115.6 35.4997 117.2 35.4997 118.8 35.4997C137.4 36.5997 151.7 52.5997 150.7 71.1997C149.7 89.1997 134.7 103.1 116.9 103.1C116.3 103.1 115.7 103.1 115.1 103.1L32.2003 103.3ZM33.7999 43.6997C20.1999 43.6997 8.80009 54.3997 8.00009 68.0997C7.20009 82.2997 18.1003 94.4997 32.2003 95.3997L115 95.1997C115.1 95.1997 115.2 95.1997 115.2 95.1997C129.4 95.9997 141.7 85.0997 142.5 70.8997C143.3 56.6997 132.4 44.3997 118.2 43.5997C115.8 43.4997 113.4 43.6997 111.1 44.1997C109.9 44.4997 108.7 44.1997 107.7 43.3997C106.7 42.5997 106.2 41.4997 106.2 40.1997C106.4 23.3997 93.5003 9.59968 76.7003 8.59968C59.8003 7.59968 45.1999 20.3997 43.7999 37.1997C51.9999 39.6997 59 45.2997 63.4 52.9997C64.5 54.8997 63.8 57.3997 61.9 58.3997C60 59.4997 57.5001 58.7997 56.5001 56.8997C52.2001 49.1997 44.3 44.1997 35.4 43.6997C34.8 43.6997 34.2999 43.6997 33.7999 43.6997Z" fill="#3B404E"/>
</svg>
