<svg width="147" height="140" viewBox="0 0 147 140" fill="none" xmlns="http://www.w3.org/2000/svg">
<path d="M71.8984 111.5C69.6984 111.5 67.8984 109.7 67.8984 107.5V30.5C67.8984 28.3 69.6984 26.5 71.8984 26.5C74.0984 26.5 75.8984 28.3 75.8984 30.5V107.5C75.8984 109.7 74.0984 111.5 71.8984 111.5Z" fill="#57AAFF"/>
<path d="M39.1 93.2002C37.8 93.2002 36.4 92.5003 35.7 91.3003C34.5 89.4003 35.1001 87.0003 37.0001 85.8003L102.6 45.4002C104.5 44.2002 106.9 44.8002 108.1 46.7002C109.3 48.6002 108.7 51.0002 106.8 52.2002L41.2 92.6004C40.5 93.0004 39.8 93.2002 39.1 93.2002Z" fill="#57AAFF"/>
<path d="M104.598 93.2002C103.898 93.2002 103.198 93.0004 102.498 92.6004L36.8985 52.2002C34.9985 51.0002 34.3984 48.6002 35.5984 46.7002C36.7984 44.8002 39.1984 44.2002 41.0984 45.4002L106.698 85.8003C108.598 87.0003 109.198 89.4003 107.998 91.3003C107.298 92.5003 105.998 93.2002 104.598 93.2002Z" fill="#57AAFF"/>
<path d="M71.7992 49.9002C70.7992 49.9002 69.7992 49.5002 68.9992 48.7002L56.3992 36.1004C54.7992 34.5004 54.7992 32.0002 56.3992 30.4002C57.9992 28.8002 60.4992 28.8002 62.0992 30.4002L71.8992 40.2002L81.6991 30.4002C83.2991 28.8002 85.7992 28.8002 87.3992 30.4002C88.9992 32.0002 88.9992 34.5004 87.3992 36.1004L74.7992 48.7002C73.7992 49.6002 72.7992 49.9002 71.7992 49.9002Z" fill="#57AAFF"/>
<path d="M84.3996 108C83.3996 108 82.3995 107.6 81.5995 106.8L71.7996 96.9998L61.9996 106.8C60.3996 108.4 57.8996 108.4 56.2996 106.8C54.6996 105.2 54.6996 102.7 56.2996 101.1L68.8996 88.4998C70.4996 86.8998 72.9995 86.8998 74.5995 88.4998L87.1995 101.1C88.7995 102.7 88.7995 105.2 87.1995 106.8C86.4995 107.6 85.4996 108 84.3996 108Z" fill="#57AAFF"/>
<path d="M108.6 65.4C108.3 65.4 107.9 65.4001 107.6 65.3001L90.3 60.9C88.2 60.4 86.9 58.2002 87.4 56.1002L91.6999 38.8001C92.1999 36.7001 94.3999 35.4 96.5999 35.9C98.6999 36.4 100 38.6001 99.5 40.8001L96.0999 54.2L109.5 57.6002C111.6 58.1002 112.9 60.3001 112.4 62.5001C112 64.1001 110.4 65.4 108.6 65.4Z" fill="#57AAFF"/>
<path d="M47.9989 101.6C47.6989 101.6 47.3989 101.6 46.9989 101.5C44.8989 101 43.5988 98.7997 44.0988 96.5997L47.4989 83.1995L34.0988 79.7996C31.9988 79.2996 30.6988 77.0995 31.1988 74.8995C31.6988 72.7995 33.8988 71.4996 36.0988 71.9996L53.3989 76.3995C55.4989 76.8995 56.7989 79.0995 56.2989 81.1995L51.9989 98.4996C51.3989 100.4 49.7989 101.6 47.9989 101.6Z" fill="#57AAFF"/>
<path d="M95.5999 101.7C93.7999 101.7 92.1999 100.5 91.6999 98.7003L87.4 81.4002C86.9 79.3002 88.2 77.1004 90.3 76.6004L107.6 72.3004C109.7 71.8004 111.9 73.1003 112.5 75.2003C113 77.3003 111.7 79.5004 109.6 80.1004L96.1999 83.5003L99.5 96.9002C100 99.0002 98.6999 101.2 96.5999 101.7C96.1999 101.6 95.8999 101.7 95.5999 101.7Z" fill="#57AAFF"/>
<path d="M34.9992 65.3004C33.1992 65.3004 31.5992 64.1004 31.0992 62.3004C30.5992 60.2004 31.8992 58.0002 33.9992 57.4002L47.3992 54.0003L44.0992 40.6004C43.5992 38.5004 44.8992 36.3004 46.9992 35.8004C49.0992 35.3004 51.2993 36.6003 51.7993 38.7003L56.0992 56.0003C56.5992 58.1003 55.2992 60.3004 53.1992 60.8004L35.8992 65.1004C35.6992 65.3004 35.2992 65.3004 34.9992 65.3004Z" fill="#57AAFF"/>
<path d="M132.999 65.9006C132.099 65.9006 131.199 65.6006 130.499 64.9006C129.099 63.5006 129.099 61.3007 130.499 60.0007L140.899 49.6008C142.299 48.2008 144.499 48.2008 145.799 49.6008C147.199 51.0008 147.199 53.2007 145.799 54.5007L135.399 64.9006C134.799 65.5006 133.899 65.9006 132.999 65.9006Z" fill="#57AAFF"/>
<path d="M143.399 65.9001C142.499 65.9001 141.599 65.6001 140.899 64.9001L130.499 54.5002C129.099 53.1002 129.099 50.9002 130.499 49.5002C131.899 48.1002 134.099 48.1002 135.499 49.5002L145.899 59.9001C147.299 61.3001 147.299 63.5001 145.899 64.9001C145.199 65.5001 144.299 65.9001 143.399 65.9001Z" fill="#57AAFF"/>
<path d="M3.99922 94.9001C3.09922 94.9001 2.19922 94.6001 1.49922 93.9001C0.0992187 92.5001 0.0992187 90.3001 1.49922 88.9001L11.8992 78.5002C13.2992 77.1002 15.4992 77.1002 16.8992 78.5002C18.2992 79.9002 18.2992 82.1002 16.8992 83.5002L6.49922 93.9001C5.79922 94.5001 4.89922 94.9001 3.99922 94.9001Z" fill="#57AAFF"/>
<path d="M14.3992 94.9001C13.4992 94.9001 12.5992 94.6001 11.8992 93.9001L1.49922 83.5002C0.0992187 82.1002 0.0992187 79.9002 1.49922 78.5002C2.89922 77.1002 5.09922 77.1002 6.49922 78.5002L16.8992 88.9001C18.2992 90.3001 18.2992 92.5001 16.8992 93.9001C16.1992 94.5001 15.2992 94.9001 14.3992 94.9001Z" fill="#57AAFF"/>
<path d="M45.9992 17.9001C45.0992 17.9001 44.1992 17.6001 43.4992 16.9001C42.0992 15.5001 42.0992 13.3001 43.4992 11.9001L53.8992 1.5002C55.2992 0.100195 57.4992 0.100195 58.8992 1.5002C60.2992 2.9002 60.2992 5.1002 58.8992 6.5002L48.4992 16.9001C47.7992 17.5001 46.8992 17.9001 45.9992 17.9001Z" fill="#57AAFF"/>
<path d="M56.3992 17.9001C55.4992 17.9001 54.5992 17.6001 53.8992 16.9001L43.4992 6.5002C42.0992 5.1002 42.0992 2.9002 43.4992 1.5002C44.8992 0.100195 47.0992 0.100195 48.4992 1.5002L58.8992 11.9001C60.2992 13.3001 60.2992 15.5001 58.8992 16.9001C58.1992 17.5001 57.2992 17.9001 56.3992 17.9001Z" fill="#57AAFF"/>
<path d="M83.9992 139.9C83.0992 139.9 82.1992 139.6 81.4992 138.9C80.0992 137.5 80.0992 135.3 81.4992 133.9L91.8992 123.5C93.2992 122.1 95.4992 122.1 96.8992 123.5C98.2992 124.9 98.2992 127.1 96.8992 128.5L86.4992 138.9C85.7992 139.5 84.8992 139.9 83.9992 139.9Z" fill="#57AAFF"/>
<path d="M94.3992 139.9C93.4992 139.9 92.5992 139.6 91.8992 138.9L81.4992 128.5C80.0992 127.1 80.0992 124.9 81.4992 123.5C82.8992 122.1 85.0992 122.1 86.4992 123.5L96.8992 133.9C98.2992 135.3 98.2992 137.5 96.8992 138.9C96.1992 139.5 95.2992 139.9 94.3992 139.9Z" fill="#57AAFF"/>
<path d="M104.498 20.9998C103.498 20.9998 102.398 20.5999 101.698 19.7999C101.498 19.5999 101.398 19.3998 101.198 19.1998C101.098 18.9998 100.898 18.6998 100.798 18.4998C100.698 18.2998 100.598 17.9998 100.598 17.6998C100.598 17.3998 100.498 17.1997 100.498 16.8997C100.498 16.5997 100.498 16.3999 100.598 16.0999C100.598 15.7999 100.698 15.5999 100.798 15.2999C100.898 15.0999 100.998 14.7999 101.198 14.5999C101.398 14.3999 101.498 14.1998 101.698 13.9998C102.598 13.0998 103.998 12.5997 105.298 12.8997C105.598 12.8997 105.798 12.9999 106.098 13.0999C106.298 13.1999 106.598 13.2998 106.798 13.4998C106.998 13.5998 107.198 13.7998 107.398 13.9998C107.598 14.1998 107.798 14.3999 107.898 14.5999C107.998 14.7999 108.198 14.9999 108.298 15.2999C108.398 15.4999 108.498 15.7999 108.498 16.0999C108.598 16.2999 108.598 16.5997 108.598 16.8997C108.598 17.1997 108.598 17.3998 108.498 17.6998C108.498 17.8998 108.398 18.1998 108.298 18.4998C108.198 18.6998 108.098 18.9998 107.898 19.1998C107.798 19.3998 107.598 19.5999 107.398 19.7999C107.198 19.9999 106.998 20.1999 106.798 20.2999C106.598 20.4999 106.298 20.5998 106.098 20.6998C105.898 20.7998 105.598 20.8997 105.298 20.8997C104.998 20.9997 104.798 20.9998 104.498 20.9998Z" fill="#57AAFF"/>
<path d="M127.199 102.8C126.099 102.8 125.099 102.4 124.399 101.6C123.699 100.8 123.199 99.7998 123.199 98.7998C123.199 97.6998 123.599 96.6998 124.399 95.9998C125.099 95.2998 126.199 94.7998 127.199 94.7998C128.199 94.7998 129.299 95.1998 129.999 95.9998C130.699 96.6998 131.199 97.7998 131.199 98.7998C131.199 99.7998 130.799 100.9 129.999 101.6C129.299 102.3 128.299 102.8 127.199 102.8Z" fill="#57AAFF"/>
<path d="M48.4984 135C48.1984 135 47.9984 135 47.6984 134.9C47.3984 134.9 47.1984 134.8 46.8984 134.7C46.6984 134.6 46.3984 134.5 46.1984 134.3C45.9984 134.2 45.7984 134 45.5984 133.8C44.8984 133.1 44.3984 132 44.3984 131C44.3984 129.9 44.7984 128.9 45.5984 128.2C45.7984 128 45.9984 127.8 46.1984 127.7C46.3984 127.6 46.5984 127.4 46.8984 127.3C47.0984 127.2 47.3984 127.1 47.6984 127.1C48.9984 126.8 50.3985 127.3 51.2985 128.2C51.9985 128.9 52.4984 130 52.4984 131C52.4984 132.1 52.0985 133.1 51.2985 133.8C50.5985 134.6 49.4984 135 48.4984 135Z" fill="#57AAFF"/>
<path d="M14.8984 37.3997C13.8984 37.3997 12.7984 36.9997 12.0984 36.1997C11.8984 35.9997 11.6984 35.7999 11.5984 35.5999C11.4984 35.3999 11.2984 35.0997 11.1984 34.8997C11.0984 34.6997 10.9984 34.3999 10.9984 34.0999C10.9984 33.8999 10.8984 33.5998 10.8984 33.2998C10.8984 32.2998 11.2984 31.1998 12.0984 30.4998C12.8984 29.7998 13.8984 29.2998 14.8984 29.2998C15.9984 29.2998 16.9984 29.6998 17.6984 30.4998C18.4984 31.2998 18.8984 32.2998 18.8984 33.2998C18.8984 33.5998 18.8985 33.7999 18.7985 34.0999C18.6985 34.3999 18.6984 34.5997 18.5984 34.8997C18.4984 35.0997 18.3984 35.3999 18.1984 35.5999C18.0984 35.7999 17.8984 35.9997 17.6984 36.1997C16.9984 36.8997 15.8984 37.3997 14.8984 37.3997Z" fill="#57AAFF"/>
</svg>
