<svg width="136" height="141" viewBox="0 0 136 141" fill="none" xmlns="http://www.w3.org/2000/svg">
<path d="M68.3984 125.299C66.1984 125.299 64.3984 123.499 64.3984 121.299V31.499C64.3984 29.299 66.1984 27.499 68.3984 27.499C70.5984 27.499 72.3984 29.299 72.3984 31.499V121.299C72.3984 123.499 70.5984 125.299 68.3984 125.299Z" fill="#57AAFF"/>
<path d="M30.1997 103.999C28.8997 103.999 27.4996 103.299 26.7996 102.099C25.5996 100.199 26.1996 97.7989 28.0996 96.5989L104.6 49.4988C106.5 48.2988 108.9 48.8989 110.1 50.7989C111.3 52.6989 110.7 55.0989 108.8 56.2989L32.2996 103.399C31.5996 103.799 30.8997 103.999 30.1997 103.999Z" fill="#57AAFF"/>
<path d="M106.6 103.999C105.9 103.999 105.2 103.799 104.5 103.399L28 56.2989C26.1 55.0989 25.5 52.6989 26.7 50.7989C27.9 48.8989 30.3 48.2988 32.2 49.4988L108.7 96.5989C110.6 97.7989 111.2 100.199 110 102.099C109.3 103.299 108 103.999 106.6 103.999Z" fill="#57AAFF"/>
<path d="M68.3992 53.5989C67.3992 53.5989 66.3992 53.1987 65.5992 52.3987L50.8992 37.6988C49.2992 36.0988 49.2992 33.5988 50.8992 31.9988C52.4992 30.3988 54.9992 30.3988 56.5992 31.9988L68.4992 43.8987L80.3992 31.9988C81.9992 30.3988 84.4992 30.3988 86.0992 31.9988C87.6992 33.5988 87.6992 36.0988 86.0992 37.6988L71.3992 52.3987C70.3992 53.1987 69.3992 53.5989 68.3992 53.5989Z" fill="#57AAFF"/>
<path d="M53.5996 121.199C52.5996 121.199 51.4996 120.799 50.7996 119.999C49.1996 118.399 49.1996 115.899 50.7996 114.299L65.4996 99.5994C67.0996 97.9994 69.5996 97.9994 71.0996 99.5994L85.7996 114.299C87.3996 115.899 87.3996 118.399 85.7996 119.999C84.1996 121.599 81.6996 121.599 80.0996 119.999L68.1996 108.099L56.2996 119.999C55.6996 120.799 54.6996 121.199 53.5996 121.199Z" fill="#57AAFF"/>
<path d="M111.199 71.4991C110.899 71.4991 110.499 71.499 110.199 71.399L89.9992 66.2991C87.8992 65.7991 86.5992 63.5991 87.0992 61.4991L92.0992 41.2991C92.5992 39.1991 94.7992 37.899 96.9992 38.399C99.0992 38.899 100.399 41.0991 99.8992 43.2991L95.7992 59.5992L112.099 63.699C114.199 64.199 115.499 66.3992 114.999 68.5992C114.699 70.2992 112.999 71.4991 111.199 71.4991Z" fill="#57AAFF"/>
<path d="M40.5992 113.799C40.2992 113.799 39.9992 113.799 39.5992 113.699C37.4992 113.199 36.1992 110.999 36.6992 108.799L40.7992 92.4991L24.4992 88.399C22.3992 87.899 21.0992 85.6991 21.5992 83.4991C22.0992 81.3991 24.2992 80.0992 26.4992 80.5992L46.6992 85.6991C48.7992 86.1991 50.0992 88.3991 49.5992 90.4991L44.5992 110.699C43.9992 112.599 42.3992 113.799 40.5992 113.799Z" fill="#57AAFF"/>
<path d="M96.0988 113.799C94.2988 113.799 92.6988 112.599 92.1988 110.799L87.1988 90.5989C86.6988 88.4989 87.9988 86.2989 90.0988 85.7989L110.299 80.6988C112.399 80.1988 114.599 81.4989 115.199 83.5989C115.699 85.6989 114.399 87.8989 112.299 88.4989L95.9988 92.5989L99.9988 108.899C100.499 110.999 99.1988 113.199 97.0988 113.699C96.6988 113.799 96.3988 113.799 96.0988 113.799Z" fill="#57AAFF"/>
<path d="M25.4992 71.4991C23.6992 71.4991 22.0992 70.2991 21.5992 68.4991C21.0992 66.3991 22.3992 64.1992 24.4992 63.5992L40.7992 59.4991L36.7992 43.199C36.2992 41.099 37.5992 38.899 39.6992 38.399C41.7992 37.899 43.9992 39.1991 44.4992 41.2991L49.4992 61.4991C49.9992 63.5991 48.6992 65.7991 46.5992 66.2991L26.3992 71.399C26.0992 71.399 25.7992 71.4991 25.4992 71.4991Z" fill="#57AAFF"/>
<path d="M84.3008 7.99902C83.2008 7.99902 82.2008 7.59907 81.5008 6.79907C80.8008 5.99907 80.3008 4.99902 80.3008 3.99902C80.3008 2.89902 80.7008 1.89897 81.5008 1.19897C82.2008 0.498975 83.3008 -0.000976562 84.3008 -0.000976562C85.3008 -0.000976562 86.4008 0.398975 87.1008 1.19897C87.8008 1.99897 88.3008 2.99902 88.3008 3.99902C88.3008 4.99902 87.9008 6.09907 87.1008 6.79907C86.4008 7.59907 85.3008 7.99902 84.3008 7.99902Z" fill="#57AAFF"/>
<path d="M106.401 29.1985C106.101 29.1985 105.901 29.1987 105.601 29.0987C105.401 28.9987 105.101 28.9985 104.801 28.8985C104.601 28.7985 104.301 28.6986 104.101 28.4986C103.901 28.2986 103.701 28.1986 103.501 27.9986C102.801 27.2986 102.301 26.1985 102.301 25.1985C102.301 24.8985 102.301 24.6985 102.401 24.3985C102.501 24.1985 102.501 23.8987 102.601 23.5987C102.701 23.3987 102.801 23.0985 103.001 22.8985C103.101 22.6985 103.301 22.4986 103.501 22.2986C103.701 22.0986 103.901 21.8986 104.101 21.7986C104.301 21.6986 104.501 21.4985 104.801 21.3985C105.001 21.2985 105.301 21.1985 105.601 21.1985C106.901 20.8985 108.301 21.3986 109.201 22.2986C109.901 22.9986 110.401 24.0987 110.401 25.0987C110.401 26.1987 110.001 27.1985 109.201 27.8985C108.501 28.7985 107.501 29.1985 106.401 29.1985Z" fill="#57AAFF"/>
<path d="M4 80.2985C2.9 80.2985 1.90001 79.8986 1.20001 79.0986C0.500012 78.2986 0 77.2985 0 76.2985C0 75.9985 -2.44156e-05 75.7985 0.0999756 75.4985C0.0999756 75.1985 0.199988 74.9984 0.299988 74.6984C0.399988 74.4984 0.500012 74.1985 0.700012 73.9985C0.800012 73.7985 1.00001 73.5984 1.20001 73.3984C2.10001 72.4984 3.49999 72.0985 4.79999 72.2985C5.09999 72.2985 5.29998 72.3985 5.59998 72.4985C5.79998 72.5985 6.09999 72.6984 6.29999 72.8984C6.49999 72.9984 6.70002 73.1984 6.90002 73.3984C7.10002 73.5984 7.20002 73.7985 7.40002 73.9985C7.50002 74.1985 7.69999 74.3984 7.79999 74.6984C7.89999 74.8984 8 75.1985 8 75.4985C8 75.7985 8.09998 75.9985 8.09998 76.2985C8.09998 76.5985 8.1 76.7986 8 77.0986C7.9 77.3986 7.89999 77.5984 7.79999 77.8984C7.69999 78.0984 7.60002 78.3986 7.40002 78.5986C7.20002 78.7986 7.10002 78.9984 6.90002 79.1984C6.70002 79.3984 6.49999 79.5984 6.29999 79.6984C6.09999 79.7984 5.89998 79.9986 5.59998 80.0986C5.39998 80.1986 5.09999 80.2985 4.79999 80.2985C4.49999 80.1985 4.3 80.2985 4 80.2985Z" fill="#57AAFF"/>
<path d="M15.1 28.0994C14.8 28.0994 14.6 28.0993 14.3 27.9993C14 27.8993 13.8 27.8994 13.5 27.7994C13.3 27.6994 13 27.5992 12.8 27.3992C12.6 27.2992 12.4 27.0992 12.2 26.8992C12 26.6992 11.8 26.4994 11.7 26.2994C11.6 26.0994 11.4 25.8994 11.3 25.5994C11.2 25.3994 11.1 25.0992 11.1 24.8992C11.1 24.5992 11 24.3994 11 24.0994C11 23.7994 11 23.5994 11.1 23.2994C11.2 23.0994 11.2 22.7993 11.3 22.4993C11.4 22.2993 11.5 21.9994 11.7 21.7994C11.8 21.5994 12 21.3993 12.2 21.1993C12.4 20.9993 12.6 20.7993 12.8 20.6993C13 20.4993 13.2 20.3994 13.5 20.2994C13.8 20.1994 14 20.0994 14.3 20.0994C14.8 19.9994 15.3 19.9994 15.9 20.0994C16.2 20.0994 16.4 20.1994 16.7 20.2994C16.9 20.3994 17.2 20.4993 17.4 20.6993C17.6 20.7993 17.8 20.9993 18 21.1993C18.2 21.3993 18.4 21.5994 18.5 21.7994C18.6 21.9994 18.8 22.2993 18.9 22.4993C19 22.6993 19.1 22.9994 19.1 23.2994C19.1 23.5994 19.2 23.7994 19.2 24.0994C19.2 24.3994 19.2 24.5992 19.1 24.8992C19 25.0992 19 25.3994 18.9 25.5994C18.8 25.7994 18.7 26.0994 18.5 26.2994C18.4 26.4994 18.2 26.6992 18 26.8992C17.2 27.6992 16.2 28.0994 15.1 28.0994Z" fill="#57AAFF"/>
<path d="M131.801 120.899C131.501 120.899 131.301 120.899 131.001 120.799C130.801 120.799 130.501 120.699 130.301 120.599C130.101 120.499 129.801 120.399 129.601 120.199C129.401 120.099 129.201 119.899 129.001 119.699C128.801 119.499 128.601 119.299 128.501 119.099C128.401 118.899 128.201 118.599 128.101 118.399C128.001 118.199 127.901 117.899 127.901 117.599C127.801 117.299 127.801 117.099 127.801 116.799C127.801 116.499 127.801 116.299 127.901 115.999C128.001 115.799 128.001 115.499 128.101 115.299C128.201 115.099 128.301 114.799 128.501 114.599C128.601 114.399 128.801 114.199 129.001 113.999C129.201 113.799 129.401 113.699 129.601 113.499C129.801 113.399 130.101 113.199 130.301 113.099C130.501 112.999 130.801 112.899 131.001 112.899C131.501 112.799 132.001 112.799 132.601 112.899C132.801 112.999 133.101 112.999 133.401 113.099C133.601 113.199 133.901 113.299 134.101 113.499C134.301 113.699 134.501 113.799 134.701 113.999C135.401 114.699 135.901 115.799 135.901 116.799C135.901 117.899 135.501 118.899 134.701 119.599C134.501 119.799 134.301 119.999 134.101 120.099C133.901 120.199 133.701 120.399 133.401 120.499C133.201 120.599 132.901 120.699 132.601 120.699C132.301 120.899 132.001 120.899 131.801 120.899Z" fill="#57AAFF"/>
<path d="M40.9008 140.999C40.6008 140.999 40.4008 140.999 40.1008 140.899C39.8008 140.799 39.6008 140.799 39.3008 140.699C39.1008 140.599 38.8008 140.499 38.6008 140.299C38.4008 140.099 38.2008 139.999 38.0008 139.799C37.8008 139.599 37.6008 139.399 37.5008 139.199C37.4008 138.999 37.2008 138.799 37.1008 138.499C37.0008 138.299 36.9008 137.999 36.9008 137.699C36.9008 137.399 36.8008 137.199 36.8008 136.899C36.8008 136.599 36.8008 136.399 36.9008 136.099C37.0008 135.799 37.0008 135.599 37.1008 135.299C37.2008 135.099 37.3008 134.799 37.5008 134.599C37.6008 134.399 37.8008 134.199 38.0008 133.999C38.9008 133.099 40.3008 132.599 41.6008 132.899C41.9008 132.899 42.1008 132.999 42.4008 133.099C42.6008 133.199 42.9008 133.299 43.1008 133.499C43.3008 133.599 43.5008 133.799 43.7008 133.999C43.9008 134.199 44.1008 134.399 44.2008 134.599C44.3008 134.799 44.5008 135.099 44.6008 135.299C44.7008 135.499 44.8008 135.799 44.8008 136.099C44.8008 136.399 44.9008 136.599 44.9008 136.899C44.9008 137.199 44.9008 137.399 44.8008 137.699C44.7008 137.999 44.7008 138.199 44.6008 138.499C44.5008 138.699 44.4008 138.999 44.2008 139.199C44.1008 139.399 43.9008 139.599 43.7008 139.799C43.5008 139.999 43.3008 140.099 43.1008 140.299C42.9008 140.399 42.6008 140.599 42.4008 140.699C42.2008 140.799 41.9008 140.899 41.6008 140.899C41.4008 140.999 41.2008 140.999 40.9008 140.999Z" fill="#57AAFF"/>
</svg>
