<svg width="128" height="119" viewBox="0 0 128 119" fill="none" xmlns="http://www.w3.org/2000/svg">
<path d="M8.59961 25.7622C7.59961 25.7622 6.49962 25.362 5.79962 24.562C5.09962 23.762 4.59961 22.7622 4.59961 21.7622C4.59961 21.4622 4.59965 21.2622 4.69965 20.9622C4.69965 20.6622 4.79966 20.4621 4.89966 20.1621C4.99966 19.9621 5.09962 19.6622 5.29962 19.4622C5.39962 19.2622 5.59962 19.0621 5.79962 18.8621C6.59962 18.1621 7.59961 17.6621 8.59961 17.6621C9.59961 17.6621 10.6997 18.0621 11.3997 18.8621C11.5997 19.0621 11.7997 19.2622 11.8997 19.4622C11.9997 19.6622 12.1996 19.8621 12.2996 20.1621C12.3996 20.3621 12.4996 20.6622 12.4996 20.9622C12.5996 21.2622 12.5996 21.4622 12.5996 21.7622C12.5996 22.8622 12.1997 23.862 11.3997 24.562C10.6997 25.262 9.59961 25.7622 8.59961 25.7622Z" fill="#57AAFF"/>
<path d="M65.0996 118.462C64.0996 118.462 62.9996 118.062 62.2996 117.262C62.0996 117.062 61.8996 116.862 61.7996 116.662C61.6996 116.462 61.4997 116.162 61.3997 115.962C61.2997 115.762 61.1996 115.462 61.1996 115.162C61.1996 114.962 61.0996 114.662 61.0996 114.362C61.0996 114.062 61.0996 113.862 61.1996 113.562C61.2996 113.362 61.2997 113.062 61.3997 112.762C61.4997 112.562 61.5996 112.262 61.7996 112.062C61.8996 111.862 62.0996 111.662 62.2996 111.462C63.0996 110.762 64.0996 110.262 65.0996 110.262C66.1996 110.262 67.1997 110.662 67.8997 111.462C68.0997 111.662 68.2997 111.862 68.3997 112.062C68.4997 112.262 68.6996 112.462 68.7996 112.762C68.8996 112.962 68.9996 113.262 68.9996 113.562C69.0996 113.862 69.0996 114.062 69.0996 114.362C69.0996 114.662 69.0996 114.862 68.9996 115.162C68.8996 115.462 68.8996 115.662 68.7996 115.962C68.6996 116.162 68.5997 116.462 68.3997 116.662C68.2997 116.862 68.0997 117.062 67.8997 117.262C67.1997 118.062 66.1996 118.462 65.0996 118.462Z" fill="#57AAFF"/>
<path d="M115.299 30.0618C114.299 30.0618 113.199 29.6618 112.499 28.8618C112.299 28.6618 112.099 28.462 111.999 28.262C111.799 28.062 111.699 27.7618 111.599 27.5618C111.499 27.3618 111.399 27.062 111.399 26.762C111.299 26.462 111.299 26.2619 111.299 25.9619C111.299 24.8619 111.699 23.8619 112.499 23.1619C113.299 22.3619 114.299 21.9619 115.299 21.9619C116.399 21.9619 117.399 22.3619 118.099 23.1619C118.799 23.8619 119.299 24.9619 119.299 25.9619C119.299 26.2619 119.299 26.462 119.199 26.762C119.199 26.962 119.099 27.2618 118.999 27.5618C118.899 27.7618 118.799 28.062 118.599 28.262C118.499 28.462 118.299 28.6618 118.099 28.8618C117.399 29.6618 116.399 30.0618 115.299 30.0618Z" fill="#57AAFF"/>
<path d="M104.9 104.662C98.7997 104.662 93.0997 102.262 88.6997 98.062C79.6997 89.162 79.5997 74.562 88.4997 65.562L102.2 51.8621C103 51.0621 104 50.6621 105 50.6621C106.1 50.6621 107.1 51.0621 107.8 51.8621L121.2 65.3621C130.2 74.3621 130.2 88.8621 121.2 97.8621C116.9 102.262 111.1 104.662 105 104.662C105 104.662 105 104.662 104.9 104.662ZM105 60.3621L94.1997 71.1621C88.3997 77.0621 88.3997 86.5621 94.2997 92.3621C97.0997 95.1621 100.9 96.6621 104.8 96.6621H104.9C108.9 96.6621 112.6 95.0622 115.5 92.2622C115.5 92.2622 115.5 92.2621 115.5 92.1621C121.3 86.2621 121.3 76.7622 115.5 70.9622L105 60.3621Z" fill="#57AAFF"/>
<path d="M23.8997 104.662C17.7997 104.662 12.0997 102.262 7.6997 98.062C-1.3003 89.162 -1.40032 74.562 7.49968 65.562L21.1997 51.8621C21.9997 51.0621 22.9997 50.6621 23.9997 50.6621C25.0997 50.6621 26.0997 51.0621 26.7997 51.8621L40.1997 65.3621C49.1997 74.3621 49.1997 88.8621 40.1997 97.8621C35.8997 102.262 30.0997 104.662 23.9997 104.662C23.9997 104.662 23.9997 104.662 23.8997 104.662ZM23.9997 60.3621L13.1997 71.1621C7.3997 77.0621 7.39967 86.5621 13.2997 92.3621C16.0997 95.1621 19.8997 96.6621 23.7997 96.6621H23.8997C27.8997 96.6621 31.5997 95.0622 34.4997 92.2622C34.4997 92.2622 34.4997 92.2621 34.4997 92.1621C40.2997 86.2621 40.2997 76.7622 34.4997 70.9622L23.9997 60.3621Z" fill="#57AAFF"/>
<path d="M64.8997 54.9619C58.7997 54.9619 53.0997 52.5618 48.6997 48.3618C39.6997 39.4618 39.5997 24.8618 48.4997 15.8618L62.1997 2.16187C62.9997 1.36187 63.9997 0.961914 64.9997 0.961914C66.0997 0.961914 67.0997 1.36187 67.7997 2.16187L81.1997 15.6619C90.1997 24.6619 90.1997 39.2619 81.1997 48.1619C76.8997 52.5619 71.0997 54.9619 64.9997 54.9619C64.9997 54.9619 64.9997 54.9619 64.8997 54.9619ZM64.9997 10.6619L54.1997 21.4619C48.3997 27.3619 48.3997 36.8619 54.2997 42.6619C57.0997 45.4619 60.8997 46.9619 64.7997 46.9619H64.8997C68.8997 46.9619 72.6997 45.3619 75.4997 42.4619C81.2997 36.5619 81.2997 27.062 75.4997 21.262L64.9997 10.6619Z" fill="#57AAFF"/>
</svg>
