<?xml version="1.0" encoding="utf-8"?>
<!-- Generator: Adobe Illustrator 27.6.1, SVG Export Plug-In . SVG Version: 6.00 Build 0)  -->
<svg version="1.1" id="Capa_1" xmlns="http://www.w3.org/2000/svg" xmlns:xlink="http://www.w3.org/1999/xlink" x="0px" y="0px"
	 viewBox="0 0 186.2 120.1" style="enable-background:new 0 0 186.2 120.1;" xml:space="preserve">
<style type="text/css">
	.st0{fill:#3B404E;}
	.st1{fill:#FFFFFF;}
</style>
<path class="st0" d="M65,108c-0.1,0-0.2,0-0.2,0c-18.6-1.1-32.9-17.1-31.9-35.7c0.5-9,4.5-17.3,11.3-23.3s15.4-9.1,24.5-8.5
	c0.1,0,0.1,0,0.2,0C71,19.8,89.1,4.2,110.1,5.3c19.4,1.1,34.8,16.1,36.8,35c1.5-0.1,3.1-0.1,4.7-0.1c18.6,1.1,32.9,17.1,31.9,35.7
	c-1,18-16,31.9-33.8,31.9c-0.6,0-1.2,0-1.8,0L65,108z"/>
<path class="st1" d="M37.4,112.7c-0.1,0-0.2,0-0.2,0c-17.4-1-30.8-16-29.9-33.5c0.5-8.4,4.2-16.2,10.6-21.8s14.4-8.5,23-8
	c0.1,0,0.1,0,0.2,0c2-19.4,18.9-34,38.6-33c18.2,1,32.6,15.1,34.5,32.8c1.4-0.1,2.9-0.1,4.4-0.1c17.4,1,30.8,16,29.9,33.5
	c-0.9,16.9-15,29.9-31.7,29.9c-0.6,0-1.1,0-1.7,0L37.4,112.7z"/>
<path class="st0" d="M34.7,115.9c-0.1,0-0.2,0-0.2,0C15.9,114.8,1.6,98.8,2.6,80.2c0.5-9,4.5-17.3,11.3-23.3s15.4-9.1,24.5-8.5
	c0.1,0,0.1,0,0.2,0c2.1-20.7,20.2-36.3,41.2-35.2c19.4,1.1,34.8,16.1,36.8,35c1.5-0.1,3.1-0.1,4.7-0.1c18.6,1.1,32.9,17.1,31.9,35.7
	c-1,18-16,31.9-33.8,31.9c-0.6,0-1.2,0-1.8,0L34.7,115.9z M36.3,56.3c-13.6,0-25,10.7-25.8,24.4C9.7,94.9,20.6,107.1,34.7,108
	l82.8-0.2c0.1,0,0.2,0,0.2,0c14.2,0.8,26.5-10.1,27.3-24.3S134.9,57,120.7,56.2c-2.4-0.1-4.8,0.1-7.1,0.6c-1.2,0.3-2.4,0-3.4-0.8
	s-1.5-1.9-1.5-3.2C108.9,36,96,22.2,79.2,21.2c-16.9-1-31.5,11.8-32.9,28.6c8.2,2.5,15.2,8.1,19.6,15.8c1.1,1.9,0.4,4.4-1.5,5.4
	c-1.9,1.1-4.4,0.4-5.4-1.5c-4.3-7.7-12.2-12.7-21.1-13.2C37.3,56.3,36.8,56.3,36.3,56.3z"/>
</svg>
