<svg width="127" height="128" viewBox="0 0 127 128" fill="none" xmlns="http://www.w3.org/2000/svg">
<path d="M122.4 68.199C121.3 68.199 120.3 67.799 119.6 66.999C118.8 66.199 118.4 65.199 118.4 64.199C118.4 63.899 118.4 63.699 118.5 63.399C118.6 63.099 118.6 62.899 118.7 62.599C118.8 62.399 118.9 62.099 119.1 61.899C119.2 61.699 119.4 61.499 119.6 61.299C120.5 60.399 121.9 59.899 123.2 60.199C123.4 60.299 123.7 60.299 124 60.399C124.2 60.499 124.5 60.599 124.7 60.799C124.9 60.899 125.1 61.099 125.3 61.299C125.5 61.499 125.7 61.699 125.8 61.899C125.9 62.099 126.1 62.299 126.2 62.599C126.3 62.799 126.4 63.099 126.4 63.399C126.4 63.599 126.5 63.899 126.5 64.199C126.5 64.499 126.5 64.699 126.4 64.999C126.4 65.199 126.3 65.499 126.2 65.799C126.1 65.999 126 66.299 125.8 66.499C125.7 66.699 125.5 66.899 125.3 67.099C124.5 67.799 123.4 68.199 122.4 68.199Z" fill="#FFC44C"/>
<path d="M63.1996 8.99919C62.8996 8.99919 62.6997 8.99922 62.3997 8.89922C62.0997 8.89922 61.8996 8.79921 61.5996 8.69921C61.3996 8.59921 61.0997 8.49918 60.8997 8.29918C60.6997 8.19918 60.4996 7.99918 60.2996 7.79918C60.0996 7.59918 59.9996 7.39921 59.7996 7.19921C59.6996 6.99921 59.4997 6.79919 59.3997 6.49919C59.2997 6.29919 59.1996 5.99921 59.1996 5.69921C59.1996 5.39921 59.0996 5.19922 59.0996 4.89922C59.0996 4.59922 59.0996 4.39917 59.1996 4.09917C59.2996 3.79917 59.2997 3.59918 59.3997 3.29918C59.4997 3.09918 59.5996 2.79917 59.7996 2.59917C59.9996 2.39917 60.0996 2.19919 60.2996 1.99919C60.4996 1.79919 60.6997 1.59919 60.8997 1.49919C61.0997 1.39919 61.2996 1.19917 61.5996 1.09917C61.7996 0.99917 62.0997 0.899219 62.3997 0.899219C62.8997 0.799219 63.3996 0.799219 63.9996 0.899219C64.2996 0.899219 64.4996 0.99917 64.7996 1.09917C64.9996 1.19917 65.2996 1.29919 65.4996 1.49919C65.6996 1.59919 65.8996 1.79919 66.0996 1.99919C66.2996 2.19919 66.4996 2.39917 66.5996 2.59917C66.6996 2.79917 66.8996 3.09918 66.9996 3.29918C67.0996 3.49918 67.1996 3.79917 67.1996 4.09917C67.2996 4.39917 67.2996 4.59922 67.2996 4.89922C67.2996 5.19922 67.2996 5.39921 67.1996 5.69921C67.1996 5.99921 67.0996 6.19919 66.9996 6.49919C66.8996 6.69919 66.7996 6.99921 66.5996 7.19921C66.4996 7.39921 66.2996 7.59918 66.0996 7.79918C65.8996 7.99918 65.6996 8.09918 65.4996 8.29918C65.2996 8.39918 64.9996 8.59921 64.7996 8.69921C64.5996 8.79921 64.2996 8.89922 63.9996 8.89922C63.6996 8.99922 63.4996 8.99919 63.1996 8.99919Z" fill="#FFC44C"/>
<path d="M63.1992 127.399C62.1992 127.399 61.0992 126.999 60.3992 126.199C59.6992 125.499 59.1992 124.399 59.1992 123.399C59.1992 123.099 59.1992 122.899 59.2992 122.599C59.3992 122.399 59.3992 122.099 59.4992 121.899C59.5992 121.699 59.6992 121.399 59.8992 121.199C60.0992 120.999 60.1992 120.799 60.3992 120.599C61.0992 119.799 62.1992 119.399 63.1992 119.399C64.2992 119.399 65.2992 119.799 65.9992 120.599C66.1992 120.799 66.3992 120.999 66.4992 121.199C66.5992 121.399 66.7992 121.699 66.8992 121.899C66.9992 122.099 67.0992 122.399 67.0992 122.599C67.1992 122.899 67.1992 123.099 67.1992 123.399C67.1992 124.399 66.7992 125.499 65.9992 126.199C65.2992 126.999 64.1992 127.399 63.1992 127.399Z" fill="#FFC44C"/>
<path d="M4 68.199C2.9 68.199 1.90001 67.799 1.20001 66.999C0.500012 66.199 0 65.199 0 64.199C0 63.899 -2.44156e-05 63.699 0.0999756 63.399C0.0999756 63.099 0.199988 62.899 0.299988 62.599C0.399988 62.399 0.500012 62.099 0.700012 61.899C0.800012 61.699 1.00001 61.499 1.20001 61.299C2.10001 60.399 3.49999 59.899 4.79999 60.199C5.09999 60.299 5.29998 60.299 5.59998 60.399C5.79998 60.499 6.09999 60.599 6.29999 60.799C6.49999 60.899 6.70002 61.099 6.90002 61.299C7.10002 61.499 7.20002 61.699 7.40002 61.899C7.50002 62.099 7.69999 62.299 7.79999 62.599C7.89999 62.799 8 63.099 8 63.399C8 63.599 8.09998 63.899 8.09998 64.199C8.09998 65.299 7.70002 66.299 6.90002 66.999C6.70002 67.199 6.49999 67.399 6.29999 67.499C6.09999 67.599 5.89998 67.799 5.59998 67.899C5.39998 67.999 5.09999 68.099 4.79999 68.099C4.49999 68.199 4.3 68.199 4 68.199Z" fill="#FFC44C"/>
<path d="M105.1 26.299C104 26.299 103 25.899 102.3 25.099C102.1 24.899 101.9 24.699 101.8 24.499C101.7 24.299 101.5 23.999 101.4 23.799C101.3 23.599 101.2 23.299 101.2 22.999C101.1 22.699 101.1 22.499 101.1 22.199C101.1 21.899 101.1 21.699 101.2 21.399C101.3 21.099 101.3 20.899 101.4 20.599C101.5 20.399 101.6 20.099 101.8 19.899C101.9 19.699 102.1 19.499 102.3 19.299C103.2 18.399 104.6 17.899 105.9 18.199C106.1 18.199 106.4 18.299 106.7 18.399C107 18.499 107.2 18.599 107.4 18.799C107.6 18.899 107.8 19.099 108 19.299C108.2 19.499 108.4 19.699 108.5 19.899C108.6 20.099 108.8 20.299 108.9 20.599C109 20.799 109.1 21.099 109.1 21.399C109.1 21.599 109.2 21.899 109.2 22.199C109.2 22.499 109.2 22.699 109.1 22.999C109 23.299 109 23.499 108.9 23.799C108.8 23.999 108.7 24.299 108.5 24.499C108.4 24.699 108.2 24.899 108 25.099C107.8 25.299 107.6 25.499 107.4 25.599C107.2 25.799 107 25.899 106.7 25.999C106.4 26.099 106.2 26.199 105.9 26.199C105.6 26.299 105.3 26.299 105.1 26.299Z" fill="#FFC44C"/>
<path d="M21.3008 110.099C20.2008 110.099 19.2008 109.699 18.5008 108.899C18.3008 108.699 18.1008 108.499 18.0008 108.299C17.9008 108.099 17.7008 107.899 17.6008 107.599C17.5008 107.399 17.4008 107.099 17.4008 106.799C17.3008 106.499 17.3008 106.299 17.3008 105.999C17.3008 105.699 17.3008 105.499 17.4008 105.199C17.4008 104.999 17.5008 104.699 17.6008 104.499C17.7008 104.299 17.8008 103.999 18.0008 103.799C18.1008 103.599 18.3008 103.399 18.5008 103.199C19.4008 102.299 20.8008 101.799 22.1008 102.099C22.3008 102.099 22.6008 102.199 22.9008 102.299C23.1008 102.399 23.4008 102.499 23.6008 102.699C23.8008 102.799 24.0008 102.999 24.2008 103.199C24.9008 103.899 25.4008 104.999 25.4008 105.999C25.4008 107.099 25.0008 108.099 24.2008 108.799C24.0008 108.999 23.8008 109.199 23.6008 109.299C23.4008 109.399 23.1008 109.599 22.9008 109.699C22.7008 109.799 22.4008 109.899 22.1008 109.899C21.9008 109.999 21.6008 110.099 21.3008 110.099Z" fill="#FFC44C"/>
<path d="M105.1 110.099C104 110.099 103 109.699 102.3 108.899C102.1 108.699 101.9 108.499 101.8 108.299C101.7 108.099 101.5 107.899 101.4 107.599C101.3 107.399 101.2 107.099 101.2 106.799C101.1 106.499 101.1 106.299 101.1 105.999C101.1 105.699 101.1 105.499 101.2 105.199C101.3 104.999 101.3 104.699 101.4 104.499C101.5 104.299 101.6 103.999 101.8 103.799C101.9 103.599 102.1 103.399 102.3 103.199C103.2 102.299 104.6 101.799 105.9 102.099C106.1 102.099 106.4 102.199 106.7 102.299C107 102.399 107.2 102.499 107.4 102.699C107.6 102.799 107.8 102.999 108 103.199C108.2 103.399 108.4 103.599 108.5 103.799C108.6 103.999 108.8 104.199 108.9 104.499C109 104.699 109.1 104.999 109.1 105.199C109.1 105.499 109.2 105.699 109.2 105.999C109.2 106.299 109.2 106.499 109.1 106.799C109 106.999 109 107.299 108.9 107.599C108.8 107.799 108.7 108.099 108.5 108.299C108.4 108.499 108.2 108.699 108 108.899C107.8 109.099 107.6 109.299 107.4 109.399C107.2 109.499 107 109.699 106.7 109.799C106.4 109.899 106.2 109.999 105.9 109.999C105.6 109.999 105.3 110.099 105.1 110.099Z" fill="#FFC44C"/>
<path d="M21.3008 26.299C20.2008 26.299 19.2008 25.899 18.5008 25.099C18.3008 24.899 18.1008 24.699 18.0008 24.499C17.9008 24.299 17.7008 23.999 17.6008 23.799C17.5008 23.599 17.4008 23.299 17.4008 22.999C17.3008 22.699 17.3008 22.499 17.3008 22.199C17.3008 21.899 17.3008 21.699 17.4008 21.399C17.4008 21.099 17.5008 20.899 17.6008 20.599C17.7008 20.399 17.8008 20.099 18.0008 19.899C18.1008 19.699 18.3008 19.499 18.5008 19.299C19.4008 18.399 20.8008 17.899 22.1008 18.199C22.3008 18.199 22.6008 18.299 22.9008 18.399C23.1008 18.499 23.4008 18.599 23.6008 18.799C23.8008 18.899 24.0008 19.099 24.2008 19.299C24.9008 19.999 25.4008 21.099 25.4008 22.099C25.4008 23.199 25.0008 24.199 24.2008 24.899C24.0008 25.099 23.8008 25.299 23.6008 25.399C23.4008 25.599 23.1008 25.699 22.9008 25.799C22.7008 25.899 22.4008 25.999 22.1008 25.999C21.9008 26.299 21.6008 26.299 21.3008 26.299Z" fill="#FFC44C"/>
<path d="M63.2004 104.499C41.0004 104.499 22.9004 86.3994 22.9004 64.1994C22.9004 41.9994 41.0004 23.8994 63.2004 23.8994C85.4004 23.8994 103.5 41.9994 103.5 64.1994C103.5 86.3994 85.4004 104.499 63.2004 104.499ZM63.2004 31.8994C45.4004 31.8994 30.9004 46.3994 30.9004 64.1994C30.9004 81.9994 45.4004 96.4994 63.2004 96.4994C81.0004 96.4994 95.5004 81.9994 95.5004 64.1994C95.5004 46.3994 81.0004 31.8994 63.2004 31.8994Z" fill="#FFC44C"/>
</svg>
