<svg width="153" height="121" viewBox="0 0 153 121" fill="none" xmlns="http://www.w3.org/2000/svg">
<path d="M118 102.4C117.5 102.4 117 102.4 116.5 102.4C114.3 102.3 112.6 100.4 112.7 98.2002C112.8 96.0002 114.6 94.3002 116.9 94.4002C131.2 95.0002 143.3 83.9002 143.9 69.7002C144.2 62.8002 141.8 56.2004 137.1 51.1004C132.4 46.0004 126 43.0002 119.1 42.7002C116.7 42.6002 114.3 42.8002 112 43.4002C110.8 43.7002 109.6 43.4004 108.6 42.6004C107.6 41.8004 107.1 40.7003 107.1 39.5003C107.1 22.7003 94.0002 8.90023 77.2002 8.20023C68.9002 7.80023 60.8002 10.7002 54.7002 16.4002C48.6002 22.1002 44.9004 29.8004 44.6004 38.1004L44.5003 40.6004C44.4003 42.8004 42.5003 44.5002 40.3003 44.4002C38.1003 44.3002 36.4003 42.4002 36.5003 40.2002L36.6004 37.7002C37.1004 27.2002 41.6003 17.5002 49.3003 10.4002C57.0003 3.30018 67.1004 -0.299623 77.6004 0.100377C97.1004 1.00038 112.7 15.8002 114.9 34.7002C116.5 34.6002 118 34.5004 119.6 34.6004C138.3 35.4004 152.8 51.3003 152 70.0003C151.1 88.1003 136 102.4 118 102.4Z" fill="#3B404E"/>
<path d="M33.6004 103.501C33.5004 103.501 33.5002 103.501 33.4002 103.501C14.7002 102.701 0.200324 86.8007 1.00032 68.1007C1.80032 49.4007 17.7002 34.9005 36.4002 35.7005C48.0002 36.2005 58.5004 42.5007 64.3004 52.6007C65.4004 54.5007 64.7004 57.0007 62.8004 58.1007C60.9004 59.2007 58.4004 58.5007 57.3004 56.6007C52.9004 48.9007 44.9003 44.0005 36.0003 43.7005C21.7003 43.1005 9.60023 54.2005 8.90023 68.4005C8.30023 82.7005 19.4004 94.8005 33.6004 95.4005C35.8004 95.5005 37.5002 97.4007 37.4002 99.6007C37.5002 101.901 35.7004 103.501 33.6004 103.501Z" fill="#3B404E"/>
<path d="M84.5999 120.2C83.1999 120.2 81.8999 119.5 81.0999 118.2L61.8997 85.3997C60.7997 83.4997 61.3999 80.9997 63.2999 79.8997C65.1999 78.7997 67.6999 79.3999 68.7999 81.2999L87.9998 114.1C89.0998 116 88.4999 118.5 86.5999 119.6C85.9999 120.1 85.2999 120.2 84.5999 120.2Z" fill="#57AAFF"/>
<path d="M65.3988 120.199C64.6988 120.199 63.9988 119.999 63.3988 119.699C61.4988 118.599 60.7989 116.099 61.9989 114.199L81.1989 81.3993C82.2989 79.4993 84.7989 78.8994 86.6989 79.9994C88.5989 81.0994 89.199 83.5994 88.099 85.4994L68.8988 118.299C68.0988 119.499 66.7988 120.199 65.3988 120.199Z" fill="#57AAFF"/>
<path d="M94 103.8H56C53.8 103.8 52 102 52 99.7998C52 97.5998 53.8 95.7998 56 95.7998H94C96.2 95.7998 98 97.5998 98 99.7998C98 102 96.2 103.8 94 103.8Z" fill="#57AAFF"/>
</svg>
