<svg width="149" height="134" viewBox="0 0 149 134" fill="none" xmlns="http://www.w3.org/2000/svg">
<path d="M115.201 100.1C114.701 100.1 114.201 100.1 113.701 100.1C111.501 100 109.801 98.0998 109.901 95.8998C110.001 93.6999 111.802 92 114.102 92.1C128.002 92.7 139.801 81.9 140.401 68.1C141.001 54.2 130.201 42.5 116.401 41.8C114.101 41.7 111.701 41.8999 109.501 42.4999C108.301 42.7999 107.102 42.4999 106.102 41.6999C105.102 40.8999 104.602 39.8 104.602 38.6C104.602 22.3 91.8015 8.8999 75.5015 8.1999C58.7015 7.3999 44.5014 20.5 43.7014 37.3L43.6016 39.6999L35.6016 39.3998L35.7014 36.9999C36.6014 15.7999 54.6015 -0.700004 75.8015 0.299997C94.8015 1.1 110.102 15.6 112.302 34.1C113.802 34 115.302 33.8999 116.802 33.9999C135.102 34.7999 149.301 50.3 148.501 68.6C148.101 77.5 144.301 85.6 137.701 91.6C131.401 97 123.601 100.1 115.201 100.1Z" fill="#3B404E"/>
<path d="M32.9009 101.2C32.8009 101.2 32.8009 101.2 32.7009 101.2C14.4009 100.4 0.20096 84.8998 1.00096 66.5998C1.40096 57.6998 5.20101 49.5998 11.801 43.5998C18.301 37.5998 26.8009 34.4996 35.7009 34.8996C47.1009 35.3996 57.301 41.5997 63.001 51.4997C64.101 53.3997 63.401 55.8997 61.501 56.9997C59.601 58.0997 57.101 57.3997 56.001 55.4997C51.701 47.9997 43.901 43.2996 35.301 42.8996C28.601 42.5996 22.1009 44.8997 17.2009 49.4997C12.2009 53.9997 9.30096 60.1997 9.00096 66.9997C8.40096 80.8997 19.201 92.6998 33.001 93.2998C35.201 93.3998 36.901 95.2997 36.801 97.4997C36.801 99.4997 35.0009 101.2 32.9009 101.2Z" fill="#3B404E"/>
<path d="M115.1 133.2C114.8 133.2 114.4 133.2 114.1 133.1C113.8 133 113.5 132.9 113.2 132.8C112.9 132.7 112.6 132.5 112.3 132.3C112 132.1 111.8 131.9 111.5 131.7C111.3 131.5 111.1 131.2 110.9 130.9C110.7 130.6 110.6 130.3 110.4 130C110.3 129.7 110.2 129.4 110.1 129.1C110 128.8 110 128.5 110 128.1C110 127.8 110 127.5 110.1 127.1C110.2 126.8 110.3 126.5 110.4 126.2C110.5 125.9 110.7 125.6 110.9 125.3C111.1 125 111.3 124.8 111.5 124.5C111.7 124.3 112 124.1 112.3 123.9C112.6 123.7 112.9 123.6 113.2 123.4C113.5 123.3 113.8 123.2 114.1 123.1C114.7 123 115.4 123 116.1 123.1C116.4 123.2 116.7 123.3 117 123.4C117.3 123.5 117.6 123.7 117.9 123.9C118.2 124.1 118.4 124.3 118.7 124.5C118.9 124.7 119.1 125 119.3 125.3C119.5 125.6 119.6 125.9 119.8 126.2C119.9 126.5 120 126.8 120.1 127.1C120.2 127.4 120.2 127.7 120.2 128.1C120.2 128.4 120.2 128.8 120.1 129.1C120 129.4 119.9 129.7 119.8 130C119.7 130.3 119.5 130.6 119.3 130.9C119.1 131.2 118.9 131.4 118.7 131.7C118.5 131.9 118.2 132.1 117.9 132.3C117.6 132.5 117.3 132.6 117 132.8C116.7 132.9 116.4 133 116.1 133.1C115.8 133.2 115.4 133.2 115.1 133.2Z" fill="#57AAFF"/>
<path d="M35.0005 133.2C34.7005 133.2 34.3005 133.2 34.0005 133.1C33.7005 133 33.4006 132.9 33.1006 132.8C32.8006 132.7 32.5004 132.5 32.2004 132.3C31.9004 132.1 31.7004 131.9 31.4004 131.7C31.2004 131.5 30.9005 131.2 30.8005 130.9C30.7005 130.6 30.5005 130.3 30.3005 130C30.2005 129.7 30.1005 129.4 30.0005 129.1C29.9005 128.8 29.9004 128.5 29.9004 128.1C29.9004 126.8 30.4004 125.5 31.4004 124.6C31.6004 124.4 31.9004 124.2 32.2004 124C32.5004 123.8 32.8006 123.7 33.1006 123.5C33.4006 123.4 33.7005 123.3 34.0005 123.2C35.6005 122.9 37.4005 123.4 38.5005 124.6C39.4005 125.5 40.0005 126.8 40.0005 128.1C40.0005 128.4 40.0004 128.8 39.9004 129.1C39.8004 129.4 39.7006 129.7 39.6006 130C39.5006 130.3 39.3006 130.6 39.1006 130.9C38.9006 131.2 38.7005 131.4 38.5005 131.7C37.6005 132.7 36.3005 133.2 35.0005 133.2Z" fill="#57AAFF"/>
<path d="M75.0005 95.5003C74.7005 95.5003 74.3005 95.5002 74.0005 95.4002C73.7005 95.3002 73.4006 95.2004 73.1006 95.1004C72.8006 95.0004 72.5004 94.8004 72.2004 94.6004C71.9004 94.4004 71.7004 94.2003 71.4004 94.0003C71.2004 93.8003 71.0005 93.5002 70.8005 93.2002C70.6005 92.9002 70.5005 92.6003 70.3005 92.3003C70.2005 92.0003 70.1005 91.7002 70.0005 91.4002C69.9005 91.1002 69.9004 90.8002 69.9004 90.4002C69.9004 90.1002 69.9005 89.8002 70.0005 89.4002C70.1005 89.1002 70.2005 88.8003 70.3005 88.5003C70.4005 88.2003 70.6005 87.9004 70.8005 87.6004C71.0005 87.3004 71.2004 87.1003 71.4004 86.8003C71.6004 86.6003 71.9004 86.4002 72.2004 86.2002C72.5004 86.0002 72.8006 85.9002 73.1006 85.7002C73.4006 85.6002 73.7005 85.5002 74.0005 85.4002C74.6005 85.3002 75.3005 85.3002 76.0005 85.4002C76.3005 85.5002 76.6004 85.6002 76.9004 85.7002C77.2004 85.8002 77.5005 86.0002 77.8005 86.2002C78.1005 86.4002 78.3006 86.6003 78.6006 86.8003C78.8006 87.0003 79.0004 87.3004 79.2004 87.6004C79.4004 87.9004 79.5004 88.2003 79.7004 88.5003C79.8004 88.8003 79.9005 89.1002 80.0005 89.4002C80.1005 89.7002 80.1006 90.0002 80.1006 90.4002C80.1006 90.7002 80.1005 91.1002 80.0005 91.4002C79.9005 91.7002 79.8004 92.0003 79.7004 92.3003C79.6004 92.6003 79.4004 92.9002 79.2004 93.2002C79.0004 93.5002 78.8006 93.7003 78.6006 94.0003C78.4006 94.2003 78.1005 94.4004 77.8005 94.6004C77.5005 94.8004 77.2004 94.9004 76.9004 95.1004C76.6004 95.2004 76.3005 95.3002 76.0005 95.4002C75.7005 95.5002 75.4005 95.5003 75.0005 95.5003Z" fill="#57AAFF"/>
<path d="M75.0005 133.2C74.7005 133.2 74.3005 133.2 74.0005 133.1C73.7005 133 73.4006 132.9 73.1006 132.8C72.8006 132.7 72.5004 132.5 72.2004 132.3C71.9004 132.1 71.7004 131.9 71.4004 131.7C71.2004 131.5 71.0005 131.2 70.8005 130.9C70.6005 130.6 70.5005 130.3 70.3005 130C70.2005 129.7 70.1005 129.4 70.0005 129.1C69.9005 128.8 69.9004 128.5 69.9004 128.1C69.9004 127.8 69.9005 127.5 70.0005 127.1C70.1005 126.8 70.2005 126.5 70.3005 126.2C70.4005 125.9 70.6005 125.6 70.8005 125.3C71.0005 125 71.2004 124.8 71.4004 124.5C71.6004 124.3 71.9004 124.1 72.2004 123.9C72.5004 123.7 72.8006 123.6 73.1006 123.4C73.4006 123.3 73.7005 123.2 74.0005 123.1C74.6005 123 75.3005 123 76.0005 123.1C76.3005 123.2 76.6004 123.3 76.9004 123.4C77.2004 123.5 77.5005 123.7 77.8005 123.9C78.1005 124.1 78.3006 124.3 78.6006 124.5C78.8006 124.7 79.0004 125 79.2004 125.3C79.4004 125.6 79.5004 125.9 79.7004 126.2C79.8004 126.5 79.9005 126.8 80.0005 127.1C80.1005 127.4 80.1006 127.8 80.1006 128.1C80.1006 128.4 80.1005 128.8 80.0005 129.1C79.9005 129.4 79.8004 129.7 79.7004 130C79.6004 130.3 79.4004 130.6 79.2004 130.9C79.0004 131.2 78.8006 131.4 78.6006 131.7C78.4006 131.9 78.1005 132.1 77.8005 132.3C77.5005 132.5 77.2004 132.6 76.9004 132.8C76.6004 132.9 76.3005 133 76.0005 133.1C75.7005 133.2 75.4005 133.2 75.0005 133.2Z" fill="#57AAFF"/>
<path d="M95.1016 113.701C93.8016 113.701 92.5016 113.201 91.6016 112.201C91.4016 112.001 91.2015 111.7 91.0015 111.4C90.8015 111.1 90.7015 110.801 90.5015 110.501C90.4015 110.201 90.3014 109.901 90.2014 109.601C90.1014 109.301 90.1016 109.001 90.1016 108.601C90.1016 108.301 90.1014 108.001 90.2014 107.601C90.3014 107.301 90.4015 107.001 90.5015 106.701C90.6015 106.401 90.8015 106.101 91.0015 105.801C91.2015 105.501 91.4016 105.301 91.6016 105.001C92.8016 103.801 94.5016 103.301 96.1016 103.601C96.4016 103.701 96.7015 103.8 97.0015 103.9C97.3015 104 97.6014 104.2 97.9014 104.4C98.2014 104.6 98.4014 104.801 98.7014 105.001C98.9014 105.201 99.1015 105.501 99.3015 105.801C99.5015 106.101 99.6015 106.401 99.8015 106.701C99.9015 107.001 100.002 107.301 100.102 107.601C100.202 107.901 100.201 108.201 100.201 108.601C100.201 108.901 100.202 109.301 100.102 109.601C100.002 109.901 99.9015 110.201 99.8015 110.501C99.7015 110.801 99.5015 111.1 99.3015 111.4C99.1015 111.7 98.9014 111.901 98.7014 112.201C98.5014 112.401 98.2014 112.601 97.9014 112.801C97.6014 113.001 97.3015 113.101 97.0015 113.301C96.7015 113.401 96.4016 113.501 96.1016 113.601C95.7016 113.701 95.4016 113.701 95.1016 113.701Z" fill="#57AAFF"/>
<path d="M55.0005 113.7C54.7005 113.7 54.3005 113.7 54.0005 113.6C53.7005 113.5 53.4006 113.4 53.1006 113.3C52.8006 113.2 52.5004 113 52.2004 112.8C51.9004 112.6 51.7004 112.4 51.4004 112.2C51.2004 112 51.0005 111.7 50.8005 111.4C50.6005 111.1 50.5005 110.8 50.3005 110.5C50.2005 110.2 50.1005 109.9 50.0005 109.6C49.9005 109.3 49.9004 109 49.9004 108.6C49.9004 107.3 50.4004 106 51.4004 105.1C51.6004 104.9 51.9004 104.7 52.2004 104.5C52.5004 104.3 52.8006 104.2 53.1006 104C53.4006 103.9 53.7005 103.8 54.0005 103.7C54.6005 103.6 55.3005 103.6 56.0005 103.7C56.3005 103.8 56.6004 103.9 56.9004 104C57.2004 104.1 57.5005 104.3 57.8005 104.5C58.1005 104.7 58.3006 104.9 58.6006 105.1C59.5006 106 60.1006 107.3 60.1006 108.6C60.1006 108.9 60.1005 109.3 60.0005 109.6C59.9005 109.9 59.8004 110.2 59.7004 110.5C59.6004 110.8 59.4004 111.1 59.2004 111.4C59.0004 111.7 58.8006 111.9 58.6006 112.2C58.4006 112.4 58.1005 112.6 57.8005 112.8C57.5005 113 57.2004 113.1 56.9004 113.3C56.6004 113.4 56.3005 113.5 56.0005 113.6C55.7005 113.7 55.3005 113.7 55.0005 113.7Z" fill="#57AAFF"/>
</svg>
