<svg width="147" height="131" viewBox="0 0 147 131" fill="none" xmlns="http://www.w3.org/2000/svg">
<path d="M121.101 97.5103C119.301 97.5103 117.701 96.3103 117.201 94.6104C116.601 92.5104 117.901 90.3104 120.001 89.7104C126.401 87.9104 131.701 83.8103 134.901 78.1104C138.201 72.4104 139.001 65.7103 137.201 59.3103C133.601 46.4103 120.701 38.8103 107.701 41.8103C106.501 42.1103 105.301 41.8104 104.301 41.1104C103.301 40.3104 102.801 39.2103 102.801 38.0103C102.701 21.5103 89.3007 8.21045 72.9007 8.21045H72.8007C56.9007 8.31045 43.8007 20.8104 43.0007 36.7104L42.9007 39.0103C42.8007 41.2103 41.0006 42.9103 38.7006 42.8103C36.5006 42.7103 34.8007 40.8104 34.9007 38.6104L35.0007 36.2104C36.0007 16.0104 52.6006 0.210352 72.7006 0.110352H72.8007C92.1007 0.110352 108.001 14.6104 110.401 33.2104C126.001 31.8104 140.601 41.6104 144.901 57.1104C147.201 65.5104 146.101 74.4103 141.801 82.0103C137.501 89.6103 130.501 95.1104 122.101 97.4104C121.801 97.5104 121.501 97.5103 121.101 97.5103Z" fill="#3B404E"/>
<path d="M32.3999 99.7101C32.2999 99.7101 32.2998 99.7101 32.1998 99.7101C20.9998 99.2101 10.8999 93.11 5.29994 83.41C-3.70006 67.81 1.69994 47.7101 17.2999 38.7101C32.8999 29.7101 52.9999 35.1101 61.9999 50.7101C63.0999 52.6101 62.3999 55.1101 60.4999 56.2101C58.5999 57.3101 56.0999 56.6101 54.9999 54.7101C48.1999 42.9101 32.9998 38.81 21.1998 45.61C9.39984 52.41 5.29987 67.61 12.0999 79.41C16.2999 86.81 23.8999 91.4099 32.3999 91.8099C34.5999 91.9099 36.2998 93.8099 36.1998 96.0099C36.2998 98.0099 34.5999 99.7101 32.3999 99.7101Z" fill="#3B404E"/>
<path d="M52.2997 129.711C48.7997 129.711 45.4996 128.311 42.9996 125.811C40.4996 123.311 39.0996 120.011 39.0996 116.511C39.0996 113.011 40.4996 109.711 42.9996 107.211L49.4996 100.711C51.0996 99.1107 53.5996 99.1107 55.1996 100.711L61.6996 107.211C66.7996 112.411 66.7996 120.711 61.6996 125.911C59.0996 128.311 55.7997 129.711 52.2997 129.711ZM52.1996 109.111L48.4996 112.811C47.4996 113.811 46.9996 115.111 46.9996 116.511C46.9996 117.911 47.4996 119.211 48.4996 120.211C49.4996 121.211 50.7996 121.711 52.1996 121.711C53.5996 121.711 54.8997 121.211 55.8997 120.211C57.8997 118.211 57.8997 114.911 55.8997 112.811L52.1996 109.111Z" fill="#57AAFF"/>
<path d="M77.5996 100.411C77.4996 100.411 77.4997 100.411 77.3997 100.411C73.8997 100.311 70.5996 98.9109 68.0996 96.4109C63.0996 91.3109 63.0996 83.2107 68.0996 78.0107L74.6996 71.4109C75.4996 70.6109 76.4996 70.2109 77.4996 70.2109C78.5996 70.2109 79.5997 70.6109 80.2997 71.4109L86.7997 77.9109C91.8997 83.0109 91.8997 91.4107 86.7997 96.5107C84.2997 99.1107 80.9996 100.411 77.5996 100.411ZM77.3997 80.0107L73.6996 83.7109C71.7996 85.7109 71.7997 88.9109 73.7997 90.9109C74.7997 91.9109 76.0996 92.5107 77.4996 92.5107C78.8996 92.5107 80.1996 92.0108 81.1996 91.1108C83.1996 89.1108 83.1996 85.8108 81.1996 83.8108L77.3997 80.0107Z" fill="#57AAFF"/>
<path d="M100.2 130.111H100.1C92.9003 130.111 87.0004 124.211 86.9004 117.011C86.9004 113.511 88.3004 110.111 90.8004 107.611L97.3004 101.111C98.9004 99.5111 101.4 99.5111 103 101.111L109.5 107.611C114.6 112.811 114.6 121.111 109.5 126.311C107 128.711 103.6 130.111 100.2 130.111ZM100.1 122.111C101.5 122.111 102.8 121.611 103.8 120.611C105.8 118.611 105.8 115.311 103.8 113.211L100.1 109.511L96.4004 113.211C95.4004 114.211 94.9004 115.511 94.9004 116.911C94.9004 119.811 97.2003 122.111 100.1 122.111Z" fill="#57AAFF"/>
</svg>
