<svg width="145" height="130" viewBox="0 0 145 130" fill="none" xmlns="http://www.w3.org/2000/svg">
<path d="M111.799 98.947C111.299 98.947 110.799 98.947 110.299 98.947C108.099 98.847 106.399 96.9471 106.499 94.7471C106.599 92.5471 108.499 90.847 110.699 90.947C117.199 91.247 123.499 88.9471 128.299 84.5471C133.099 80.1471 135.999 74.0471 136.299 67.5471C136.599 61.0471 134.299 54.747 129.899 49.947C125.499 45.147 119.399 42.247 112.899 41.947C110.599 41.847 108.299 42.0471 106.099 42.5471C104.899 42.8471 103.699 42.5471 102.699 41.7471C101.699 40.9471 101.199 39.8472 101.199 38.6472C101.199 30.7472 98.0991 23.2472 92.4991 17.6472C86.8991 12.0472 79.3991 8.94702 71.4991 8.94702C55.5991 8.94702 42.5991 21.3471 41.8991 37.2471L41.7991 39.5471C41.6991 41.7471 39.799 43.4472 37.599 43.3472C35.399 43.2472 33.6991 41.3472 33.7991 39.1472L33.8991 36.7471C34.7991 16.5471 51.2991 0.74707 71.4991 0.74707C90.6991 0.74707 106.599 15.1471 108.899 33.7471C110.299 33.6471 111.799 33.5472 113.199 33.6472C121.899 34.0472 129.899 37.7472 135.799 44.1472C141.699 50.5472 144.699 58.8471 144.299 67.5471C143.899 76.2471 140.199 84.2472 133.799 90.1472C127.599 95.9472 119.899 98.947 111.799 98.947Z" fill="#3B404E"/>
<path d="M31.299 100.147C31.199 100.147 31.199 100.147 31.099 100.147C19.899 99.6472 9.89901 93.5471 4.39901 83.8471C0.0990109 76.3471 -1.10106 67.5472 1.19894 59.1472C3.49894 50.7472 8.79901 43.747 16.399 39.447C31.899 30.447 51.899 35.8471 60.799 51.3471C61.899 53.2471 61.199 55.7471 59.299 56.8471C57.399 57.9471 54.899 57.2471 53.799 55.3471C50.499 49.6471 45.199 45.647 38.899 43.947C32.599 42.247 25.999 43.1471 20.299 46.3471C14.599 49.6471 10.599 54.947 8.89901 61.247C7.19901 67.5471 8.09904 74.1471 11.299 79.8471C15.499 87.1471 22.999 91.7472 31.499 92.1472C33.699 92.2472 35.399 94.1471 35.299 96.3471C35.199 98.4471 33.399 100.147 31.299 100.147Z" fill="#3B404E"/>
<path d="M69.8984 129.848C64.0984 129.848 58.1984 127.648 53.6984 123.248C49.2984 118.948 46.8984 113.148 46.8984 107.048C46.8984 100.948 49.1984 95.1476 53.4984 90.7476L67.1984 77.0476C67.9984 76.2476 68.9984 75.8477 69.9984 75.8477C71.0984 75.8477 72.0985 76.2476 72.7985 77.0476L86.1984 90.5476C95.1984 99.5476 95.1984 114.048 86.1984 123.048C81.7984 127.548 75.7984 129.848 69.8984 129.848ZM69.9984 85.5476L59.1984 96.3477C53.3984 102.248 53.3985 111.748 59.2985 117.548C65.1985 123.348 74.6984 123.348 80.4984 117.448C80.4984 117.448 80.4984 117.448 80.4984 117.348C86.2984 111.448 86.2984 101.948 80.4984 96.1477L69.9984 85.5476Z" fill="#57AAFF"/>
</svg>
