<svg width="149" height="131" viewBox="0 0 149 131" fill="none" xmlns="http://www.w3.org/2000/svg">
<path d="M127.7 97.6997C126.2 97.6997 124.7 96.7996 124.1 95.3996C123.2 93.3996 124.1 90.9998 126.1 90.0998C134.8 86.0998 140.499 77.7997 140.899 68.1997C141.499 54.2997 130.7 42.3997 116.8 41.7998C114.5 41.6998 112.1 41.8997 109.8 42.4997C108.6 42.7997 107.4 42.4997 106.4 41.6997C105.4 40.8997 104.9 39.7998 104.9 38.5998C104.9 22.1998 92.0995 8.7998 75.6995 8.0998C58.8995 7.2998 44.5996 20.3998 43.7996 37.2998L43.6995 39.6997C43.5995 41.8997 41.6996 43.5997 39.4996 43.4997C37.2996 43.3997 35.5995 41.4998 35.6995 39.2998L35.7996 36.8996C36.6996 15.5996 54.7996 -0.900201 75.9996 0.0997992C95.0996 0.999799 110.4 15.4997 112.6 33.9997C114.1 33.8997 115.6 33.7996 117.1 33.8996C135.4 34.6996 149.699 50.2998 148.899 68.5998C148.299 81.1998 140.9 92.1996 129.4 97.3996C128.8 97.5996 128.3 97.6997 127.7 97.6997Z" fill="#3B404E"/>
<path d="M16.7991 95.7998C15.9991 95.7998 15.0991 95.4998 14.3991 94.9998C5.49911 88.3998 0.499086 77.8998 0.999086 66.7998C1.79909 48.4998 17.399 34.1998 35.699 34.9998C47.299 35.4998 57.5991 41.8998 63.2991 51.9998C64.3991 53.8998 63.6991 56.3997 61.7991 57.3997C59.8991 58.4997 57.3991 57.7997 56.3991 55.8997C52.0991 48.1997 44.2991 43.3998 35.4991 42.9998C21.5991 42.3998 9.69906 53.1999 9.09906 67.0999C8.69906 75.4999 12.4991 83.4998 19.2991 88.4998C21.0991 89.7998 21.3991 92.2999 20.0991 94.0999C19.2991 95.1999 18.0991 95.7998 16.7991 95.7998Z" fill="#3B404E"/>
<path d="M94.5 108.3C92.3 108.3 90.5 106.5 90.5 104.3V91C90.5 88.8 92.3 87 94.5 87C96.7 87 98.5 88.8 98.5 91V104.3C98.5 106.5 96.7 108.3 94.5 108.3Z" fill="#57AAFF"/>
<path d="M112.699 124.401C110.499 124.401 108.699 122.601 108.699 120.401V111.301C108.699 109.101 110.499 107.301 112.699 107.301C114.899 107.301 116.699 109.101 116.699 111.301V120.401C116.699 122.601 114.899 124.401 112.699 124.401Z" fill="#57AAFF"/>
<path d="M71.5995 97.3003C69.4995 97.3003 67.6995 95.6002 67.5995 93.4002L67.1995 83.6004C67.0995 81.4004 68.7995 79.5003 71.0995 79.5003C73.2995 79.4003 75.1995 81.1002 75.1995 83.4002L75.5995 93.2002C75.6995 95.4002 73.9995 97.3003 71.6995 97.3003H71.5995Z" fill="#57AAFF"/>
<path d="M78.8984 130.4C76.6984 130.4 74.8984 128.6 74.8984 126.4V117.4C74.8984 115.2 76.6984 113.4 78.8984 113.4C81.0984 113.4 82.8984 115.2 82.8984 117.4V126.4C82.8984 128.6 81.1984 130.4 78.8984 130.4Z" fill="#57AAFF"/>
<path d="M50.7988 116.9C48.5988 116.9 46.7988 115.1 46.7988 112.9V100.101C46.7988 97.9006 48.5988 96.1006 50.7988 96.1006C52.9988 96.1006 54.7988 97.9006 54.7988 100.101V112.9C54.7988 115.1 52.9988 116.9 50.7988 116.9Z" fill="#57AAFF"/>
<path d="M30.6992 125.8C28.4992 125.8 26.6992 124 26.6992 121.8V111.2C26.6992 109 28.4992 107.2 30.6992 107.2C32.8992 107.2 34.6992 109 34.6992 111.2V121.8C34.6992 124 32.8992 125.8 30.6992 125.8Z" fill="#57AAFF"/>
</svg>
