<svg width="149" height="142" viewBox="0 0 149 142" fill="none" xmlns="http://www.w3.org/2000/svg">
<path d="M115 100.817C114.5 100.817 114 100.817 113.5 100.817C111.3 100.717 109.6 98.8169 109.7 96.6169C109.8 94.4169 111.7 92.7169 113.9 92.8169C120.6 93.1169 127 90.8168 132 86.2168C136.9 81.7168 139.8 75.5169 140.1 68.8169C140.4 62.1169 138.1 55.7168 133.5 50.7168C128.9 45.7168 122.8 42.9169 116.1 42.6169C113.8 42.5169 111.4 42.7169 109.2 43.3169C108 43.6169 106.8 43.3168 105.8 42.5168C104.8 41.7168 104.3 40.617 104.3 39.417C104.3 22.717 90.6998 9.01685 73.9998 9.01685C57.6998 9.01685 44.3998 21.7168 43.6998 38.0168L43.5999 40.417C43.4999 42.617 41.5997 44.3168 39.3997 44.2168C37.1997 44.1168 35.4999 42.2168 35.5999 40.0168L35.6998 37.6169C36.5998 17.0169 53.3998 0.916992 73.9998 0.916992C93.5998 0.916992 109.8 15.7169 112.1 34.6169C113.6 34.5169 115.1 34.4168 116.6 34.5168C134.8 35.3168 149 50.8169 148.2 69.1169C147.8 77.9169 144 86.1169 137.5 92.1169C131.1 97.8169 123.3 100.817 115 100.817Z" fill="#3B404E"/>
<path d="M32.7995 102.017C32.6995 102.017 32.6996 102.017 32.5996 102.017C21.1996 101.517 11.0994 95.3166 5.39938 85.5166C0.999378 77.8166 -0.200427 68.9168 2.09957 60.4168C4.39957 51.9168 9.89948 44.7167 17.4995 40.3167C33.2995 31.2167 53.5994 36.6168 62.6994 52.4168C63.7994 54.3168 63.0994 56.8168 61.1994 57.9168C59.2994 59.0168 56.7994 58.3168 55.6994 56.4168C48.7994 44.4168 33.3994 40.3166 21.3994 47.2166C15.5994 50.6166 11.3994 56.0168 9.69943 62.4168C7.99943 68.8168 8.79943 75.6166 12.1994 81.5166C16.4994 89.0166 24.1995 93.7166 32.7995 94.0166C34.9995 94.1166 36.6996 96.0166 36.5996 98.2166C36.6996 100.317 34.8995 102.017 32.7995 102.017Z" fill="#3B404E"/>
<path d="M112.799 141.917C112.199 141.917 111.499 141.717 110.999 141.417C109.399 140.417 108.799 138.217 109.899 136.617L113.899 130.117H105.599C104.299 130.117 103.099 129.417 102.499 128.317C101.899 127.217 101.899 125.817 102.599 124.717L109.799 113.317C110.799 111.717 112.999 111.217 114.599 112.217C116.199 113.217 116.699 115.417 115.699 117.017L111.899 123.017H120.099C121.399 123.017 122.499 123.717 123.199 124.817C123.799 125.917 123.799 127.317 123.099 128.317L115.799 140.117C115.099 141.317 113.899 141.917 112.799 141.917Z" fill="#FFC44C"/>
<path d="M28.7988 141.917C28.1988 141.917 27.4987 141.717 26.9987 141.417C25.3987 140.417 24.7986 138.217 25.8986 136.617L29.8986 130.117H21.5988C20.2988 130.117 19.0987 129.417 18.4987 128.317C17.8987 127.217 17.8988 125.817 18.5988 124.717L25.7988 113.317C26.7988 111.717 28.9988 111.217 30.5988 112.217C32.1988 113.217 32.6987 115.417 31.6987 117.017L27.8986 123.017H36.0988C37.3988 123.017 38.4987 123.717 39.1987 124.817C39.7987 125.917 39.7988 127.317 39.0988 128.317L31.7988 140.117C31.0988 141.317 29.8988 141.917 28.7988 141.917Z" fill="#FFC44C"/>
<path d="M61.5984 135.317C60.9984 135.317 60.2984 135.217 59.7984 134.817C58.0984 133.917 57.2984 132.017 57.7984 130.217L63.7984 107.317H56.0984C54.6984 107.317 53.4983 106.617 52.6983 105.517C51.9983 104.417 51.7982 102.917 52.3982 101.717L64.6983 73.8169C65.2983 72.4169 66.7982 71.417 68.3982 71.417H90.5984C92.0984 71.417 93.4983 72.2169 94.1983 73.6169C94.8983 75.0169 94.7982 76.6169 93.8982 77.8169L84.4983 90.6169H92.7984C94.3984 90.6169 95.7982 91.517 96.3982 92.917C97.0982 94.317 96.7984 96.0168 95.7984 97.2168L64.6983 133.817C63.8983 134.817 62.6984 135.317 61.5984 135.317ZM62.0984 99.417H68.8982C70.0982 99.417 71.2984 100.017 72.0984 101.017C72.8984 102.017 73.0984 103.317 72.7984 104.517L69.9983 115.417L84.1983 98.7168H76.5984C75.0984 98.7168 73.6983 97.9168 72.9983 96.5168C72.2983 95.1168 72.3984 93.5169 73.2984 92.3169L82.6983 79.5168H70.9983L62.0984 99.417Z" fill="#FFC44C"/>
</svg>
