<svg width="149" height="134" viewBox="0 0 149 134" fill="none" xmlns="http://www.w3.org/2000/svg">
<path d="M115.201 100.1C114.701 100.1 114.201 100.1 113.701 100.1C111.501 100 109.801 98.0998 109.901 95.8998C110.001 93.6999 111.802 92 114.102 92.1C128.002 92.7 139.801 81.9 140.401 68.1C141.001 54.2 130.201 42.5 116.401 41.8C114.101 41.7 111.701 41.8999 109.501 42.4999C108.301 42.7999 107.102 42.4999 106.102 41.6999C105.102 40.8999 104.602 39.8 104.602 38.6C104.602 22.3 91.8015 8.8999 75.5015 8.1999C58.7015 7.3999 44.5014 20.5 43.7014 37.3L43.6016 39.6999L35.6016 39.3998L35.7014 36.9999C36.6014 15.7999 54.6015 -0.700004 75.8015 0.299997C94.8015 1.1 110.102 15.6 112.302 34.1C113.802 34 115.302 33.8999 116.802 33.9999C135.102 34.7999 149.301 50.3 148.501 68.6C148.101 77.5 144.301 85.6 137.701 91.6C131.401 97 123.601 100.1 115.201 100.1Z" fill="#3B404E"/>
<path d="M32.9009 101.2C32.8009 101.2 32.8009 101.2 32.7009 101.2C14.4009 100.4 0.20096 84.8998 1.00096 66.5998C1.40096 57.6998 5.20101 49.5998 11.801 43.5998C18.301 37.5998 26.8009 34.4996 35.7009 34.8996C47.1009 35.3996 57.301 41.5997 63.001 51.4997C64.101 53.3997 63.401 55.8997 61.501 56.9997C59.601 58.0997 57.101 57.3997 56.001 55.4997C51.701 47.9997 43.901 43.2996 35.301 42.8996C28.601 42.5996 22.1009 44.8997 17.2009 49.4997C12.2009 53.9997 9.30096 60.1997 9.00096 66.9997C8.40096 80.8997 19.201 92.6998 33.001 93.2998C35.201 93.3998 36.901 95.2997 36.801 97.4997C36.801 99.4997 35.0009 101.2 32.9009 101.2Z" fill="#3B404E"/>
<path d="M38.6016 130.5C37.6016 130.5 36.6016 130.1 35.8016 129.3C34.2016 127.7 34.2016 125.2 35.8016 123.6L46.2015 113.2C47.8015 111.6 50.3014 111.6 51.9014 113.2C53.5014 114.8 53.5014 117.3 51.9014 118.9L41.5015 129.3C40.7015 130.1 39.7016 130.5 38.6016 130.5Z" fill="#57AAFF"/>
<path d="M49.0015 130.5C48.0015 130.5 47.0015 130.1 46.2015 129.3L35.8016 118.9C34.2016 117.3 34.2016 114.8 35.8016 113.2C37.4016 111.6 39.9015 111.6 41.5015 113.2L51.9014 123.6C53.5014 125.2 53.5014 127.7 51.9014 129.3C51.1014 130.1 50.0015 130.5 49.0015 130.5Z" fill="#57AAFF"/>
<path d="M68.9021 106.1C67.9021 106.1 66.9023 105.699 66.1023 104.899C64.5023 103.299 64.5023 100.8 66.1023 99.1995L76.5022 88.7996C78.1022 87.1996 80.6022 87.1996 82.2022 88.7996C83.8022 90.3996 83.8022 92.8996 82.2022 94.4996L71.8023 104.899C71.0023 105.699 70.0021 106.1 68.9021 106.1Z" fill="#57AAFF"/>
<path d="M79.3023 106.1C78.3023 106.1 77.3022 105.699 76.5022 104.899L66.1023 94.4996C64.5023 92.8996 64.5023 90.3996 66.1023 88.7996C67.7023 87.1996 70.2023 87.1996 71.8023 88.7996L82.2022 99.1995C83.8022 100.8 83.8022 103.299 82.2022 104.899C81.4022 105.699 80.3023 106.1 79.3023 106.1Z" fill="#57AAFF"/>
<path d="M103.802 133.3C102.802 133.3 101.802 132.9 101.002 132.1L90.6023 121.7C89.0023 120.1 89.0023 117.6 90.6023 116C92.2023 114.4 94.7023 114.4 96.3023 116L106.702 126.4C108.302 128 108.302 130.5 106.702 132.1C105.902 132.9 104.802 133.3 103.802 133.3Z" fill="#57AAFF"/>
<path d="M93.4021 133.3C92.4021 133.3 91.4023 132.9 90.6023 132.1C89.0023 130.5 89.0023 128 90.6023 126.4L101.002 116C102.602 114.4 105.102 114.4 106.702 116C108.302 117.6 108.302 120.1 106.702 121.7L96.3023 132.1C95.5023 132.9 94.5021 133.3 93.4021 133.3Z" fill="#57AAFF"/>
</svg>
