<svg width="146" height="126" viewBox="0 0 146 126" fill="none" xmlns="http://www.w3.org/2000/svg">
<path d="M135.501 87.9571C134.701 87.9571 133.801 87.6571 133.101 87.1571C131.301 85.8571 131.001 83.357 132.301 81.557C135.201 77.557 136.901 72.8571 137.101 67.9571C137.701 54.3571 127.101 42.7571 113.501 42.1571C111.201 42.0571 108.901 42.2572 106.701 42.7572C105.501 43.0572 104.301 42.7571 103.301 41.9571C102.301 41.1571 101.801 40.057 101.801 38.857C101.801 22.857 89.3007 9.65714 73.2007 8.95714C56.7007 8.25714 42.7008 21.0571 42.0008 37.4571L41.9007 39.857C41.8007 42.057 40.0007 43.7571 37.7007 43.6571C35.5007 43.5571 33.8007 41.6571 33.9007 39.4571L34.0008 37.057C34.9008 16.157 52.7008 -0.0429552 73.5008 0.857045C92.2008 1.65704 107.201 15.957 109.401 34.057C110.801 33.957 112.301 33.8571 113.801 33.9571C131.801 34.7571 145.801 50.057 145.001 68.057C144.701 74.557 142.501 80.857 138.601 86.057C137.901 87.357 136.701 87.9571 135.501 87.9571Z" fill="#3B404E"/>
<path d="M20.4006 97.957C19.8006 97.957 19.2006 97.8568 18.7006 97.5568C6.80062 91.8568 -0.499233 79.7568 0.100767 66.5568C0.900767 48.5568 16.2006 34.5569 34.2006 35.3569C45.5006 35.8569 55.9006 42.3569 61.4006 52.1569C62.5006 54.0569 61.8007 56.5568 59.8007 57.5568C57.9007 58.6568 55.4006 57.957 54.4006 55.957C50.3006 48.457 42.4006 43.557 33.9006 43.257C20.3006 42.657 8.70077 53.2569 8.10077 66.8569C7.70077 76.7569 13.2006 85.957 22.2006 90.257C24.2006 91.157 25.0008 93.5568 24.1008 95.5568C23.3008 97.0568 21.9006 97.957 20.4006 97.957Z" fill="#3B404E"/>
<path d="M104.502 121.157C103.502 121.157 102.502 120.757 101.702 119.957C100.102 118.357 100.102 115.857 101.702 114.257L120.502 95.2566C122.102 93.6566 124.602 93.6566 126.202 95.2566C127.802 96.8566 127.802 99.3566 126.202 100.957L107.402 119.957C106.602 120.757 105.502 121.157 104.502 121.157Z" fill="#57AAFF"/>
<path d="M95.7022 98.0566C94.7022 98.0566 93.7022 97.6567 92.9022 96.9567C91.3022 95.4567 91.3023 92.8568 92.8023 91.2568L106.802 76.7568C108.302 75.1568 110.902 75.1567 112.502 76.6567C114.102 78.1567 114.102 80.7567 112.602 82.3567L98.6024 96.8567C97.8024 97.6567 96.8022 98.0566 95.7022 98.0566Z" fill="#57AAFF"/>
<path d="M68.4013 125.857C67.4013 125.857 66.4015 125.457 65.6015 124.757C64.0015 123.257 64.0014 120.656 65.5014 119.056L79.5014 104.556C81.0014 102.956 83.6014 102.957 85.2014 104.457C86.8014 105.957 86.8015 108.557 85.3015 110.157L71.3015 124.657C70.4015 125.457 69.4013 125.857 68.4013 125.857Z" fill="#57AAFF"/>
<path d="M68.9013 98.257C67.9013 98.257 66.9015 97.8569 66.1015 97.1569C64.5015 95.6569 64.5014 93.057 66.0014 91.457L80.0014 76.957C81.5014 75.357 84.1014 75.3569 85.7014 76.8569C87.3014 78.3569 87.3015 80.9568 85.8015 82.5568L71.8015 97.0568C71.0015 97.8568 70.0013 98.257 68.9013 98.257Z" fill="#57AAFF"/>
<path d="M37.4007 124.357C36.4007 124.357 35.4009 123.957 34.6009 123.157C33.0009 121.557 33.0009 119.057 34.6009 117.457L46.1009 105.857L32.1009 104.957C30.6009 104.857 29.2008 103.857 28.7008 102.457C28.2008 101.057 28.4008 99.3574 29.5008 98.2574L47.2008 79.0572C48.7008 77.4572 51.2007 77.3572 52.9007 78.8572C54.5007 80.3572 54.6009 82.8572 53.1009 84.5572L41.0008 97.6573L55.4007 98.6573C57.0007 98.7573 58.3007 99.7574 58.9007 101.257C59.5007 102.757 59.1008 104.357 58.0008 105.457L40.3009 123.357C39.4009 123.957 38.4007 124.357 37.4007 124.357Z" fill="#FFC44C"/>
</svg>
