<svg width="149" height="135" viewBox="0 0 149 135" fill="none" xmlns="http://www.w3.org/2000/svg">
<path d="M122.3 99.2007C120.5 99.2007 118.899 98.0007 118.399 96.2007C117.899 94.1007 119.2 91.9007 121.3 91.4007C132.1 88.7007 139.899 79.2008 140.399 68.1008C140.699 61.4008 138.4 54.9007 133.8 50.0007C129.3 45.0007 123.099 42.1008 116.399 41.8008C114.099 41.7008 111.7 41.9007 109.5 42.5007C108.3 42.8007 107.1 42.5007 106.1 41.7007C105.1 40.9007 104.6 39.8008 104.6 38.6008C104.6 22.3008 91.7995 8.9007 75.4995 8.2007C67.3995 7.8007 59.5996 10.7007 53.5996 16.2007C47.5996 21.7007 44.0995 29.2008 43.6995 37.3008L43.5996 39.7007L35.5996 39.4007L35.6995 37.0007C36.1995 26.7007 40.5995 17.3008 48.1995 10.3008C55.7995 3.4008 65.5994 -0.199202 75.8994 0.300798C94.8994 1.1008 110.199 15.6008 112.399 34.1008C113.899 34.0008 115.399 33.9007 116.899 34.0007C125.799 34.4007 133.899 38.2008 139.899 44.8008C145.899 51.3008 149 59.8007 148.6 68.7007C148 83.3007 137.599 95.9007 123.399 99.4007C122.899 99.2007 122.6 99.2007 122.3 99.2007Z" fill="#3B404E"/>
<path d="M25.3994 99.9006C24.9994 99.9006 24.5995 99.8007 24.1995 99.7007C9.89948 95.2007 0.39953 81.5008 0.99953 66.6008C1.39953 57.7008 5.19958 49.6008 11.7996 43.6008C18.2996 37.6008 26.7995 34.5006 35.6995 34.9006C47.0995 35.4006 57.2995 41.6007 62.9995 51.5007C64.0995 53.4007 63.3995 55.9007 61.4995 57.0007C59.5995 58.1007 57.0995 57.4007 55.9995 55.5007C51.6995 48.0007 43.8996 43.3006 35.2996 42.9006C28.5996 42.6006 22.0995 44.9007 17.1995 49.5007C12.1995 54.0007 9.29953 60.2007 8.99953 67.0007C8.49953 78.4007 15.7996 88.7007 26.5996 92.2007C28.6996 92.9007 29.8995 95.1007 29.1995 97.2007C28.6995 98.8007 27.0994 99.9006 25.3994 99.9006Z" fill="#3B404E"/>
<path d="M96.1001 102.801C95.8001 102.801 95.4001 102.801 95.1001 102.701C94.8001 102.601 94.5 102.501 94.2 102.401C93.9 102.301 93.6 102.101 93.3 101.901C93 101.701 92.8 101.501 92.5 101.301C92.3 101.101 92.0999 100.801 91.8999 100.501C91.6999 100.201 91.5999 99.9011 91.3999 99.6011C91.2999 99.3011 91.2001 99.001 91.1001 98.701C91.0001 98.401 91 98.001 91 97.701C91 97.401 91.0001 97.001 91.1001 96.701C91.2001 96.401 91.2999 96.1011 91.3999 95.8011C91.4999 95.5011 91.6999 95.2009 91.8999 94.9009C92.0999 94.6009 92.3 94.4011 92.5 94.1011C92.7 93.8011 93 93.701 93.3 93.501C93.6 93.301 93.9 93.201 94.2 93.001C94.5 92.901 94.8001 92.801 95.1001 92.701C95.7001 92.601 96.4001 92.601 97.1001 92.701C97.4001 92.801 97.7 92.901 98 93.001C98.3 93.101 98.5999 93.301 98.8999 93.501C99.1999 93.701 99.4 93.9011 99.7 94.1011C100.6 95.0011 101.2 96.3011 101.2 97.6011C101.2 97.9011 101.2 98.3011 101.1 98.6011C101 98.9011 100.9 99.201 100.8 99.501C100.7 99.801 100.5 100.101 100.3 100.401C100.1 100.701 99.9 100.901 99.7 101.201C99.5 101.401 99.1999 101.601 98.8999 101.801C98.5999 102.001 98.3 102.101 98 102.301C97.7 102.401 97.4001 102.501 97.1001 102.601C96.7001 102.801 96.4001 102.801 96.1001 102.801Z" fill="#57AAFF"/>
<path d="M96.1001 124.801C95.8001 124.801 95.4001 124.801 95.1001 124.701C94.8001 124.601 94.5 124.501 94.2 124.401C93.9 124.301 93.6 124.101 93.3 123.901C93 123.701 92.8 123.501 92.5 123.301C92.3 123.101 92.0999 122.801 91.8999 122.501C91.6999 122.201 91.5999 121.901 91.3999 121.601C91.2999 121.301 91.2001 121.001 91.1001 120.701C91.0001 120.401 91 120.001 91 119.701C91 119.401 91.0001 119.001 91.1001 118.701C91.2001 118.401 91.2999 118.101 91.3999 117.801C91.4999 117.501 91.6999 117.201 91.8999 116.901C92.0999 116.601 92.3 116.401 92.5 116.101C92.7 115.801 93 115.701 93.3 115.501C93.6 115.301 93.9 115.201 94.2 115.001C94.5 114.901 94.8001 114.801 95.1001 114.701C95.7001 114.601 96.4001 114.601 97.1001 114.701C97.4001 114.801 97.7 114.901 98 115.001C98.3 115.101 98.5999 115.301 98.8999 115.501C99.1999 115.701 99.4 115.901 99.7 116.101C99.9 116.301 100.1 116.601 100.3 116.901C100.5 117.201 100.6 117.501 100.8 117.801C100.9 118.101 101 118.401 101.1 118.701C101.2 119.001 101.2 119.401 101.2 119.701C101.2 121.001 100.7 122.301 99.7 123.201C99.5 123.401 99.1999 123.601 98.8999 123.801C98.5999 124.001 98.3 124.101 98 124.301C97.7 124.401 97.4001 124.501 97.1001 124.601C96.7001 124.801 96.4001 124.801 96.1001 124.801Z" fill="#57AAFF"/>
<path d="M54.1001 102.8C53.8001 102.8 53.4001 102.8 53.1001 102.7C52.8001 102.6 52.5 102.5 52.2 102.4C51.9 102.3 51.6 102.1 51.3 101.9C51 101.7 50.8 101.5 50.5 101.3C50.3 101.1 50.0999 100.8 49.8999 100.5C49.6999 100.2 49.5999 99.9004 49.3999 99.6004C49.2999 99.3004 49.2001 99.0003 49.1001 98.7003C49.0001 98.4003 49 98.0003 49 97.7003C49 97.4003 49.0001 97.0003 49.1001 96.7003C49.2001 96.4003 49.2999 96.1004 49.3999 95.8004C49.4999 95.5004 49.6999 95.2002 49.8999 94.9002C50.0999 94.6002 50.3 94.4004 50.5 94.1004C50.7 93.8004 51 93.7003 51.3 93.5003C51.6 93.3003 51.9 93.2003 52.2 93.0003C52.5 92.9003 52.8001 92.8003 53.1001 92.7003C54.7001 92.4003 56.5001 92.9004 57.6001 94.1004C57.8001 94.3004 58 94.6002 58.2 94.9002C58.4 95.2002 58.5 95.5004 58.7 95.8004C58.8 96.1004 58.9 96.4003 59 96.7003C59.1 97.0003 59.1001 97.3003 59.1001 97.7003C59.1001 98.0003 59.1 98.4003 59 98.7003C58.9 99.0003 58.8 99.3004 58.7 99.6004C58.6 99.9004 58.4 100.2 58.2 100.5C58 100.8 57.8001 101 57.6001 101.3C56.7001 102.3 55.4001 102.8 54.1001 102.8Z" fill="#57AAFF"/>
<path d="M54.1001 124.8C53.8001 124.8 53.4001 124.8 53.1001 124.7C52.8001 124.6 52.5 124.5 52.2 124.4C51.9 124.3 51.6 124.1 51.3 123.9C51 123.7 50.8 123.5 50.5 123.3C50.3 123.1 50.0999 122.8 49.8999 122.5C49.6999 122.2 49.5999 121.9 49.3999 121.6C49.2999 121.3 49.2001 121 49.1001 120.7C49.0001 120.4 49 120 49 119.7C49 119.4 49.0001 119 49.1001 118.7C49.2001 118.4 49.2999 118.1 49.3999 117.8C49.4999 117.5 49.6999 117.2 49.8999 116.9C50.0999 116.6 50.3 116.4 50.5 116.1C50.7 115.8 51 115.7 51.3 115.5C51.6 115.3 51.9 115.2 52.2 115C52.5 114.9 52.8001 114.8 53.1001 114.7C54.7001 114.4 56.5001 114.9 57.6001 116.1C57.8001 116.3 58 116.6 58.2 116.9C58.4 117.2 58.5 117.5 58.7 117.8C58.8 118.1 58.9 118.4 59 118.7C59.1 119 59.1001 119.3 59.1001 119.7C59.1001 120 59.1 120.4 59 120.7C58.9 121 58.8 121.3 58.7 121.6C58.6 121.9 58.4 122.2 58.2 122.5C58 122.8 57.8001 123 57.6001 123.3C56.7001 124.3 55.4001 124.8 54.1001 124.8Z" fill="#57AAFF"/>
<path d="M75.1001 91.8009C74.8001 91.8009 74.4001 91.8008 74.1001 91.7008C73.8001 91.6008 73.5 91.5007 73.2 91.4007C72.9 91.3007 72.6 91.1007 72.3 90.9007C72 90.7007 71.8 90.5009 71.5 90.3009C70.6 89.4009 70 88.1009 70 86.8009C70 86.5009 70.0001 86.1009 70.1001 85.8009C70.2001 85.5009 70.2999 85.2007 70.3999 84.9007C70.4999 84.6007 70.6999 84.3008 70.8999 84.0008C71.0999 83.7008 71.3 83.5008 71.5 83.2008C72.7 82.0008 74.4 81.5009 76 81.8009C76.3 81.9009 76.5999 82.0009 76.8999 82.1009C77.1999 82.2009 77.5 82.4009 77.8 82.6009C78.1 82.8009 78.3001 83.0008 78.6001 83.2008C79.5001 84.1008 80.1001 85.4008 80.1001 86.7008C80.1001 88.0008 79.6001 89.3008 78.6001 90.2008C78.4001 90.4008 78.1 90.6009 77.8 90.8009C77.5 91.0009 77.1999 91.1009 76.8999 91.3009C76.5999 91.4009 76.3 91.5009 76 91.6009C75.7 91.8009 75.4001 91.8009 75.1001 91.8009Z" fill="#57AAFF"/>
<path d="M75.1001 113.3C74.8001 113.3 74.4001 113.3 74.1001 113.2C73.8001 113.1 73.5 113 73.2 112.9C72.9 112.8 72.6 112.6 72.3 112.4C72 112.2 71.8 112 71.5 111.8C71.3 111.6 71.0999 111.3 70.8999 111C70.6999 110.7 70.5999 110.4 70.3999 110.1C70.2999 109.8 70.2001 109.5 70.1001 109.2C70.0001 108.9 70 108.5 70 108.2C70 107.9 70.0001 107.5 70.1001 107.2C70.2001 106.9 70.2999 106.6 70.3999 106.3C70.4999 106 70.6999 105.7 70.8999 105.4C71.0999 105.1 71.3 104.9 71.5 104.6C72.7 103.4 74.4 102.9 76 103.2C76.3 103.3 76.5999 103.4 76.8999 103.5C77.1999 103.6 77.5 103.8 77.8 104C78.1 104.2 78.3001 104.4 78.6001 104.6C79.5001 105.5 80.1001 106.8 80.1001 108.1C80.1001 109.4 79.6001 110.7 78.6001 111.6C78.4001 111.8 78.1 112 77.8 112.2C77.5 112.4 77.1999 112.5 76.8999 112.7C76.5999 112.8 76.3 112.9 76 113C75.7 113.3 75.4001 113.3 75.1001 113.3Z" fill="#57AAFF"/>
<path d="M75.0996 134.801C73.7996 134.801 72.4996 134.301 71.5996 133.301C70.6996 132.401 70.0996 131.101 70.0996 129.801C70.0996 129.501 70.0995 129.101 70.1995 128.801C70.2995 128.501 70.3995 128.2 70.4995 127.9C70.5995 127.6 70.7995 127.301 70.9995 127.001C71.1995 126.701 71.3996 126.5 71.5996 126.2C71.7996 125.9 72.0994 125.801 72.3994 125.601C72.6994 125.401 72.9996 125.301 73.2996 125.101C73.5996 125.001 73.8995 124.901 74.1995 124.801C74.7995 124.701 75.4995 124.701 76.1995 124.801C76.4995 124.901 76.7996 125.001 77.0996 125.101C77.3996 125.201 77.6995 125.401 77.9995 125.601C78.2995 125.801 78.4996 126 78.7996 126.2C79.6996 127.1 80.2996 128.4 80.2996 129.7C80.2996 131 79.7996 132.3 78.7996 133.2C78.5996 133.4 78.2995 133.601 77.9995 133.801C77.6995 134.001 77.3996 134.101 77.0996 134.301C76.7996 134.401 76.4995 134.501 76.1995 134.601C75.6995 134.801 75.3996 134.801 75.0996 134.801Z" fill="#57AAFF"/>
</svg>
