<svg width="149" height="127" viewBox="0 0 149 127" fill="none" xmlns="http://www.w3.org/2000/svg">
<path d="M127.7 97.6997C126.2 97.6997 124.7 96.7996 124.1 95.3996C123.2 93.3996 124.1 90.9998 126.1 90.0998C134.8 86.0998 140.499 77.7997 140.899 68.1997C141.199 61.4997 138.9 54.9997 134.3 49.9997C129.7 44.9997 123.5 42.0998 116.8 41.7998C114.5 41.6998 112.1 41.8997 109.8 42.4997C108.6 42.7997 107.399 42.4997 106.399 41.6997C105.399 40.8997 104.899 39.7998 104.899 38.5998C104.899 22.1998 92.0995 8.7998 75.6995 8.0998C58.8995 7.2998 44.5996 20.3998 43.7996 37.2998L43.6995 39.6997C43.5995 41.8997 41.6996 43.5997 39.4996 43.4997C37.2996 43.3997 35.5995 41.4998 35.6995 39.2998L35.7996 36.8996C36.6996 15.5996 54.7996 -0.900201 75.9996 0.0997992C95.0996 0.999799 110.4 15.4997 112.6 33.9997C114.1 33.8997 115.6 33.7996 117.1 33.8996C126 34.2996 134.2 38.0997 140.2 44.6997C146.2 51.2997 149.299 59.7998 148.899 68.5998C148.299 81.1998 140.899 92.1996 129.399 97.3996C128.799 97.5996 128.3 97.6997 127.7 97.6997Z" fill="#3B404E"/>
<path d="M16.7991 95.7998C15.9991 95.7998 15.099 95.4998 14.399 94.9998C5.49899 88.3998 0.499087 77.8998 0.999087 66.7998C1.79909 48.4998 17.399 34.1998 35.699 34.9998C47.299 35.4998 57.5991 41.8998 63.2991 51.9998C64.3991 53.8998 63.6991 56.3997 61.7991 57.3997C59.8991 58.4997 57.399 57.7997 56.399 55.8997C52.099 48.1997 44.2991 43.3998 35.4991 42.9998C21.5991 42.3998 9.69919 53.1999 9.09918 67.0999C8.69918 75.4999 12.4991 83.4998 19.2991 88.4998C21.0991 89.7998 21.3992 92.2999 20.0992 94.0999C19.2992 95.1999 18.0991 95.7998 16.7991 95.7998Z" fill="#3B404E"/>
<path d="M95.4983 118.499C94.3983 118.499 93.3984 118.099 92.5984 117.199C91.0984 115.599 91.1984 112.999 92.7984 111.499L109.698 95.8991C111.298 94.3991 113.898 94.4993 115.398 96.0993C116.898 97.6993 116.798 100.299 115.198 101.799L98.2984 117.399C97.3984 118.099 96.4983 118.499 95.4983 118.499Z" fill="#57AAFF"/>
<path d="M27.4991 112.5C26.4991 112.5 25.3992 112.1 24.5992 111.3C23.0992 109.7 23.0991 107.2 24.6991 105.6L40.9991 89.6997C42.5991 88.1997 45.0991 88.1998 46.6991 89.7998C48.1991 91.3998 48.1992 93.8997 46.5992 95.4997L30.2992 111.4C29.4992 112.1 28.4991 112.5 27.4991 112.5Z" fill="#57AAFF"/>
<path d="M92.8994 96.0996C91.8994 96.0996 90.8996 95.6995 90.0996 94.9995C88.4996 93.4995 88.4995 90.8995 89.9995 89.2995L104.699 74.0996C106.199 72.4996 108.799 72.4995 110.399 73.9995C111.999 75.4995 111.999 78.0994 110.499 79.6994L95.7995 94.8994C94.9995 95.5994 93.8994 96.0996 92.8994 96.0996Z" fill="#57AAFF"/>
<path d="M60.8994 126.399C59.8994 126.399 58.8996 125.999 58.0996 125.299C56.4996 123.799 56.4995 121.199 57.9995 119.599L72.6994 104.399C74.1994 102.799 76.7994 102.799 78.3994 104.299C79.9994 105.799 79.9995 108.399 78.4995 109.999L63.7995 125.199C62.9995 125.999 61.9994 126.399 60.8994 126.399Z" fill="#57AAFF"/>
<path d="M59.2981 100.8C58.2981 100.8 57.298 100.4 56.498 99.6997C54.898 98.1997 54.8979 95.5997 56.3979 93.9997L71.0981 78.7998C72.5981 77.1998 75.1981 77.1997 76.7981 78.6997C78.3981 80.1997 78.3979 82.7996 76.8979 84.3996L62.198 99.5998C61.298 100.4 60.2981 100.8 59.2981 100.8Z" fill="#57AAFF"/>
</svg>
