<svg width="146" height="141" viewBox="0 0 146 141" fill="none" xmlns="http://www.w3.org/2000/svg">
<path d="M135.7 87.523C134.9 87.523 134 87.223 133.3 86.723C131.5 85.423 131.2 82.923 132.5 81.123C135.4 77.223 137.1 72.523 137.3 67.623C137.6 61.023 135.299 54.8231 130.899 49.923C126.499 45.1231 120.399 42.223 113.899 41.923C111.599 41.8231 109.4 42.023 107.1 42.523C105.9 42.823 104.7 42.523 103.7 41.723C102.7 40.923 102.2 39.823 102.2 38.623C102.2 22.723 89.6996 9.62305 73.7996 8.92305C57.3996 8.22305 43.4996 20.923 42.7996 37.223L42.6995 39.523C42.5995 41.723 40.7996 43.423 38.4996 43.323C36.2996 43.223 34.5995 41.323 34.6995 39.123L34.7996 36.723C35.6996 15.923 53.2997 -0.177022 74.0997 0.722978C92.6997 1.52298 107.6 15.723 109.8 33.723C111.2 33.623 112.7 33.523 114.1 33.623C122.8 34.023 130.8 37.723 136.7 44.123C142.6 50.523 145.6 58.823 145.2 67.523C144.9 74.023 142.7 80.2231 138.8 85.423C138.2 86.923 137 87.523 135.7 87.523Z" fill="#3B404E"/>
<path d="M46.5002 100.523C42.4002 100.523 37.5003 100.423 32.1003 100.223C32.1003 100.223 32.1002 100.223 32.0002 100.223C23.3002 99.8231 15.3002 96.1231 9.50024 89.7231C3.60024 83.3231 0.60024 75.0231 1.00024 66.3231C1.80024 48.4231 17.0002 34.4231 35.0002 35.2231C46.2002 35.7231 56.6002 42.1231 62.0002 52.0231C63.1002 53.9231 62.4001 56.4232 60.4001 57.4232C58.5001 58.5232 56.0002 57.8231 55.0002 55.8231C50.9002 48.4231 43.1003 43.5231 34.6003 43.2231C21.1003 42.6231 9.60024 53.1231 9.00024 66.6231C8.40024 80.1231 18.9001 91.6231 32.4001 92.2231C32.4001 92.2231 32.4002 92.2231 32.5002 92.2231C47.8002 92.9231 59.4002 92.2231 59.5002 92.2231C61.7002 92.1231 63.6002 93.7231 63.7002 96.0231C63.8002 98.3231 62.2001 100.123 59.9001 100.223C59.7001 100.223 54.5002 100.523 46.5002 100.523Z" fill="#3B404E"/>
<g opacity="0.5">
<path opacity="0.5" d="M88.0005 99.5232C86.0005 99.5232 84.1004 99.5232 82.2004 99.4232C80.4004 99.4232 78.6004 99.3231 76.9004 99.3231C74.7004 99.3231 72.9004 97.5231 72.9004 95.3231C72.9004 93.1231 74.7004 91.3231 76.9004 91.3231C78.7004 91.3231 80.5004 91.3232 82.4004 91.4232C91.4004 91.6232 100.6 91.8231 107.5 87.3231C112 84.4231 113.101 79.7232 112.801 76.4232C112.401 72.8232 110.2 70.0231 106.9 68.7231C103.4 67.5231 100 68.0232 97.7004 70.0232C95.4004 72.0232 94.4005 75.0232 95.0005 78.4232C95.4005 80.6232 93.9004 82.6232 91.7004 83.0232C89.5004 83.4232 87.5006 81.9231 87.1006 79.7231C86.1006 73.6231 88.1005 67.7232 92.5005 63.9232C97.1005 60.0232 103.3 59.0232 109.5 61.1232H109.601C115.801 63.4232 120 68.7232 120.7 75.4232C121.5 82.7232 118.2 89.8232 111.9 93.9232C104.7 98.8232 96.2005 99.5232 88.0005 99.5232Z" fill="#3B404E"/>
</g>
<g opacity="0.5">
<path opacity="0.5" d="M81.8996 140.323C80.8996 140.323 79.8997 140.223 78.7997 139.923C74.9997 138.923 71.9997 136.223 70.4997 132.623C69.6997 130.623 70.5997 128.223 72.6996 127.423C74.6996 126.623 77.0996 127.523 77.8996 129.623C78.3996 130.923 79.4996 131.823 80.8996 132.223C82.9996 132.723 85.1997 131.623 85.9997 129.523C86.5997 127.623 85.9997 125.123 84.2997 123.023C82.0997 120.223 76.9997 118.423 69.9997 117.823C54.0997 116.423 37.6996 118.923 23.6996 121.423C21.4996 121.823 19.4998 120.323 19.0998 118.123C18.6998 115.923 20.1996 113.923 22.3996 113.523C36.9996 111.023 53.8997 108.423 70.7997 109.823C80.2997 110.623 86.9996 113.423 90.6996 118.023C94.0996 122.323 95.1996 127.723 93.6996 132.223C91.5996 137.123 86.9996 140.323 81.8996 140.323Z" fill="#3B404E"/>
</g>
<g opacity="0.5">
<path opacity="0.5" d="M128.9 117.723H105.9C103.7 117.723 101.9 115.923 101.9 113.723C101.9 111.523 103.7 109.723 105.9 109.723H128.9C131.1 109.723 132.9 111.523 132.9 113.723C132.9 115.923 131.2 117.723 128.9 117.723Z" fill="#3B404E"/>
</g>
</svg>
