<svg width="149" height="126" viewBox="0 0 149 126" fill="none" xmlns="http://www.w3.org/2000/svg">
<path d="M139.201 89.5883C138.401 89.5883 137.502 89.2882 136.802 88.7882C135.002 87.4882 134.702 84.9882 136.002 83.1882C139.002 79.0882 140.701 74.2882 140.901 69.2882C141.501 55.3882 130.702 43.4883 116.802 42.8883C114.502 42.7883 112.102 42.9883 109.802 43.5883C108.602 43.8883 107.401 43.5882 106.401 42.7882C105.401 41.9882 104.901 40.8882 104.901 39.6882C104.901 23.2882 92.1015 9.88826 75.7015 9.08826C58.9015 8.28826 44.5016 21.3882 43.8016 38.2882L43.7015 40.6882C43.6015 42.8882 41.7015 44.5883 39.5015 44.4883C37.3015 44.3883 35.6015 42.4882 35.7015 40.2882L35.8016 37.8883C36.7016 17.1883 53.8016 0.988281 74.3016 0.988281C74.9016 0.988281 75.5015 0.988281 76.0015 0.988281C95.1015 1.88828 110.402 16.3883 112.602 34.8883C114.102 34.7883 115.602 34.6882 117.102 34.7882C135.402 35.5882 149.701 51.1883 148.901 69.4883C148.601 76.1883 146.401 82.4883 142.401 87.8883C141.601 88.9883 140.401 89.5883 139.201 89.5883Z" fill="#3B404E"/>
<path d="M33.0007 102.588C32.9007 102.588 32.9008 102.588 32.8008 102.588C14.5008 101.788 0.200747 86.1882 1.00075 67.8882C1.80075 49.5882 17.4007 35.2881 35.7007 36.0881C47.2007 36.5881 57.8007 43.1881 63.4007 53.1881C64.5006 55.0881 63.8008 57.5882 61.8008 58.5882C59.9008 59.6882 57.4007 58.9882 56.4007 56.9882C52.2006 49.2882 44.1007 44.3882 35.4007 43.9882C21.5007 43.3882 9.60075 54.1882 9.00075 68.0882C8.40075 81.9882 19.2008 93.8882 33.1008 94.4882C35.3008 94.5882 37.0006 96.4881 36.9007 98.6881C36.9007 100.888 35.1007 102.588 33.0007 102.588Z" fill="#3B404E"/>
<g opacity="0.5">
<path opacity="0.5" d="M91.0011 125.088C87.6011 125.088 84.2011 124.088 81.2011 122.188C77.9011 119.988 73.6012 119.988 70.3012 122.188C64.3012 126.088 56.7011 126.088 50.7011 122.188C47.4011 120.088 43.201 120.088 39.901 122.188C38.001 123.388 35.601 122.888 34.401 120.988C33.201 119.088 33.7012 116.688 35.6012 115.488C41.5012 111.588 49.2011 111.588 55.2011 115.488C58.5011 117.588 62.7011 117.588 66.0011 115.488C72.0011 111.588 79.6012 111.588 85.6012 115.488C88.9012 117.688 93.2011 117.688 96.5011 115.488C98.4011 114.288 100.801 114.788 102.001 116.688C103.201 118.588 102.701 120.988 100.801 122.188C97.8012 124.088 94.4011 125.088 91.0011 125.088Z" fill="#3B404E"/>
</g>
<g opacity="0.5">
<path opacity="0.5" d="M121.901 104.389C118.501 104.389 115.101 103.389 112.201 101.489C112.201 101.489 112.102 101.489 112.102 101.389C108.802 99.2887 104.601 99.2887 101.301 101.389C101.301 101.389 101.301 101.389 101.201 101.389C95.3014 105.289 87.6015 105.289 81.6015 101.389C78.3015 99.2887 74.1015 99.2887 70.8015 101.389C69.0015 102.589 66.5015 102.089 65.3015 100.189C64.1015 98.2887 64.6015 95.8887 66.5015 94.6887C72.4015 90.7887 80.1015 90.7887 86.1015 94.6887C89.4015 96.7887 93.6014 96.7887 96.9014 94.6887C96.9014 94.6887 96.9015 94.6887 97.0014 94.6887C102.901 90.7887 110.601 90.7887 116.501 94.6887C116.501 94.6887 116.602 94.6886 116.602 94.7886C119.902 96.8886 124.101 96.8886 127.401 94.7886C129.301 93.5886 131.701 94.0887 132.901 95.9887C134.101 97.8887 133.601 100.289 131.701 101.489C128.701 103.389 125.301 104.389 121.901 104.389Z" fill="#3B404E"/>
</g>
<g opacity="0.5">
<path opacity="0.5" d="M97.1008 83.5885C93.7008 83.5885 90.3008 82.5884 87.3008 80.6884C84.0008 78.4884 79.7006 78.4884 76.4006 80.6884C70.4006 84.5884 62.8008 84.5884 56.8008 80.6884C53.5008 78.5884 49.3007 78.5884 46.0007 80.6884C44.1007 81.8884 41.7007 81.3885 40.5007 79.4885C39.3007 77.5885 39.8007 75.1885 41.7007 73.9885C47.6007 70.0885 55.3008 70.0885 61.3008 73.9885C64.6008 76.0885 68.8008 76.0885 72.1008 73.9885C78.1008 70.0885 85.7007 70.0885 91.7007 73.9885C95.0007 76.1885 99.3008 76.1885 102.601 73.9885C104.501 72.7885 106.901 73.2884 108.101 75.1884C109.301 77.0884 108.801 79.4884 106.901 80.6884C103.901 82.6884 100.501 83.5885 97.1008 83.5885Z" fill="#3B404E"/>
</g>
</svg>
