<svg width="132" height="110" viewBox="0 0 132 110" fill="none" xmlns="http://www.w3.org/2000/svg">
<path d="M90.5012 60.8009C88.2012 60.8009 86.0013 60.7008 83.8013 60.7008C81.7013 60.7008 79.6012 60.6009 77.7012 60.6009C75.5012 60.6009 73.7012 58.8009 73.7012 56.6009C73.7012 54.4009 75.5012 52.6009 77.7012 52.6009C79.8012 52.6009 81.9012 52.6008 84.0012 52.7008C94.5012 52.9008 105.301 53.2009 113.401 47.8009C117.901 44.8009 120.401 39.8009 119.801 34.6009C119.301 30.2009 116.701 26.7008 112.601 25.2008C108.301 23.8008 104.201 24.4009 101.301 26.8009C98.5013 29.2009 97.3012 33.0009 98.0012 37.1009C98.4012 39.3009 96.9012 41.3008 94.7012 41.7008C92.5012 42.1008 90.5012 40.6009 90.1012 38.4009C88.9012 31.5009 91.2012 24.9008 96.1012 20.7008C101.201 16.3008 108.201 15.2009 115.201 17.6009H115.301C122.201 20.2009 126.901 26.1009 127.701 33.6009C128.601 41.8009 124.801 49.8009 117.801 54.4009C109.601 60.0009 99.8012 60.8009 90.5012 60.8009Z" fill="#3B404E"/>
<path d="M61.9008 61.8008H24.8008C22.6008 61.8008 20.8008 60.0008 20.8008 57.8008C20.8008 55.6008 22.6008 53.8008 24.8008 53.8008H61.9008C64.1008 53.8008 65.9008 55.6008 65.9008 57.8008C65.9008 60.0008 64.1008 61.8008 61.9008 61.8008Z" fill="#3B404E"/>
<path d="M73.0009 109.101C71.9009 109.101 70.7009 109.001 69.6009 108.701C65.5009 107.601 62.0009 104.601 60.4009 100.701C59.6009 98.701 60.5009 96.301 62.6009 95.501C64.6009 94.701 67.001 95.601 67.801 97.701C68.501 99.401 69.9009 100.601 71.6009 101.101C74.4009 101.801 77.2009 100.301 78.2009 97.501C79.2009 94.601 77.7009 91.3011 76.1009 89.3011C73.4009 85.9011 67.6009 83.801 59.1009 83.101C40.6009 81.501 21.7009 84.4011 5.40094 87.3011C3.20094 87.7011 1.20096 86.201 0.800963 84.001C0.400963 81.801 1.90089 79.801 4.10089 79.401C20.9009 76.501 40.4009 73.501 59.9009 75.201C70.7009 76.101 78.3009 79.201 82.5009 84.401C86.3009 89.201 87.6009 95.201 85.9009 100.201C83.8009 105.601 78.6009 109.101 73.0009 109.101Z" fill="#3B404E"/>
<path d="M127.401 82.9009H100.801C98.6008 82.9009 96.8008 81.1009 96.8008 78.9009C96.8008 76.7009 98.6008 74.9009 100.801 74.9009H127.401C129.601 74.9009 131.401 76.7009 131.401 78.9009C131.401 81.1009 129.601 82.9009 127.401 82.9009Z" fill="#3B404E"/>
<path d="M39.6003 39.501C34.1003 39.501 28.6003 38.201 23.5003 37.001L21.6003 36.501C17.5003 35.501 14.6003 34.701 11.7003 33.901C9.20029 33.201 6.60031 32.401 3.10031 31.601C1.00031 31.101 -0.399711 28.901 0.200289 26.801C0.700289 24.701 2.90034 23.301 5.00034 23.901C8.60034 24.801 11.3004 25.601 13.9004 26.301C16.8004 27.101 19.5004 27.901 23.4004 28.801L25.4004 29.301C31.5004 30.801 37.8004 32.301 43.3004 31.301C48.6004 30.401 54.0003 26.001 54.0003 19.601C54.0003 16.501 52.8003 13.601 50.6003 11.401C48.4003 9.201 45.5004 8.00098 42.4004 8.00098C37.5004 8.00098 33.6003 12.001 33.6003 16.801V17.001C33.6003 19.201 31.8003 21.001 29.6003 21.001C27.4003 21.001 25.6003 19.201 25.6003 17.001V16.801C25.6003 7.50103 33.2004 0.000976562 42.4004 0.000976562C47.6004 0.000976562 52.5003 2.00093 56.2003 5.70093C59.9003 9.40093 61.9004 14.301 61.9004 19.501C61.9004 29.101 54.6003 37.301 44.5003 39.101C43.0003 39.401 41.3003 39.501 39.6003 39.501Z" fill="#3B404E"/>
</svg>
