<svg width="132" height="119" viewBox="0 0 132 119" fill="none" xmlns="http://www.w3.org/2000/svg">
<path d="M94.1007 70.001C91.8007 70.001 89.6008 69.901 87.4008 69.901C85.3008 69.901 83.2008 69.8011 81.3008 69.8011C79.1008 69.8011 77.3008 68.0011 77.3008 65.8011C77.3008 63.6011 79.1008 61.8011 81.3008 61.8011C83.4008 61.8011 85.5007 61.801 87.6007 61.901C98.1007 62.101 108.901 62.401 117.001 57.001C121.501 54.001 124.001 49.0011 123.401 43.8011C122.901 39.4011 120.301 35.901 116.201 34.401C111.901 33.001 107.801 33.601 104.901 36.001C102.101 38.401 100.901 42.2011 101.601 46.3011C102.001 48.5011 100.501 50.501 98.3008 50.901C96.1008 51.301 94.1007 49.801 93.7007 47.601C92.5007 40.701 94.8007 34.101 99.7007 29.901C104.801 25.501 111.801 24.4011 118.801 26.8011H118.901C125.801 29.4011 130.501 35.3011 131.301 42.8011C132.201 51.0011 128.401 59.001 121.401 63.601C113.201 69.201 103.401 70.001 94.1007 70.001Z" fill="#3B404E"/>
<path d="M76.6002 118.201C75.5001 118.201 74.3001 118.101 73.2001 117.801C69.1001 116.701 65.6002 113.701 64.0002 109.801C63.2002 107.801 64.1001 105.401 66.2001 104.601C68.2001 103.801 70.6002 104.701 71.4002 106.801C72.1002 108.401 73.5001 109.701 75.2001 110.201C78.0001 110.901 80.8002 109.401 81.8002 106.601C82.8002 103.701 81.3001 100.401 79.7001 98.4014C77.6001 95.7014 73.2002 93.7014 67.4002 92.7014C65.2002 92.3014 63.7002 90.3014 64.1002 88.1014C64.5002 85.9014 66.5001 84.4015 68.7001 84.8015C74.2001 85.7015 81.7002 87.9014 86.0002 93.4014C89.8002 98.2014 91.1002 104.201 89.4002 109.201C87.4002 114.701 82.3001 118.201 76.6002 118.201Z" fill="#3B404E"/>
<path d="M43.1998 48.7012C37.6998 48.7012 32.1998 47.4012 27.0998 46.2012L25.1998 45.7012C21.0998 44.7012 18.1999 43.9012 15.2999 43.1012C12.7999 42.4012 10.1998 41.6013 6.69981 40.8013C4.59981 40.3013 3.19991 38.1012 3.79991 36.0012C4.29991 33.9012 6.49983 32.5012 8.59983 33.1012C12.1998 34.0012 14.8999 34.8012 17.4999 35.5012C20.3999 36.3012 23.0999 37.1012 26.9999 38.0012L28.9999 38.5012C35.0999 40.0012 41.3999 41.5012 46.8999 40.5012C52.1999 39.6012 57.5998 35.2013 57.5998 28.8013C57.5998 25.7013 56.3998 22.8012 54.1998 20.6012C51.9998 18.4012 49.0999 17.2012 45.9999 17.2012C41.0999 17.2012 37.1998 21.2012 37.1998 26.0012V26.2012C37.1998 28.4012 35.3998 30.2012 33.1998 30.2012C30.9998 30.2012 29.1998 28.4012 29.1998 26.2012V26.0012C29.1998 16.7012 36.7999 9.20117 45.9999 9.20117C51.1999 9.20117 56.0999 11.2012 59.7999 14.9012C63.4999 18.6012 65.4999 23.5012 65.4999 28.7012C65.4999 38.3012 58.1998 46.5013 48.0998 48.3013C46.5998 48.6013 44.8998 48.7012 43.1998 48.7012Z" fill="#3B404E"/>
<path d="M4.60052 101.001C3.00052 101.001 1.50057 100.101 0.900565 98.5014C0.100565 96.5014 1.00052 94.1014 3.10052 93.3014C10.0005 90.5014 17.2005 88.3014 24.5005 86.8014C26.7005 86.4014 28.8005 87.7014 29.2005 89.9014C29.6005 92.1014 28.3005 94.2014 26.1005 94.6014C19.3005 96.0014 12.6005 98.1013 6.20049 100.701C5.60049 100.901 5.10052 101.001 4.60052 101.001Z" fill="#3B404E"/>
<path d="M85.1007 30.1012C84.5007 30.1012 83.8008 29.9012 83.3008 29.6012C81.7008 28.6012 81.1007 26.4013 82.2007 24.8013L86.0007 18.6012H78.1007C76.8007 18.6012 75.6007 17.9013 75.0007 16.8013C74.4007 15.7013 74.4007 14.3012 75.1007 13.2012L82.2007 2.10123C83.2007 0.501235 85.4007 0.00125897 87.0007 1.00126C88.6007 2.00126 89.1007 4.20131 88.1007 5.80131L84.5007 11.5013H92.3008C93.6008 11.5013 94.7008 12.2013 95.4008 13.3013C96.0008 14.4013 96.0008 15.8013 95.3008 16.8013L88.2007 28.3013C87.4007 29.5013 86.2007 30.1012 85.1007 30.1012Z" fill="#FFC44C"/>
<path d="M113.101 106.101C112.501 106.101 111.801 105.901 111.301 105.601C109.701 104.601 109.101 102.401 110.201 100.801L114.001 94.6012H106.101C104.801 94.6012 103.601 93.9013 103.001 92.8013C102.401 91.7013 102.401 90.3012 103.101 89.2012L110.201 78.1012C111.201 76.5012 113.401 76.0013 115.001 77.0013C116.601 78.0013 117.101 80.2013 116.101 81.8013L112.501 87.5013H120.301C121.601 87.5013 122.701 88.2013 123.401 89.3013C124.001 90.4013 124.001 91.8013 123.301 92.8013L116.201 104.301C115.401 105.501 114.201 106.101 113.101 106.101Z" fill="#FFC44C"/>
<path d="M45.0007 95.101C44.4007 95.101 43.7007 94.901 43.2007 94.601C41.6007 93.601 41.0007 91.4011 42.1007 89.8011L48.8008 78.901H35.1007C33.8007 78.901 32.6007 78.201 32.0007 77.101C31.4007 76.001 31.4007 74.601 32.1007 73.501L42.1007 57.901C43.1007 56.301 45.3008 55.8011 46.9008 56.8011C48.5008 57.8011 49.0007 60.001 48.0007 61.601L41.5007 71.901H55.1007C56.4007 71.901 57.5007 72.601 58.2007 73.701C58.8007 74.801 58.8007 76.201 58.1007 77.201L48.0007 93.401C47.3007 94.501 46.1007 95.101 45.0007 95.101Z" fill="#FFC44C"/>
</svg>
