<svg width="170" height="102" viewBox="0 0 170 102" fill="none" xmlns="http://www.w3.org/2000/svg">
<path d="M72.4004 8.95928C71.4004 8.95928 70.3003 8.55933 69.6003 7.75933C68.9003 6.95933 68.4004 5.95928 68.4004 4.95928C68.4004 4.65928 68.4004 4.45947 68.5004 4.15947C68.6004 3.85947 68.6003 3.65942 68.7003 3.35942C68.8003 3.15942 68.9003 2.85947 69.1003 2.65947C69.3003 2.45947 69.4003 2.25937 69.6003 2.05937C70.5003 1.15937 71.9003 0.659277 73.2003 0.959277C73.5003 0.959277 73.7004 1.05947 74.0004 1.15947C74.2004 1.25947 74.5003 1.35937 74.7003 1.55937C74.9003 1.65937 75.1004 1.85937 75.3004 2.05937C75.5004 2.25937 75.7004 2.45947 75.8004 2.65947C75.9004 2.85947 76.1003 3.15942 76.2003 3.35942C76.3003 3.55942 76.4004 3.85947 76.4004 4.15947C76.5004 4.45947 76.5004 4.65928 76.5004 4.95928C76.5004 5.95928 76.1004 7.05933 75.3004 7.75933C75.1004 7.95933 74.9003 8.05933 74.7003 8.25933C74.5003 8.35933 74.2004 8.55947 74.0004 8.65947C73.8004 8.75947 73.5003 8.85942 73.2003 8.85942C73.0003 8.95942 72.7004 8.95928 72.4004 8.95928Z" fill="#57AAFF"/>
<path d="M126.401 17.9593C126.101 17.9593 125.901 17.9594 125.601 17.8594C125.301 17.7594 125.101 17.7595 124.801 17.6595C124.601 17.5595 124.301 17.4593 124.101 17.2593C123.901 17.0593 123.701 16.9593 123.501 16.7593C122.801 15.9593 122.301 14.9593 122.301 13.9593C122.301 13.6593 122.301 13.4595 122.401 13.1595C122.501 12.8595 122.501 12.6594 122.601 12.3594C122.701 12.1594 122.801 11.8595 123.001 11.6595C123.201 11.4595 123.301 11.2594 123.501 11.0594C123.701 10.8594 123.901 10.6594 124.101 10.5594C124.301 10.4594 124.501 10.2595 124.801 10.1595C125.001 10.0595 125.301 9.95928 125.601 9.95928C126.901 9.65928 128.301 10.1594 129.201 11.0594C129.401 11.2594 129.601 11.4595 129.701 11.6595C129.801 11.8595 130.001 12.1594 130.101 12.3594C130.201 12.5594 130.301 12.8595 130.301 13.1595C130.401 13.4595 130.401 13.6593 130.401 13.9593C130.401 14.9593 130.001 16.0593 129.201 16.7593C128.501 17.5593 127.501 17.9593 126.401 17.9593Z" fill="#57AAFF"/>
<path d="M5.00037 49.4595C4.70037 49.4595 4.50032 49.4597 4.20032 49.3597C3.90032 49.2597 3.70039 49.2597 3.40039 49.1597C3.20039 49.0597 2.90032 48.9596 2.70032 48.7596C2.50032 48.6596 2.30034 48.4596 2.10034 48.2596C1.90034 48.0596 1.70034 47.8597 1.60034 47.6597C1.50034 47.4597 1.30032 47.2595 1.20032 46.9595C1.10032 46.7595 1.00037 46.4597 1.00037 46.1597C0.900366 45.8597 0.900391 45.6597 0.900391 45.3597C0.900391 45.0597 0.900366 44.8596 1.00037 44.5596C1.00037 44.2596 1.10032 44.0596 1.20032 43.7596C1.30032 43.5596 1.40034 43.2596 1.60034 43.0596C1.70034 42.8596 1.90034 42.6595 2.10034 42.4595C2.30034 42.2595 2.50032 42.0595 2.70032 41.9595C2.90032 41.8595 3.20039 41.6596 3.40039 41.5596C3.60039 41.4596 3.90032 41.3597 4.20032 41.3597C5.50032 41.0597 6.90041 41.5595 7.80042 42.4595C8.00041 42.6595 8.10042 42.8596 8.30042 43.0596C8.40041 43.2596 8.60032 43.5596 8.70032 43.7596C8.80032 43.9596 8.90039 44.2596 8.90039 44.5596C8.90039 44.7596 9.00037 45.0597 9.00037 45.3597C9.00037 45.6597 9.00039 45.8597 8.90039 46.1597C8.80039 46.3597 8.80032 46.6595 8.70032 46.9595C8.60032 47.1595 8.50041 47.4597 8.30042 47.6597C8.10042 47.8597 8.00041 48.0596 7.80042 48.2596C7.10042 49.0596 6.00037 49.4595 5.00037 49.4595Z" fill="#57AAFF"/>
<path d="M36.9004 101.46C35.9004 101.46 34.8003 101.06 34.1003 100.26C33.9003 100.06 33.8003 99.8599 33.6003 99.6599C33.5003 99.4599 33.3003 99.2597 33.2003 98.9597C33.1003 98.7597 33.0004 98.4599 33.0004 98.1599C33.0004 97.8599 32.9004 97.6599 32.9004 97.3599C32.9004 97.0599 32.9004 96.8598 33.0004 96.5598C33.1004 96.2598 33.1003 96.0598 33.2003 95.7598C33.3003 95.5598 33.4003 95.2598 33.6003 95.0598C33.8003 94.8598 33.9003 94.6597 34.1003 94.4597C34.9003 93.7597 35.9004 93.2598 36.9004 93.2598C38.0004 93.2598 39.0003 93.6597 39.7003 94.4597C39.9003 94.6597 40.1003 94.8598 40.2003 95.0598C40.3003 95.2598 40.5003 95.5598 40.6003 95.7598C40.7003 95.9598 40.8004 96.2598 40.8004 96.5598C40.9004 96.8598 40.9004 97.0599 40.9004 97.3599C40.9004 97.6599 40.9004 97.8599 40.8004 98.1599C40.8004 98.4599 40.7003 98.6597 40.6003 98.9597C40.5003 99.1597 40.4003 99.4599 40.2003 99.6599C40.1003 99.8599 39.9003 100.06 39.7003 100.26C39.0003 101.06 38.0004 101.46 36.9004 101.46Z" fill="#57AAFF"/>
<path d="M29.4017 62.6595C28.0017 62.6595 26.7017 61.9595 25.9017 60.6595C24.8017 58.7595 25.4017 56.2595 27.3017 55.1595L70.4017 29.9593C72.3017 28.8593 74.8017 29.4594 75.9017 31.3594C77.0017 33.2594 76.4017 35.7594 74.5017 36.8594L31.4017 62.0594C30.8017 62.4594 30.1017 62.6595 29.4017 62.6595Z" fill="#57AAFF"/>
<path d="M72.4012 62.6596C71.7012 62.6596 71.0012 62.4596 70.4012 62.1596L27.3013 36.9594C25.4013 35.8594 24.7012 33.3594 25.9012 31.4594C27.0012 29.5594 29.5012 28.8595 31.4012 30.0595L74.5012 55.2594C76.4012 56.3594 77.1012 58.8594 75.9012 60.7594C75.2012 61.9594 73.8012 62.6596 72.4012 62.6596Z" fill="#57AAFF"/>
<path d="M50.9004 74.9595C48.7004 74.9595 46.9004 73.1595 46.9004 70.9595V21.0596C46.9004 18.8596 48.7004 17.0596 50.9004 17.0596C53.1004 17.0596 54.9004 18.8596 54.9004 21.0596V70.9595C54.9004 73.1595 53.1004 74.9595 50.9004 74.9595Z" fill="#57AAFF"/>
<path d="M115.8 96.0593C112.3 96.0593 108.699 95.0593 105.599 93.0593C101.999 90.7593 97.3995 90.7593 93.8995 93.0593C93.8995 93.0593 93.8995 93.0593 93.7995 93.0593C87.5995 97.0593 79.5995 97.0593 73.4995 93.0593C69.9995 90.7593 65.3995 90.7593 61.7995 93.0593C59.8995 94.2593 57.4995 93.7594 56.2995 91.8594C55.0995 89.9594 55.5995 87.5594 57.4995 86.3594C63.6995 82.3594 71.6995 82.3594 77.8995 86.3594C81.3995 88.6594 85.9995 88.6594 89.5995 86.3594H89.6994C95.8994 82.3594 103.899 82.3594 109.999 86.3594C113.599 88.6594 118.199 88.6594 121.699 86.3594C123.599 85.1594 125.999 85.6593 127.199 87.5593C128.399 89.4593 127.899 91.8593 125.999 93.0593C122.899 95.0593 119.4 96.0593 115.8 96.0593Z" fill="#3B404E"/>
<path d="M125 71.1594C121.4 71.1594 117.9 70.1594 114.8 68.1594C111.3 65.8594 106.7 65.8594 103.1 68.1594C101.2 69.3594 98.8003 68.8592 97.6003 66.9592C96.4003 65.0592 96.9004 62.6592 98.8004 61.4592C105 57.4592 113 57.4592 119.2 61.4592C122.7 63.7592 127.3 63.7592 130.9 61.4592C130.9 61.4592 131 61.4594 131 61.3594C137.1 57.3594 145.1 57.3594 151.3 61.3594H151.4C154.9 63.6594 159.5 63.6594 163.1 61.3594C165 60.1594 167.4 60.6593 168.6 62.5593C169.8 64.4593 169.3 66.8593 167.4 68.0593C161.2 72.0593 153.2 72.0593 147.1 68.0593H147C143.5 65.7593 138.9 65.7593 135.3 68.0593C135.3 68.0593 135.2 68.0594 135.2 68.1594C132 70.1594 128.5 71.1594 125 71.1594Z" fill="#3B404E"/>
<path d="M130.3 43.3591C126.8 43.3591 123.199 42.3591 120.099 40.3591C116.499 38.0591 111.9 38.0591 108.4 40.3591C102.2 44.3591 94.1995 44.3591 87.9995 40.3591C86.0995 39.1591 85.5995 36.6591 86.7995 34.8591C87.9995 32.9591 90.4995 32.4592 92.2995 33.6592C95.7995 35.9592 100.399 35.9592 103.999 33.6592C110.199 29.6592 118.2 29.6592 124.4 33.6592C128 35.9592 132.599 35.9592 136.099 33.6592C137.999 32.4592 140.399 32.9591 141.599 34.8591C142.799 36.7591 142.3 39.1591 140.4 40.3591C137.4 42.3591 133.9 43.3591 130.3 43.3591Z" fill="#3B404E"/>
</svg>
