<svg width="126" height="106" viewBox="0 0 126 106" fill="none" xmlns="http://www.w3.org/2000/svg">
<path d="M68.9011 38.1996C65.0011 38.1996 60.5011 37.1996 54.9011 34.9996C52.8011 34.1996 51.8011 31.8997 52.6011 29.7997C53.4011 27.6997 55.7011 26.6996 57.8011 27.4996C64.1011 29.8996 68.5011 30.5995 71.5011 29.8995C73.5011 29.3995 75.2011 28.0995 76.4011 26.3995L76.5011 26.2997C79.1011 22.7997 78.8011 18.2996 75.8011 15.6996C75.8011 15.6996 75.701 15.6997 75.701 15.5997C73.901 13.9997 71.4011 13.4997 69.1011 14.2997C67.0011 15.0997 64.7011 14.0996 63.9011 11.9996C63.1011 9.89961 64.101 7.59966 66.201 6.79966C71.301 4.79966 77.0011 5.89971 81.0011 9.59971C87.0011 14.8997 87.8011 23.9995 82.8011 30.8995C80.5011 34.1995 77.2011 36.5997 73.3011 37.5997C71.9011 37.9997 70.5011 38.1996 68.9011 38.1996Z" fill="#3B404E"/>
<path d="M95.3998 74.2991C83.5998 74.2991 72.5998 67.699 62.3998 61.699C59.2998 59.799 56.3998 58.0991 53.3998 56.4991C51.4998 55.4991 50.6999 52.9992 51.7999 51.0992C52.7999 49.1992 55.2998 48.3991 57.1998 49.4991C60.2998 51.1991 63.4998 52.999 66.4998 54.899C80.7998 63.399 94.3998 71.4991 108.5 62.2991C115 57.9991 118.6 49.9991 117.4 42.2991C116.8 38.2991 114.2 31.0991 104.2 28.4991C102.1 27.8991 100.8 25.6992 101.4 23.5992C102 21.4992 104.2 20.1991 106.3 20.7991C116.6 23.4991 123.8 31.0992 125.4 41.0992C127.1 51.8992 122.1 63.0992 113 69.0992C106.9 72.6992 101 74.2991 95.3998 74.2991Z" fill="#3B404E"/>
<path d="M57.0003 105.6C53.9003 105.6 50.9003 104.7 48.4003 102.7C46.7003 101.3 46.4002 98.7997 47.7002 97.0997C49.1002 95.3997 51.6003 95.0995 53.3003 96.3995C55.8003 98.2995 60.0003 97.7996 62.3003 95.2996C65.3003 91.8996 63.9003 86.7996 61.5003 83.4996C51.9003 70.5996 33.1003 65.4995 15.9003 71.1995C13.8003 71.8995 11.5003 70.7995 10.8003 68.6995C10.1003 66.5995 11.2003 64.2997 13.3003 63.5997C33.7003 56.7997 56.1003 63.0995 67.8003 78.6995C72.1003 84.4995 74.1002 93.7997 68.2002 100.6C65.4002 103.9 61.1003 105.6 57.0003 105.6Z" fill="#3B404E"/>
<path d="M4.99937 39.5999C3.59937 39.5999 2.29937 38.8999 1.49937 37.5999C0.399373 35.6999 0.999397 33.1999 2.8994 32.0999L39.1993 10.8997C41.0993 9.79973 43.5993 10.3999 44.6993 12.2999C45.7993 14.1999 45.1994 16.6999 43.2994 17.7999L6.99937 38.9998C6.39937 39.4998 5.69937 39.5999 4.99937 39.5999Z" fill="#57AAFF"/>
<path d="M41.2986 39.5995C40.5986 39.5995 39.8986 39.3995 39.2986 39.0995L2.99853 17.8993C1.09853 16.7993 0.398501 14.2993 1.5985 12.3993C2.6985 10.4993 5.1985 9.8994 7.0985 10.9994L43.3985 32.1994C45.2985 33.2994 45.9986 35.7994 44.7986 37.6994C43.9986 38.8994 42.6986 39.5995 41.2986 39.5995Z" fill="#57AAFF"/>
<path d="M23.1992 50C20.9992 50 19.1992 48.2 19.1992 46V4C19.1992 1.8 20.9992 0 23.1992 0C25.3992 0 27.1992 1.8 27.1992 4V46C27.1992 48.3 25.3992 50 23.1992 50Z" fill="#57AAFF"/>
</svg>
