<svg width="143" height="112" viewBox="0 0 143 112" fill="none" xmlns="http://www.w3.org/2000/svg">
<path d="M85.7007 111.205C81.8007 111.205 77.9007 110.105 74.5007 107.905C70.3007 105.205 65.0007 105.205 60.9007 107.905C54.1007 112.305 45.3007 112.305 38.6007 107.905C34.5007 105.205 29.1007 105.205 25.0007 107.905C23.1007 109.105 20.7007 108.605 19.5007 106.705C18.3007 104.805 18.8007 102.405 20.7007 101.205C27.5007 96.8053 36.2007 96.8053 43.0007 101.205C47.1007 103.905 52.5007 103.905 56.6007 101.205C63.4007 96.8053 72.2007 96.8053 78.9007 101.205C83.1007 103.905 88.4007 103.905 92.5007 101.205C94.4007 100.005 96.8007 100.505 98.0007 102.405C99.2007 104.305 98.7007 106.705 96.8007 107.905C93.4007 110.105 89.5007 111.205 85.7007 111.205Z" fill="#3B404E"/>
<path d="M121.5 83.7053C117.6 83.7053 113.7 82.6052 110.3 80.4052C106.1 77.7052 100.8 77.7052 96.6999 80.4052C96.6999 80.4052 96.5999 80.4053 96.5999 80.5053C89.7999 84.9053 81.0999 84.9053 74.2999 80.5053C70.1999 77.8053 64.7999 77.8053 60.6999 80.5053C58.7999 81.7053 56.3999 81.2052 55.1999 79.3052C53.9999 77.4052 54.4999 75.0052 56.3999 73.8052C63.1999 69.4052 71.8999 69.4052 78.6999 73.8052C82.7999 76.5052 88.1999 76.5052 92.2999 73.8052C92.2999 73.8052 92.3999 73.8053 92.3999 73.7053C99.1999 69.3053 107.9 69.3053 114.6 73.7053C118.8 76.4053 124.1 76.4053 128.2 73.7053C130.1 72.5053 132.5 73.0052 133.7 74.9052C134.9 76.8052 134.4 79.2052 132.5 80.4052C129.3 82.6052 125.4 83.7053 121.5 83.7053Z" fill="#3B404E"/>
<path d="M49.9007 62.2053C46.0007 62.2053 42.1007 61.1052 38.7007 58.9052C34.5007 56.2052 29.2007 56.2052 25.1007 58.9052C25.1007 58.9052 25.0007 58.9053 25.0007 59.0053C18.3007 63.4053 9.50071 63.4053 2.70071 59.0053C0.800712 57.8053 0.3007 55.3053 1.5007 53.5053C2.7007 51.7053 5.2007 51.1052 7.0007 52.3052C11.1007 55.0052 16.5007 55.0052 20.6007 52.3052C20.6007 52.3052 20.7007 52.3053 20.7007 52.2053C27.4007 47.8053 36.2007 47.8053 42.9007 52.2053C47.1007 54.9053 52.4007 54.9053 56.5007 52.2053C58.4007 51.0053 60.8007 51.5052 62.0007 53.4052C63.2007 55.3052 62.7007 57.7052 60.8007 58.9052C57.7007 61.1052 53.8007 62.2053 49.9007 62.2053Z" fill="#3B404E"/>
<path d="M104.5 37.7053C100.6 37.7053 96.6999 36.6052 93.2999 34.4052C89.0999 31.7052 83.7999 31.7052 79.6999 34.4052C79.6999 34.4052 79.5999 34.4053 79.5999 34.5053C72.7999 38.9053 64.0999 38.9053 57.2999 34.5053C53.1999 31.8053 47.7999 31.8053 43.6999 34.5053C41.7999 35.7053 39.3999 35.2052 38.1999 33.3052C36.9999 31.4052 37.4999 29.0052 39.3999 27.8052C46.1999 23.4052 54.8999 23.4052 61.6999 27.8052C65.7999 30.5052 71.1999 30.5052 75.2999 27.8052C75.2999 27.8052 75.3999 27.8053 75.3999 27.7053C82.1999 23.3053 90.8999 23.3053 97.5999 27.7053C101.8 30.4053 107.1 30.4053 111.2 27.7053C113.1 26.5053 115.5 27.0052 116.7 28.9052C117.9 30.8052 117.4 33.2052 115.5 34.4052C112.3 36.6052 108.4 37.7053 104.5 37.7053Z" fill="#3B404E"/>
<path d="M17.3008 11.6053C17.0008 11.6053 16.8008 11.6053 16.5008 11.5053C16.3008 11.5053 16.0008 11.4052 15.8008 11.3052C15.6008 11.2052 15.3008 11.1052 15.1008 10.9052C14.9008 10.8052 14.7008 10.6052 14.5008 10.4052C14.3008 10.2052 14.1008 10.0052 14.0008 9.80522C13.9008 9.60522 13.7008 9.30527 13.6008 9.10527C13.5008 8.90527 13.4008 8.60522 13.4008 8.30522C13.4008 8.00522 13.3008 7.8053 13.3008 7.5053C13.3008 6.5053 13.7008 5.40525 14.5008 4.70525C14.7008 4.50525 14.9008 4.30525 15.1008 4.20525C15.3008 4.00525 15.6008 3.90522 15.8008 3.80522C16.0008 3.70522 16.3008 3.60527 16.5008 3.60527C17.0008 3.50527 17.5008 3.50527 18.1008 3.60527C18.3008 3.60527 18.6008 3.70522 18.9008 3.80522C19.1008 3.90522 19.4008 4.00525 19.6008 4.20525C19.8008 4.30525 20.0008 4.50525 20.2008 4.70525C20.4008 4.90525 20.6008 5.10522 20.7008 5.30522C20.8008 5.50522 21.0008 5.8053 21.1008 6.0053C21.2008 6.2053 21.3008 6.50522 21.3008 6.80522C21.3008 7.10522 21.4008 7.30527 21.4008 7.60527C21.4008 7.90527 21.4008 8.1052 21.3008 8.4052C21.2008 8.7052 21.2008 8.90525 21.1008 9.20525C21.0008 9.40525 20.9008 9.7052 20.7008 9.9052C20.6008 10.1052 20.4008 10.3053 20.2008 10.5053C20.0008 10.7053 19.8008 10.9053 19.6008 11.0053C19.4008 11.1053 19.2008 11.3052 18.9008 11.4052C18.7008 11.5052 18.4008 11.6053 18.1008 11.6053C17.8008 11.6053 17.5008 11.6053 17.3008 11.6053Z" fill="#3B404E"/>
<path d="M12.6 87.705C12.3 87.705 12.1 87.705 11.8 87.605C11.5 87.605 11.3 87.505 11 87.405C10.8 87.305 10.5 87.2051 10.3 87.0051C10.1 86.9051 9.90001 86.7051 9.70001 86.5051C9.00001 85.8051 8.5 84.705 8.5 83.705C8.5 83.405 8.49998 83.205 8.59998 82.905C8.69998 82.705 8.69999 82.405 8.79999 82.205C8.89999 82.005 9.00001 81.7051 9.20001 81.5051C9.30001 81.3051 9.50001 81.105 9.70001 80.905C9.90001 80.705 10.1 80.505 10.3 80.405C10.5 80.305 10.8 80.1051 11 80.0051C11.2 79.9051 11.5 79.805 11.8 79.805C13.1 79.505 14.5 80.005 15.4 80.905C15.6 81.105 15.8 81.3051 15.9 81.5051C16 81.7051 16.2 81.905 16.3 82.205C16.4 82.405 16.5 82.705 16.5 82.905C16.6 83.205 16.6 83.405 16.6 83.705C16.6 84.705 16.2 85.8051 15.4 86.5051C14.7 87.3051 13.7 87.705 12.6 87.705Z" fill="#3B404E"/>
<path d="M138.102 106.005C137.002 106.005 136.002 105.605 135.302 104.805C134.602 104.005 134.102 103.005 134.102 102.005C134.102 100.905 134.502 99.9053 135.302 99.2053C136.102 98.5053 137.102 98.0054 138.102 98.0054C139.102 98.0054 140.202 98.4053 140.902 99.2053C141.102 99.4053 141.302 99.6053 141.402 99.8053C141.502 100.005 141.702 100.305 141.802 100.505C141.902 100.705 142.002 101.005 142.002 101.305C142.102 101.605 142.102 101.805 142.102 102.105C142.102 103.205 141.702 104.205 140.902 104.905C140.202 105.605 139.102 106.005 138.102 106.005Z" fill="#3B404E"/>
<path d="M122.1 8.0053C121.8 8.0053 121.6 8.0052 121.3 7.9052C121 7.9052 120.8 7.80525 120.5 7.70525C120.3 7.60525 120 7.50522 119.8 7.30522C119.6 7.10522 119.4 7.00522 119.2 6.80522C118.5 6.00522 118 5.0053 118 4.0053C118 2.9053 118.4 1.90525 119.2 1.20525C119.4 1.00525 119.6 0.805249 119.8 0.705249C120 0.605249 120.3 0.405225 120.5 0.305225C120.7 0.205225 121 0.105273 121.3 0.105273C121.8 0.00527344 122.3 0.00527344 122.9 0.105273C123.2 0.105273 123.4 0.205225 123.7 0.305225C123.9 0.405225 124.2 0.505249 124.4 0.705249C124.6 0.805249 124.8 1.00525 125 1.20525C125.2 1.40525 125.4 1.60522 125.5 1.80522C125.6 2.00522 125.8 2.3053 125.9 2.5053C126 2.7053 126.1 3.00522 126.1 3.30522C126.2 3.60522 126.2 3.80527 126.2 4.10527C126.2 4.40527 126.2 4.6052 126.1 4.9052C126 5.2052 126 5.40525 125.9 5.70525C125.8 5.90525 125.7 6.2052 125.5 6.4052C125.4 6.6052 125.2 6.8053 125 7.0053C124.8 7.2053 124.6 7.3053 124.4 7.5053C124.2 7.6053 123.9 7.8052 123.7 7.9052C123.5 8.0052 123.2 8.10527 122.9 8.10527C122.6 8.00527 122.3 8.0053 122.1 8.0053Z" fill="#3B404E"/>
</svg>
