<svg width="159" height="113" viewBox="0 0 159 113" fill="none" xmlns="http://www.w3.org/2000/svg">
<path d="M139 65.2052C137.5 65.2052 136 64.3053 135.4 62.9053C134.5 60.9053 135.4 58.5052 137.4 57.6052C142.7 55.2052 146.7 50.6052 149 44.6052C144.6 44.1052 140.3 42.4052 136.7 39.8052C126.7 32.5052 123.4 19.3052 128.1 8.30519C116.3 6.60519 104.4 13.1053 99.6995 24.4053C98.8995 26.4053 96.4996 27.4052 94.4996 26.6052C92.4996 25.8052 91.4996 23.4053 92.2996 21.4053C99.2996 4.60529 118.2 -3.99471 135.4 1.90529C136.6 2.30529 137.5 3.30526 137.9 4.50526C138.3 5.70526 138.1 7.00524 137.3 8.10524C131.4 16.2052 133.2 27.5053 141.3 33.4053C144.9 36.0053 149.3 37.2052 153.8 36.8052C155.1 36.7052 156.3 37.1052 157.2 38.1052C158.1 39.1052 158.4 40.3052 158.2 41.6052C156 52.4052 149.7 61.0052 140.8 65.1052C140.1 65.1052 139.5 65.2052 139 65.2052Z" fill="#9975FF"/>
<path d="M4.59998 33.6053C4.29998 33.6053 4.10005 33.6053 3.80005 33.5053C3.50005 33.5053 3.3 33.4052 3 33.3052C2.7 33.2052 2.50005 33.1053 2.30005 32.9053C2.10005 32.8053 1.89995 32.6053 1.69995 32.4053C1.49995 32.2053 1.29995 32.0052 1.19995 31.8052C1.09995 31.6052 0.900049 31.3053 0.800049 31.1053C0.700049 30.9053 0.599976 30.6052 0.599976 30.3052C0.599976 30.0052 0.5 29.8053 0.5 29.5053C0.5 28.5053 0.899951 27.4052 1.69995 26.7052C1.89995 26.5052 2.10005 26.3052 2.30005 26.2052C2.50005 26.1052 2.7 25.9052 3 25.8052C3.2 25.7052 3.50005 25.6053 3.80005 25.6053C4.30005 25.5053 4.80002 25.5053 5.40002 25.6053C5.70002 25.7053 5.89995 25.7052 6.19995 25.8052C6.39995 25.9052 6.70002 26.0052 6.90002 26.2052C7.10002 26.3052 7.3 26.5052 7.5 26.7052C8.2 27.4052 8.69995 28.5053 8.69995 29.5053C8.69995 30.6053 8.3 31.6052 7.5 32.3052C7.3 32.5052 7.10002 32.7052 6.90002 32.8052C6.70002 33.0052 6.39995 33.1052 6.19995 33.2052C5.99995 33.3052 5.70002 33.4053 5.40002 33.4053C5.10002 33.6053 4.89998 33.6053 4.59998 33.6053Z" fill="#9975FF"/>
<path d="M22.6 36.5053C22.3 36.5053 22.1 36.5053 21.8 36.4053C21.5 36.4053 21.3 36.3052 21 36.2052C20.8 36.1052 20.5 36.0052 20.3 35.8052C20.1 35.7052 19.9 35.5052 19.7 35.3052C18.9 34.5052 18.5 33.5053 18.5 32.5053C18.5 31.5053 18.9 30.4052 19.7 29.7052C19.9 29.5052 20.1 29.3052 20.3 29.2052C20.5 29.1052 20.8 28.9052 21 28.8052C21.2 28.7052 21.5 28.6053 21.8 28.6053C22.3 28.5053 22.8 28.5053 23.4 28.6053C23.6 28.6053 23.9 28.7052 24.2 28.8052C24.4 28.9052 24.7 29.0052 24.9 29.2052C25.1 29.3052 25.3 29.5052 25.5 29.7052C26.2 30.5052 26.7 31.5053 26.7 32.5053C26.7 33.6053 26.3 34.6052 25.5 35.3052C25.3 35.5052 25.1 35.7052 24.9 35.8052C24.7 35.9052 24.5 36.1052 24.2 36.2052C24 36.3052 23.7 36.4053 23.4 36.4053C23.1 36.5053 22.9 36.5053 22.6 36.5053Z" fill="#9975FF"/>
<path d="M33.0004 15.3054C32.7004 15.3054 32.5003 15.3054 32.2003 15.2054C32.0003 15.1054 31.7004 15.1054 31.4004 15.0054C31.2004 14.9054 30.9003 14.8054 30.7003 14.6054C30.5003 14.5054 30.3003 14.3054 30.1003 14.1054C29.9003 13.9054 29.8003 13.7054 29.6003 13.5054C29.5003 13.3054 29.3003 13.1054 29.2003 12.8054C29.1003 12.6054 29.0004 12.3054 29.0004 12.0054C29.0004 11.8054 28.9004 11.5054 28.9004 11.2054C28.9004 10.9054 28.9004 10.7055 29.0004 10.4055C29.0004 10.2055 29.1003 9.90541 29.2003 9.60541C29.3003 9.40541 29.4003 9.10546 29.6003 8.90546C29.7003 8.70546 29.9003 8.50536 30.1003 8.30536C30.3003 8.10536 30.5003 7.90536 30.7003 7.80536C30.9003 7.70536 31.1004 7.50546 31.4004 7.40546C31.6004 7.30546 31.9003 7.20538 32.2003 7.20538C33.5003 6.90538 34.9004 7.40536 35.8004 8.30536C36.0004 8.50536 36.2004 8.70546 36.3004 8.90546C36.4004 9.10546 36.6003 9.40541 36.7003 9.60541C36.8003 9.80541 36.9004 10.1055 36.9004 10.4055C37.0004 10.7055 37.0004 10.9054 37.0004 11.2054C37.0004 11.5054 37.0004 11.7054 36.9004 12.0054C36.9004 12.3054 36.8003 12.5054 36.7003 12.8054C36.6003 13.0054 36.5004 13.3054 36.3004 13.5054C36.2004 13.7054 36.0004 13.9054 35.8004 14.1054C35.1004 14.9054 34.0004 15.3054 33.0004 15.3054Z" fill="#9975FF"/>
<path d="M36.3004 112.805C24.4004 112.805 13.4003 106.305 7.60032 95.9054C3.40032 88.2054 2.30039 79.4054 4.80039 71.0054C7.20039 62.6054 12.8004 55.6054 20.4004 51.4054C25.9004 48.3054 31.9004 47.1053 37.8004 47.3053C39.7004 27.9053 55.9003 13.0054 75.6003 13.0054C85.7003 13.0054 95.3004 17.0053 102.4 24.1053C108.5 30.2053 112.2 37.9053 113.2 46.3053C124.7 45.2053 135.9 50.3054 142.8 59.9054C153.3 74.6054 149.9 95.1053 135.2 105.605C126.5 111.805 115.9 111.905 106.5 112.005H104.5C96.9003 112.105 89.3003 112.205 81.7003 112.305C66.8003 112.505 51.4003 112.705 36.2003 112.805C36.4003 112.805 36.4004 112.805 36.3004 112.805ZM36.3004 55.3053C32.2004 55.3053 28.1004 56.3054 24.3004 58.4054C18.5004 61.6054 14.3003 66.9053 12.5003 73.2053C10.7003 79.5053 11.4003 86.2054 14.6003 92.0054C19.0003 99.9054 27.3004 104.805 36.3004 104.805H36.4004C51.5004 104.705 66.9004 104.505 81.8004 104.305C89.4004 104.205 97.0003 104.105 104.6 104.005H106.6C115.2 103.905 124.1 103.905 130.7 99.1053C141.8 91.1053 144.4 75.6054 136.4 64.5054C130.5 56.3054 120.3 52.5053 110.5 54.8053C109.3 55.1053 108.1 54.8054 107.1 54.0054C106.1 53.2054 105.6 52.1054 105.6 50.9054C105.6 42.9054 102.5 35.4053 96.8004 29.7053C91.1004 24.0053 83.6003 20.9054 75.6003 20.9054C59.8003 20.9054 46.9003 33.0053 45.7003 48.6053C53.6003 51.0053 60.6004 56.3053 64.9004 64.1053C66.0004 66.0053 65.3004 68.5054 63.3004 69.5054C61.4004 70.6054 58.9004 69.9054 57.9004 67.9054C54.3004 61.4054 48.1004 57.1053 41.3004 55.7053C40.9004 55.7053 40.6004 55.6054 40.3004 55.5054C39.0004 55.4054 37.6004 55.3053 36.3004 55.3053Z" fill="#3B404E"/>
</svg>
