<svg width="151" height="125" viewBox="0 0 151 125" fill="none" xmlns="http://www.w3.org/2000/svg">
<path d="M132.001 60.9513C130.501 60.9513 129.001 60.0512 128.401 58.6512C127.501 56.6512 128.401 54.2513 130.401 53.3513C135.101 51.2513 138.701 47.1513 140.801 41.8513C136.801 41.3513 133.001 39.8513 129.601 37.3513C120.301 30.5513 117.201 18.4513 121.401 8.25131C110.701 6.85131 100.101 12.7512 95.9007 23.0512C95.1007 25.0512 92.7007 26.0513 90.7007 25.2513C88.7007 24.4513 87.7008 22.0512 88.5008 20.0512C95.0008 4.35124 112.701 -3.64872 128.801 1.85128C130.001 2.25128 130.901 3.25126 131.301 4.45126C131.701 5.65126 131.501 6.95123 130.701 8.05123C125.401 15.3512 127.001 25.6512 134.301 31.0512C137.601 33.4512 141.601 34.5512 145.601 34.1512C146.901 34.0512 148.101 34.4513 149.001 35.4513C149.901 36.4513 150.201 37.6513 150.001 38.9513C148.001 49.0513 142.001 57.0513 133.701 60.8513C133.101 60.8513 132.601 60.9513 132.001 60.9513Z" fill="#9975FF"/>
<path d="M7.00049 25.9513C6.70049 25.9513 6.50044 25.9514 6.20044 25.8514C5.90044 25.8514 5.70039 25.7513 5.40039 25.6513C5.10039 25.5513 4.90044 25.4514 4.70044 25.2514C4.50044 25.1514 4.30059 24.9514 4.10059 24.7514C3.90059 24.5514 3.70059 24.3513 3.60059 24.1513C3.50059 23.9513 3.30044 23.6513 3.20044 23.4513C3.10044 23.2513 3.00049 22.9513 3.00049 22.6513C2.90049 22.4513 2.90039 22.1514 2.90039 21.8514C2.90039 21.5514 2.90049 21.3513 3.00049 21.0513C3.00049 20.8513 3.10044 20.5514 3.20044 20.2514C3.30044 20.0514 3.40059 19.7513 3.60059 19.5513C3.70059 19.3513 3.90059 19.1513 4.10059 18.9513C4.30059 18.7513 4.50044 18.6513 4.70044 18.4513C4.90044 18.3513 5.10039 18.1513 5.40039 18.0513C5.70039 17.9513 5.90044 17.8514 6.20044 17.8514C6.70044 17.7514 7.20054 17.7514 7.80054 17.8514C8.10054 17.9514 8.30059 17.9513 8.60059 18.0513C8.80059 18.1513 9.10054 18.2513 9.30054 18.4513C9.50054 18.5513 9.70039 18.7513 9.90039 18.9513C10.1004 19.1513 10.2004 19.3513 10.4004 19.5513C10.5004 19.7513 10.7005 19.9514 10.8005 20.2514C10.9005 20.4514 11.0005 20.7513 11.0005 21.0513C11.0005 21.3513 11.1006 21.5514 11.1006 21.8514C11.1006 22.1514 11.1005 22.3513 11.0005 22.6513C11.0005 22.9513 10.9005 23.1513 10.8005 23.4513C10.7005 23.6513 10.6004 23.9513 10.4004 24.1513C10.2004 24.3513 10.1004 24.5514 9.90039 24.7514C9.70039 24.9514 9.50054 25.1514 9.30054 25.2514C9.10054 25.3514 8.80059 25.5513 8.60059 25.6513C8.40059 25.7513 8.10054 25.8514 7.80054 25.8514C7.50054 25.9514 7.30049 25.9513 7.00049 25.9513Z" fill="#9975FF"/>
<path d="M24.1016 28.751C23.0016 28.751 22.0015 28.3509 21.3015 27.5509C20.5015 26.8509 20.1016 25.751 20.1016 24.751C20.1016 24.451 20.1014 24.2509 20.2014 23.9509C20.2014 23.7509 20.3014 23.4509 20.4014 23.1509C20.5014 22.9509 20.6015 22.6509 20.8015 22.4509C21.0015 22.2509 21.1015 22.051 21.3015 21.851C22.0015 21.151 23.1016 20.6509 24.1016 20.6509C25.1016 20.6509 26.2014 21.051 26.9014 21.851C27.1014 22.051 27.3014 22.2509 27.4014 22.4509C27.6014 22.6509 27.7015 22.8509 27.8015 23.1509C27.9015 23.3509 28.0015 23.6509 28.0015 23.9509C28.1015 24.2509 28.1016 24.451 28.1016 24.751C28.1016 25.851 27.7014 26.8509 26.9014 27.5509C26.1014 28.3509 25.1016 28.751 24.1016 28.751Z" fill="#9975FF"/>
<path d="M33.6001 9.15106C33.3001 9.15106 33.1 9.15109 32.8 9.05109C32.6 8.95109 32.3 8.95114 32 8.85114C31.8 8.75114 31.5 8.65111 31.3 8.45111C31.1 8.35111 30.9 8.15111 30.7 7.95111C30.5 7.75111 30.3 7.55114 30.2 7.35114C30 7.15114 29.9 6.85106 29.8 6.65106C29.7 6.45106 29.6001 6.15114 29.6001 5.85114C29.5001 5.55114 29.5 5.35109 29.5 5.05109C29.5 4.75109 29.5001 4.55116 29.6001 4.25116C29.6001 3.95116 29.7 3.75111 29.8 3.45111C29.9 3.25111 30 2.95116 30.2 2.75116C30.3 2.55116 30.5 2.35106 30.7 2.15106C30.9 1.95106 31.1 1.75106 31.3 1.65106C31.5 1.55106 31.8 1.35116 32 1.25116C32.2 1.15116 32.5 1.05109 32.8 1.05109C34.1 0.751086 35.4999 1.25106 36.3999 2.15106C36.5999 2.35106 36.7999 2.55116 36.8999 2.75116C36.9999 2.95116 37.2 3.15111 37.3 3.45111C37.4 3.65111 37.5 3.95116 37.5 4.25116C37.5 4.55116 37.6001 4.75109 37.6001 5.05109C37.6001 6.15109 37.1999 7.15114 36.3999 7.85114C35.6999 8.75114 34.7001 9.15106 33.6001 9.15106Z" fill="#9975FF"/>
<path d="M130.399 92.0515C129.599 92.0515 128.7 91.7516 128 91.2516C126.2 89.9516 125.9 87.4515 127.2 85.6515C130.9 80.6515 132.5 74.4516 131.6 68.2516C130.7 62.0516 127.399 56.5516 122.399 52.8516C116.799 48.7516 109.8 47.2516 103 48.8516C101.8 49.1516 100.6 48.8515 99.5997 48.0515C98.5997 47.2515 98.0997 46.1515 98.0997 44.9515C98.0997 29.3515 85.3995 16.5515 69.6995 16.5515C54.4995 16.5515 41.9996 28.4515 41.2996 43.6515L41.1995 45.8516C41.0995 48.0516 39.1996 49.7515 36.9996 49.6515C34.7996 49.5515 33.0995 47.7515 33.1995 45.4515L33.2996 43.1515C34.1996 23.6515 50.0997 8.35156 69.5997 8.35156C88.0997 8.35156 103.4 22.2515 105.7 40.0515C113.3 39.4515 120.8 41.5515 127 46.1515C133.7 51.1515 138.099 58.4516 139.399 66.7516C140.599 75.0516 138.6 83.3515 133.6 90.0515C132.8 91.5515 131.599 92.0515 130.399 92.0515Z" fill="#3B404E"/>
<path d="M15.6997 98.8517C14.8997 98.8517 13.9998 98.5517 13.2998 98.0517C9.69977 95.3517 6.79982 92.0517 4.59982 88.0517C-3.80018 72.8517 1.69963 53.7517 16.8996 45.3517C32.0996 36.9517 51.1998 42.4517 59.5998 57.6517C60.6998 59.5517 59.9997 62.0517 57.9997 63.0517C56.0997 64.1517 53.5998 63.4517 52.5998 61.4517C46.2998 50.1517 32.0997 46.0518 20.6997 52.2518C9.39967 58.5518 5.29972 72.7517 11.4997 84.1517C13.0997 87.0517 15.2997 89.5517 17.9997 91.5517C19.7997 92.8517 20.0998 95.3517 18.7998 97.1517C18.0998 98.2517 16.8997 98.8517 15.6997 98.8517Z" fill="#3B404E"/>
<path d="M99.9002 124.151C98.9002 124.151 97.9004 123.751 97.1004 122.951C95.5004 121.351 95.5004 118.851 97.1004 117.251L113.5 100.851C115.1 99.2514 117.6 99.2514 119.2 100.851C120.8 102.451 120.8 104.951 119.2 106.551L102.8 122.951C102 123.751 101 124.151 99.9002 124.151Z" fill="#57AAFF"/>
<path d="M25.4002 120.352C24.4002 120.352 23.4004 119.952 22.6004 119.152C21.0004 117.552 21.0004 115.052 22.6004 113.452L39.0003 97.0516C40.6003 95.4516 43.1002 95.4516 44.7002 97.0516C46.3002 98.6516 46.3002 101.152 44.7002 102.752L28.3003 119.152C27.5003 119.952 26.4002 120.352 25.4002 120.352Z" fill="#57AAFF"/>
<path d="M90.2003 102.751C89.2003 102.751 88.2002 102.351 87.4002 101.651C85.8002 100.151 85.8004 97.5513 87.3004 95.9513L100.7 82.1513C102.2 80.5513 104.8 80.5513 106.4 82.0513C108 83.5513 108 86.1514 106.5 87.7514L93.1004 101.551C92.3004 102.351 91.2003 102.751 90.2003 102.751Z" fill="#57AAFF"/>
<path d="M63.5996 124.552C62.5996 124.552 61.4995 124.152 60.7995 123.352C59.1995 121.752 59.2995 119.251 60.7995 117.651L69.2995 109.352C70.8995 107.852 73.3995 107.852 74.9995 109.352C76.5995 110.952 76.4995 113.452 74.9995 115.052L66.4995 123.352C65.5995 124.152 64.5996 124.552 63.5996 124.552Z" fill="#57AAFF"/>
<path d="M56.8994 105.751C55.8994 105.751 54.8996 105.351 54.0996 104.651C52.4996 103.151 52.4995 100.551 53.9995 98.9513L67.3994 85.1513C68.8994 83.5513 71.4996 83.5513 73.0996 85.0513C74.6996 86.5513 74.6994 89.1514 73.1994 90.7514L59.7995 104.551C58.9995 105.351 57.9994 105.751 56.8994 105.751Z" fill="#57AAFF"/>
</svg>
