<svg width="158" height="129" viewBox="0 0 158 129" fill="none" xmlns="http://www.w3.org/2000/svg">
<path d="M148.498 20.9002C148.198 20.9002 147.998 20.9002 147.698 20.8002C147.498 20.8002 147.198 20.7001 146.898 20.6001C146.698 20.5001 146.398 20.4001 146.198 20.2001C145.998 20.1001 145.798 19.9001 145.598 19.7001C144.798 18.9001 144.398 17.9002 144.398 16.9002C144.398 16.6002 144.398 16.4001 144.498 16.1001C144.498 15.8001 144.598 15.6002 144.698 15.3002C144.798 15.1002 144.898 14.8001 145.098 14.6001C145.198 14.4001 145.398 14.2002 145.598 14.0002C145.798 13.8002 145.998 13.6002 146.198 13.5002C146.398 13.4002 146.598 13.2001 146.898 13.1001C147.098 13.0001 147.398 12.9002 147.698 12.9002C148.198 12.8002 148.698 12.8002 149.298 12.9002C149.498 12.9002 149.798 13.0001 149.998 13.1001C150.198 13.2001 150.498 13.3002 150.698 13.5002C150.898 13.6002 151.098 13.8002 151.298 14.0002C151.498 14.2002 151.698 14.4001 151.798 14.6001C151.898 14.8001 152.098 15.1002 152.198 15.3002C152.298 15.5002 152.398 15.8001 152.398 16.1001C152.398 16.4001 152.498 16.6002 152.498 16.9002C152.498 17.9002 152.098 19.0001 151.298 19.7001C150.598 20.4001 149.498 20.9002 148.498 20.9002Z" fill="#9975FF"/>
<path d="M144.399 56.1005C144.099 56.1005 143.899 56.1005 143.599 56.0005C143.299 56.0005 143.099 55.9006 142.799 55.8006C142.599 55.7006 142.299 55.6006 142.099 55.4006C141.899 55.3006 141.699 55.1006 141.499 54.9006C140.799 54.1006 140.299 53.1005 140.299 52.1005C140.299 51.1005 140.699 50.0006 141.499 49.3006C141.699 49.1006 141.899 48.9006 142.099 48.8006C142.299 48.7006 142.499 48.5006 142.799 48.4006C142.999 48.3006 143.299 48.2005 143.599 48.2005C144.899 47.9005 146.299 48.4006 147.199 49.3006C147.899 50.1006 148.399 51.1005 148.399 52.1005C148.399 53.1005 147.999 54.2006 147.199 54.9006C146.499 55.6006 145.499 56.1005 144.399 56.1005Z" fill="#9975FF"/>
<path d="M82.5996 9.00031C81.4996 9.00031 80.4997 8.60035 79.7997 7.80035C79.5997 7.60035 79.3997 7.40026 79.2997 7.20026C79.1997 7.00026 78.9997 6.80031 78.8997 6.50031C78.7997 6.30031 78.6996 6.00026 78.6996 5.70026C78.5996 5.40026 78.5996 5.20033 78.5996 4.90033C78.5996 3.80033 78.9997 2.80028 79.7997 2.10028C80.6997 1.20028 82.0997 0.700305 83.3997 1.00031C83.6997 1.00031 83.8996 1.10026 84.1996 1.20026C84.3996 1.30026 84.6997 1.40028 84.8997 1.60028C85.0997 1.70028 85.2996 1.90028 85.4996 2.10028C86.1996 2.80028 86.6996 3.90033 86.6996 4.90033C86.6996 5.20033 86.6996 5.40026 86.5996 5.70026C86.5996 6.00026 86.4997 6.2003 86.3997 6.50031C86.2997 6.7003 86.1996 7.00026 85.9996 7.20026C85.8996 7.40026 85.6996 7.60035 85.4996 7.80035C85.2996 8.00035 85.0997 8.10035 84.8997 8.30035C84.6997 8.40035 84.4996 8.60026 84.1996 8.70026C83.9996 8.80026 83.6997 8.90033 83.3997 8.90033C83.0997 9.00033 82.8996 9.00031 82.5996 9.00031Z" fill="#9975FF"/>
<path d="M153.299 112.801C152.999 112.801 152.799 112.8 152.499 112.7C152.299 112.6 151.999 112.601 151.699 112.501C151.499 112.401 151.199 112.301 150.999 112.101C150.799 112.001 150.599 111.801 150.399 111.601C149.699 110.901 149.199 109.801 149.199 108.801C149.199 108.501 149.199 108.301 149.299 108.001C149.399 107.701 149.399 107.5 149.499 107.2C149.599 107 149.699 106.701 149.899 106.501C149.999 106.301 150.199 106.101 150.399 105.901C150.599 105.701 150.799 105.501 150.999 105.401C151.199 105.301 151.499 105.101 151.699 105.001C151.899 104.901 152.199 104.801 152.499 104.801C152.999 104.701 153.599 104.701 154.099 104.801C154.299 104.901 154.599 104.901 154.799 105.001C154.999 105.101 155.299 105.201 155.499 105.401C155.699 105.501 155.899 105.701 156.099 105.901C156.299 106.101 156.499 106.301 156.599 106.501C156.699 106.701 156.899 107 156.999 107.2C157.099 107.4 157.199 107.701 157.199 108.001C157.299 108.201 157.299 108.501 157.299 108.801C157.299 109.801 156.899 110.901 156.099 111.601C155.899 111.801 155.699 112.001 155.499 112.101C155.299 112.201 155.099 112.401 154.799 112.501C154.499 112.601 154.299 112.7 154.099 112.7C153.799 112.7 153.499 112.801 153.299 112.801Z" fill="#9975FF"/>
<path d="M99.2991 115.6C97.0991 115.6 95.2991 113.8 95.2991 111.7C95.2991 109.5 96.999 107.7 99.199 107.6C116.299 107.3 131.299 96.1003 136.699 80.2003C129.199 79.8003 121.999 77.0003 115.999 72.2003C108.599 66.1003 103.899 57.6004 102.999 48.0004C102.299 41.1004 103.599 34.2004 106.699 28.0004C94.699 25.5004 81.9991 28.7004 72.4991 36.8004C70.7991 38.2004 68.2991 38.0004 66.8991 36.4004C65.4991 34.7004 65.6991 32.2004 67.2991 30.8004C80.1991 19.8004 98.099 16.4004 114.199 21.9004C115.399 22.3004 116.299 23.3004 116.699 24.5004C117.099 25.7004 116.899 27.0003 116.099 28.1003C111.999 33.7003 110.199 40.5004 110.899 47.3004C111.699 54.7004 115.199 61.4003 120.999 66.1003C126.799 70.8003 133.999 73.0003 141.399 72.2003C142.699 72.1003 143.899 72.6004 144.799 73.5004C145.699 74.4004 145.999 75.7004 145.799 77.0004C141.399 99.0004 121.799 115.3 99.2991 115.6Z" fill="#9975FF"/>
<path d="M68.9008 77.3003H31.8008C29.6008 77.3003 27.8008 75.5003 27.8008 73.3003C27.8008 71.1003 29.6008 69.3003 31.8008 69.3003H68.9008C71.1008 69.3003 72.9008 71.1003 72.9008 73.3003C72.9008 75.5003 71.1008 77.3003 68.9008 77.3003Z" fill="#3B404E"/>
<path d="M68.4998 128.1C67.3998 128.1 66.2998 128 65.1998 127.7C61.1998 126.6 57.8998 123.7 56.3998 120C55.5998 118 56.4998 115.6 58.5998 114.8C60.5998 114 62.9999 114.9 63.7999 117C64.3999 118.5 65.6999 119.6 67.2999 120.1C69.7999 120.7 72.3999 119.4 73.2999 116.9C74.1999 114.3 72.7998 111.2 71.3998 109.4C68.8998 106.3 63.3998 104.3 55.4998 103.6C37.9998 102.1 20.0998 104.9 4.69976 107.5C2.49976 107.9 0.499787 106.4 0.099787 104.2C-0.300213 102 1.19984 100 3.39984 99.6001C19.2998 96.8001 37.7998 94.0001 56.1998 95.6001C66.4998 96.5001 73.6998 99.4001 77.6998 104.4C81.2998 109 82.5998 114.8 80.8998 119.5C78.8998 124.8 73.8998 128.1 68.4998 128.1Z" fill="#3B404E"/>
<path d="M95.0007 91.5H77.8008C75.6008 91.5 73.8008 89.7 73.8008 87.5C73.8008 85.3 75.6008 83.5 77.8008 83.5H95.0007C97.2007 83.5 99.0007 85.3 99.0007 87.5C99.0007 89.7 97.2007 91.5 95.0007 91.5Z" fill="#3B404E"/>
<path d="M35.4007 58.3003C31.8007 58.3003 28.2007 57.8003 24.8007 57.4003L23.0007 57.2002C19.4007 56.7002 16.7006 56.3003 14.2006 55.8003C12.0006 55.4003 9.60069 55.0002 6.50069 54.6002C4.30069 54.3002 2.80066 52.3002 3.10066 50.1002C3.40066 47.9002 5.40066 46.4002 7.60066 46.7002C10.8007 47.1002 13.2007 47.6003 15.6007 48.0003C18.2007 48.4003 20.6007 48.9003 24.1007 49.3003L25.9007 49.5003C31.2007 50.2003 36.8007 50.9002 41.3007 49.6002C45.6007 48.4002 49.7006 44.3003 49.2006 39.0003C48.6006 33.8003 44.0006 30.0003 38.7006 30.5003C36.8006 30.7003 35.1007 31.6002 33.9007 33.1002C32.7007 34.6002 32.1007 36.5003 32.3007 38.4003V38.6002C32.5007 40.8002 30.9006 42.8003 28.7006 43.0003C26.5006 43.2003 24.5007 41.6003 24.3007 39.4003V39.2002C23.9007 35.2002 25.0007 31.2003 27.6007 28.0003C30.2007 24.8003 33.8007 22.9003 37.8007 22.4003C47.4007 21.4003 56.1007 28.4003 57.1007 38.0003C58.0007 46.5003 52.3007 54.6002 43.5007 57.1002C40.9007 58.1002 38.1007 58.3003 35.4007 58.3003Z" fill="#3B404E"/>
</svg>
