<svg width="155" height="144" viewBox="0 0 155 144" fill="none" xmlns="http://www.w3.org/2000/svg">
<path d="M6.70117 30.6045C5.70117 30.6045 4.60125 30.2045 3.90125 29.4045C3.20125 28.7045 2.70117 27.6045 2.70117 26.6045C2.70117 25.5045 3.10125 24.5044 3.90125 23.8044C4.70125 23.1044 5.70117 22.6045 6.70117 22.6045C7.80117 22.6045 8.80122 23.0044 9.50122 23.8044C10.2012 24.6044 10.7012 25.6045 10.7012 26.6045C10.7012 27.6045 10.3012 28.7045 9.50122 29.4045C8.80122 30.2045 7.70117 30.6045 6.70117 30.6045Z" fill="#9975FF"/>
<path d="M23.4004 33.3045C23.1004 33.3045 22.9003 33.3046 22.6003 33.2046C22.4003 33.2046 22.1004 33.1044 21.9004 33.0044C21.7004 32.9044 21.4003 32.8045 21.2003 32.6045C21.0003 32.5045 20.8003 32.3045 20.6003 32.1045C20.4003 31.9045 20.2003 31.7044 20.1003 31.5044C20.0003 31.3044 19.8003 31.0045 19.7003 30.8045C19.6003 30.6045 19.5004 30.3044 19.5004 30.0044C19.5004 29.7044 19.4004 29.5046 19.4004 29.2046C19.4004 28.2046 19.8003 27.1046 20.6003 26.4046C20.8003 26.2046 21.0003 26.0046 21.2003 25.9046C21.4003 25.8046 21.6004 25.6044 21.9004 25.5044C22.1004 25.4044 22.4003 25.3045 22.6003 25.3045C23.1003 25.2045 23.6003 25.2045 24.2003 25.3045C24.4003 25.3045 24.7004 25.4044 25.0004 25.5044C25.2004 25.6044 25.5003 25.7046 25.7003 25.9046C25.9003 26.0046 26.1004 26.2046 26.3004 26.4046C27.1004 27.2046 27.5004 28.2046 27.5004 29.2046C27.5004 30.3046 27.1004 31.3044 26.3004 32.0044C26.1004 32.2044 25.9003 32.4044 25.7003 32.5044C25.5003 32.6044 25.3004 32.8046 25.0004 32.9046C24.8004 33.0046 24.5003 33.1045 24.2003 33.1045C24.0003 33.3045 23.7004 33.3045 23.4004 33.3045Z" fill="#9975FF"/>
<path d="M33.002 13.5042C31.902 13.5042 30.9019 13.1042 30.2019 12.3042C30.0019 12.1042 29.8019 11.9044 29.7019 11.7044C29.6019 11.5044 29.402 11.3042 29.302 11.0042C29.202 10.8042 29.1019 10.5042 29.1019 10.3042C29.1019 10.0042 29.002 9.8042 29.002 9.5042C29.002 8.4042 29.4019 7.40439 30.2019 6.70439C31.1019 5.80439 32.502 5.3043 33.802 5.6043C34.002 5.7043 34.3019 5.70425 34.6019 5.80425C34.8019 5.90425 35.102 6.00439 35.302 6.20439C35.502 6.30439 35.702 6.50439 35.902 6.70439C36.602 7.40439 37.1019 8.5042 37.1019 9.5042C37.1019 9.8042 37.102 10.0042 37.002 10.3042C37.002 10.5042 36.902 10.8042 36.802 11.0042C36.702 11.2042 36.602 11.5044 36.402 11.7044C36.302 11.9044 36.102 12.1042 35.902 12.3042C35.102 13.1042 34.102 13.5042 33.002 13.5042Z" fill="#9975FF"/>
<path d="M135.002 65.2044C133.502 65.2044 132.002 64.3043 131.402 62.9043C130.502 60.9043 131.402 58.5043 133.402 57.6043C138.702 55.2043 142.702 50.6043 145.002 44.6043C140.602 44.1043 136.301 42.4042 132.701 39.8042C122.701 32.5042 119.401 19.3042 124.101 8.30421C112.301 6.60421 100.401 13.1043 95.7015 24.4043C94.9015 26.4043 92.5015 27.4043 90.5015 26.6043C88.5015 25.8043 87.5016 23.4043 88.3016 21.4043C95.3016 4.60431 114.202 -3.99569 131.402 1.90431C132.602 2.30431 133.502 3.30416 133.902 4.50416C134.302 5.70416 134.102 7.00426 133.302 8.10426C127.402 16.2043 129.202 27.5043 137.302 33.4043C140.902 36.0043 145.302 37.2042 149.802 36.8042C151.102 36.7042 152.301 37.1043 153.201 38.1043C154.101 39.0043 154.401 40.3043 154.201 41.6043C152.001 52.4043 145.702 61.0043 136.802 65.1043C136.102 65.1043 135.502 65.2044 135.002 65.2044Z" fill="#9975FF"/>
<path d="M117.902 108.504C116.102 108.504 114.502 107.304 114.002 105.504C113.502 103.404 114.802 101.205 116.902 100.705C127.302 98.1046 134.802 88.9046 135.302 78.2046C135.902 64.8046 125.501 53.5046 112.201 52.9046C110.001 52.8046 107.702 53.0044 105.502 53.5044C104.302 53.8044 103.101 53.5046 102.101 52.7046C101.101 51.9046 100.601 50.8045 100.601 49.6045C100.601 33.8045 88.3015 20.9046 72.5015 20.2046C56.3015 19.5046 42.6016 32.1046 41.8016 48.2046L41.7015 50.5044C41.6015 52.7044 39.7015 54.4045 37.5015 54.3045C35.3015 54.2045 33.6015 52.3045 33.7015 50.1045L33.8016 47.8045C34.7016 27.2045 52.2016 11.2045 72.8016 12.1045C91.3016 12.9045 106.001 26.9045 108.201 44.8045C109.601 44.7045 111.002 44.6046 112.402 44.7046C112.402 44.7046 112.402 44.7046 112.502 44.7046C130.302 45.5046 144.102 60.6046 143.302 78.4046C142.702 92.6046 132.602 104.904 118.802 108.304C118.602 108.404 118.302 108.504 117.902 108.504Z" fill="#3B404E"/>
<path d="M24.1008 109.204C23.7008 109.204 23.3008 109.104 22.9008 109.004C9.00084 104.604 -0.29914 91.4042 0.30086 76.8042C0.70086 68.2042 4.40086 60.2043 10.8009 54.4043C17.2009 48.6043 25.4008 45.6042 34.0008 46.0042C45.1008 46.5042 55.0008 52.5043 60.5008 62.1043C61.6008 64.0043 60.9008 66.5043 59.0008 67.6043C57.1008 68.7043 54.6008 68.0043 53.5008 66.1043C49.3008 58.9043 41.9008 54.3042 33.5008 54.0042C20.1008 53.4042 8.80076 63.8043 8.20076 77.1043C7.70076 88.1043 14.7008 98.1043 25.2008 101.404C27.3008 102.104 28.5009 104.304 27.8009 106.404C27.4009 108.104 25.8008 109.204 24.1008 109.204Z" fill="#3B404E"/>
<path d="M92.1 111.905C91.8 111.905 91.4 111.905 91.1 111.805C90.8 111.705 90.5 111.605 90.2 111.505C89.9 111.405 89.6 111.205 89.3 111.005C89 110.805 88.8 110.605 88.5 110.405C88.2 110.205 88.1 109.905 87.9 109.605C87.7 109.305 87.6 109.005 87.4 108.705C87.3 108.405 87.2 108.105 87.1 107.805C87 107.505 87 107.205 87 106.805C87 106.505 87 106.105 87.1 105.805C87.2 105.505 87.3 105.205 87.4 104.905C87.5 104.605 87.7 104.305 87.9 104.005C88.1 103.705 88.3 103.505 88.5 103.205C88.7 102.905 89 102.805 89.3 102.605C89.6 102.405 89.9 102.305 90.2 102.105C90.5 102.005 90.8 101.905 91.1 101.805C92.7 101.505 94.5 102.005 95.6 103.205C95.8 103.405 96 103.705 96.2 104.005C96.4 104.305 96.5 104.605 96.7 104.905C96.8 105.205 96.9 105.505 97 105.805C97.1 106.105 97.1 106.405 97.1 106.805C97.1 107.105 97.1 107.405 97 107.805C96.9 108.105 96.8 108.405 96.7 108.705C96.6 109.005 96.4 109.305 96.2 109.605C96 109.905 95.8 110.105 95.6 110.405C94.7 111.405 93.4 111.905 92.1 111.905Z" fill="#57AAFF"/>
<path d="M92.1 133.905C91.8 133.905 91.4 133.905 91.1 133.805C90.8 133.705 90.5 133.605 90.2 133.505C89.9 133.405 89.6 133.205 89.3 133.005C89 132.805 88.8 132.605 88.5 132.405C88.2 132.205 88.1 131.905 87.9 131.605C87.7 131.305 87.6 131.005 87.4 130.705C87.3 130.405 87.2 130.105 87.1 129.805C87 129.505 87 129.205 87 128.805C87 128.505 87 128.105 87.1 127.805C87.2 127.505 87.3 127.205 87.4 126.905C87.5 126.605 87.7 126.305 87.9 126.005C88.1 125.705 88.3 125.505 88.5 125.205C88.7 124.905 89 124.805 89.3 124.605C89.6 124.405 89.9 124.305 90.2 124.105C90.5 124.005 90.8 123.905 91.1 123.805C92.7 123.505 94.5 124.005 95.6 125.205C95.8 125.405 96 125.705 96.2 126.005C96.4 126.305 96.5 126.605 96.7 126.905C96.8 127.205 96.9 127.505 97 127.805C97.1 128.105 97.1 128.405 97.1 128.805C97.1 130.105 96.6 131.405 95.6 132.305C94.7 133.405 93.4 133.905 92.1 133.905Z" fill="#57AAFF"/>
<path d="M50.1 111.905C49.8 111.905 49.4 111.905 49.1 111.805C48.8 111.705 48.5 111.605 48.2 111.505C47.9 111.405 47.6 111.205 47.3 111.005C47 110.805 46.8 110.605 46.5 110.405C46.2 110.205 46.1 109.905 45.9 109.605C45.7 109.305 45.6 109.005 45.4 108.705C45.3 108.405 45.2 108.105 45.1 107.805C45 107.505 45 107.205 45 106.805C45 105.505 45.5 104.205 46.5 103.305C46.7 103.105 47 102.905 47.3 102.705C47.6 102.505 47.9 102.405 48.2 102.205C48.5 102.105 48.8 102.005 49.1 101.905C49.7 101.805 50.4 101.805 51.1 101.905C51.4 102.005 51.7 102.105 52 102.205C52.3 102.305 52.6 102.505 52.9 102.705C53.2 102.905 53.4 103.105 53.7 103.305C54 103.505 54.1 103.805 54.3 104.105C54.5 104.405 54.6 104.705 54.8 105.005C54.9 105.305 55 105.605 55.1 105.905C55.2 106.205 55.2 106.505 55.2 106.905C55.2 107.205 55.2 107.505 55.1 107.905C55 108.205 54.9 108.505 54.8 108.805C54.7 109.105 54.5 109.405 54.3 109.705C54.1 110.005 53.9 110.205 53.7 110.505C52.7 111.405 51.4 111.905 50.1 111.905Z" fill="#57AAFF"/>
<path d="M50.1 133.905C49.8 133.905 49.4 133.905 49.1 133.805C48.8 133.705 48.5 133.605 48.2 133.505C47.9 133.405 47.6 133.205 47.3 133.005C47 132.805 46.8 132.605 46.5 132.405C46.2 132.205 46.1 131.905 45.9 131.605C45.7 131.305 45.6 131.005 45.4 130.705C45.3 130.405 45.2 130.105 45.1 129.805C45 129.505 45 129.205 45 128.805C45 127.505 45.5 126.205 46.5 125.305C46.7 125.105 47 124.905 47.3 124.705C47.6 124.505 47.9 124.405 48.2 124.205C48.5 124.105 48.8 124.005 49.1 123.905C49.7 123.805 50.4 123.805 51.1 123.905C51.4 124.005 51.7 124.105 52 124.205C52.3 124.305 52.6 124.505 52.9 124.705C53.2 124.905 53.4 125.105 53.7 125.305C54.6 126.205 55.2 127.505 55.2 128.805C55.2 129.105 55.2 129.405 55.1 129.805C55 130.105 54.9 130.405 54.8 130.705C54.7 131.005 54.5 131.305 54.3 131.605C54.1 131.905 53.9 132.105 53.7 132.405C52.7 133.405 51.4 133.905 50.1 133.905Z" fill="#57AAFF"/>
<path d="M71.0996 100.905C69.7996 100.905 68.4996 100.405 67.5996 99.4046C67.3996 99.2046 67.1996 98.9045 66.9996 98.6045C66.7996 98.3045 66.6996 98.0046 66.4996 97.7046C66.3996 97.4046 66.2996 97.1045 66.1996 96.8045C66.0996 96.5045 66.0996 96.2045 66.0996 95.8045C66.0996 95.5045 66.0996 95.1045 66.1996 94.8045C66.2996 94.5045 66.3996 94.2046 66.4996 93.9046C66.5996 93.6046 66.7996 93.3044 66.9996 93.0044C67.1996 92.7044 67.3996 92.5046 67.5996 92.2046C67.7996 91.9046 68.0997 91.8045 68.3997 91.6045C68.6997 91.4045 68.9997 91.3045 69.2997 91.1045C69.5997 91.0045 69.8996 90.9045 70.1996 90.8045C70.7996 90.7045 71.4996 90.7045 72.1996 90.8045C72.4996 90.9045 72.7996 91.0045 73.0996 91.1045C73.3996 91.2045 73.6996 91.4045 73.9996 91.6045C74.2996 91.8045 74.4997 92.0046 74.7997 92.2046C75.0997 92.4046 75.1997 92.7044 75.3997 93.0044C75.5997 93.3044 75.6997 93.6046 75.8997 93.9046C75.9997 94.2046 76.0996 94.5045 76.1996 94.8045C76.2996 95.1045 76.2997 95.4045 76.2997 95.8045C76.2997 96.1045 76.2996 96.4045 76.1996 96.8045C76.0996 97.1045 75.9997 97.4046 75.8997 97.7046C75.7997 98.0046 75.5997 98.3045 75.3997 98.6045C75.1997 98.9045 74.9997 99.1046 74.7997 99.4046C74.5997 99.7046 74.2996 99.8044 73.9996 100.004C73.6996 100.204 73.3996 100.304 73.0996 100.504C72.7996 100.604 72.4996 100.704 72.1996 100.804C71.6996 100.904 71.3996 100.905 71.0996 100.905Z" fill="#57AAFF"/>
<path d="M71.0996 122.405C69.7996 122.405 68.4996 121.905 67.5996 120.905C67.3996 120.705 67.1996 120.405 66.9996 120.105C66.7996 119.805 66.6996 119.505 66.4996 119.205C66.3996 118.905 66.2996 118.605 66.1996 118.305C66.0996 118.005 66.0996 117.705 66.0996 117.305C66.0996 117.005 66.0996 116.605 66.1996 116.305C66.2996 116.005 66.3996 115.705 66.4996 115.405C66.5996 115.105 66.7996 114.805 66.9996 114.505C67.1996 114.205 67.3996 114.005 67.5996 113.705C68.7996 112.505 70.4996 112.005 72.0996 112.305C72.3996 112.405 72.6996 112.505 72.9996 112.605C73.2996 112.705 73.5997 112.905 73.8997 113.105C74.1997 113.305 74.3996 113.505 74.6996 113.705C74.9996 113.905 75.0997 114.205 75.2997 114.505C75.4997 114.805 75.5997 115.105 75.7997 115.405C75.8997 115.705 75.9996 116.005 76.0996 116.305C76.1996 116.605 76.1996 116.905 76.1996 117.305C76.1996 117.605 76.1996 117.905 76.0996 118.305C75.9996 118.605 75.8997 118.905 75.7997 119.205C75.6997 119.505 75.4997 119.805 75.2997 120.105C75.0997 120.405 74.8996 120.605 74.6996 120.905C74.4996 121.205 74.1997 121.305 73.8997 121.505C73.5997 121.705 73.2996 121.805 72.9996 122.005C72.6996 122.105 72.3996 122.205 72.0996 122.305C71.6996 122.405 71.3996 122.405 71.0996 122.405Z" fill="#57AAFF"/>
<path d="M71.1 143.905C70.8 143.905 70.4 143.905 70.1 143.805C69.8 143.705 69.5 143.605 69.2 143.505C68.9 143.405 68.6 143.205 68.3 143.005C68 142.805 67.8 142.605 67.5 142.405C67.2 142.205 67.1 141.905 66.9 141.605C66.7 141.305 66.6 141.005 66.4 140.705C66.3 140.405 66.2 140.105 66.1 139.805C66 139.505 66 139.205 66 138.805C66 138.505 66 138.205 66.1 137.805C66.2 137.505 66.3 137.205 66.4 136.905C66.5 136.605 66.7 136.305 66.9 136.005C67.1 135.705 67.3 135.505 67.5 135.205C68.7 134.005 70.4 133.505 72 133.805C72.3 133.905 72.6 134.005 72.9 134.105C73.2 134.205 73.5 134.405 73.8 134.605C74.1 134.805 74.3 135.005 74.6 135.205C74.9 135.405 75 135.705 75.2 136.005C75.4 136.305 75.5 136.605 75.7 136.905C75.8 137.205 75.9 137.505 76 137.805C76.1 138.105 76.1 138.405 76.1 138.805C76.1 139.105 76.1 139.505 76 139.805C75.9 140.105 75.8 140.405 75.7 140.705C75.6 141.005 75.4 141.305 75.2 141.605C75 141.905 74.8 142.105 74.6 142.405C74.4 142.705 74.1 142.805 73.8 143.005C73.5 143.205 73.2 143.305 72.9 143.505C72.6 143.605 72.3 143.705 72 143.805C71.7 143.905 71.4 143.905 71.1 143.905Z" fill="#57AAFF"/>
</svg>
