<svg width="157" height="153" viewBox="0 0 157 153" fill="none" xmlns="http://www.w3.org/2000/svg">
<path d="M5.00049 32.2049C4.70049 32.2049 4.50044 32.2048 4.20044 32.1048C4.00044 32.0048 3.70039 32.0048 3.40039 31.9048C3.10039 31.8048 2.90044 31.7047 2.70044 31.5047C2.50044 31.3047 2.30059 31.2047 2.10059 31.0047C1.90059 30.8047 1.70059 30.6048 1.60059 30.4048C1.50059 30.2048 1.30044 30.0049 1.20044 29.7049C1.10044 29.5049 1.00049 29.2048 1.00049 28.9048C1.00049 28.6048 0.900391 28.4048 0.900391 28.1048C0.900391 27.8048 0.900488 27.6047 1.00049 27.3047C1.00049 27.0047 1.10044 26.8047 1.20044 26.5047C1.30044 26.3047 1.40059 26.0047 1.60059 25.8047C1.70059 25.6047 1.90059 25.4049 2.10059 25.2049C2.30059 25.0049 2.50044 24.8049 2.70044 24.7049C2.90044 24.6049 3.10039 24.4047 3.40039 24.3047C3.60039 24.2047 3.90044 24.1048 4.20044 24.1048C5.50044 23.8048 6.90054 24.3049 7.80054 25.2049C8.00054 25.4049 8.10054 25.6047 8.30054 25.8047C8.40054 26.0047 8.60044 26.3047 8.70044 26.5047C8.80044 26.7047 8.90039 27.0047 8.90039 27.3047C8.90039 27.6047 9.00049 27.8048 9.00049 28.1048C9.00049 28.4048 9.00039 28.6048 8.90039 28.9048C8.90039 29.2048 8.80044 29.4049 8.70044 29.7049C8.60044 29.9049 8.50054 30.2048 8.30054 30.4048C8.10054 30.6048 8.00054 30.8047 7.80054 31.0047C7.10054 31.8047 6.00049 32.2049 5.00049 32.2049Z" fill="#9975FF"/>
<path d="M23.6001 35.5047C23.3001 35.5047 23.1 35.5048 22.8 35.4048C22.5 35.3048 22.3 35.3049 22 35.2049C21.7 35.1049 21.5 35.0047 21.3 34.8047C21.1 34.6047 20.9 34.5047 20.7 34.3047C20.5 34.1047 20.3 33.9049 20.2 33.7049C20.1 33.5049 19.9 33.3047 19.8 33.0047C19.7 32.8047 19.6001 32.5049 19.6001 32.2049C19.6001 31.9049 19.5 31.7048 19.5 31.4048C19.5 30.3048 19.9 29.3048 20.7 28.6048C20.9 28.4048 21.1 28.2048 21.3 28.1048C21.5 28.0048 21.8 27.8049 22 27.7049C22.2 27.6049 22.5 27.5047 22.8 27.5047C23.3 27.4047 23.7999 27.4047 24.3999 27.5047C24.6999 27.5047 24.9 27.6049 25.2 27.7049C25.4 27.8049 25.6999 27.9048 25.8999 28.1048C26.0999 28.2048 26.3 28.4048 26.5 28.6048C27.2 29.4048 27.7 30.4048 27.7 31.4048C27.7 31.7048 27.7001 31.9049 27.6001 32.2049C27.5001 32.5049 27.4999 32.7047 27.3999 33.0047C27.2999 33.2047 27.2 33.5049 27 33.7049C26.9 33.9049 26.7 34.1047 26.5 34.3047C26.3 34.5047 26.0999 34.6047 25.8999 34.8047C25.6999 34.9047 25.4 35.1049 25.2 35.2049C25 35.3049 24.6999 35.4048 24.3999 35.4048C24.0999 35.5048 23.8001 35.5047 23.6001 35.5047Z" fill="#9975FF"/>
<path d="M34.0005 14.0042C33.7005 14.0042 33.5004 14.0043 33.2004 13.9043C33.0004 13.8043 32.7004 13.8044 32.4004 13.7044C32.2004 13.6044 31.9004 13.5042 31.7004 13.3042C31.5004 13.2042 31.3006 13.0042 31.1006 12.8042C30.3006 12.0042 29.9004 11.0042 29.9004 10.0042C29.9004 8.9042 30.3006 7.90439 31.1006 7.20439C31.3006 7.00439 31.5004 6.80439 31.7004 6.70439C31.9004 6.60439 32.2004 6.40425 32.4004 6.30425C32.6004 6.20425 32.9004 6.1043 33.2004 6.1043C33.7004 6.0043 34.3005 6.0043 34.8005 6.1043C35.0005 6.2043 35.3005 6.20425 35.5005 6.30425C35.7005 6.40425 36.0004 6.50439 36.2004 6.70439C36.4004 6.80439 36.6005 7.00439 36.8005 7.20439C37.6005 8.00439 38.0005 9.0042 38.0005 10.0042C38.0005 11.0042 37.6005 12.1042 36.8005 12.8042C36.6005 13.0042 36.4004 13.2042 36.2004 13.3042C36.0004 13.4042 35.8005 13.6044 35.5005 13.7044C35.2005 13.8044 35.0005 13.9043 34.8005 13.9043C34.5005 14.0043 34.3005 14.0042 34.0005 14.0042Z" fill="#9975FF"/>
<path d="M137 65.2041C135.5 65.2041 133.999 64.3041 133.399 62.9041C132.499 60.9041 133.399 58.504 135.399 57.604C140.699 55.204 144.7 50.604 147 44.604C142.6 44.104 138.3 42.404 134.7 39.804C129.1 35.704 125.4 29.704 124.3 22.804C123.5 17.804 124.2 12.9041 126.1 8.40406C114.3 6.70406 102.4 13.2039 97.6995 24.5039C96.8995 26.5039 94.4996 27.5041 92.4996 26.7041C90.4996 25.9041 89.4996 23.5039 90.2996 21.5039C97.2996 4.70392 116.199 -3.89608 133.399 2.00392C134.599 2.40392 135.499 3.40402 135.899 4.60402C136.299 5.80402 136.1 7.10411 135.3 8.20411C132.5 12.1041 131.3 16.9041 132.1 21.7041C132.9 26.5041 135.4 30.7039 139.3 33.5039C142.9 36.1039 147.4 37.3041 151.8 36.9041C153.1 36.8041 154.3 37.2041 155.2 38.2041C156.1 39.2041 156.4 40.4041 156.2 41.7041C154 52.5041 147.7 61.1041 138.8 65.2041C138.1 65.1041 137.5 65.2041 137 65.2041Z" fill="#9975FF"/>
<path d="M135.7 100.004C134.9 100.004 134 99.7039 133.3 99.2039C131.5 97.9039 131.2 95.4038 132.5 93.6038C135.4 89.7038 137.1 85.0038 137.3 80.1038C137.6 73.5038 135.299 67.3039 130.899 62.4039C126.499 57.6039 120.399 54.7039 113.899 54.4039C111.599 54.3039 109.4 54.5037 107.1 55.0037C105.9 55.3037 104.7 55.0039 103.7 54.2039C102.7 53.4039 102.2 52.3038 102.2 51.1038C102.2 35.2038 89.6996 22.1039 73.7996 21.4039C57.3996 20.7039 43.4996 33.4039 42.7996 49.7039L42.6995 52.0037C42.5995 54.2037 40.7996 55.9038 38.4996 55.8038C36.2996 55.7038 34.5995 53.8038 34.6995 51.6038L34.7996 49.2039C35.6996 28.4039 53.2997 12.3039 74.0997 13.2039C92.6997 14.0039 107.6 28.2039 109.8 46.2039C111.2 46.1039 112.7 46.0038 114.1 46.1038C122.8 46.5038 130.8 50.2038 136.7 56.6038C142.6 63.0038 145.6 71.3037 145.2 80.0037C144.9 86.5037 142.7 92.7039 138.8 97.9039C138.2 99.4039 137 100.004 135.7 100.004Z" fill="#3B404E"/>
<path d="M46.5002 113.003C42.4002 113.003 37.5003 112.904 32.1003 112.704C32.1003 112.704 32.1002 112.704 32.0002 112.704C23.3002 112.304 15.3002 108.604 9.50024 102.204C3.60024 95.8035 0.60024 87.5034 1.00024 78.8034C1.80024 60.9034 17.1002 46.9035 35.0002 47.7035C46.2002 48.2035 56.6002 54.6034 62.0002 64.5034C63.1002 66.4034 62.4001 68.9035 60.4001 69.9035C58.5001 71.0035 56.0002 70.3034 55.0002 68.3034C50.9002 60.9034 43.1003 56.0035 34.6003 55.7035C21.1003 55.1035 9.60024 65.6035 9.00024 79.1035C8.40024 92.6035 18.9001 104.104 32.4001 104.704C32.4001 104.704 32.4002 104.704 32.5002 104.704C47.8002 105.404 59.4002 104.704 59.5002 104.704C61.7002 104.604 63.6002 106.203 63.7002 108.503C63.8002 110.803 62.2001 112.604 59.9001 112.704C59.7001 112.704 54.5002 113.003 46.5002 113.003Z" fill="#3B404E"/>
<g opacity="0.5">
<path opacity="0.5" d="M88.0005 112.004C86.0005 112.004 84.1004 112.004 82.2004 111.904C80.4004 111.904 78.6004 111.804 76.9004 111.804C74.7004 111.804 72.9004 110.004 72.9004 107.804C72.9004 105.604 74.7004 103.804 76.9004 103.804C78.7004 103.804 80.5004 103.804 82.4004 103.904C91.4004 104.104 100.6 104.304 107.5 99.8041C112 96.9041 113.101 92.2042 112.801 88.9042C112.401 85.3042 110.2 82.5042 106.9 81.2042C103.4 80.0042 100 80.504 97.7004 82.504C95.4004 84.504 94.4005 87.5042 95.0005 90.9042C95.4005 93.1042 93.9004 95.104 91.7004 95.504C89.5004 95.904 87.5006 94.4042 87.1006 92.2042C86.1006 86.1042 88.1005 80.2042 92.5005 76.4042C97.1005 72.5042 103.3 71.5041 109.5 73.6041H109.601C115.801 75.9041 120 81.2042 120.7 87.9042C121.5 95.2042 118.2 102.304 111.9 106.404C104.7 111.304 96.2005 112.004 88.0005 112.004Z" fill="#3B404E"/>
</g>
<g opacity="0.5">
<path opacity="0.5" d="M81.8996 152.804C80.8996 152.804 79.8997 152.704 78.7997 152.404C74.9997 151.404 71.9997 148.704 70.4997 145.104C69.6997 143.104 70.5997 140.704 72.6996 139.904C74.6996 139.104 77.0996 140.004 77.8996 142.104C78.3996 143.404 79.4996 144.304 80.8996 144.704C82.9996 145.204 85.1997 144.104 85.9997 142.004C86.5997 140.104 85.9997 137.604 84.2997 135.504C82.0997 132.704 76.9997 130.904 69.9997 130.304C54.0997 128.904 37.6996 131.404 23.6996 133.904C21.4996 134.304 19.4998 132.804 19.0998 130.604C18.6998 128.404 20.1996 126.404 22.3996 126.004C36.9996 123.504 53.8997 120.904 70.7997 122.304C80.2997 123.104 86.9996 125.904 90.6996 130.504C94.0996 134.804 95.1996 140.204 93.6996 144.704C91.5996 149.604 86.9996 152.804 81.8996 152.804Z" fill="#3B404E"/>
</g>
<g opacity="0.5">
<path opacity="0.5" d="M128.9 130.204H105.9C103.7 130.204 101.9 128.404 101.9 126.204C101.9 124.004 103.7 122.204 105.9 122.204H128.9C131.1 122.204 132.9 124.004 132.9 126.204C132.9 128.404 131.2 130.204 128.9 130.204Z" fill="#3B404E"/>
</g>
</svg>
