<svg width="159" height="146" viewBox="0 0 159 146" fill="none" xmlns="http://www.w3.org/2000/svg">
<path d="M5.00037 27.2054C4.70037 27.2054 4.50032 27.2053 4.20032 27.1053C3.90032 27.0053 3.70039 27.0053 3.40039 26.9053C3.20039 26.8053 2.90032 26.7052 2.70032 26.5052C2.50032 26.3052 2.30034 26.2052 2.10034 26.0052C1.40034 25.3052 0.900391 24.2054 0.900391 23.2054C0.900391 22.9054 0.900366 22.7053 1.00037 22.4053C1.00037 22.2053 1.10032 21.9053 1.20032 21.6053C1.30032 21.4053 1.40034 21.1053 1.60034 20.9053C1.70034 20.7053 1.90034 20.5052 2.10034 20.3052C2.30034 20.1052 2.50032 19.9052 2.70032 19.8052C2.90032 19.7052 3.20039 19.5053 3.40039 19.4053C3.60039 19.3053 3.90032 19.2054 4.20032 19.2054C5.50032 18.9054 6.90041 19.4052 7.80042 20.3052C8.00041 20.5052 8.10042 20.7053 8.30042 20.9053C8.40041 21.1053 8.60032 21.4053 8.70032 21.6053C8.80032 21.8053 8.90039 22.1053 8.90039 22.4053C8.90039 22.7053 9.00037 22.9054 9.00037 23.2054C9.00037 24.2054 8.60042 25.3052 7.80042 26.0052C7.10042 26.8052 6.00037 27.2054 5.00037 27.2054Z" fill="#9975FF"/>
<path d="M23.6 30.5054C23.3 30.5054 23.1 30.5056 22.8 30.4056C22.5 30.3056 22.3 30.3056 22 30.2056C21.8 30.1056 21.5 30.0055 21.3 29.8055C21.1 29.6055 20.9 29.5055 20.7 29.3055C20.5 29.1055 20.3 28.9056 20.2 28.7056C20.1 28.5056 19.9 28.3054 19.8 28.0054C19.7 27.8054 19.6 27.5056 19.6 27.2056C19.5 27.0056 19.5 26.7056 19.5 26.4056C19.5 26.1056 19.5 25.9055 19.6 25.6055C19.6 25.4055 19.7 25.1055 19.8 24.8055C19.9 24.6055 20 24.3055 20.2 24.1055C20.3 23.9055 20.5 23.7054 20.7 23.5054C21.6 22.6054 23 22.1056 24.3 22.4056C24.5 22.4056 24.8 22.5055 25.1 22.6055C25.3 22.7055 25.6 22.8054 25.8 23.0054C26 23.1054 26.2 23.3054 26.4 23.5054C26.6 23.7054 26.8 23.9055 26.9 24.1055C27.1 24.3055 27.2 24.6055 27.3 24.8055C27.4 25.0055 27.5 25.3055 27.5 25.6055C27.6 25.9055 27.6 26.1056 27.6 26.4056C27.6 26.7056 27.6 26.9056 27.5 27.2056C27.5 27.5056 27.4 27.7054 27.3 28.0054C27.2 28.2054 27.1 28.5056 26.9 28.7056C26.8 28.9056 26.6 29.1055 26.4 29.3055C26.2 29.5055 26 29.6055 25.8 29.8055C25.6 29.9055 25.3 30.1056 25.1 30.2056C24.9 30.3056 24.6 30.4056 24.3 30.4056C24.1 30.5056 23.8 30.5054 23.6 30.5054Z" fill="#9975FF"/>
<path d="M34.0004 9.00518C33.7004 9.00518 33.5003 9.00532 33.2003 8.90532C33.0003 8.80532 32.7004 8.80537 32.4004 8.70537C32.2004 8.60537 31.9003 8.50522 31.7003 8.30522C31.5003 8.20522 31.3003 8.00522 31.1003 7.80522C30.9003 7.60522 30.8003 7.40537 30.6003 7.20537C30.5003 7.00537 30.3003 6.80518 30.2003 6.50518C30.1003 6.30518 30.0004 6.00537 30.0004 5.70537C30.0004 5.40537 29.9004 5.20532 29.9004 4.90532C29.9004 3.80532 30.3003 2.80527 31.1003 2.10527C31.3003 1.90527 31.5003 1.70527 31.7003 1.60527C31.9003 1.50527 32.1004 1.30537 32.4004 1.20537C32.6004 1.10537 32.9003 1.00518 33.2003 1.00518C33.7003 0.905176 34.2004 0.905176 34.8004 1.00518C35.1004 1.10518 35.3003 1.10537 35.6003 1.20537C35.8003 1.30537 36.1004 1.40527 36.3004 1.60527C36.5004 1.70527 36.7004 1.90527 36.9004 2.10527C37.6004 2.90527 38.1003 3.90532 38.1003 4.90532C38.1003 5.90532 37.7004 7.00537 36.9004 7.70537C36.7004 7.90537 36.5004 8.10537 36.3004 8.20537C36.1004 8.30537 35.8003 8.50527 35.6003 8.60527C35.4003 8.70527 35.1004 8.80522 34.8004 8.80522C34.5004 9.00522 34.3004 9.00518 34.0004 9.00518Z" fill="#9975FF"/>
<path d="M139 65.2053C137.5 65.2053 136 64.3053 135.4 62.9053C134.5 60.9053 135.4 58.5052 137.4 57.6052C142.7 55.2052 146.7 50.6052 149 44.6052C144.6 44.1052 140.3 42.4052 136.7 39.8052C126.7 32.5052 123.4 19.3052 128.1 8.30519C116.3 6.60519 104.4 13.1053 99.6995 24.4053C98.8995 26.4053 96.4996 27.4052 94.4996 26.6052C92.4996 25.8052 91.4996 23.4053 92.2996 21.4053C99.2996 4.60529 118.2 -3.99471 135.4 1.90529C136.6 2.30529 137.5 3.30514 137.9 4.50514C138.3 5.70514 138.1 7.00524 137.3 8.10524C131.4 16.2052 133.2 27.5053 141.3 33.4053C144.9 36.0053 149.3 37.2052 153.8 36.8052C155.1 36.7052 156.3 37.1052 157.2 38.1052C158.1 39.1052 158.4 40.3052 158.2 41.6052C156 52.4052 149.7 61.0052 140.8 65.1052C140.1 65.1052 139.5 65.2053 139 65.2053Z" fill="#9975FF"/>
<path d="M115.202 111.205C114.702 111.205 114.202 111.205 113.702 111.205C111.502 111.105 109.802 109.205 109.902 107.005C110.002 104.805 111.902 103.105 114.102 103.205C120.802 103.505 127.302 101.205 132.202 96.6052C137.202 92.1052 140.102 85.9052 140.402 79.1052C141.002 65.2052 130.202 53.4052 116.402 52.8052C114.102 52.7052 111.702 52.9051 109.502 53.5051C108.302 53.8051 107.102 53.5053 106.102 52.7053C105.102 51.9053 104.602 50.8052 104.602 49.6052C104.602 33.3052 91.8016 19.9053 75.5016 19.2053C58.7016 18.4053 44.5015 31.5052 43.7015 48.3052L43.6016 50.7053L35.6016 50.4053L35.7015 48.0051C36.2015 37.7051 40.6015 28.3052 48.2015 21.3052C55.8015 14.4052 65.6016 10.8052 75.9016 11.3052C94.9016 12.1052 110.202 26.6052 112.402 45.1052C113.902 45.0052 115.402 44.9051 116.902 45.0051C125.802 45.4051 133.902 49.2052 139.902 55.8052C145.902 62.3052 149.002 70.8053 148.602 79.7053C148.202 88.6053 144.402 96.7053 137.802 102.705C131.402 108.105 123.602 111.205 115.202 111.205Z" fill="#3B404E"/>
<path d="M32.901 112.305C32.801 112.305 32.8009 112.305 32.7009 112.305C14.4009 111.505 0.20096 96.0053 1.00096 77.7053C1.40096 68.8053 5.20101 60.7053 11.801 54.7053C18.301 48.7053 26.8009 45.6051 35.7009 46.0051C47.1009 46.5051 57.301 52.7052 63.001 62.6052C64.101 64.5052 63.401 67.0052 61.501 68.1052C59.601 69.2052 57.101 68.5052 56.001 66.6052C51.701 59.1052 43.901 54.4051 35.301 54.0051C28.601 53.7051 22.1009 56.0052 17.2009 60.6052C12.2009 65.1052 9.30096 71.3052 9.00096 78.1052C8.40096 92.0052 19.201 103.805 33.001 104.405C35.201 104.505 36.901 106.405 36.801 108.605C36.801 110.605 35.001 112.305 32.901 112.305Z" fill="#3B404E"/>
<path d="M115.1 145.305C113.8 145.305 112.5 144.805 111.6 143.805C111.4 143.605 111.2 143.305 111 143.005C110.8 142.705 110.7 142.405 110.5 142.105C110.4 141.805 110.3 141.506 110.2 141.206C110.1 140.906 110.1 140.606 110.1 140.206C110.1 139.906 110.1 139.506 110.2 139.206C110.3 138.906 110.4 138.605 110.5 138.305C110.6 138.005 110.8 137.706 111 137.406C111.2 137.106 111.4 136.905 111.6 136.605C112.5 135.705 113.8 135.105 115.1 135.105C116.4 135.105 117.7 135.605 118.6 136.605C118.8 136.805 119 137.106 119.2 137.406C119.4 137.706 119.5 138.005 119.7 138.305C119.8 138.605 119.9 138.906 120 139.206C120.1 139.506 120.1 139.906 120.1 140.206C120.1 140.506 120.1 140.806 120 141.206C119.9 141.606 119.8 141.805 119.7 142.105C119.6 142.405 119.4 142.705 119.2 143.005C119 143.305 118.8 143.505 118.6 143.805C117.7 144.805 116.4 145.305 115.1 145.305Z" fill="#57AAFF"/>
<path d="M35.0004 145.306C34.7004 145.306 34.3004 145.306 34.0004 145.206C33.7004 145.106 33.4003 145.006 33.1003 144.906C32.8003 144.806 32.5003 144.606 32.2003 144.406C31.9003 144.206 31.7004 144.006 31.4004 143.806C31.2004 143.606 31.0004 143.306 30.8004 143.006C30.6004 142.706 30.5004 142.406 30.3004 142.106C30.2004 141.806 30.1004 141.506 30.0004 141.206C29.9004 140.906 29.9004 140.606 29.9004 140.206C29.9004 139.906 29.9004 139.506 30.0004 139.206C30.1004 138.906 30.2004 138.606 30.3004 138.306C30.4004 138.006 30.6004 137.706 30.8004 137.406C31.0004 137.106 31.2004 136.906 31.4004 136.606C31.6004 136.406 31.9003 136.206 32.2003 136.006C32.5003 135.806 32.8003 135.706 33.1003 135.506C33.4003 135.406 33.7004 135.306 34.0004 135.206C34.6004 135.106 35.3004 135.106 36.0004 135.206C36.3004 135.306 36.6004 135.406 36.9004 135.506C37.2004 135.606 37.5004 135.806 37.8004 136.006C38.1004 136.206 38.3003 136.406 38.6003 136.606C38.8003 136.806 39.0003 137.106 39.2003 137.406C39.4003 137.706 39.5003 138.006 39.7003 138.306C39.8003 138.606 39.9004 138.906 40.0004 139.206C40.1004 139.506 40.1003 139.906 40.1003 140.206C40.1003 141.506 39.6003 142.806 38.6003 143.706C38.4003 143.906 38.1004 144.106 37.8004 144.306C37.5004 144.506 37.2004 144.606 36.9004 144.806C36.6004 144.906 36.3004 145.006 36.0004 145.106C35.6004 145.306 35.3004 145.306 35.0004 145.306Z" fill="#57AAFF"/>
<path d="M75.0004 107.706C74.7004 107.706 74.4004 107.706 74.0004 107.606C73.7004 107.506 73.4003 107.406 73.1003 107.306C72.8003 107.206 72.5003 107.006 72.2003 106.806C71.9003 106.606 71.7004 106.406 71.4004 106.206C71.1004 106.006 71.0004 105.706 70.8004 105.406C70.6004 105.106 70.5004 104.806 70.3004 104.506C70.2004 104.206 70.1004 103.906 70.0004 103.606C69.9004 103.306 69.9004 102.906 69.9004 102.606C69.9004 101.306 70.4004 100.006 71.4004 99.1058C71.6004 98.9058 71.9003 98.7057 72.2003 98.5057C72.5003 98.3057 72.8003 98.2057 73.1003 98.0057C73.4003 97.9057 73.7004 97.8059 74.0004 97.7059C74.6004 97.6059 75.3004 97.6059 75.9004 97.7059C76.2004 97.8059 76.5004 97.9057 76.8004 98.0057C77.1004 98.1057 77.4003 98.3057 77.7003 98.5057C78.0003 98.7057 78.2004 98.9058 78.5004 99.1058C79.4004 100.006 80.0004 101.306 80.0004 102.606C80.0004 102.906 80.0004 103.306 79.9004 103.606C79.8004 103.906 79.7003 104.206 79.6003 104.506C79.5003 104.806 79.3003 105.106 79.1003 105.406C78.9003 105.706 78.7004 105.906 78.5004 106.206C78.3004 106.506 78.0003 106.606 77.7003 106.806C77.4003 107.006 77.1004 107.106 76.8004 107.306C76.5004 107.406 76.2004 107.506 75.9004 107.606C75.7004 107.606 75.4004 107.706 75.0004 107.706Z" fill="#57AAFF"/>
<path d="M75.0004 145.305C74.7004 145.305 74.4004 145.306 74.0004 145.206C73.7004 145.106 73.4003 145.006 73.1003 144.906C72.8003 144.806 72.5003 144.606 72.2003 144.406C71.9003 144.206 71.7004 144.005 71.4004 143.805C71.1004 143.605 71.0004 143.305 70.8004 143.005C70.6004 142.705 70.5004 142.406 70.3004 142.106C70.2004 141.806 70.1004 141.506 70.0004 141.206C69.9004 140.906 69.9004 140.606 69.9004 140.206C69.9004 138.906 70.4004 137.606 71.4004 136.706C71.6004 136.506 71.9003 136.306 72.2003 136.106C72.5003 135.906 72.8003 135.806 73.1003 135.606C73.4003 135.506 73.7004 135.405 74.0004 135.305C74.6004 135.205 75.3004 135.205 75.9004 135.305C76.2004 135.405 76.5004 135.506 76.8004 135.606C77.1004 135.706 77.4003 135.906 77.7003 136.106C78.0003 136.306 78.2004 136.506 78.5004 136.706C79.4004 137.606 80.0004 138.906 80.0004 140.206C80.0004 140.506 80.0004 140.806 79.9004 141.206C79.8004 141.506 79.7003 141.806 79.6003 142.106C79.5003 142.406 79.3003 142.705 79.1003 143.005C78.9003 143.305 78.7004 143.505 78.5004 143.805C78.3004 144.105 78.0003 144.206 77.7003 144.406C77.4003 144.606 77.1004 144.706 76.8004 144.906C76.5004 145.006 76.2004 145.106 75.9004 145.206C75.7004 145.306 75.4004 145.305 75.0004 145.305Z" fill="#57AAFF"/>
<path d="M95.0996 125.805C93.7996 125.805 92.4996 125.305 91.5996 124.305C91.3996 124.105 91.1996 123.805 90.9996 123.505C90.7996 123.205 90.6996 122.905 90.4996 122.605C90.3996 122.305 90.2996 122.006 90.1996 121.706C90.0996 121.406 90.0996 121.106 90.0996 120.706C90.0996 120.406 90.0996 120.006 90.1996 119.706C90.2996 119.406 90.3996 119.105 90.4996 118.805C90.5996 118.505 90.7996 118.206 90.9996 117.906C91.1996 117.606 91.3996 117.405 91.5996 117.105C92.4996 116.205 93.7996 115.605 95.0996 115.605C96.3996 115.605 97.6996 116.105 98.5996 117.105C99.4996 118.005 100.1 119.305 100.1 120.605C100.1 120.905 100.1 121.205 99.9996 121.605C99.8996 121.905 99.7996 122.205 99.6996 122.505C99.5996 122.805 99.3996 123.106 99.1996 123.406C98.9996 123.706 98.7996 123.906 98.5996 124.206C97.6996 125.306 96.3996 125.805 95.0996 125.805Z" fill="#57AAFF"/>
<path d="M55.0004 125.806C54.7004 125.806 54.3004 125.806 54.0004 125.706C53.7004 125.606 53.4003 125.506 53.1003 125.406C52.8003 125.306 52.5003 125.106 52.2003 124.906C51.9003 124.706 51.7004 124.506 51.4004 124.306C51.1004 124.106 51.0004 123.806 50.8004 123.506C50.6004 123.206 50.5004 122.906 50.3004 122.606C50.2004 122.306 50.1004 122.006 50.0004 121.706C49.9004 121.406 49.9004 121.106 49.9004 120.706C49.9004 120.406 49.9004 120.006 50.0004 119.706C50.1004 119.406 50.2004 119.106 50.3004 118.806C50.4004 118.506 50.6004 118.206 50.8004 117.906C51.0004 117.606 51.2004 117.406 51.4004 117.106C51.6004 116.806 51.9003 116.706 52.2003 116.506C52.5003 116.306 52.8003 116.206 53.1003 116.006C53.4003 115.906 53.7004 115.806 54.0004 115.706C54.6004 115.606 55.3004 115.606 56.0004 115.706C56.3004 115.806 56.6004 115.906 56.9004 116.006C57.2004 116.106 57.5004 116.306 57.8004 116.506C58.1004 116.706 58.3003 116.906 58.6003 117.106C58.9003 117.306 59.0003 117.606 59.2003 117.906C59.4003 118.206 59.5003 118.506 59.7003 118.806C59.8003 119.106 59.9004 119.406 60.0004 119.706C60.1004 120.006 60.1003 120.406 60.1003 120.706C60.1003 121.006 60.1004 121.306 60.0004 121.706C59.9004 122.006 59.8003 122.306 59.7003 122.606C59.6003 122.906 59.4003 123.206 59.2003 123.506C59.0003 123.806 58.8003 124.006 58.6003 124.306C58.4003 124.606 58.1004 124.706 57.8004 124.906C57.5004 125.106 57.2004 125.206 56.9004 125.406C56.6004 125.506 56.3004 125.606 56.0004 125.706C55.7004 125.806 55.3004 125.806 55.0004 125.806Z" fill="#57AAFF"/>
</svg>
