<svg width="142" height="121" viewBox="0 0 142 121" fill="none" xmlns="http://www.w3.org/2000/svg">
<path d="M73.2009 111.037C63.0009 111.037 53.001 107.937 44.401 102.037C21.101 86.037 15.1009 54.137 31.0009 30.737C38.7009 19.437 50.401 11.837 63.901 9.23705C77.401 6.73705 91.0009 9.53702 102.301 17.337C104.201 18.637 105.901 20.037 107.601 21.537C108.501 22.337 109.001 23.637 108.901 24.937C108.801 26.237 108.101 27.337 107.001 27.937C100.101 32.037 95.2009 38.637 93.3009 46.437C91.4009 54.237 92.501 62.337 96.701 69.237C100.501 75.637 106.501 80.337 113.601 82.537C114.801 82.937 115.801 83.837 116.201 85.037C116.601 86.237 116.401 87.5371 115.701 88.6371C108.001 99.9371 96.3009 107.537 82.8009 110.137C79.6009 110.737 76.4009 111.037 73.2009 111.037ZM73.401 16.437C70.701 16.437 68.0009 16.637 65.3009 17.237C53.9009 19.337 44.1009 25.837 37.6009 35.337C24.1009 55.037 29.201 82.037 48.901 95.537C58.401 102.037 70.0009 104.437 81.3009 102.337C91.0009 100.537 99.601 95.537 105.901 88.237C99.201 85.037 93.601 79.937 89.701 73.437C79.901 57.037 83.901 36.137 98.201 24.337C98.001 24.237 97.9009 24.137 97.701 24.037C90.4009 19.037 82.001 16.437 73.401 16.437Z" fill="#9975FF"/>
<path d="M137.9 29.8373C136.9 29.8373 135.8 29.4374 135.1 28.6374C134.9 28.4374 134.7 28.2373 134.6 28.0373C134.4 27.8373 134.3 27.5373 134.2 27.3373C134.1 27.1373 134 26.8374 134 26.6374C133.9 26.3374 133.9 26.1373 133.9 25.8373C133.9 24.7373 134.3 23.7373 135.1 23.0373C136 22.1373 137.4 21.6373 138.7 21.9373C139 22.0373 139.2 22.0374 139.5 22.1374C139.7 22.2374 140 22.3373 140.2 22.5373C140.4 22.6373 140.6 22.8373 140.8 23.0373C141.5 23.7373 142 24.8373 142 25.8373C142 26.1373 142 26.3374 141.9 26.6374C141.9 26.8374 141.8 27.1373 141.7 27.3373C141.6 27.5373 141.5 27.8373 141.3 28.0373C141.2 28.2373 141 28.4374 140.8 28.6374C140.6 28.8374 140.4 29.0374 140.2 29.1374C140 29.2374 139.7 29.4373 139.5 29.5373C139.3 29.6373 139 29.7374 138.7 29.7374C138.4 29.8374 138.1 29.8373 137.9 29.8373Z" fill="#9975FF"/>
<path d="M122.5 63.6372C121.4 63.6372 120.4 63.2371 119.7 62.4371C119.5 62.2371 119.4 62.0372 119.2 61.8372C119.1 61.6372 118.9 61.3372 118.8 61.1372C118.7 60.9372 118.6 60.6372 118.6 60.3372C118.6 60.0372 118.5 59.8371 118.5 59.5371C118.5 58.4371 118.9 57.4372 119.7 56.7372C120.4 56.0372 121.5 55.5371 122.5 55.5371C123.6 55.5371 124.6 55.9372 125.3 56.7372C126 57.5372 126.5 58.5371 126.5 59.5371C126.5 60.5371 126.1 61.6372 125.3 62.3372C124.6 63.1372 123.6 63.6372 122.5 63.6372Z" fill="#9975FF"/>
<path d="M31.9004 8.03711C30.8004 8.03711 29.8003 7.63716 29.1003 6.83716C28.4003 6.03716 27.9004 5.03711 27.9004 4.03711C27.9004 2.93711 28.3003 1.93718 29.1003 1.23718C29.8003 0.537183 30.9004 0.0371094 31.9004 0.0371094C32.9004 0.0371094 34.0004 0.437183 34.7004 1.23718C35.4004 2.03718 35.9004 3.03711 35.9004 4.03711C35.9004 5.03711 35.5004 6.13716 34.7004 6.83716C34.0004 7.53716 33.0004 8.03711 31.9004 8.03711Z" fill="#9975FF"/>
<path d="M5.00037 88.1375C4.70037 88.1375 4.50038 88.1374 4.20038 88.0374C3.90038 87.9374 3.70039 87.9375 3.40039 87.8375C3.20039 87.7375 2.90038 87.6374 2.70038 87.4374C2.50038 87.3374 2.30034 87.1374 2.10034 86.9374C1.90034 86.7374 1.70034 86.5375 1.60034 86.3375C1.50034 86.1375 1.30038 85.8375 1.20038 85.6375C1.10038 85.4375 1.00037 85.1375 1.00037 84.8375C0.900366 84.5375 0.900391 84.3374 0.900391 84.0374C0.900391 83.7374 0.900366 83.5375 1.00037 83.2375C1.00037 82.9375 1.10038 82.7374 1.20038 82.4374C1.30038 82.2374 1.40034 81.9375 1.60034 81.7375C1.70034 81.5375 1.90034 81.3375 2.10034 81.1375C2.30034 80.9375 2.50038 80.7375 2.70038 80.6375C2.90038 80.5375 3.20039 80.3375 3.40039 80.2375C3.60039 80.1375 3.90038 80.0374 4.20038 80.0374C5.50038 79.7374 6.90035 80.2375 7.80035 81.1375C8.00035 81.3375 8.10035 81.5375 8.30035 81.7375C8.40035 81.9375 8.60038 82.2374 8.70038 82.4374C8.80038 82.6374 8.90039 82.9375 8.90039 83.2375C8.90039 83.5375 9.00037 83.7374 9.00037 84.0374C9.00037 84.3374 9.00039 84.5375 8.90039 84.8375C8.80039 85.1375 8.80038 85.3375 8.70038 85.6375C8.60038 85.8375 8.50035 86.1375 8.30035 86.3375C8.10035 86.5375 8.00035 86.7374 7.80035 86.9374C7.10035 87.6374 6.00037 88.1375 5.00037 88.1375Z" fill="#9975FF"/>
<path d="M114.1 120.137C113.8 120.137 113.6 120.137 113.3 120.037C113 119.937 112.8 119.937 112.5 119.837C112.3 119.737 112 119.637 111.8 119.437C111.6 119.337 111.4 119.137 111.2 118.937C110.5 118.237 110 117.137 110 116.137C110 115.037 110.4 114.037 111.2 113.337C112 112.537 113 112.137 114 112.137C115.1 112.137 116.1 112.537 116.8 113.337C117 113.537 117.2 113.737 117.3 113.937C117.4 114.137 117.6 114.437 117.7 114.637C117.8 114.837 117.9 115.137 117.9 115.337C118 115.637 118 115.837 118 116.137C118 117.237 117.6 118.237 116.8 118.937C116.2 119.737 115.2 120.137 114.1 120.137Z" fill="#9975FF"/>
<path d="M26 120.337C24.9 120.337 23.9 119.937 23.2 119.137C22.4 118.437 22 117.337 22 116.337C22 116.037 22 115.837 22.1 115.537C22.2 115.337 22.2 115.037 22.3 114.837C22.4 114.637 22.5 114.337 22.7 114.137C22.8 113.937 23 113.737 23.2 113.537C23.4 113.337 23.6 113.137 23.8 113.037C24 112.937 24.3 112.737 24.5 112.637C24.7 112.537 25 112.437 25.3 112.437C26.6 112.137 28 112.637 28.9 113.537C29.6 114.237 30.1 115.337 30.1 116.337C30.1 117.437 29.7 118.437 28.9 119.137C28.1 119.937 27.1 120.337 26 120.337Z" fill="#9975FF"/>
</svg>
