<svg width="159" height="142" viewBox="0 0 159 142" fill="none" xmlns="http://www.w3.org/2000/svg">
<path d="M5.00049 30.2049C4.70049 30.2049 4.50044 30.2049 4.20044 30.1049C3.90044 30.0049 3.70039 30.005 3.40039 29.905C3.20039 29.805 2.90044 29.7049 2.70044 29.5049C2.50044 29.3049 2.30059 29.2049 2.10059 29.0049C1.90059 28.8049 1.70059 28.605 1.60059 28.405C1.50059 28.205 1.30044 28.0049 1.20044 27.7049C1.10044 27.5049 1.00049 27.205 1.00049 26.905C1.00049 26.605 0.900391 26.4049 0.900391 26.1049C0.900391 25.0049 1.30059 24.0049 2.10059 23.3049C2.30059 23.1049 2.50044 22.9049 2.70044 22.8049C2.90044 22.7049 3.20039 22.505 3.40039 22.405C3.60039 22.305 3.90044 22.2049 4.20044 22.2049C4.70044 22.1049 5.30054 22.1049 5.80054 22.2049C6.10054 22.2049 6.30059 22.305 6.60059 22.405C6.80059 22.505 7.10054 22.6049 7.30054 22.8049C7.50054 22.9049 7.70039 23.1049 7.90039 23.3049C8.60039 24.1049 9.10059 25.1049 9.10059 26.1049C9.10059 27.1049 8.70039 28.205 7.90039 28.905C7.10039 29.805 6.00049 30.2049 5.00049 30.2049Z" fill="#9975FF"/>
<path d="M23.6016 33.5049C22.5016 33.5049 21.5015 33.1048 20.8015 32.3048C20.1015 31.6048 19.6016 30.5049 19.6016 29.5049C19.6016 28.4049 20.0015 27.4048 20.8015 26.7048C21.5015 26.0048 22.6016 25.5049 23.6016 25.5049C24.6016 25.5049 25.7014 25.9048 26.4014 26.7048C27.1014 27.5048 27.6016 28.5049 27.6016 29.5049C27.6016 30.5049 27.2014 31.6048 26.4014 32.3048C25.6014 33.1048 24.6016 33.5049 23.6016 33.5049Z" fill="#9975FF"/>
<path d="M34.0005 12.0047C33.7005 12.0047 33.5004 12.0047 33.2004 11.9047C33.0004 11.8047 32.7004 11.8046 32.4004 11.7046C32.2004 11.6046 31.9004 11.5046 31.7004 11.3046C31.5004 11.2046 31.3006 11.0046 31.1006 10.8046C30.9006 10.6046 30.7006 10.4046 30.6006 10.2046C30.5006 10.0046 30.3004 9.80469 30.2004 9.50469C30.1004 9.30469 30.0005 9.00464 30.0005 8.70464C30.0005 8.50464 29.9004 8.20471 29.9004 7.90471C29.9004 6.80471 30.3006 5.80466 31.1006 5.10466C31.3006 4.90466 31.5004 4.70466 31.7004 4.60466C31.9004 4.50466 32.1004 4.30464 32.4004 4.20464C32.6004 4.10464 32.9004 4.00469 33.2004 4.00469C33.7004 3.90469 34.2005 3.90469 34.8005 4.00469C35.1005 4.10469 35.3006 4.10464 35.6006 4.20464C35.8006 4.30464 36.1005 4.40466 36.3005 4.60466C36.5005 4.70466 36.7004 4.90466 36.9004 5.10466C37.1004 5.30466 37.3004 5.50464 37.4004 5.70464C37.5004 5.90464 37.7005 6.20471 37.8005 6.40471C37.9005 6.60471 38.0005 6.90464 38.0005 7.20464C38.1005 7.50464 38.1006 7.70469 38.1006 8.00469C38.1006 9.10469 37.7004 10.1046 36.9004 10.8046C36.7004 11.0046 36.5005 11.2046 36.3005 11.3046C36.1005 11.4046 35.8006 11.6046 35.6006 11.7046C35.4006 11.8046 35.1005 11.9047 34.8005 11.9047C34.5005 12.0047 34.3005 12.0047 34.0005 12.0047Z" fill="#9975FF"/>
<path d="M139 65.2048C137.5 65.2048 135.999 64.3049 135.399 62.9049C134.499 60.9049 135.399 58.5049 137.399 57.6049C142.699 55.2049 146.7 50.6049 149 44.6049C144.6 44.1049 140.3 42.4048 136.7 39.8048C131.1 35.7048 127.4 29.7048 126.3 22.8048C125.5 17.8048 126.2 12.9049 128.1 8.40492C116.3 6.70492 104.4 13.2049 99.6995 24.5049C98.8995 26.5049 96.4996 27.5048 94.4996 26.7048C92.4996 25.9048 91.4996 23.5049 92.2996 21.5049C99.2996 4.7049 118.199 -3.89511 135.399 2.00489C136.599 2.40489 137.499 3.40487 137.899 4.60487C138.299 5.80487 138.1 7.10485 137.3 8.20485C134.5 12.1048 133.3 16.9048 134.1 21.7048C134.9 26.5048 137.4 30.7049 141.3 33.5049C144.9 36.1049 149.3 37.3049 153.8 36.9049C155.1 36.8049 156.3 37.2048 157.2 38.2048C158.1 39.1048 158.4 40.4048 158.2 41.7048C156 52.5048 149.7 61.1049 140.8 65.2048C140.1 65.1049 139.5 65.2048 139 65.2048Z" fill="#9975FF"/>
<path d="M116.301 111.005C115.801 111.005 115.301 111.005 114.801 111.005C112.601 110.905 110.901 109.005 111.001 106.805C111.101 104.605 113.001 102.905 115.201 103.005C121.801 103.305 128.001 101.005 132.801 96.6047C137.601 92.2047 140.501 86.1047 140.801 79.6047C141.401 66.1047 130.901 54.6048 117.401 54.0048C115.101 53.9048 112.801 54.1047 110.601 54.6047C109.401 54.9047 108.201 54.6047 107.201 53.8047C106.201 53.0047 105.701 51.9047 105.701 50.7047C105.701 34.3047 92.401 21.0048 76.001 21.0048C60.101 21.0048 47.1009 33.4047 46.4009 49.3047L46.3011 51.6047C46.2011 53.8047 44.3011 55.5048 42.1011 55.4048C39.9011 55.3048 38.2011 53.4047 38.3011 51.2047L38.4009 48.8047C39.3009 28.6047 55.801 12.8047 76.001 12.8047C95.201 12.8047 111.101 27.2047 113.401 45.8047C114.801 45.7047 116.301 45.6047 117.701 45.7047C135.601 46.5047 149.501 61.7047 148.701 79.7047C148.301 88.4047 144.601 96.4047 138.201 102.305C132.101 108.005 124.401 111.005 116.301 111.005Z" fill="#3B404E"/>
<path d="M35.7012 112.204C35.6012 112.204 35.6012 112.204 35.5012 112.204C24.3012 111.704 14.3013 105.605 8.80126 95.9045C4.50126 88.4045 3.30131 79.6044 5.60131 71.2044C7.90131 62.8044 13.2013 55.8045 20.8013 51.5045C28.3013 47.2045 37.1012 46.0044 45.5012 48.3044C53.9012 50.6044 60.9012 55.9045 65.2012 63.5045C66.3012 65.4045 65.6012 67.9045 63.7012 69.0045C61.8012 70.1045 59.3012 69.4045 58.2012 67.5045C54.9012 61.8045 49.6013 57.8045 43.3013 56.1045C37.0013 54.4045 30.4012 55.3045 24.7012 58.5045C19.0012 61.8045 15.0013 67.1045 13.3013 73.4045C11.6013 79.7045 12.5012 86.3045 15.7012 92.0045C19.9012 99.3045 27.4011 103.904 35.9011 104.304C38.1011 104.404 39.8012 106.304 39.7012 108.504C39.6012 110.504 37.9012 112.204 35.7012 112.204Z" fill="#3B404E"/>
<path d="M74.3996 141.905C68.5996 141.905 62.6997 139.705 58.1997 135.305C49.1997 126.405 49.0997 111.805 57.9997 102.805L71.6997 89.1047C72.4997 88.3047 73.4997 87.9048 74.4997 87.9048C75.5997 87.9048 76.5998 88.3047 77.2998 89.1047L90.6997 102.605C99.6997 111.605 99.6997 126.105 90.6997 135.105C86.2997 139.605 80.2996 141.905 74.3996 141.905ZM74.4997 97.6047L63.6997 108.405C57.8997 114.305 57.8998 123.805 63.7998 129.605C69.6998 135.405 79.1997 135.305 84.9997 129.505C90.8997 123.605 90.7997 114.105 84.9997 108.305L74.4997 97.6047Z" fill="#57AAFF"/>
</svg>
