<svg width="165" height="142" viewBox="0 0 165 142" fill="none" xmlns="http://www.w3.org/2000/svg">
<path d="M5.00037 30.2039C4.70037 30.2039 4.50032 30.2038 4.20032 30.1038C3.90032 30.0038 3.70039 30.0039 3.40039 29.9039C3.20039 29.8039 2.90032 29.7037 2.70032 29.5037C2.50032 29.3037 2.30034 29.2037 2.10034 29.0037C1.90034 28.8037 1.70034 28.6039 1.60034 28.4039C1.50034 28.2039 1.30032 28.0039 1.20032 27.7039C1.10032 27.5039 1.00037 27.2039 1.00037 26.9039C0.900366 26.6039 0.900391 26.4038 0.900391 26.1038C0.900391 25.0038 1.30034 24.0038 2.10034 23.3038C2.30034 23.1038 2.50032 22.9038 2.70032 22.8038C2.90032 22.7038 3.20039 22.5039 3.40039 22.4039C3.60039 22.3039 3.90032 22.2039 4.20032 22.2039C4.70032 22.1039 5.30042 22.1039 5.80042 22.2039C6.10042 22.2039 6.30034 22.3039 6.60034 22.4039C6.80034 22.5039 7.10042 22.6038 7.30042 22.8038C7.50041 22.9038 7.70039 23.1038 7.90039 23.3038C8.60039 24.1038 9.10034 25.1038 9.10034 26.1038C9.10034 26.4038 9.10037 26.6039 9.00037 26.9039C8.90037 27.2039 8.90042 27.4039 8.80042 27.7039C8.70042 27.9039 8.60039 28.2039 8.40039 28.4039C8.20039 28.6039 8.10039 28.8037 7.90039 29.0037C7.10039 29.8037 6.00037 30.2039 5.00037 30.2039Z" fill="#9975FF"/>
<path d="M23.6 33.504C23.3 33.504 23.1 33.5041 22.8 33.4041C22.5 33.3041 22.3 33.3042 22 33.2042C21.8 33.1042 21.5 33.004 21.3 32.804C21.1 32.604 20.9 32.504 20.7 32.304C20.5 32.104 20.3 31.9042 20.2 31.7042C20.1 31.5042 19.9 31.304 19.8 31.004C19.7 30.804 19.6 30.5042 19.6 30.2042C19.5 29.9042 19.5 29.7041 19.5 29.4041C19.5 29.1041 19.5 28.9041 19.6 28.6041C19.6 28.3041 19.7 28.104 19.8 27.804C19.9 27.604 20 27.3041 20.2 27.1041C20.3 26.9041 20.5 26.704 20.7 26.504C20.9 26.304 21.1 26.104 21.3 26.004C21.5 25.904 21.8 25.7041 22 25.6041C22.2 25.5041 22.5 25.4041 22.8 25.4041C23.3 25.3041 23.8 25.3041 24.4 25.4041C24.6 25.4041 24.9 25.5041 25.2 25.6041C25.4 25.7041 25.7 25.804 25.9 26.004C26.1 26.104 26.3 26.304 26.5 26.504C26.7 26.704 26.9 26.9041 27 27.1041C27.2 27.3041 27.3 27.604 27.4 27.804C27.5 28.004 27.6 28.3041 27.6 28.6041C27.7 28.9041 27.7 29.1041 27.7 29.4041C27.7 29.7041 27.7 29.9042 27.6 30.2042C27.6 30.5042 27.5 30.704 27.4 31.004C27.3 31.204 27.2 31.5042 27 31.7042C26.9 31.9042 26.7 32.104 26.5 32.304C26.3 32.504 26.1 32.604 25.9 32.804C25.7 32.904 25.4 33.1042 25.2 33.2042C25 33.3042 24.7 33.4041 24.4 33.4041C24.1 33.5041 23.8 33.504 23.6 33.504Z" fill="#9975FF"/>
<path d="M34 12.0042C33 12.0042 31.9 11.6042 31.2 10.8042C30.5 10.0042 30 9.00415 30 8.00415C30 7.70415 30 7.50435 30.1 7.20435C30.1 6.90435 30.2 6.7043 30.3 6.4043C30.4 6.2043 30.5 5.90435 30.7 5.70435C30.8 5.50435 31 5.30425 31.2 5.10425C32 4.40425 33 3.9043 34 3.9043C35.1 3.9043 36.1 4.30425 36.8 5.10425C37 5.30425 37.2 5.50435 37.3 5.70435C37.4 5.90435 37.6 6.2043 37.7 6.4043C37.8 6.6043 37.9 6.90435 37.9 7.20435C38 7.50435 38 7.70415 38 8.00415C38 9.00415 37.6 10.1042 36.8 10.8042C36.1 11.6042 35.1 12.0042 34 12.0042Z" fill="#9975FF"/>
<path d="M145 65.2044C143.5 65.2044 142 64.3043 141.4 62.9043C140.5 60.9043 141.4 58.5043 143.4 57.6043C148.7 55.2043 152.7 50.6043 155 44.6043C150.6 44.1043 146.3 42.4042 142.7 39.8042C132.7 32.5042 129.4 19.3042 134.1 8.30421C122.3 6.60421 110.4 13.1043 105.7 24.4043C104.9 26.4043 102.5 27.4043 100.5 26.6043C98.4996 25.8043 97.4996 23.4043 98.2996 21.4043C105.3 4.60431 124.2 -3.99569 141.4 1.90431C142.6 2.30431 143.5 3.30416 143.9 4.50416C144.3 5.70416 144.1 7.00426 143.3 8.10426C137.4 16.2043 139.2 27.5043 147.3 33.4043C150.9 36.0043 155.3 37.2042 159.8 36.8042C161.1 36.7042 162.3 37.1043 163.2 38.1043C164.1 39.0043 164.4 40.3043 164.2 41.6043C162 52.4043 155.7 61.0043 146.8 65.1043C146.1 65.1043 145.5 65.2044 145 65.2044Z" fill="#9975FF"/>
<path d="M115.202 108.204C114.702 108.204 114.202 108.204 113.702 108.204C111.502 108.104 109.802 106.204 109.902 104.004C110.002 101.804 111.902 100.104 114.102 100.204C120.802 100.504 127.302 98.2039 132.202 93.6039C137.202 89.1039 140.102 82.9039 140.402 76.1039C141.002 62.2039 130.202 50.4038 116.402 49.8038C114.102 49.7038 111.702 49.9038 109.502 50.5038C108.302 50.8038 107.102 50.504 106.102 49.704C105.102 48.904 104.602 47.8039 104.602 46.6039C104.602 30.3039 91.8016 16.904 75.5016 16.204C58.7016 15.404 44.5015 28.5038 43.7015 45.3038L43.6016 47.704L35.6016 47.4039L35.7015 45.0038C36.2015 34.7038 40.6015 25.3038 48.2015 18.3038C55.8015 11.3038 65.6016 7.80383 75.9016 8.30383C94.9016 9.10383 110.202 23.6039 112.402 42.1039C113.902 42.0039 115.402 41.9038 116.902 42.0038C125.802 42.4038 133.902 46.2038 139.902 52.8038C145.902 59.3038 149.002 67.804 148.602 76.704C148.202 85.604 144.402 93.704 137.802 99.704C131.402 105.104 123.602 108.204 115.202 108.204Z" fill="#3B404E"/>
<path d="M32.901 109.304C32.801 109.304 32.8009 109.304 32.7009 109.304C14.4009 108.504 0.20096 93.0043 1.00096 74.7043C1.40096 65.8043 5.20101 57.7043 11.801 51.7043C18.401 45.7043 26.8009 42.6041 35.7009 43.0041C47.1009 43.5041 57.301 49.7042 63.001 59.6042C64.101 61.5042 63.401 64.0042 61.501 65.1042C59.601 66.2042 57.101 65.5042 56.001 63.6042C51.701 56.1042 43.901 51.4041 35.301 51.0041C28.601 50.7041 22.1009 53.0042 17.2009 57.6042C12.2009 62.1042 9.30096 68.3042 9.00096 75.1042C8.40096 89.0042 19.201 100.804 33.001 101.404C35.201 101.504 36.901 103.404 36.801 105.604C36.801 107.604 35.001 109.304 32.901 109.304Z" fill="#3B404E"/>
<path d="M38.5995 138.604C37.5995 138.604 36.5996 138.204 35.7996 137.404C34.1996 135.804 34.1996 133.304 35.7996 131.704L46.1995 121.304C47.7995 119.704 50.2996 119.704 51.8996 121.304C53.4996 122.904 53.4996 125.403 51.8996 127.003L41.4996 137.404C40.6996 138.204 39.6995 138.604 38.5995 138.604Z" fill="#57AAFF"/>
<path d="M48.9996 138.604C47.9996 138.604 46.9995 138.204 46.1995 137.404L35.7996 127.003C34.1996 125.403 34.1996 122.904 35.7996 121.304C37.3996 119.704 39.8996 119.704 41.4996 121.304L51.8996 131.704C53.4996 133.304 53.4996 135.804 51.8996 137.404C51.0996 138.204 49.9996 138.604 48.9996 138.604Z" fill="#57AAFF"/>
<path d="M68.9004 114.204C67.9004 114.204 66.9004 113.804 66.1004 113.004C64.5004 111.404 64.5004 108.904 66.1004 107.304L76.5004 96.9041C78.1004 95.3041 80.6004 95.3041 82.2004 96.9041C83.8004 98.5041 83.8004 101.004 82.2004 102.604L71.8005 113.004C71.0005 113.804 70.0004 114.204 68.9004 114.204Z" fill="#57AAFF"/>
<path d="M79.3005 114.204C78.3005 114.204 77.3004 113.804 76.5004 113.004L66.1004 102.604C64.5004 101.004 64.5004 98.5041 66.1004 96.9041C67.7004 95.3041 70.2005 95.3041 71.8005 96.9041L82.2004 107.304C83.8004 108.904 83.8004 111.404 82.2004 113.004C81.4004 113.804 80.3005 114.204 79.3005 114.204Z" fill="#57AAFF"/>
<path d="M103.8 141.404C102.8 141.404 101.8 141.004 101 140.204L90.6004 129.804C89.0004 128.204 89.0004 125.704 90.6004 124.104C92.2004 122.504 94.7005 122.504 96.3005 124.104L106.7 134.504C108.3 136.104 108.3 138.604 106.7 140.204C105.9 141.004 104.8 141.404 103.8 141.404Z" fill="#57AAFF"/>
<path d="M93.4004 141.404C92.4004 141.404 91.4004 141.004 90.6004 140.204C89.0004 138.604 89.0004 136.104 90.6004 134.504L101 124.104C102.6 122.504 105.1 122.504 106.7 124.104C108.3 125.704 108.3 128.204 106.7 129.804L96.3005 140.204C95.5005 141.004 94.5004 141.404 93.4004 141.404Z" fill="#57AAFF"/>
</svg>
