<svg width="159" height="137" viewBox="0 0 159 137" fill="none" xmlns="http://www.w3.org/2000/svg">
<path d="M5.00049 32.2036C4.70049 32.2036 4.50044 32.2035 4.20044 32.1035C3.90044 32.0035 3.70039 32.0036 3.40039 31.9036C3.10039 31.8036 2.90044 31.7034 2.70044 31.5034C2.50044 31.3034 2.30059 31.2034 2.10059 31.0034C1.40059 30.2034 0.900391 29.2036 0.900391 28.2036C0.900391 27.9036 0.900488 27.7036 1.00049 27.4036C1.00049 27.1036 1.10044 26.9035 1.20044 26.6035C1.30044 26.4035 1.40059 26.1036 1.60059 25.9036C1.70059 25.7036 1.90059 25.5035 2.10059 25.3035C2.90059 24.6035 3.90039 24.1035 4.90039 24.1035C5.90039 24.1035 7.00044 24.5035 7.70044 25.3035C7.90044 25.5035 8.00044 25.7036 8.20044 25.9036C8.30044 26.1036 8.50059 26.4035 8.60059 26.6035C8.70059 26.8035 8.80054 27.1036 8.80054 27.4036C8.90054 27.7036 8.90039 27.9036 8.90039 28.2036C8.90039 28.5036 8.90054 28.7034 8.80054 29.0034C8.80054 29.3034 8.70059 29.5035 8.60059 29.8035C8.50059 30.0035 8.40044 30.3034 8.20044 30.5034C8.00044 30.7034 7.90044 30.9035 7.70044 31.1035C7.50044 31.3035 7.30059 31.4035 7.10059 31.6035C6.90059 31.7035 6.60039 31.9034 6.40039 32.0034C6.20039 32.1034 5.90059 32.2036 5.60059 32.2036C5.50059 32.2036 5.30049 32.2036 5.00049 32.2036Z" fill="#9975FF"/>
<path d="M23.6016 35.5042C22.5016 35.5042 21.5015 35.1042 20.8015 34.3042C20.1015 33.5042 19.6016 32.5042 19.6016 31.5042C19.6016 31.2042 19.6014 31.0043 19.7014 30.7043C19.8014 30.4043 19.8014 30.2043 19.9014 29.9043C20.0014 29.7043 20.1015 29.4043 20.3015 29.2043C20.4015 29.0043 20.6015 28.8042 20.8015 28.6042C21.5015 27.9042 22.6016 27.4043 23.6016 27.4043C24.7016 27.4043 25.7014 27.8042 26.4014 28.6042C27.1014 29.4042 27.6016 30.4043 27.6016 31.4043C27.6016 32.4043 27.2014 33.5043 26.4014 34.2043C25.6014 35.1043 24.6016 35.5042 23.6016 35.5042Z" fill="#9975FF"/>
<path d="M34.0005 14.0037C33.7005 14.0037 33.5004 14.0039 33.2004 13.9039C33.0004 13.8039 32.7004 13.8039 32.4004 13.7039C32.2004 13.6039 31.9004 13.5038 31.7004 13.3038C31.5004 13.2038 31.3006 13.0038 31.1006 12.8038C30.9006 12.6038 30.7006 12.4039 30.6006 12.2039C30.5006 12.0039 30.3004 11.8037 30.2004 11.5037C30.1004 11.3037 30.0005 11.0039 30.0005 10.7039C30.0005 10.4039 29.9004 10.2039 29.9004 9.90386C29.9004 8.80386 30.3006 7.80381 31.1006 7.10381C31.3006 6.90381 31.5004 6.70381 31.7004 6.60381C31.9004 6.50381 32.2004 6.30391 32.4004 6.20391C32.6004 6.10391 32.9004 6.00371 33.2004 6.00371C33.7004 5.90371 34.3005 5.90371 34.8005 6.00371C35.1005 6.10371 35.3006 6.10391 35.6006 6.20391C35.8006 6.30391 36.1005 6.40381 36.3005 6.60381C36.5005 6.70381 36.7004 6.90381 36.9004 7.10381C37.7004 7.90381 38.1006 8.90386 38.1006 9.90386C38.1006 10.2039 38.1005 10.4039 38.0005 10.7039C37.9005 11.0039 37.9005 11.2037 37.8005 11.5037C37.7005 11.7037 37.6004 12.0039 37.4004 12.2039C37.2004 12.4039 37.1004 12.6038 36.9004 12.8038C36.7004 13.0038 36.5005 13.2038 36.3005 13.3038C36.1005 13.4038 35.9006 13.6039 35.6006 13.7039C35.3006 13.8039 35.1005 13.9039 34.8005 13.9039C34.5005 14.0039 34.3005 14.0037 34.0005 14.0037Z" fill="#9975FF"/>
<path d="M139 65.2041C137.5 65.2041 135.999 64.3041 135.399 62.9041C134.499 60.9041 135.399 58.504 137.399 57.604C142.699 55.204 146.7 50.604 149 44.604C144.6 44.104 140.3 42.404 136.7 39.804C131.1 35.704 127.4 29.704 126.3 22.804C125.5 17.804 126.2 12.9041 128.1 8.40406C116.3 6.70406 104.4 13.2039 99.6995 24.5039C98.8995 26.5039 96.4996 27.5041 94.4996 26.7041C92.4996 25.9041 91.4996 23.5039 92.2996 21.5039C99.2996 4.70392 118.199 -3.89608 135.399 2.00392C136.599 2.40392 137.499 3.40402 137.899 4.60402C138.299 5.80402 138.1 7.10411 137.3 8.20411C134.5 12.1041 133.3 16.9041 134.1 21.7041C134.9 26.5041 137.4 30.7039 141.3 33.5039C144.9 36.1039 149.4 37.3041 153.8 36.9041C155.1 36.8041 156.3 37.2041 157.2 38.2041C158.1 39.2041 158.4 40.4041 158.2 41.7041C156 52.5041 149.7 61.1041 140.8 65.2041C140.1 65.1041 139.5 65.2041 139 65.2041Z" fill="#9975FF"/>
<g opacity="0.5">
<path opacity="0.5" d="M91.0011 136.604C87.6011 136.604 84.2011 135.604 81.2011 133.704C77.9011 131.504 73.6012 131.504 70.3012 133.704C64.3012 137.604 56.7011 137.604 50.7011 133.704C47.4011 131.604 43.201 131.604 39.901 133.704C38.001 134.904 35.601 134.404 34.401 132.504C33.201 130.604 33.7012 128.204 35.6012 127.004C41.5012 123.104 49.2011 123.104 55.2011 127.004C58.5011 129.104 62.7011 129.104 66.0011 127.004C72.0011 123.104 79.6012 123.104 85.6012 127.004C88.9012 129.204 93.2011 129.204 96.5011 127.004C98.3011 125.804 100.801 126.304 102.001 128.204C103.201 130.104 102.701 132.504 100.801 133.704C97.8012 135.604 94.4011 136.604 91.0011 136.604Z" fill="#3B404E"/>
</g>
<g opacity="0.5">
<path opacity="0.5" d="M121.901 115.904C118.501 115.904 115.101 114.904 112.201 113.004C112.201 113.004 112.101 113.004 112.101 112.904C108.801 110.804 104.601 110.804 101.301 112.904C95.4012 116.804 87.7011 116.804 81.7011 112.904C78.4011 110.804 74.201 110.804 70.901 112.904C69.001 114.104 66.601 113.604 65.401 111.704C64.201 109.804 64.7012 107.404 66.6012 106.204C72.5012 102.304 80.2011 102.304 86.2011 106.204C89.5011 108.304 93.7011 108.304 97.0011 106.204C102.901 102.304 110.601 102.304 116.501 106.204C116.501 106.204 116.601 106.204 116.601 106.304C119.901 108.404 124.101 108.404 127.401 106.304C129.201 105.104 131.701 105.604 132.901 107.504C134.101 109.404 133.601 111.804 131.701 113.004C128.701 114.904 125.301 115.904 121.901 115.904Z" fill="#3B404E"/>
</g>
<g opacity="0.5">
<path opacity="0.5" d="M97.1008 95.1042C93.7008 95.1042 90.3008 94.1043 87.3008 92.2043C84.0008 90.0043 79.7006 90.0043 76.4006 92.2043C70.4006 96.1043 62.8008 96.1043 56.8008 92.2043C53.5008 90.1043 49.3007 90.1043 46.0007 92.2043C44.1007 93.4043 41.7007 92.9041 40.5007 91.0041C39.3007 89.1041 39.8007 86.7041 41.7007 85.5041C47.6007 81.6041 55.3008 81.6041 61.3008 85.5041C64.6008 87.6041 68.8008 87.6041 72.1008 85.5041C78.1008 81.6041 85.7007 81.6041 91.7007 85.5041C95.0007 87.7041 99.3008 87.7041 102.601 85.5041C104.501 84.3041 106.901 84.8043 108.101 86.7043C109.301 88.6043 108.801 91.0043 106.901 92.2043C103.901 94.2043 100.501 95.1042 97.1008 95.1042Z" fill="#3B404E"/>
</g>
<path d="M139.201 101.104C138.401 101.104 137.502 100.804 136.802 100.304C135.002 99.0037 134.702 96.5038 136.002 94.7038C139.002 90.6038 140.701 85.8037 140.901 80.8037C141.501 66.9037 130.702 55.0038 116.802 54.4038C114.502 54.3038 112.102 54.5037 109.802 55.1037C108.602 55.4037 107.401 55.1037 106.401 54.3037C105.401 53.5037 104.901 52.4038 104.901 51.2038C104.901 34.8038 92.1015 21.4037 75.7015 20.6037C58.9015 19.9037 44.5016 32.9037 43.8016 49.8037L43.7015 52.2038C43.6015 54.4038 41.7015 56.1036 39.5015 56.0036C37.3015 55.9036 35.6015 54.0037 35.7015 51.8037L35.8016 49.4038C36.7016 28.1038 54.8016 11.6037 76.1016 12.6037C95.2016 13.5037 110.501 28.0036 112.701 46.5036C114.201 46.4036 115.701 46.3038 117.201 46.4038C135.501 47.2038 149.802 62.8037 149.002 81.1037C148.702 87.8037 146.502 94.1036 142.502 99.5036C141.602 100.504 140.401 101.104 139.201 101.104Z" fill="#3B404E"/>
<path d="M33.0007 114.104C32.9007 114.104 32.9008 114.104 32.8008 114.104C14.5008 113.304 0.200747 97.7043 1.00075 79.4043C1.80075 61.1043 17.4007 46.8043 35.7007 47.6043C47.2007 48.1043 57.8007 54.7044 63.4007 64.7044C64.5006 66.6044 63.8008 69.1043 61.8008 70.1043C59.9008 71.2043 57.4007 70.5042 56.4007 68.5042C52.2006 60.8042 44.1007 55.9042 35.4007 55.5042C21.5007 54.9042 9.60075 65.7043 9.00075 79.6043C8.40075 93.5043 19.2008 105.404 33.1008 106.004C35.3008 106.104 37.0006 108.004 36.9007 110.204C36.9007 112.404 35.1007 114.104 33.0007 114.104Z" fill="#3B404E"/>
</svg>
