<svg width="160" height="136" viewBox="0 0 160 136" fill="none" xmlns="http://www.w3.org/2000/svg">
<path d="M5.00037 36.2054C4.70037 36.2054 4.50038 36.2053 4.20038 36.1053C3.90038 36.0053 3.70039 36.0053 3.40039 35.9053C3.20039 35.8053 2.90038 35.7052 2.70038 35.5052C2.50038 35.3052 2.30034 35.2052 2.10034 35.0052C1.40034 34.2052 0.900391 33.2054 0.900391 32.2054C0.900391 31.9054 0.900366 31.7053 1.00037 31.4053C1.00037 31.1053 1.10038 30.9053 1.20038 30.6053C1.30038 30.4053 1.40034 30.1053 1.60034 29.9053C1.70034 29.7053 1.90034 29.5052 2.10034 29.3052C2.30034 29.1052 2.50038 28.9052 2.70038 28.8052C2.90038 28.7052 3.20039 28.5053 3.40039 28.4053C3.60039 28.3053 3.90038 28.2054 4.20038 28.2054C5.50038 27.9054 6.90035 28.4052 7.80035 29.3052C8.00035 29.5052 8.10035 29.7053 8.30035 29.9053C8.40035 30.1053 8.60038 30.4053 8.70038 30.6053C8.80038 30.8053 8.90039 31.1053 8.90039 31.4053C8.90039 31.7053 9.00037 31.9054 9.00037 32.2054C9.00037 32.5054 9.00039 32.7052 8.90039 33.0052C8.80039 33.3052 8.80038 33.5052 8.70038 33.8052C8.60038 34.0052 8.50035 34.3052 8.30035 34.5052C8.10035 34.7052 8.00035 34.9053 7.80035 35.1053C7.10035 35.8053 6.00037 36.2054 5.00037 36.2054Z" fill="#9975FF"/>
<path d="M23.5996 39.5046C22.5996 39.5046 21.4996 39.1047 20.7996 38.3047C20.5996 38.1047 20.3996 37.9048 20.2996 37.7048C20.1996 37.5048 19.9997 37.3046 19.8997 37.0046C19.7997 36.8046 19.6996 36.5048 19.6996 36.2048C19.6996 35.9048 19.5996 35.7048 19.5996 35.4048C19.5996 35.1048 19.5996 34.9047 19.6996 34.6047C19.6996 34.3047 19.7997 34.1047 19.8997 33.8047C19.9997 33.6047 20.0996 33.3047 20.2996 33.1047C20.3996 32.9047 20.5996 32.7046 20.7996 32.5046C21.4996 31.8046 22.5996 31.3047 23.5996 31.3047C24.5996 31.3047 25.6997 31.7046 26.3997 32.5046C26.5997 32.7046 26.7997 32.9047 26.8997 33.1047C27.0997 33.3047 27.1996 33.6047 27.2996 33.8047C27.3996 34.0047 27.4996 34.3047 27.4996 34.6047C27.5996 34.9047 27.5996 35.1048 27.5996 35.4048C27.5996 35.7048 27.5996 35.9048 27.4996 36.2048C27.4996 36.5048 27.3996 36.7046 27.2996 37.0046C27.1996 37.2046 27.0997 37.5048 26.8997 37.7048C26.7997 37.9048 26.5997 38.1047 26.3997 38.3047C25.5997 39.1047 24.5996 39.5046 23.5996 39.5046Z" fill="#9975FF"/>
<path d="M34 18.0052C33 18.0052 31.9 17.6052 31.2 16.8052C31 16.6052 30.9 16.4054 30.7 16.2054C30.6 16.0054 30.4 15.8052 30.3 15.5052C30.2 15.3052 30.1 15.0054 30.1 14.7054C30.1 14.5054 30 14.2053 30 13.9053C30 12.8053 30.4 11.8053 31.2 11.1053C32.1 10.2053 33.5 9.70518 34.8 10.0052C35.1 10.1052 35.3 10.1054 35.6 10.2054C35.8 10.3054 36.1 10.4053 36.3 10.6053C36.5 10.7053 36.7 10.9053 36.9 11.1053C37.7 11.9053 38.1 12.9053 38.1 13.9053C38.1 14.2053 38.1 14.4054 38 14.7054C38 15.0054 37.9 15.2052 37.8 15.5052C37.7 15.7052 37.6 16.0054 37.4 16.2054C37.3 16.4054 37.1 16.6052 36.9 16.8052C36.7 17.0052 36.5 17.2052 36.3 17.3052C36.1 17.4052 35.8 17.6054 35.6 17.7054C35.4 17.8054 35.1 17.9053 34.8 17.9053C34.5 18.0053 34.3 18.0052 34 18.0052Z" fill="#9975FF"/>
<path d="M140 65.2053C138.5 65.2053 137 64.3053 136.4 62.9053C135.5 60.9053 136.4 58.5052 138.4 57.6052C143.7 55.2052 147.7 50.6052 150 44.6052C145.6 44.1052 141.3 42.4052 137.7 39.8052C127.7 32.5052 124.4 19.3052 129.1 8.30519C117.3 6.60519 105.4 13.1053 100.7 24.4053C99.8996 26.4053 97.4996 27.4052 95.4996 26.6052C93.4996 25.8052 92.4996 23.4053 93.2996 21.4053C100.3 4.60529 119.2 -3.99471 136.4 1.90529C137.6 2.30529 138.5 3.30514 138.9 4.50514C139.3 5.70514 139.1 7.00524 138.3 8.10524C132.4 16.2052 134.2 27.5053 142.3 33.4053C145.9 36.0053 150.3 37.2052 154.8 36.8052C156.1 36.7052 157.3 37.1052 158.2 38.1052C159.1 39.1052 159.4 40.3052 159.2 41.6052C157 52.4052 150.7 61.0052 141.8 65.1052C141.1 65.1052 140.5 65.2053 140 65.2053Z" fill="#9975FF"/>
<path d="M118 117.506C117.5 117.506 117 117.506 116.5 117.506C114.3 117.406 112.6 115.506 112.7 113.306C112.8 111.106 114.7 109.406 116.9 109.506C131.2 110.106 143.3 99.0057 143.9 84.8057C144.2 77.9057 141.8 71.3058 137.1 66.2058C132.4 61.1058 126 58.1057 119.1 57.8057C116.7 57.7057 114.3 57.9057 112 58.5056C110.8 58.8056 109.6 58.5058 108.6 57.7058C107.6 56.9058 107.1 55.8057 107.1 54.6057C107.1 37.8057 94.0003 24.0057 77.2003 23.3057C68.9003 22.9057 60.8003 25.8056 54.7003 31.5056C48.5003 37.1056 44.9003 44.9058 44.6003 53.2058L44.5003 55.7058C44.4003 57.9058 42.5003 59.6056 40.3003 59.5056C38.1003 59.4057 36.4003 57.5057 36.5003 55.3057L36.6003 52.8057C37.1003 42.3057 41.6003 32.6056 49.3003 25.5057C57.0003 18.4057 67.1003 14.8058 77.6003 15.2058C97.1003 16.1058 112.7 30.9057 114.9 49.8057C116.5 49.7057 118 49.6058 119.6 49.7058C128.7 50.1058 137 54.0058 143.1 60.7058C149.2 67.4058 152.4 76.1058 152 85.1058C151.1 103.206 136 117.506 118 117.506Z" fill="#3B404E"/>
<path d="M33.6003 118.606C33.5003 118.606 33.5003 118.606 33.4003 118.606C14.7003 117.806 0.200324 101.906 1.00032 83.2061C1.80032 64.5061 17.7003 50.006 36.4003 50.806C48.0004 51.306 58.5003 57.6061 64.3003 67.7061C65.4003 69.6061 64.7003 72.1061 62.8003 73.2061C60.9003 74.3061 58.4003 73.6061 57.3003 71.7061C52.9003 64.0061 44.9003 59.106 36.0003 58.806C21.7003 58.206 9.60035 69.3059 8.90035 83.5059C8.30035 97.8059 19.4003 109.906 33.6003 110.506C35.8003 110.606 37.5003 112.506 37.4003 114.706C37.5003 117.006 35.7003 118.606 33.6003 118.606Z" fill="#3B404E"/>
<path d="M84.5997 135.305C83.1997 135.305 81.8997 134.605 81.0997 133.305L61.8998 100.505C60.7998 98.6052 61.3997 96.1052 63.2997 95.0052C65.1997 93.9052 67.6997 94.5053 68.7997 96.4053L87.9998 129.205C89.0998 131.105 88.4997 133.605 86.5997 134.705C85.9997 135.205 85.2997 135.305 84.5997 135.305Z" fill="#57AAFF"/>
<path d="M65.4009 135.305C64.7009 135.305 64.0009 135.105 63.4009 134.805C61.5009 133.705 60.8008 131.205 62.0008 129.305L81.2009 96.5053C82.3009 94.6053 84.8009 93.9054 86.7009 95.1054C88.6009 96.2054 89.3008 98.7054 88.1008 100.605L68.9009 133.405C68.1009 134.605 66.8009 135.305 65.4009 135.305Z" fill="#57AAFF"/>
<path d="M94 118.905H56C53.8 118.905 52 117.105 52 114.905C52 112.705 53.8 110.905 56 110.905H94C96.2 110.905 98 112.705 98 114.905C98 117.105 96.2 118.905 94 118.905Z" fill="#57AAFF"/>
</svg>
