<svg width="157" height="148" viewBox="0 0 157 148" fill="none" xmlns="http://www.w3.org/2000/svg">
<path d="M5.00049 31.2039C4.70049 31.2039 4.50044 31.2038 4.20044 31.1038C3.90044 31.0038 3.70039 31.0039 3.40039 30.9039C3.20039 30.8039 2.90044 30.7037 2.70044 30.5037C2.50044 30.3037 2.30059 30.2037 2.10059 30.0037C1.40059 29.2037 0.900391 28.2039 0.900391 27.2039C0.900391 26.9039 0.900488 26.7039 1.00049 26.4039C1.10049 26.1039 1.10044 25.9038 1.20044 25.6038C1.30044 25.4038 1.40059 25.1039 1.60059 24.9039C1.70059 24.7039 1.90059 24.5038 2.10059 24.3038C2.30059 24.1038 2.50044 23.9038 2.70044 23.8038C2.90044 23.7038 3.20039 23.5039 3.40039 23.4039C3.60039 23.3039 3.90044 23.2039 4.20044 23.2039C4.70044 23.1039 5.30054 23.1039 5.80054 23.2039C6.10054 23.2039 6.30059 23.3039 6.60059 23.4039C6.80059 23.5039 7.10054 23.6038 7.30054 23.8038C7.50054 23.9038 7.70039 24.1038 7.90039 24.3038C8.10039 24.5038 8.30039 24.7039 8.40039 24.9039C8.50039 25.1039 8.70054 25.4038 8.80054 25.6038C8.90054 25.8038 9.00049 26.1039 9.00049 26.4039C9.00049 26.7039 9.10059 26.9039 9.10059 27.2039C9.10059 27.5039 9.10049 27.7037 9.00049 28.0037C8.90049 28.3037 8.90054 28.5038 8.80054 28.8038C8.70054 29.0038 8.60039 29.3037 8.40039 29.5037C8.30039 29.7037 8.10039 29.9038 7.90039 30.1038C7.10039 30.8038 6.00049 31.2039 5.00049 31.2039Z" fill="#9975FF"/>
<path d="M23.6016 34.5042C22.6016 34.5042 21.5015 34.1042 20.8015 33.3042C20.1015 32.5042 19.6016 31.5042 19.6016 30.5042C19.6016 29.4042 20.0015 28.4044 20.8015 27.7044C21.0015 27.5044 21.2014 27.3044 21.4014 27.2044C21.6014 27.1044 21.9016 26.9042 22.1016 26.8042C22.3016 26.7042 22.6014 26.6043 22.9014 26.6043C23.4014 26.5043 23.9015 26.5043 24.5015 26.6043C24.8015 26.6043 25.0015 26.7042 25.3015 26.8042C25.5015 26.9042 25.8015 27.0044 26.0015 27.2044C26.2015 27.3044 26.4016 27.5044 26.6016 27.7044C27.3016 28.5044 27.8015 29.5042 27.8015 30.5042C27.8015 31.5042 27.4016 32.6042 26.6016 33.3042C25.6016 34.1042 24.6016 34.5042 23.6016 34.5042Z" fill="#9975FF"/>
<path d="M34.0005 13.0037C33.7005 13.0037 33.5004 13.0039 33.2004 12.9039C33.0004 12.8039 32.7004 12.8039 32.4004 12.7039C32.2004 12.6039 31.9004 12.5038 31.7004 12.3038C31.5004 12.2038 31.3006 12.0038 31.1006 11.8038C30.4006 11.1038 29.9004 10.0037 29.9004 9.00371C29.9004 8.70371 29.9005 8.50391 30.0005 8.20391C30.0005 7.90391 30.1004 7.70386 30.2004 7.40386C30.3004 7.20386 30.4006 6.90391 30.6006 6.70391C30.7006 6.50391 30.9006 6.30381 31.1006 6.10381C31.3006 5.90381 31.5004 5.70381 31.7004 5.60381C31.9004 5.50381 32.1004 5.30391 32.4004 5.20391C32.6004 5.10391 32.9004 5.00371 33.2004 5.00371C33.7004 4.90371 34.2005 4.90371 34.8005 5.00371C35.1005 5.10371 35.3006 5.10391 35.6006 5.20391C35.8006 5.30391 36.1005 5.40381 36.3005 5.60381C36.5005 5.70381 36.7004 5.90381 36.9004 6.10381C37.1004 6.30381 37.3004 6.50391 37.4004 6.70391C37.5004 6.90391 37.7005 7.20386 37.8005 7.40386C37.9005 7.60386 38.0005 7.90391 38.0005 8.20391C38.1005 8.50391 38.1006 8.70371 38.1006 9.00371C38.1006 9.30371 38.1005 9.50376 38.0005 9.80376C38.0005 10.1038 37.9005 10.3038 37.8005 10.6038C37.7005 10.8038 37.6004 11.1038 37.4004 11.3038C37.3004 11.5038 37.1004 11.7039 36.9004 11.9039C36.7004 12.1039 36.5005 12.3039 36.3005 12.4039C36.1005 12.5039 35.8006 12.7038 35.6006 12.8038C35.4006 12.9038 35.1005 13.0037 34.8005 13.0037C34.5005 13.0037 34.3005 13.0037 34.0005 13.0037Z" fill="#9975FF"/>
<path d="M137 65.2041C135.5 65.2041 133.999 64.3041 133.399 62.9041C132.499 60.9041 133.399 58.504 135.399 57.604C140.699 55.204 144.7 50.604 147 44.604C142.6 44.104 138.3 42.404 134.7 39.804C129.1 35.704 125.4 29.704 124.3 22.804C123.5 17.804 124.2 12.9041 126.1 8.40406C114.3 6.70406 102.4 13.2039 97.6995 24.5039C96.8995 26.5039 94.4996 27.5041 92.4996 26.7041C90.4996 25.9041 89.4996 23.5039 90.2996 21.5039C97.2996 4.70392 116.199 -3.89608 133.399 2.00392C134.599 2.40392 135.499 3.40402 135.899 4.60402C136.299 5.80402 136.1 7.10411 135.3 8.20411C132.5 12.1041 131.3 16.9041 132.1 21.7041C132.9 26.5041 135.4 30.7039 139.3 33.5039C142.9 36.1039 147.3 37.3041 151.8 36.9041C153.1 36.8041 154.3 37.2041 155.2 38.2041C156.1 39.2041 156.4 40.4041 156.2 41.7041C154 52.5041 147.7 61.1041 138.8 65.2041C138.1 65.1041 137.5 65.2041 137 65.2041Z" fill="#9975FF"/>
<path d="M115.002 113.104C114.502 113.104 114.002 113.104 113.502 113.104C111.302 113.004 109.602 111.104 109.702 108.904C109.802 106.704 111.702 105.004 113.902 105.104C120.602 105.404 127.002 103.104 132.002 98.5039C136.902 94.0039 139.802 87.804 140.102 81.104C140.702 67.304 130.002 55.5041 116.102 54.9041C113.802 54.8041 111.402 55.004 109.202 55.604C108.002 55.904 106.802 55.604 105.802 54.804C104.802 54.004 104.302 52.9041 104.302 51.7041C104.302 35.0041 90.7018 21.304 74.0018 21.304C57.7018 21.304 44.4017 34.004 43.7017 50.304L43.6019 52.7041C43.5019 54.9041 41.7017 56.6039 39.4017 56.5039C37.2017 56.4039 35.5019 54.504 35.6019 52.304L35.7017 49.9041C36.6017 29.3041 53.4018 13.2041 74.0018 13.2041C93.6018 13.2041 109.802 28.0041 112.102 46.9041C113.602 46.8041 115.102 46.704 116.602 46.804C134.802 47.604 149.002 63.1041 148.202 81.4041C147.802 90.2041 144.002 98.4041 137.502 104.404C131.102 110.104 123.302 113.104 115.002 113.104Z" fill="#3B404E"/>
<path d="M32.8015 114.304C32.7015 114.304 32.7015 114.304 32.6015 114.304C21.2015 113.804 11.1013 107.604 5.40133 97.8036C1.00133 90.1036 -0.198474 81.2038 2.10153 72.7038C4.40153 64.2038 9.90143 57.0037 17.5014 52.6037C25.2014 48.2037 34.1015 47.0036 42.6015 49.3036C51.1015 51.6036 58.3014 57.1038 62.7014 64.7038C63.8014 66.6038 63.1014 69.1038 61.2014 70.2038C59.3014 71.3038 56.8014 70.6038 55.7014 68.7038C48.8014 56.7038 33.4013 52.6036 21.4013 59.5036C15.6013 62.9036 11.4014 68.3038 9.70138 74.7038C8.00138 81.2038 8.80138 87.9036 12.2014 93.8036C16.5014 101.304 24.2015 106.004 32.8015 106.304C35.0015 106.404 36.7015 108.304 36.6015 110.504C36.7015 112.604 34.9015 114.304 32.8015 114.304Z" fill="#3B404E"/>
<path d="M61.6004 147.604C61.0004 147.604 60.3003 147.504 59.8003 147.104C58.1003 146.204 57.3003 144.304 57.8003 142.504L63.8003 119.604H56.1004C54.7004 119.604 53.5002 118.904 52.7002 117.804C52.0002 116.704 51.8002 115.204 52.4002 114.004L64.7002 86.104C65.3002 84.704 66.8002 83.7041 68.4002 83.7041H90.6004C92.1004 83.7041 93.5002 84.5041 94.2002 85.9041C94.9002 87.3041 94.8002 88.904 93.9002 90.104L84.5003 102.904H92.8003C94.4003 102.904 95.8002 103.804 96.4002 105.204C97.1002 106.604 96.8003 108.304 95.8003 109.504L64.7002 146.104C63.9002 147.104 62.7004 147.604 61.6004 147.604ZM62.1004 111.704H68.9002C70.1002 111.704 71.3004 112.304 72.1004 113.304C72.9004 114.304 73.1003 115.604 72.8003 116.804L70.0003 127.704L84.2002 111.004H76.6004C75.1004 111.004 73.7003 110.204 73.0003 108.804C72.3003 107.404 72.4003 105.804 73.3003 104.604L82.7002 91.804H71.0003L62.1004 111.704Z" fill="#FFC44C"/>
</svg>
