<svg width="155" height="129" viewBox="0 0 155 129" fill="none" xmlns="http://www.w3.org/2000/svg">
<path d="M126.799 88.6448C124.399 88.6448 122.398 86.6446 122.398 84.2446C122.398 77.5446 116.999 72.1448 110.299 72.1448C107.899 72.1448 105.898 70.1446 105.898 67.7446C105.898 65.3446 107.899 63.3447 110.299 63.3447C116.999 63.3447 122.398 57.9446 122.398 51.2446C122.398 50.0446 122.898 48.9448 123.698 48.1448C124.498 47.3448 125.599 46.9447 126.799 46.8447C129.199 46.8447 131.198 48.8446 131.198 51.2446C131.198 57.9446 136.599 63.3447 143.299 63.3447C145.699 63.3447 147.698 65.3446 147.698 67.7446C147.698 70.1446 145.699 72.1448 143.299 72.1448C136.599 72.1448 131.198 77.5446 131.198 84.2446C131.298 86.6446 129.299 88.6448 126.799 88.6448ZM121.698 67.7446C123.698 69.1446 125.399 70.8447 126.799 72.8447C128.199 70.8447 129.898 69.1446 131.898 67.7446C129.898 66.3446 128.199 64.6448 126.799 62.6448C125.499 64.5448 123.698 66.3446 121.698 67.7446Z" fill="#FFC44C"/>
<path d="M97.7996 31.5449C95.3996 31.5449 93.3994 29.545 93.3994 27.145C93.3994 23.345 90.2995 20.2449 86.4995 20.2449C84.0995 20.2449 82.0996 18.245 82.0996 15.845C82.0996 13.445 84.0995 11.4448 86.4995 11.4448C90.2995 11.4448 93.3994 8.34492 93.3994 4.54492C93.3994 2.14492 95.3996 0.14502 97.7996 0.14502C100.2 0.14502 102.199 2.14492 102.199 4.54492C102.199 8.34492 105.3 11.4448 109.1 11.4448C110.3 11.4448 111.399 11.9449 112.199 12.7449C112.999 13.5449 113.5 14.645 113.5 15.845C113.5 17.045 112.999 18.1448 112.199 18.9448C111.399 19.7448 110.3 20.2449 109.1 20.2449C105.3 20.2449 102.199 23.345 102.199 27.145C102.199 29.545 100.2 31.5449 97.7996 31.5449ZM96.0996 15.7449C96.6996 16.2449 97.2996 16.8448 97.7996 17.4448C98.2996 16.8448 98.8995 16.2449 99.4995 15.7449C98.8995 15.2449 98.2996 14.6449 97.7996 14.0449C97.2996 14.6449 96.6996 15.2449 96.0996 15.7449ZM86.3994 12.145C86.3994 12.145 86.4994 12.145 86.3994 12.145C86.4994 12.145 86.4994 12.145 86.3994 12.145Z" fill="#FFC44C"/>
<path d="M61.3007 121.745C52.9007 121.745 44.7007 119.245 37.6007 114.345C28.3007 108.045 22.1006 98.4454 20.0006 87.3454C17.9006 76.2454 20.3007 65.0454 26.6007 55.8454C39.7007 36.6454 66.0007 31.7454 85.1007 44.8454C86.6007 45.8454 88.1006 47.0453 89.5006 48.2453C90.4006 49.0453 90.9007 50.3454 90.8007 51.6454C90.7007 52.9454 90.0005 54.0454 88.9005 54.6454C77.8005 61.3454 74.2007 75.7454 80.8007 86.8454C83.8007 91.8454 88.5006 95.5453 94.0006 97.2453C95.2006 97.6453 96.2007 98.5453 96.6007 99.7453C97.0007 100.945 96.8007 102.245 96.1007 103.345C89.8007 112.645 80.2007 118.845 69.1007 120.945C66.5007 121.545 63.9007 121.745 61.3007 121.745ZM61.4005 45.5453C50.5005 45.5453 39.8006 50.7454 33.2006 60.3454C28.1006 67.8454 26.2007 76.9454 27.8007 85.8454C29.5007 94.8454 34.5007 102.545 42.1007 107.745C56.2007 117.445 75.1005 114.945 86.4005 102.745C81.3005 100.045 77.0005 96.0453 73.9005 91.0453C66.0005 77.8453 68.9007 61.0454 80.1007 51.1454C74.4007 47.4454 67.9005 45.5453 61.4005 45.5453Z" fill="#9975FF"/>
<path d="M118 128.045C117 128.045 115.9 127.645 115.2 126.845C115 126.645 114.8 126.445 114.7 126.245C114.6 126.045 114.4 125.845 114.3 125.545C114.2 125.345 114.1 125.045 114.1 124.745C114 124.445 114 124.245 114 123.945C114 122.845 114.4 121.846 115.2 121.146C116 120.346 117 119.945 118 119.945C119 119.945 120.1 120.346 120.8 121.146C121.5 121.846 122 122.945 122 123.945C122 124.245 122 124.445 121.9 124.745C121.9 124.945 121.8 125.245 121.7 125.545C121.6 125.745 121.5 126.045 121.3 126.245C121.2 126.445 121 126.645 120.8 126.845C120.1 127.645 119 128.045 118 128.045Z" fill="#9975FF"/>
<path d="M34.9004 21.5457C33.8004 21.5457 32.8006 21.1458 32.1006 20.3458C31.3006 19.5458 30.9004 18.5457 30.9004 17.5457C30.9004 16.4457 31.3006 15.4457 32.1006 14.7457C33.0006 13.8457 34.4004 13.3458 35.7004 13.6458C35.9004 13.6458 36.2005 13.7458 36.5005 13.8458C36.7005 13.9458 37.0004 14.0457 37.2004 14.2457C37.4004 14.3457 37.6005 14.5457 37.8005 14.7457C38.5005 15.5457 39.0005 16.5457 39.0005 17.5457C39.0005 18.5457 38.6005 19.6458 37.8005 20.3458C37.6005 20.5458 37.4004 20.6458 37.2004 20.8458C37.0004 20.9458 36.7005 21.1457 36.5005 21.2457C36.3005 21.3457 36.0004 21.4456 35.7004 21.4456C35.5004 21.4456 35.2004 21.5457 34.9004 21.5457Z" fill="#9975FF"/>
<path d="M4.5 103.046C3.5 103.046 2.39995 102.646 1.69995 101.846C0.999951 101.146 0.5 100.046 0.5 99.0457C0.5 98.7457 0.500098 98.5457 0.600098 98.2457C0.600098 98.0457 0.700049 97.7457 0.800049 97.5457C0.900049 97.3457 0.999951 97.0458 1.19995 96.8458C1.29995 96.6458 1.49995 96.4457 1.69995 96.2457C1.89995 96.0457 2.10005 95.8457 2.30005 95.7457C2.50005 95.6457 2.7 95.4458 3 95.3458C3.2 95.2458 3.50005 95.1458 3.80005 95.1458C5.10005 94.8458 6.4999 95.3457 7.3999 96.2457C8.0999 96.9457 8.6001 98.0457 8.6001 99.0457C8.6001 100.146 8.1999 101.146 7.3999 101.846C6.5999 102.646 5.5 103.046 4.5 103.046Z" fill="#9975FF"/>
<path d="M150.5 20.0452C150.2 20.0452 150 20.0451 149.7 19.9451C149.4 19.8451 149.2 19.8452 148.9 19.7452C148.6 19.6452 148.4 19.5453 148.2 19.3453C148 19.2453 147.801 19.0453 147.601 18.8453C147.401 18.6453 147.201 18.4452 147.101 18.2452C147.001 18.0452 146.8 17.7452 146.7 17.5452C146.6 17.3452 146.5 17.0453 146.5 16.8453C146.5 16.5453 146.4 16.3452 146.4 16.0452C146.4 14.9452 146.801 13.9452 147.601 13.2452C147.801 13.0452 148 12.8452 148.2 12.7452C148.4 12.6452 148.6 12.4453 148.9 12.3453C149.1 12.2453 149.4 12.1453 149.7 12.1453C150.2 12.0453 150.701 12.0453 151.301 12.1453C151.601 12.2453 151.801 12.2453 152.101 12.3453C152.301 12.4453 152.601 12.5452 152.801 12.7452C153.001 12.8452 153.2 13.0452 153.4 13.2452C154.1 13.9452 154.601 15.0452 154.601 16.0452C154.601 16.3452 154.6 16.5453 154.5 16.8453C154.5 17.0453 154.401 17.3452 154.301 17.5452C154.201 17.7452 154.1 18.0452 153.9 18.2452C153.8 18.4452 153.6 18.6453 153.4 18.8453C152.6 19.6453 151.5 20.0452 150.5 20.0452Z" fill="#9975FF"/>
</svg>
