<svg width="155" height="110" viewBox="0 0 155 110" fill="none" xmlns="http://www.w3.org/2000/svg">
<path d="M101.1 99.5995C98.9001 99.5995 97.1001 97.7995 97.1001 95.6995C97.1001 93.4995 98.8001 91.6995 101 91.5995C104.2 91.5995 107.3 90.8996 110.2 89.7996C118.6 85.8996 125.2 79.1996 128.9 70.8996C122.5 69.8996 116.5 67.0996 111.5 62.7996C98.7001 51.5996 96.3001 32.8996 105 18.8996C88.7001 14.0996 70.7001 20.7995 61.7001 35.6995C60.6001 37.5995 58.1001 38.1995 56.2001 37.0995C54.3001 35.9995 53.7002 33.4995 54.8002 31.5995C66.8002 11.7995 91.8001 3.89957 113 13.3996C114.2 13.8996 115 14.9995 115.3 16.1995C115.6 17.3995 115.2 18.6995 114.4 19.6995C104.8 30.5995 105.9 47.2996 116.8 56.8996C121.7 61.1996 128 63.4996 134.5 63.3996C135.8 63.3996 137 63.9995 137.7 64.9995C138.5 65.9995 138.7 67.2995 138.3 68.4995C134.5 81.1995 125.5 91.6995 113.4 97.1995C113.3 97.1995 113.3 97.1996 113.2 97.2996C109.5 98.6996 105.4 99.4995 101.1 99.5995Z" fill="#9975FF"/>
<path d="M145.301 8.99933C145.001 8.99933 144.801 8.99935 144.501 8.89935C144.301 8.79935 144.001 8.79928 143.701 8.69928C143.501 8.59928 143.201 8.49938 143.001 8.29938C142.801 8.09938 142.601 7.99938 142.401 7.79938C141.601 6.99938 141.201 5.99933 141.201 4.99933C141.201 4.69933 141.201 4.49928 141.301 4.19928C141.401 3.89928 141.401 3.69935 141.501 3.39935C141.601 3.19935 141.701 2.89928 141.901 2.69928C142.001 2.49928 142.201 2.2993 142.401 2.0993C142.601 1.8993 142.801 1.6993 143.001 1.5993C143.201 1.4993 143.501 1.29928 143.701 1.19928C143.901 1.09928 144.201 0.999329 144.501 0.999329C145.801 0.699328 147.201 1.1993 148.101 2.0993C148.301 2.2993 148.501 2.49928 148.601 2.69928C148.701 2.89928 148.901 3.19935 149.001 3.39935C149.101 3.59935 149.201 3.89928 149.201 4.19928C149.301 4.49928 149.301 4.69933 149.301 4.99933C149.301 5.99933 148.901 7.09938 148.101 7.79938C147.401 8.59938 146.401 8.99933 145.301 8.99933Z" fill="#9975FF"/>
<path d="M141.301 43.8993C141.001 43.8993 140.801 43.8994 140.501 43.7994C140.201 43.7994 140.001 43.6993 139.701 43.5993C139.501 43.4993 139.201 43.3993 139.001 43.1993C138.801 43.0993 138.601 42.8993 138.401 42.6993C137.601 41.9993 137.201 40.8993 137.201 39.8993C137.201 38.7993 137.601 37.7993 138.401 37.0993C138.601 36.8993 138.801 36.6993 139.001 36.5993C139.201 36.4993 139.401 36.2993 139.701 36.1993C139.901 36.0993 140.201 35.9993 140.501 35.9993C141.001 35.8993 141.501 35.8993 142.101 35.9993C142.301 35.9993 142.601 36.0993 142.901 36.1993C143.101 36.2993 143.401 36.3993 143.601 36.5993C143.801 36.6993 144.001 36.8993 144.201 37.0993C144.901 37.7993 145.401 38.8993 145.401 39.8993C145.401 40.8993 145.001 41.9993 144.201 42.6993C144.001 42.8993 143.801 43.0993 143.601 43.1993C143.401 43.2993 143.101 43.4993 142.901 43.5993C142.701 43.6993 142.401 43.7994 142.101 43.7994C141.801 43.8994 141.601 43.8993 141.301 43.8993Z" fill="#9975FF"/>
<path d="M43.4004 22.7992C42.4004 22.7992 41.3003 22.3991 40.6003 21.5991C40.4003 21.3991 40.2003 21.1991 40.1003 20.9991C40.0003 20.7991 39.8003 20.4992 39.7003 20.2992C39.6003 20.0992 39.5004 19.7991 39.5004 19.4991C39.5004 19.1991 39.4004 18.9991 39.4004 18.6991C39.4004 18.3991 39.4004 18.1992 39.5004 17.8992C39.6004 17.5992 39.6003 17.3991 39.7003 17.0991C39.8003 16.8991 39.9003 16.5992 40.1003 16.3992C40.2003 16.1992 40.4003 15.9992 40.6003 15.7992C41.3003 15.0992 42.4004 14.5991 43.4004 14.5991C44.5004 14.5991 45.5003 14.9992 46.2003 15.7992C46.4003 15.9992 46.6003 16.1992 46.7003 16.3992C46.8003 16.5992 47.0003 16.8991 47.1003 17.0991C47.2003 17.2991 47.3004 17.5992 47.3004 17.8992C47.3004 18.0992 47.4004 18.3991 47.4004 18.6991C47.4004 19.6991 47.0003 20.7991 46.2003 21.4991C45.5003 22.3991 44.4004 22.7992 43.4004 22.7992Z" fill="#9975FF"/>
<path d="M150.1 100.199C149.1 100.199 148 99.7991 147.3 98.9991C147.1 98.7991 146.9 98.5992 146.8 98.3992C146.7 98.1992 146.5 97.9991 146.4 97.6991C146.3 97.4991 146.2 97.1992 146.2 96.8992C146.2 96.6992 146.1 96.3991 146.1 96.0991C146.1 94.9991 146.5 93.9992 147.3 93.2992C148 92.4992 149.1 92.0991 150.1 92.0991C151.2 92.0991 152.2 92.4992 152.9 93.2992C153.6 93.9992 154.1 95.0991 154.1 96.0991C154.1 96.3991 154.1 96.5992 154 96.8992C153.9 97.1992 153.9 97.3991 153.8 97.6991C153.7 97.8991 153.6 98.1992 153.4 98.3992C153.3 98.5992 153.1 98.7991 152.9 98.9991C152.2 99.7991 151.2 100.199 150.1 100.199Z" fill="#9975FF"/>
<path d="M64.0995 109.599C60.3995 109.599 56.5995 108.499 53.3995 106.399C49.4995 103.799 44.4995 103.799 40.5995 106.399L40.4995 106.499C33.9995 110.699 25.5995 110.699 19.0995 106.399C15.1995 103.899 10.1995 103.899 6.29955 106.399C4.39955 107.599 1.99955 107.099 0.799547 105.199C-0.400454 103.299 0.0994977 100.899 1.9995 99.699C8.4995 95.399 16.9995 95.399 23.4995 99.699C27.3995 102.199 32.3995 102.199 36.2995 99.699L36.3995 99.599C42.8995 95.399 51.2995 95.399 57.7995 99.699C61.6995 102.199 66.6995 102.199 70.5995 99.699C72.4995 98.499 74.8995 98.9991 76.0995 100.899C77.2995 102.799 76.7995 105.199 74.8995 106.399C71.4995 108.599 67.7995 109.599 64.0995 109.599Z" fill="#3B404E"/>
<path d="M89.6991 85.1991C85.9991 85.1991 82.1991 84.0991 78.9991 81.9991C75.0991 79.3991 70.0991 79.3991 66.1991 81.9991C66.1991 81.9991 66.0991 81.9991 66.0991 82.0991C59.5991 86.2991 51.1991 86.2991 44.6991 81.9991C40.7991 79.4991 35.7992 79.4991 31.8992 81.9991C29.9992 83.1991 27.5992 82.6992 26.3992 80.7992C25.1992 78.8992 25.6991 76.4992 27.5991 75.2992C34.0991 70.9992 42.5991 70.9992 49.0991 75.2992C52.9991 77.7992 57.9992 77.7992 61.8992 75.2992C61.8992 75.2992 61.9991 75.2991 61.9991 75.1991C68.4991 70.9991 76.8992 70.9992 83.3992 75.2992C87.2992 77.7992 92.2991 77.7992 96.1991 75.2992C98.0991 74.0992 100.499 74.5991 101.699 76.4991C102.899 78.3991 102.399 80.7991 100.499 81.9991C97.1991 84.1991 93.4991 85.1991 89.6991 85.1991Z" fill="#3B404E"/>
<path d="M64.6987 60.899C60.9987 60.899 57.1988 59.799 53.9988 57.6989C53.9988 57.6989 53.8988 57.699 53.8988 57.599C49.9988 55.099 44.9987 55.099 41.1987 57.599C41.1987 57.599 41.0987 57.5989 41.0987 57.6989C34.5987 61.8989 26.1987 61.8989 19.6987 57.6989C17.7987 56.499 17.2988 53.999 18.4988 52.1989C19.6988 50.2989 22.1988 49.799 23.9988 50.999C27.8988 53.499 32.8988 53.499 36.7988 50.999C36.7988 50.999 36.8988 50.999 36.8988 50.899C43.3988 46.699 51.7988 46.699 58.2988 50.899C58.2988 50.899 58.3988 50.899 58.3988 50.999C62.2988 53.499 67.1987 53.499 71.0987 50.999C72.9987 49.799 75.3987 50.2989 76.5987 52.1989C77.7987 54.0989 77.2988 56.499 75.3988 57.6989C72.1988 59.799 68.4987 60.899 64.6987 60.899Z" fill="#3B404E"/>
</svg>
