<svg width="157" height="147" viewBox="0 0 157 147" fill="none" xmlns="http://www.w3.org/2000/svg">
<path d="M5 30.2046C4 30.2046 2.89995 29.8046 2.19995 29.0046C1.49995 28.2046 1 27.2046 1 26.2046C1 25.1046 1.39995 24.1047 2.19995 23.4047C2.99995 22.7047 4 22.2046 5 22.2046C6 22.2046 7.10005 22.6047 7.80005 23.4047C8.50005 24.2047 9 25.2046 9 26.2046C9 26.5046 8.9999 26.7046 8.8999 27.0046C8.8999 27.3046 8.79995 27.5046 8.69995 27.8046C8.59995 28.0046 8.50005 28.3046 8.30005 28.5046C8.20005 28.7046 8.00005 28.9046 7.80005 29.1046C7.10005 29.8046 6 30.2046 5 30.2046Z" fill="#9975FF"/>
<path d="M23.5996 33.5048C22.4996 33.5048 21.4996 33.1047 20.7996 32.3047C20.0996 31.5047 19.5996 30.5048 19.5996 29.5048C19.5996 29.2048 19.5995 29.0047 19.6995 28.7047C19.7995 28.5047 19.7994 28.2048 19.8994 27.9048C19.9994 27.7048 20.0996 27.4047 20.2996 27.2047C20.3996 27.0047 20.5996 26.8047 20.7996 26.6047C21.4996 25.9047 22.5996 25.4048 23.5996 25.4048C24.6996 25.4048 25.6994 25.8047 26.3994 26.6047C26.5994 26.8047 26.7994 27.0047 26.8994 27.2047C27.0994 27.4047 27.1996 27.7048 27.2996 27.9048C27.3996 28.1048 27.4995 28.4047 27.4995 28.7047C27.4995 29.0047 27.5996 29.2048 27.5996 29.5048C27.5996 30.5048 27.1994 31.6047 26.3994 32.3047C25.5994 33.1047 24.5996 33.5048 23.5996 33.5048Z" fill="#9975FF"/>
<path d="M34.0005 12.0047C33.7005 12.0047 33.5004 12.0047 33.2004 11.9047C33.0004 11.8047 32.7004 11.8046 32.4004 11.7046C32.2004 11.6046 31.9004 11.5046 31.7004 11.3046C31.5004 11.2046 31.3006 11.0046 31.1006 10.8046C30.9006 10.6046 30.7006 10.4046 30.6006 10.2046C30.5006 10.0046 30.3004 9.80469 30.2004 9.50469C30.1004 9.30469 30.0005 9.00464 30.0005 8.70464C30.0005 8.50464 29.9004 8.20471 29.9004 7.90471C29.9004 6.80471 30.3006 5.80466 31.1006 5.10466C31.3006 4.90466 31.5004 4.70466 31.7004 4.60466C31.9004 4.50466 32.2004 4.30464 32.4004 4.20464C32.6004 4.10464 32.9004 4.00469 33.2004 4.00469C33.7004 3.90469 34.3005 3.90469 34.8005 4.00469C35.1005 4.10469 35.3006 4.10464 35.6006 4.20464C35.8006 4.30464 36.1005 4.40466 36.3005 4.60466C36.5005 4.70466 36.7004 4.90466 36.9004 5.10466C37.7004 5.90466 38.1006 6.90471 38.1006 7.90471C38.1006 8.20471 38.1005 8.40464 38.0005 8.70464C37.9005 9.00464 37.9005 9.20469 37.8005 9.50469C37.7005 9.70469 37.6004 10.0046 37.4004 10.2046C37.2004 10.4046 37.1004 10.6046 36.9004 10.8046C36.7004 11.0046 36.5005 11.2046 36.3005 11.3046C36.1005 11.4046 35.9006 11.6046 35.6006 11.7046C35.3006 11.8046 35.1005 11.9047 34.8005 11.9047C34.5005 12.0047 34.3005 12.0047 34.0005 12.0047Z" fill="#9975FF"/>
<path d="M137 65.2048C135.5 65.2048 133.999 64.3049 133.399 62.9049C132.499 60.9049 133.399 58.5049 135.399 57.6049C140.699 55.2049 144.7 50.6049 147 44.6049C142.6 44.1049 138.3 42.4048 134.7 39.8048C129.1 35.7048 125.4 29.7048 124.3 22.8048C123.5 17.8048 124.2 12.9049 126.1 8.40492C114.3 6.70492 102.4 13.2049 97.6995 24.5049C96.8995 26.5049 94.4996 27.5048 92.4996 26.7048C90.4996 25.9048 89.4996 23.5049 90.2996 21.5049C97.2996 4.7049 116.199 -3.89511 133.399 2.00489C134.599 2.40489 135.499 3.40487 135.899 4.60487C136.299 5.80487 136.1 7.10485 135.3 8.20485C132.5 12.1048 131.3 16.9048 132.1 21.7048C132.9 26.5048 135.4 30.7049 139.3 33.5049C142.9 36.1049 147.3 37.3049 151.8 36.9049C153.1 36.8049 154.3 37.2048 155.2 38.2048C156.1 39.2048 156.4 40.4048 156.2 41.7048C154 52.5048 147.7 61.1049 138.8 65.2048C138.1 65.1049 137.5 65.2048 137 65.2048Z" fill="#9975FF"/>
<path d="M121.099 109.605C119.299 109.605 117.699 108.405 117.199 106.705C116.599 104.605 117.899 102.405 119.999 101.805C130.299 98.9049 137.599 89.805 138.099 79.105C138.399 72.505 136.099 66.2049 131.599 61.3049C127.099 56.4049 121.099 53.6049 114.499 53.3049C112.199 53.2049 109.899 53.405 107.699 53.905C106.499 54.205 105.299 53.905 104.299 53.105C103.299 52.305 102.799 51.205 102.799 50.005C102.799 34.005 90.2988 20.805 74.1988 20.105C57.6988 19.405 43.6988 32.205 42.9988 48.605L42.8987 51.005C42.7987 53.205 40.9988 54.9049 38.6988 54.8049C36.4988 54.7049 34.7987 52.805 34.8987 50.605L34.9988 48.2049C35.8988 27.3049 53.6988 11.105 74.4988 12.005C93.1988 12.805 108.199 27.1049 110.399 45.2049C111.899 45.1049 113.299 45.005 114.799 45.105C123.499 45.505 131.599 49.3049 137.499 55.7049C143.399 62.1049 146.399 70.5049 145.999 79.2049C145.399 93.4049 135.699 105.505 122.099 109.305C121.799 109.605 121.499 109.605 121.099 109.605Z" fill="#3B404E"/>
<path d="M32.3993 111.805C32.2993 111.805 32.2994 111.805 32.1994 111.805C14.1994 111.005 0.199446 95.7051 0.999446 77.7051C1.39945 69.0051 5.19954 60.9051 11.5995 55.0051C17.9995 49.1051 26.3995 46.1051 35.0995 46.5051C46.2995 47.0051 56.3994 53.1051 61.9994 62.805C63.0994 64.705 62.3994 67.205 60.4994 68.305C58.5994 69.4051 56.0994 68.705 54.9994 66.805C50.7994 59.4051 43.1994 54.8051 34.6994 54.5051C21.0994 53.9051 9.49935 64.5051 8.89935 78.1051C8.29935 91.7051 18.8994 103.305 32.4994 103.905C34.6994 104.005 36.3995 105.905 36.2995 108.105C36.2995 110.105 34.5993 111.805 32.3993 111.805Z" fill="#3B404E"/>
<path d="M52.2997 145.705C48.8997 145.705 45.4996 144.405 42.9996 141.805C37.7996 136.605 37.7996 128.305 42.9996 123.105L49.4996 116.605C51.0996 115.005 53.5996 115.005 55.1996 116.605L61.6996 123.105C66.7996 128.305 66.7996 136.605 61.6996 141.805C58.9996 144.405 55.5997 145.705 52.2997 145.705ZM52.1996 125.105L48.4996 128.805C46.4996 130.805 46.4996 134.105 48.4996 136.205C49.4996 137.205 50.7996 137.705 52.1996 137.705C53.5996 137.705 54.8995 137.205 55.8995 136.205C57.8995 134.205 57.8995 130.905 55.8995 128.805L52.1996 125.105Z" fill="#57AAFF"/>
<path d="M77.5996 116.405C74.0996 116.405 70.6996 115.105 68.0996 112.405C63.0996 107.305 63.0996 99.2051 68.0996 94.0051L74.6995 87.4052C75.4995 86.6052 76.4995 86.2051 77.4995 86.2051C78.5995 86.2051 79.5996 86.6052 80.2996 87.4052L86.7996 93.9052C91.8996 99.0052 91.8996 107.405 86.7996 112.505C84.1996 115.205 80.8996 116.405 77.5996 116.405ZM77.3994 96.0051L73.6995 99.7051C71.7995 101.705 71.7996 104.905 73.7996 106.905C75.7996 109.005 79.0996 109.005 81.0996 107.005C83.0996 105.005 83.0996 101.705 81.0996 99.7051L77.3994 96.0051Z" fill="#57AAFF"/>
<path d="M100.198 146.105H100.099C96.5986 146.105 93.2986 144.705 90.7986 142.305C88.2986 139.805 86.8984 136.505 86.8984 133.005C86.8984 129.505 88.2986 126.105 90.7986 123.605L97.2986 117.105C98.8986 115.505 101.399 115.505 102.999 117.105L109.499 123.605C114.599 128.805 114.599 137.105 109.499 142.305C106.999 144.705 103.598 146.105 100.198 146.105ZM100.099 138.105C101.499 138.105 102.799 137.605 103.799 136.605C105.799 134.605 105.799 131.305 103.799 129.205L100.099 125.505L96.3984 129.205C95.3984 130.205 94.8984 131.505 94.8984 132.905C94.8984 135.805 97.1986 138.105 100.099 138.105Z" fill="#57AAFF"/>
</svg>
