<svg width="154" height="138" viewBox="0 0 154 138" fill="none" xmlns="http://www.w3.org/2000/svg">
<path d="M7.69946 30.6038C7.39946 30.6038 7.19941 30.6038 6.89941 30.5038C6.59941 30.4038 6.39961 30.4038 6.09961 30.3038C5.89961 30.2038 5.59941 30.1039 5.39941 29.9039C5.19941 29.8039 4.99956 29.6039 4.79956 29.4039C4.09956 28.7039 3.59961 27.6038 3.59961 26.6038C3.59961 26.3038 3.59946 26.1038 3.69946 25.8038C3.69946 25.6038 3.79941 25.3038 3.89941 25.0038C3.99941 24.8038 4.09956 24.5038 4.29956 24.3038C4.49956 24.1038 4.59956 23.9038 4.79956 23.7038C4.99956 23.5038 5.19941 23.3038 5.39941 23.2038C5.59941 23.1038 5.89961 22.9038 6.09961 22.8038C6.29961 22.7038 6.59941 22.6038 6.89941 22.6038C8.19941 22.3038 9.59951 22.8038 10.4995 23.7038C11.1995 24.5038 11.6995 25.5038 11.6995 26.5038C11.6995 27.6038 11.2995 28.6038 10.4995 29.3038C9.79951 30.2038 8.69946 30.6038 7.69946 30.6038Z" fill="#9975FF"/>
<path d="M24.3987 33.3039C24.0987 33.3039 23.8989 33.3039 23.5989 33.2039C23.3989 33.2039 23.0988 33.104 22.7988 33.004C22.5988 32.904 22.2989 32.8039 22.0989 32.6039C21.8989 32.5039 21.6988 32.3039 21.4988 32.1039C21.2988 31.9039 21.1988 31.704 20.9988 31.504C20.8988 31.304 20.6989 31.0039 20.5989 30.8039C20.4989 30.6039 20.3987 30.304 20.3987 30.004C20.2987 29.804 20.2988 29.5039 20.2988 29.2039C20.2988 28.9039 20.2987 28.704 20.3987 28.404C20.3987 28.104 20.4989 27.9039 20.5989 27.6039C20.6989 27.4039 20.7988 27.104 20.9988 26.904C21.1988 26.704 21.2988 26.5039 21.4988 26.3039C21.6988 26.1039 21.8989 25.9039 22.0989 25.8039C22.2989 25.7039 22.5988 25.504 22.7988 25.404C22.9988 25.304 23.2989 25.2039 23.5989 25.2039C24.0989 25.1039 24.6987 25.1039 25.1987 25.2039C25.3987 25.2039 25.6987 25.304 25.8987 25.404C26.0987 25.504 26.3989 25.6039 26.5989 25.8039C26.7989 25.9039 26.9987 26.1039 27.1987 26.3039C27.3987 26.5039 27.4987 26.704 27.6987 26.904C27.7987 27.104 27.9989 27.3039 28.0989 27.6039C28.1989 27.8039 28.2988 28.104 28.2988 28.404C28.3988 28.704 28.3987 28.9039 28.3987 29.2039C28.3987 30.3039 27.9987 31.304 27.1987 32.004C26.9987 32.204 26.7989 32.404 26.5989 32.504C26.3989 32.604 26.1987 32.804 25.8987 32.904C25.6987 33.004 25.3987 33.1039 25.1987 33.1039C24.9987 33.3039 24.6987 33.3039 24.3987 33.3039Z" fill="#9975FF"/>
<path d="M34 13.5038C32.9 13.5038 31.9 13.1037 31.2 12.3037C31 12.1037 30.9 11.9037 30.7 11.7037C30.6 11.5037 30.4 11.2038 30.3 11.0038C30.2 10.8038 30.1001 10.5037 30.1001 10.2037C30.0001 9.90374 30 9.70381 30 9.40381C30 8.30381 30.4 7.30376 31.2 6.60376C31.9 5.80376 33 5.40381 34 5.40381C35 5.40381 36.1 5.80376 36.8 6.60376C37.6 7.30376 38 8.40381 38 9.40381C38 9.70381 37.9999 9.90374 37.8999 10.2037C37.8999 10.4037 37.8 10.7038 37.7 11.0038C37.6 11.2038 37.5 11.5037 37.3 11.7037C37.2 11.9037 37 12.1037 36.8 12.3037C36.1 13.1037 35.1 13.5038 34 13.5038Z" fill="#9975FF"/>
<path d="M134 65.2039C132.5 65.2039 130.999 64.3039 130.399 62.9039C129.499 60.9039 130.399 58.5039 132.399 57.6039C137.699 55.2039 141.7 50.6039 144 44.6039C139.6 44.1039 135.3 42.4038 131.7 39.8038C126.1 35.7038 122.4 29.7038 121.3 22.8038C120.5 17.8038 121.2 12.9039 123.1 8.40394C111.3 6.70394 99.3995 13.2039 94.6995 24.5039C93.8995 26.5039 91.4996 27.5039 89.4996 26.7039C87.4996 25.9039 86.4996 23.5039 87.2996 21.5039C94.2996 4.70392 113.199 -3.89608 130.399 2.00392C131.599 2.40392 132.499 3.40389 132.899 4.60389C133.299 5.80389 133.1 7.10387 132.3 8.20387C129.5 12.1039 128.3 16.9039 129.1 21.7039C129.9 26.5039 132.4 30.7039 136.3 33.5039C139.9 36.1039 144.4 37.3039 148.8 36.9039C150.1 36.8039 151.3 37.2039 152.2 38.2039C153.1 39.2039 153.4 40.4039 153.2 41.7039C151 52.5039 144.7 61.1039 135.8 65.2039C135.1 65.1039 134.5 65.2039 134 65.2039Z" fill="#9975FF"/>
<path d="M121.7 106.904C120.2 106.904 118.701 106.004 118.101 104.604C117.201 102.604 118.101 100.204 120.101 99.3038C128.301 95.6038 133.6 87.7038 134 78.7038C134.6 65.6038 124.4 54.4038 111.2 53.8038C109 53.7038 106.801 53.9039 104.601 54.4039C103.401 54.7039 102.2 54.4039 101.2 53.6039C100.2 52.8039 99.7004 51.7039 99.7004 50.5039C99.7004 35.0039 87.6006 22.3038 72.1006 21.7038C56.2006 21.0038 42.7005 33.3038 42.0005 49.2038L41.9004 51.5039L33.9004 51.2038L34.0005 48.9039C34.4005 39.0039 38.7004 30.0038 45.9004 23.3038C53.2004 16.7038 62.6004 13.2038 72.4004 13.7038C90.6004 14.5038 105.101 28.3039 107.301 45.9039C108.701 45.8039 110.1 45.8038 111.4 45.8038C128.9 46.6038 142.601 61.5039 141.801 79.0039C141.301 91.0039 134.1 101.604 123.2 106.604C122.8 106.704 122.2 106.904 121.7 106.904Z" fill="#3B404E"/>
<path d="M16.2998 105.004C15.4998 105.004 14.5996 104.704 13.8996 104.204C5.39963 97.904 0.599726 87.804 0.999726 77.204C1.39973 68.704 4.99977 60.904 11.2998 55.104C17.5998 49.404 25.6997 46.404 34.1997 46.804C45.2997 47.304 55.1998 53.404 60.5998 63.104C61.6998 65.004 60.9998 67.5041 59.0998 68.5041C57.1998 69.6041 54.6997 68.9041 53.6997 67.0041C49.5997 59.7041 42.2997 55.204 33.9997 54.804C20.7997 54.204 9.69982 64.404 9.09982 77.604C8.69982 85.504 12.2997 93.104 18.6997 97.804C20.4997 99.104 20.7997 101.604 19.4997 103.404C18.6997 104.504 17.4998 105.004 16.2998 105.004Z" fill="#3B404E"/>
<path d="M90.0996 116.904C87.8996 116.904 86.0996 115.104 86.0996 112.904V100.304C86.0996 98.1037 87.8996 96.3037 90.0996 96.3037C92.2996 96.3037 94.0996 98.1037 94.0996 100.304V112.904C94.0996 115.104 92.2996 116.904 90.0996 116.904Z" fill="#57AAFF"/>
<path d="M107.4 132.204C105.2 132.204 103.4 130.404 103.4 128.204V119.504C103.4 117.304 105.2 115.504 107.4 115.504C109.6 115.504 111.4 117.304 111.4 119.504V128.204C111.4 130.404 109.6 132.204 107.4 132.204Z" fill="#57AAFF"/>
<path d="M68.3003 106.504C66.2003 106.504 64.4003 104.804 64.3003 102.604L64.0003 93.3039C63.9003 91.1039 65.6002 89.2039 67.9002 89.2039C70.1002 89.1039 72.0003 90.8039 72.0003 93.1039L72.3003 102.404C72.4003 104.604 70.7002 106.504 68.4002 106.504C68.4002 106.504 68.4003 106.504 68.3003 106.504Z" fill="#57AAFF"/>
<path d="M75.3008 137.904C73.1008 137.904 71.3008 136.104 71.3008 133.904V125.304C71.3008 123.104 73.1008 121.304 75.3008 121.304C77.5008 121.304 79.3008 123.104 79.3008 125.304V133.904C79.3008 136.104 77.5008 137.904 75.3008 137.904Z" fill="#57AAFF"/>
<path d="M48.5 125.104C46.3 125.104 44.5 123.304 44.5 121.104V108.904C44.5 106.704 46.3 104.904 48.5 104.904C50.7 104.904 52.5 106.704 52.5 108.904V121.104C52.5 123.304 50.7 125.104 48.5 125.104Z" fill="#57AAFF"/>
<path d="M29.5 133.604C27.3 133.604 25.5 131.804 25.5 129.604V119.504C25.5 117.304 27.3 115.504 29.5 115.504C31.7 115.504 33.5 117.304 33.5 119.504V129.604C33.5 131.804 31.7 133.604 29.5 133.604Z" fill="#57AAFF"/>
</svg>
