<svg width="154" height="139" viewBox="0 0 154 139" fill="none" xmlns="http://www.w3.org/2000/svg">
<path d="M101.1 117.812C98.8996 117.812 97.0996 116.012 97.0996 113.812V101.212C97.0996 99.0119 98.8996 97.2119 101.1 97.2119C103.3 97.2119 105.1 99.0119 105.1 101.212V113.812C105.1 116.012 103.3 117.812 101.1 117.812Z" fill="#57AAFF"/>
<path d="M118.4 133.112C116.2 133.112 114.4 131.312 114.4 129.112V120.412C114.4 118.212 116.2 116.412 118.4 116.412C120.6 116.412 122.4 118.212 122.4 120.412V129.112C122.4 131.312 120.6 133.112 118.4 133.112Z" fill="#57AAFF"/>
<path d="M79.3003 107.412C77.2003 107.412 75.4003 105.712 75.3003 103.512L75.0003 94.2121C74.9003 92.0121 76.6002 90.1121 78.9002 90.1121C81.1002 90.0121 83.0003 91.7121 83.0003 94.0121L83.3003 103.312C83.4003 105.512 81.7002 107.412 79.4002 107.412C79.4002 107.412 79.4003 107.412 79.3003 107.412Z" fill="#57AAFF"/>
<path d="M86.3008 138.812C84.1008 138.812 82.3008 137.012 82.3008 134.812V126.212C82.3008 124.012 84.1008 122.212 86.3008 122.212C88.5008 122.212 90.3008 124.012 90.3008 126.212V134.812C90.3008 137.012 88.5008 138.812 86.3008 138.812Z" fill="#57AAFF"/>
<path d="M59.5 126.012C57.3 126.012 55.5 124.212 55.5 122.012V109.812C55.5 107.612 57.3 105.812 59.5 105.812C61.7 105.812 63.5 107.612 63.5 109.812V122.012C63.5 124.212 61.7 126.012 59.5 126.012Z" fill="#57AAFF"/>
<path d="M40.5 134.512C38.3 134.512 36.5 132.712 36.5 130.512V120.412C36.5 118.212 38.3 116.412 40.5 116.412C42.7 116.412 44.5 118.212 44.5 120.412V130.512C44.5 132.712 42.7 134.512 40.5 134.512Z" fill="#57AAFF"/>
<path d="M25.6997 63.7122C24.5997 63.7122 23.4997 63.2121 22.6997 62.3121C17.5997 56.5121 15.0998 49.0121 15.5998 41.3121C16.0998 33.6121 19.5997 26.6122 25.3997 21.5122C36.9997 11.3122 54.4998 12.1122 65.2998 23.2122C66.7998 24.8122 66.7997 27.3122 65.1997 28.9122C63.5997 30.4122 61.0997 30.4121 59.4997 28.8121C51.7997 20.7121 39.0997 20.2121 30.6997 27.6121C26.4997 31.3121 23.9998 36.4122 23.5998 41.9122C23.1998 47.5122 24.9997 52.9121 28.6997 57.1121C30.1997 58.8121 29.9998 61.3122 28.2998 62.7122C27.4998 63.4122 26.5997 63.7122 25.6997 63.7122Z" fill="#FFC44C"/>
<path d="M31.5 9.01202C30.5 9.01202 29.4 8.61201 28.7 7.81201C28 7.01201 27.5 6.01202 27.5 5.01202C27.5 4.71202 27.5001 4.51204 27.6001 4.21204C27.6001 3.91204 27.7 3.71205 27.8 3.41205C27.9 3.21205 28 2.91204 28.2 2.71204C28.3 2.51204 28.5 2.312 28.7 2.112C29.6 1.212 31 0.712024 32.3 1.01202C32.6 1.01202 32.8001 1.11204 33.1001 1.21204C33.3001 1.31204 33.6 1.412 33.8 1.612C34 1.712 34.1999 1.912 34.3999 2.112C34.5999 2.312 34.7999 2.51204 34.8999 2.71204C34.9999 2.91204 35.2 3.21205 35.3 3.41205C35.4 3.61205 35.5 3.91204 35.5 4.21204C35.6 4.51204 35.6001 4.71202 35.6001 5.01202C35.6001 5.31202 35.6 5.51201 35.5 5.81201C35.5 6.11201 35.4 6.312 35.3 6.612C35.2 6.812 35.0999 7.11201 34.8999 7.31201C34.7999 7.51201 34.5999 7.71205 34.3999 7.91205C34.1999 8.11205 34 8.21205 33.8 8.41205C33.6 8.51205 33.3001 8.71201 33.1001 8.81201C32.9001 8.91201 32.6 9.01202 32.3 9.01202C32 9.01202 31.8 9.01202 31.5 9.01202Z" fill="#FFC44C"/>
<path d="M5.00049 54.7122C4.70049 54.7122 4.50044 54.7122 4.20044 54.6122C4.00044 54.6122 3.70039 54.5122 3.40039 54.4122C3.20039 54.3122 2.90044 54.2122 2.70044 54.0122C2.50044 53.8122 2.30059 53.7122 2.10059 53.5122C1.90059 53.3122 1.70059 53.1122 1.60059 52.9122C1.50059 52.7122 1.30044 52.5122 1.20044 52.2122C1.10044 52.0122 1.00049 51.7122 1.00049 51.4122C1.00049 51.1122 0.900391 50.9122 0.900391 50.6122C0.900391 49.5122 1.30059 48.5122 2.10059 47.8122C2.30059 47.6122 2.50044 47.4122 2.70044 47.3122C2.90044 47.2122 3.20039 47.0122 3.40039 46.9122C3.60039 46.8122 3.90044 46.7122 4.20044 46.7122C4.70044 46.6122 5.30054 46.6122 5.80054 46.7122C6.10054 46.7122 6.30059 46.8122 6.60059 46.9122C6.90059 47.0122 7.10054 47.1122 7.30054 47.3122C7.50054 47.4122 7.70039 47.6122 7.90039 47.8122C8.10039 48.0122 8.20039 48.2122 8.40039 48.4122C8.50039 48.6122 8.70054 48.9122 8.80054 49.1122C8.90054 49.3122 9.00049 49.6122 9.00049 49.9122C9.10049 50.2122 9.10059 50.4122 9.10059 50.7122C9.10059 51.0122 9.10049 51.2122 9.00049 51.5122C8.90049 51.8122 8.90054 52.0122 8.80054 52.3122C8.70054 52.5122 8.60039 52.8122 8.40039 53.0122C8.20039 53.2122 8.10039 53.4122 7.90039 53.6122C7.70039 53.8122 7.50054 53.9122 7.30054 54.1122C7.10054 54.2122 6.90059 54.4122 6.60059 54.5122C6.30059 54.6122 6.10054 54.7122 5.80054 54.7122C5.50054 54.7122 5.20049 54.7122 5.00049 54.7122Z" fill="#FFC44C"/>
<path d="M59.9006 12.8122C59.6006 12.8122 59.4008 12.8122 59.1008 12.7122C58.9008 12.6122 58.6008 12.6122 58.3008 12.5122C58.1008 12.4122 57.8008 12.3122 57.6008 12.1122C57.4008 12.0122 57.2007 11.8122 57.0007 11.6122C56.8007 11.4122 56.6007 11.2122 56.5007 11.0122C56.4007 10.8122 56.2008 10.5122 56.1008 10.3122C56.0008 10.1122 55.9006 9.81221 55.9006 9.51221C55.9006 9.31221 55.8008 9.01222 55.8008 8.71222C55.8008 8.41222 55.8006 8.21223 55.9006 7.91223C55.9006 7.71223 56.0008 7.41218 56.1008 7.11218C56.2008 6.91218 56.3007 6.61223 56.5007 6.41223C56.6007 6.21223 56.8007 6.01219 57.0007 5.81219C57.2007 5.61219 57.4008 5.41219 57.6008 5.31219C57.8008 5.21219 58.0008 5.01223 58.3008 4.91223C58.6008 4.81223 58.8008 4.71222 59.1008 4.71222C60.4008 4.41222 61.8007 4.91219 62.7007 5.81219C62.9007 6.01219 63.0007 6.21223 63.2007 6.41223C63.3007 6.61223 63.5008 6.81218 63.6008 7.11218C63.7008 7.31218 63.8008 7.61223 63.8008 7.91223C63.8008 8.21223 63.9006 8.41222 63.9006 8.71222C63.9006 9.01222 63.9008 9.21221 63.8008 9.51221C63.7008 9.81221 63.7008 10.0122 63.6008 10.3122C63.5008 10.5122 63.4007 10.8122 63.2007 11.0122C63.0007 11.2122 62.9007 11.4122 62.7007 11.6122C62.0007 12.4122 60.9006 12.8122 59.9006 12.8122Z" fill="#FFC44C"/>
<path d="M8.80127 26.412C8.50127 26.412 8.30122 26.412 8.00122 26.312C7.80122 26.212 7.50117 26.212 7.20117 26.112C7.00117 26.012 6.70122 25.912 6.50122 25.712C6.30122 25.612 6.10112 25.412 5.90112 25.212C5.10112 24.412 4.70117 23.412 4.70117 22.412C4.70117 21.312 5.10112 20.312 5.90112 19.612C6.10112 19.412 6.30122 19.212 6.50122 19.112C6.70122 19.012 7.00117 18.812 7.20117 18.712C7.40117 18.612 7.70122 18.512 8.00122 18.512C9.30122 18.212 10.7013 18.712 11.6013 19.612C12.4013 20.312 12.8013 21.412 12.8013 22.412C12.8013 23.412 12.4013 24.512 11.6013 25.212C10.9013 25.912 9.80127 26.412 8.80127 26.412Z" fill="#FFC44C"/>
<path d="M133.6 108.912C132.1 108.912 130.6 108.012 130 106.612C129.1 104.612 130 102.212 132 101.312C137.8 98.712 142.2 93.912 144.5 87.912C146.7 81.912 146.499 75.412 143.899 69.612C139.199 59.212 127.7 53.612 116.6 56.212C115.4 56.512 114.2 56.212 113.2 55.412C112.2 54.612 111.7 53.512 111.7 52.312C111.7 44.612 108.7 37.312 103.2 31.812C97.6995 26.312 90.4995 23.312 82.6995 23.312C67.1995 23.312 54.4996 35.412 53.7996 51.012L53.6995 53.312C53.5995 55.512 51.7996 57.212 49.4996 57.112C47.2996 57.012 45.5995 55.212 45.6995 52.912L45.7996 50.612C46.6996 30.812 62.8995 15.312 82.6995 15.312C92.5995 15.312 101.8 19.212 108.8 26.112C114.7 32.012 118.3 39.512 119.3 47.612C132.5 46.512 145.4 53.812 151.1 66.212C154.6 74.012 154.899 82.612 151.899 90.612C148.899 98.612 143 104.912 135.2 108.512C134.7 108.812 134.2 108.912 133.6 108.912Z" fill="#3B404E"/>
<path d="M27.9002 107.012C27.1002 107.012 26.2003 106.712 25.5003 106.212C21.8003 103.512 18.9002 100.112 16.7002 96.1119C12.5002 88.7119 11.5003 80.0119 13.8003 71.8119C16.1003 63.6119 21.5002 56.8119 28.9002 52.6119C36.3002 48.4119 45.0002 47.4119 53.2002 49.7119C61.4002 52.0119 68.2002 57.4119 72.4002 64.8119C73.5002 66.7119 72.8002 69.2119 70.9002 70.2119C69.0002 71.3119 66.5003 70.6119 65.5003 68.7119C62.4003 63.1119 57.3004 59.1119 51.1004 57.4119C45.0004 55.7119 38.5002 56.4119 32.9002 59.5119C27.3002 62.6119 23.3004 67.7119 21.6004 73.9119C19.9004 80.0119 20.6002 86.5119 23.7002 92.1119C25.4002 95.1119 27.6003 97.6119 30.3003 99.6119C32.1003 100.912 32.4004 103.412 31.1004 105.212C30.4004 106.512 29.2002 107.012 27.9002 107.012Z" fill="#3B404E"/>
</svg>
