<svg width="131" height="130" viewBox="0 0 131 130" fill="none" xmlns="http://www.w3.org/2000/svg">
<path d="M62.799 124.111C60.499 124.111 58.5989 122.311 58.3989 120.011V119.711V119.611C58.2989 93.611 37.099 72.411 10.999 72.311C9.89899 72.311 8.79899 71.911 7.99899 71.211C7.09899 70.411 6.59909 69.411 6.59909 68.211C6.49909 67.011 6.89894 65.9109 7.69894 65.0109C8.49894 64.1109 9.49894 63.611 10.6989 63.611H10.8989H10.999C37.099 63.511 58.2989 42.311 58.3989 16.211V16.0109C58.4989 13.6109 60.499 11.7109 62.999 11.9109C65.199 12.0109 66.9991 13.8109 67.0991 16.0109V16.211C67.0991 42.311 88.399 63.611 114.499 63.611C116.899 63.611 118.799 65.411 118.899 67.711C118.999 68.911 118.599 70.0109 117.799 70.9109C116.999 71.7109 115.999 72.311 114.899 72.311H114.599H114.399C88.3989 72.411 67.1991 93.611 67.0991 119.711C67.0991 120.811 66.699 121.911 65.999 122.711C65.199 123.611 64.199 124.111 62.999 124.111C62.999 124.111 62.899 124.111 62.799 124.111ZM30.6989 68.0109C45.3989 73.6109 57.199 85.411 62.799 100.111C68.399 85.411 80.1989 73.6109 94.8989 68.0109C80.1989 62.4109 68.399 50.6109 62.799 35.9109C57.199 50.6109 45.3989 62.4109 30.6989 68.0109Z" fill="#FFC44C"/>
<path d="M109.799 41.9108C107.399 41.9108 105.398 39.9108 105.398 37.5108C105.398 30.8108 99.9986 25.4108 93.2986 25.4108C90.8986 25.4108 88.8984 23.4108 88.8984 21.0108C88.8984 18.6108 90.8986 16.6109 93.2986 16.6109C99.9986 16.6109 105.398 11.2109 105.398 4.51086C105.398 2.11086 107.399 0.11084 109.799 0.11084C112.199 0.11084 114.198 2.11086 114.198 4.51086C114.198 11.2109 119.599 16.6109 126.299 16.6109C128.699 16.6109 130.698 18.6108 130.698 21.0108C130.698 23.4108 128.699 25.4108 126.299 25.4108C119.599 25.4108 114.198 30.8108 114.198 37.5108C114.298 39.9108 112.299 41.9108 109.799 41.9108ZM104.698 21.0108C106.698 22.4108 108.399 24.1109 109.799 26.1109C111.199 24.1109 112.898 22.4108 114.898 21.0108C112.898 19.6108 111.199 17.9108 109.799 15.9108C108.499 17.8108 106.698 19.6108 104.698 21.0108Z" fill="#FFC44C"/>
<path d="M17.7995 129.811C17.6995 129.811 17.6996 129.811 17.5996 129.811C15.2996 129.711 13.4994 127.911 13.3994 125.611V125.411C13.3994 121.111 9.89957 117.611 5.59957 117.511C4.49957 117.511 3.39947 117.111 2.49947 116.311C1.59947 115.511 1.09947 114.411 0.999474 113.211C0.899474 112.011 1.29957 110.911 2.09957 110.011C2.89957 109.111 3.99942 108.611 5.19942 108.511H5.39938H5.49947C9.79947 108.511 13.2995 104.911 13.2995 100.611V100.411C13.3995 99.2108 13.8995 98.1108 14.7995 97.3108C15.6995 96.5108 16.7995 96.1108 17.9995 96.1108C20.2995 96.2108 22.0994 98.0108 22.1994 100.311V100.511C22.1994 104.811 25.6995 108.311 29.9995 108.411C31.0995 108.411 32.1996 108.811 33.0996 109.611C33.9996 110.411 34.4996 111.511 34.5996 112.711C34.6996 115.211 32.7994 117.211 30.3994 117.411H30.1994H30.0996C25.7996 117.511 22.2995 121.011 22.2995 125.311V125.511C22.0995 127.911 20.1995 129.811 17.7995 129.811ZM15.3994 113.011C16.2994 113.711 17.0995 114.511 17.7995 115.411C18.4995 114.511 19.2994 113.711 20.1994 113.011C19.2994 112.311 18.4995 111.511 17.7995 110.611C17.0995 111.511 16.2994 112.311 15.3994 113.011Z" fill="#FFC44C"/>
</svg>
