<svg width="163" height="144" viewBox="0 0 163 144" fill="none" xmlns="http://www.w3.org/2000/svg">
<path d="M26.4995 66.0111C25.3995 66.0111 24.2995 65.5112 23.4995 64.7112C12.4995 52.4112 13.6995 33.4111 25.9995 22.4111C38.1995 11.6111 56.4996 12.4112 67.5996 24.2112C69.0996 25.8112 69.0994 28.3111 67.3994 29.9111C65.7994 31.4111 63.2995 31.4112 61.6995 29.7112C53.4995 21.0112 40.0995 20.5111 31.1995 28.4111C22.1995 36.4111 21.2994 50.3111 29.3994 59.4111C30.8994 61.1111 30.6996 63.6111 29.0996 65.0111C28.3996 65.7111 27.3995 66.0111 26.4995 66.0111Z" fill="#FFC44C"/>
<path d="M32.6016 9.01117C31.6016 9.01117 30.5015 8.61116 29.8015 7.81116C29.1015 7.01116 28.6016 6.01117 28.6016 5.01117C28.6016 4.71117 28.6014 4.51118 28.7014 4.21118C28.7014 3.91118 28.8014 3.71113 28.9014 3.41113C29.0014 3.21113 29.1015 2.91118 29.3015 2.71118C29.5015 2.51118 29.6015 2.31115 29.8015 2.11115C30.5015 1.41115 31.6016 0.911133 32.6016 0.911133C33.6016 0.911133 34.7014 1.31115 35.4014 2.11115C35.6014 2.31115 35.7014 2.51118 35.9014 2.71118C36.0014 2.91118 36.2015 3.21113 36.3015 3.41113C36.4015 3.61113 36.5015 3.91118 36.5015 4.21118C36.5015 4.51118 36.6016 4.71117 36.6016 5.01117C36.6016 6.01117 36.2014 7.11116 35.4014 7.81116C34.7014 8.61116 33.6016 9.01117 32.6016 9.01117Z" fill="#FFC44C"/>
<path d="M4.90039 56.7113C3.80039 56.7113 2.80059 56.3112 2.10059 55.5112C1.90059 55.3112 1.70059 55.1113 1.60059 54.9113C1.40059 54.7113 1.30044 54.5113 1.20044 54.2113C1.10044 54.0113 1.00049 53.7113 1.00049 53.4113C0.900488 53.1113 0.900391 52.9113 0.900391 52.6113C0.900391 52.3113 0.900488 52.1113 1.00049 51.8113C1.00049 51.5113 1.10044 51.3112 1.20044 51.0112C1.30044 50.8112 1.40059 50.5113 1.60059 50.3113C1.70059 50.1113 1.90059 49.9113 2.10059 49.7113C2.90059 48.9113 3.90039 48.5112 4.90039 48.5112C6.00039 48.5112 7.00044 48.9113 7.70044 49.7113C7.90044 49.9113 8.00044 50.1113 8.20044 50.3113C8.30044 50.5113 8.50059 50.8112 8.60059 51.0112C8.70059 51.2112 8.80054 51.5113 8.80054 51.8113C8.80054 52.0113 8.90039 52.3113 8.90039 52.6113C8.90039 53.6113 8.50044 54.7113 7.70044 55.4113C7.00044 56.2113 6.00039 56.7113 4.90039 56.7113Z" fill="#FFC44C"/>
<path d="M62.1001 12.9113C61.8001 12.9113 61.6 12.9113 61.3 12.8113C61.1 12.7113 60.8 12.7114 60.5 12.6114C60.3 12.5114 60 12.4114 59.8 12.2114C59.6 12.0114 59.4 11.9114 59.2 11.7114C59 11.5114 58.8 11.3113 58.7 11.1113C58.5 10.9113 58.4 10.7113 58.3 10.4113C58.2 10.2113 58.1001 9.91132 58.1001 9.61132C58.1001 9.41132 58 9.11133 58 8.81133C58 8.51133 58.0001 8.31134 58.1001 8.01134C58.2001 7.81134 58.2 7.51135 58.3 7.21135C58.4 7.01135 58.5 6.71134 58.7 6.51134C58.8 6.31134 59 6.1113 59.2 5.9113C59.4 5.7113 59.6 5.5113 59.8 5.4113C60 5.3113 60.3 5.11134 60.5 5.01134C60.7 4.91134 61 4.81133 61.3 4.81133C61.8 4.71133 62.2999 4.71133 62.8999 4.81133C63.1999 4.81133 63.4 4.91134 63.7 5.01134C64 5.11134 64.1999 5.2113 64.3999 5.4113C64.5999 5.5113 64.8 5.7113 65 5.9113C65.2 6.1113 65.4 6.31134 65.5 6.51134C65.6 6.71134 65.7999 7.01135 65.8999 7.21135C65.9999 7.41135 66.1001 7.71134 66.1001 8.01134C66.2001 8.31134 66.2 8.51133 66.2 8.81133C66.2 9.11133 66.2001 9.31132 66.1001 9.61132C66.1001 9.91132 65.9999 10.1113 65.8999 10.4113C65.7999 10.6113 65.7 10.9113 65.5 11.1113C65.4 11.3113 65.2 11.5114 65 11.7114C64.8 11.9114 64.5999 12.0114 64.3999 12.2114C64.1999 12.3114 63.9 12.5114 63.7 12.6114C63.5 12.7114 63.1999 12.8113 62.8999 12.8113C62.6999 12.9113 62.4001 12.9113 62.1001 12.9113Z" fill="#FFC44C"/>
<path d="M8.90063 27.1113C8.60063 27.1113 8.40083 27.1112 8.10083 27.0112C7.80083 26.9112 7.60078 26.9112 7.30078 26.8112C7.00078 26.7112 6.80083 26.6112 6.60083 26.4112C6.40083 26.3112 6.20073 26.1112 6.00073 25.9112C5.80073 25.7112 5.70073 25.5112 5.50073 25.3112C5.40073 25.1112 5.20083 24.9113 5.10083 24.6113C5.00083 24.4113 4.90063 24.1112 4.90063 23.9112C4.80063 23.6112 4.80078 23.4113 4.80078 23.1113C4.80078 22.0113 5.20073 21.0112 6.00073 20.3112C6.20073 20.1112 6.40083 19.9112 6.60083 19.8112C6.80083 19.7112 7.00078 19.5112 7.30078 19.4112C7.50078 19.3112 7.80083 19.2112 8.10083 19.2112C9.40083 18.9112 10.8007 19.4112 11.7007 20.3112C12.4007 21.1112 12.9006 22.1113 12.9006 23.1113C12.9006 23.4113 12.9008 23.6112 12.8008 23.9112C12.8008 24.1112 12.7008 24.4113 12.6008 24.6113C12.5008 24.8113 12.4007 25.1112 12.2007 25.3112C12.1007 25.5112 11.9007 25.7112 11.7007 25.9112C11.0007 26.7112 9.90063 27.1113 8.90063 27.1113Z" fill="#FFC44C"/>
<path d="M152.201 107.811C151.401 107.811 150.502 107.511 149.802 107.011C148.002 105.711 147.702 103.211 149.002 101.411C152.002 97.3112 153.701 92.5112 153.901 87.5112C154.501 73.6112 143.702 61.7113 129.802 61.1113C127.502 61.0113 125.102 61.2112 122.802 61.8112C121.602 62.1112 120.401 61.8112 119.401 61.0112C118.401 60.2112 117.901 59.1112 117.901 57.9112C117.901 41.5112 105.101 28.1112 88.7015 27.3112C71.8015 26.6112 57.5016 39.6112 56.8016 56.5112L56.7015 58.9112C56.6015 61.1112 54.7015 62.8112 52.5015 62.7113C50.3015 62.6113 48.6015 60.7112 48.7015 58.5112L48.8016 56.1113C49.7016 34.8113 67.8016 18.3112 89.1016 19.3112C108.202 20.2112 123.501 34.7113 125.701 53.2113C127.201 53.1113 128.701 53.0113 130.201 53.1113C148.501 53.9113 162.802 69.5112 162.002 87.8112C161.702 94.5112 159.502 100.811 155.502 106.211C154.602 107.211 153.401 107.811 152.201 107.811Z" fill="#3B404E"/>
<path d="M46.0007 120.811C45.9007 120.811 45.9008 120.811 45.8008 120.811C27.5008 120.011 13.2007 104.411 14.0007 86.1113C14.8007 67.8113 30.4007 53.5113 48.7007 54.3113C60.2007 54.8113 70.8007 61.4113 76.4007 71.4113C77.5006 73.3113 76.8008 75.8113 74.8008 76.8113C72.9008 77.9113 70.4007 77.2113 69.4007 75.2113C65.2006 67.5113 57.1007 62.6113 48.4007 62.2113C34.5007 61.6113 22.6007 72.4113 22.0007 86.3113C21.4007 100.211 32.2008 112.111 46.1008 112.711C48.3008 112.811 50.0006 114.711 49.9007 116.911C49.9007 119.111 48.1007 120.811 46.0007 120.811Z" fill="#3B404E"/>
<g opacity="0.5">
<path opacity="0.5" d="M104.001 143.311C100.601 143.311 97.2011 142.311 94.2011 140.411C90.9011 138.211 86.6012 138.211 83.3012 140.411C77.3012 144.311 69.7011 144.311 63.7011 140.411C60.4011 138.311 56.201 138.311 52.901 140.411C51.001 141.611 48.601 141.111 47.401 139.211C46.201 137.311 46.7012 134.911 48.6012 133.711C54.5012 129.811 62.2011 129.811 68.2011 133.711C71.5011 135.811 75.7011 135.811 79.0011 133.711C85.0011 129.811 92.6012 129.811 98.6012 133.711C101.901 135.911 106.201 135.911 109.501 133.711C111.301 132.511 113.801 133.011 115.001 134.911C116.201 136.811 115.701 139.211 113.801 140.411C110.801 142.311 107.401 143.311 104.001 143.311Z" fill="#3B404E"/>
</g>
<g opacity="0.5">
<path opacity="0.5" d="M134.901 122.611C131.501 122.611 128.101 121.611 125.201 119.711C125.201 119.711 125.101 119.711 125.101 119.611C121.801 117.511 117.601 117.511 114.301 119.611C108.401 123.511 100.701 123.511 94.7011 119.611C91.4011 117.511 87.201 117.511 83.901 119.611C82.001 120.811 79.601 120.311 78.401 118.411C77.201 116.511 77.7012 114.111 79.6012 112.911C85.5012 109.011 93.2011 109.011 99.2011 112.911C102.501 115.011 106.701 115.011 110.001 112.911C115.901 109.011 123.601 109.011 129.501 112.911C129.501 112.911 129.601 112.911 129.601 113.011C132.901 115.111 137.101 115.111 140.401 113.011C142.201 111.811 144.701 112.311 145.901 114.211C147.101 116.111 146.601 118.511 144.701 119.711C141.701 121.611 138.301 122.611 134.901 122.611Z" fill="#3B404E"/>
</g>
<g opacity="0.5">
<path opacity="0.5" d="M110.101 101.911C106.701 101.911 103.301 100.911 100.301 99.0112C97.0008 96.8112 92.7006 96.8112 89.4006 99.0112C83.4006 102.911 75.8008 102.911 69.8008 99.0112C66.5008 96.9112 62.3007 96.9112 59.0007 99.0112C57.1007 100.211 54.7007 99.7112 53.5007 97.8112C52.3007 95.9112 52.8007 93.5112 54.7007 92.3112C60.6007 88.4112 68.3008 88.4112 74.3008 92.3112C77.6008 94.4112 81.8008 94.4112 85.1008 92.3112C91.1008 88.4112 98.7007 88.4112 104.701 92.3112C108.001 94.5112 112.301 94.5112 115.601 92.3112C117.501 91.1112 119.901 91.6112 121.101 93.5112C122.301 95.4112 121.801 97.8112 119.901 99.0112C116.901 100.911 113.501 101.911 110.101 101.911Z" fill="#3B404E"/>
</g>
</svg>
