<svg width="162" height="153" viewBox="0 0 162 153" fill="none" xmlns="http://www.w3.org/2000/svg">
<path d="M26.6003 65.9994C25.5003 65.9994 24.4003 65.4994 23.6003 64.6994C12.6003 52.3994 13.7003 33.3994 26.1003 22.3994C38.3003 11.5994 56.6003 12.3994 67.7003 24.1994C69.2003 25.7994 69.2003 28.2994 67.5003 29.8994C65.9003 31.3994 63.4004 31.3994 61.8004 29.6994C53.6004 20.9994 40.2004 20.4994 31.3004 28.3994C22.3004 36.3994 21.4003 50.2994 29.5003 59.3994C31.0003 61.0994 30.8003 63.5994 29.2003 64.9994C28.5003 65.6994 27.5003 65.9994 26.6003 65.9994Z" fill="#FFC44C"/>
<path d="M32.7012 8.99921C31.6012 8.99921 30.6012 8.59919 29.9012 7.79919C29.7012 7.59919 29.5012 7.39922 29.4012 7.19922C29.3012 6.99922 29.1012 6.79921 29.0012 6.49921C28.9012 6.29921 28.8013 5.99922 28.8013 5.69922C28.7013 5.39922 28.7012 5.19923 28.7012 4.89923C28.7012 4.59923 28.7013 4.39918 28.8013 4.09918C28.8013 3.79918 28.9012 3.59919 29.0012 3.29919C29.1012 3.09919 29.2012 2.79918 29.4012 2.59918C29.5012 2.39918 29.7012 2.19921 29.9012 1.99921C30.8012 1.09921 32.2012 0.599231 33.5012 0.899231C33.8012 0.899231 34.0013 0.999182 34.3013 1.09918C34.5013 1.19918 34.8012 1.29921 35.0012 1.49921C35.2012 1.59921 35.4012 1.79921 35.6012 1.99921C35.8012 2.19921 35.9012 2.39918 36.1012 2.59918C36.2012 2.79918 36.4012 3.09919 36.5012 3.29919C36.6012 3.49919 36.7012 3.79918 36.7012 4.09918C36.8012 4.29918 36.8013 4.59923 36.8013 4.89923C36.8013 5.19923 36.8012 5.39922 36.7012 5.69922C36.7012 5.99922 36.6012 6.19921 36.5012 6.49921C36.4012 6.69921 36.3012 6.99922 36.1012 7.19922C35.9012 7.39922 35.8012 7.59919 35.6012 7.79919C35.4012 7.99919 35.2012 8.09919 35.0012 8.29919C34.8012 8.39919 34.6013 8.59922 34.3013 8.69922C34.1013 8.79922 33.8012 8.89923 33.5012 8.89923C33.2012 8.99923 32.9012 8.99921 32.7012 8.99921Z" fill="#FFC44C"/>
<path d="M5.00037 56.699C4.70037 56.699 4.50032 56.699 4.20032 56.599C3.90032 56.599 3.70039 56.4991 3.40039 56.3991C3.20039 56.2991 2.90032 56.1991 2.70032 55.9991C2.50032 55.8991 2.30034 55.6991 2.10034 55.4991C1.90034 55.2991 1.70034 55.0991 1.60034 54.8991C1.50034 54.6991 1.30032 54.499 1.20032 54.199C1.10032 53.999 1.00037 53.6991 1.00037 53.3991C0.900366 53.0991 0.900391 52.899 0.900391 52.599C0.900391 51.499 1.30034 50.4991 2.10034 49.7991C2.30034 49.5991 2.50032 49.3991 2.70032 49.2991C2.90032 49.1991 3.20039 48.9991 3.40039 48.8991C3.60039 48.7991 3.90032 48.699 4.20032 48.699C5.50032 48.399 6.90041 48.8991 7.80042 49.7991C8.50041 50.4991 9.00037 51.599 9.00037 52.599C9.00037 52.899 9.00039 53.0991 8.90039 53.3991C8.80039 53.5991 8.80032 53.899 8.70032 54.199C8.60032 54.399 8.50041 54.6991 8.30042 54.8991C8.10042 55.0991 8.00041 55.2991 7.80042 55.4991C7.10042 56.1991 6.00037 56.699 5.00037 56.699Z" fill="#FFC44C"/>
<path d="M62.1996 12.9993C61.8996 12.9993 61.6997 12.9993 61.3997 12.8993C61.0997 12.8993 60.8996 12.7993 60.5996 12.6993C60.3996 12.5993 60.0997 12.4994 59.8997 12.2994C59.6997 12.0994 59.4997 11.9993 59.2997 11.7993C58.5997 10.9993 58.0996 9.99932 58.0996 8.99932C58.0996 8.69932 58.0996 8.49933 58.1996 8.19933C58.1996 7.99933 58.2997 7.69934 58.3997 7.39934C58.4997 7.19934 58.5997 6.89933 58.7997 6.69933C58.9997 6.49933 59.0997 6.29929 59.2997 6.09929C59.4997 5.89929 59.6997 5.69929 59.8997 5.59929C60.0997 5.49929 60.2996 5.29933 60.5996 5.19933C60.7996 5.09933 61.0997 4.99932 61.3997 4.99932C61.8997 4.89932 62.3996 4.89932 62.9996 4.99932C63.2996 4.99932 63.4997 5.09933 63.7997 5.19933C63.9997 5.29933 64.2996 5.39929 64.4996 5.59929C64.6996 5.69929 64.8996 5.89929 65.0996 6.09929C65.2996 6.29929 65.4996 6.49933 65.5996 6.69933C65.6996 6.89933 65.8996 7.19934 65.9996 7.39934C66.0996 7.59934 66.1996 7.89933 66.1996 8.19933C66.2996 8.49933 66.2997 8.69932 66.2997 8.99932C66.2997 9.29932 66.2996 9.4993 66.1996 9.7993C66.1996 10.0993 66.0996 10.2993 65.9996 10.5993C65.8996 10.7993 65.7996 11.0993 65.5996 11.2993C65.4996 11.4993 65.2996 11.6993 65.0996 11.8993C64.8996 12.0993 64.6996 12.1993 64.4996 12.3993C64.2996 12.4993 63.9997 12.6994 63.7997 12.7994C63.5997 12.8994 63.2996 12.9993 62.9996 12.9993C62.7996 12.8993 62.4996 12.9993 62.1996 12.9993Z" fill="#FFC44C"/>
<path d="M9.00037 27.0993C8.70037 27.0993 8.50032 27.0993 8.20032 26.9993C8.00032 26.8993 7.70039 26.8994 7.40039 26.7994C7.20039 26.6994 6.90032 26.5993 6.70032 26.3993C6.50032 26.2993 6.30034 26.0993 6.10034 25.8993C5.90034 25.6993 5.70034 25.4994 5.60034 25.2994C5.50034 25.0994 5.30032 24.8993 5.20032 24.5993C5.10032 24.3993 5.00037 24.0994 5.00037 23.7994C4.90037 23.5994 4.90039 23.2993 4.90039 22.9993C4.90039 22.6993 4.90037 22.4993 5.00037 22.1993C5.00037 21.9993 5.10032 21.6993 5.20032 21.3993C5.30032 21.1993 5.40034 20.8993 5.60034 20.6993C5.70034 20.4993 5.90034 20.2993 6.10034 20.0993C6.30034 19.8993 6.50032 19.6993 6.70032 19.5993C6.90032 19.4993 7.20039 19.2993 7.40039 19.1993C7.60039 19.0993 7.90032 18.9993 8.20032 18.9993C8.70032 18.8993 9.30042 18.8993 9.80042 18.9993C10.1004 19.0993 10.3003 19.0993 10.6003 19.1993C10.8003 19.2993 11.1004 19.3993 11.3004 19.5993C11.5004 19.6993 11.7004 19.8993 11.9004 20.0993C12.1004 20.2993 12.2004 20.4993 12.4004 20.6993C12.5004 20.8993 12.7004 21.1993 12.8004 21.3993C12.9004 21.5993 13.0004 21.8993 13.0004 22.1993C13.1004 22.4993 13.1003 22.6993 13.1003 22.9993C13.1003 23.2993 13.1004 23.4994 13.0004 23.7994C12.9004 24.0994 12.9004 24.2993 12.8004 24.5993C12.7004 24.7993 12.6004 25.0994 12.4004 25.2994C12.2004 25.4994 12.1004 25.6993 11.9004 25.8993C11.7004 26.0993 11.5004 26.2993 11.3004 26.3993C11.1004 26.4993 10.9003 26.6994 10.6003 26.7994C10.4003 26.8994 10.1004 26.9993 9.80042 26.9993C9.50041 27.0993 9.20037 27.0993 9.00037 27.0993Z" fill="#FFC44C"/>
<path d="M126.5 152.199C126.2 152.199 125.8 152.199 125.5 152.099C125.2 151.999 124.9 151.899 124.6 151.799C124.3 151.699 124 151.499 123.7 151.299C123.4 151.099 123.2 150.899 122.9 150.699C122.7 150.499 122.5 150.199 122.3 149.899C122.1 149.599 122 149.299 121.8 148.999C121.7 148.699 121.6 148.399 121.5 148.099C121.4 147.799 121.4 147.499 121.4 147.099C121.4 146.799 121.4 146.499 121.5 146.099C121.6 145.799 121.7 145.499 121.8 145.199C121.9 144.899 122.1 144.599 122.3 144.299C122.5 143.999 122.7 143.799 122.9 143.499C123.1 143.299 123.4 143.099 123.7 142.899C124 142.699 124.3 142.599 124.6 142.399C124.9 142.299 125.2 142.199 125.5 142.099C126.1 141.999 126.8 141.999 127.5 142.099C127.8 142.199 128.1 142.299 128.4 142.399C128.7 142.499 129 142.699 129.3 142.899C129.6 143.099 129.8 143.299 130.1 143.499C130.4 143.699 130.5 143.999 130.7 144.299C130.9 144.599 131 144.899 131.2 145.199C131.3 145.499 131.4 145.799 131.5 146.099C131.6 146.399 131.6 146.799 131.6 147.099C131.6 147.399 131.6 147.799 131.5 148.099C131.4 148.399 131.3 148.699 131.2 148.999C131.1 149.299 130.9 149.599 130.7 149.899C130.5 150.199 130.3 150.399 130.1 150.699C129.9 150.999 129.6 151.099 129.3 151.299C129 151.499 128.7 151.599 128.4 151.799C128.1 151.899 127.8 151.999 127.5 152.099C127.1 152.199 126.8 152.199 126.5 152.199Z" fill="#57AAFF"/>
<path d="M46.4008 152.199C46.1008 152.199 45.8008 152.199 45.4008 152.099C45.1008 151.999 44.8007 151.899 44.5007 151.799C44.2007 151.699 43.9007 151.499 43.6007 151.299C43.3007 151.099 43.1008 150.899 42.8008 150.699C42.5008 150.499 42.4007 150.199 42.2007 149.899C42.0007 149.599 41.9007 149.299 41.7007 148.999C41.6007 148.699 41.5008 148.399 41.4008 148.099C41.3008 147.799 41.3008 147.499 41.3008 147.099C41.3008 146.699 41.3008 146.499 41.4008 146.099C41.5008 145.799 41.6007 145.499 41.7007 145.199C41.8007 144.899 42.0007 144.599 42.2007 144.299C42.4007 143.999 42.6008 143.799 42.8008 143.499C43.0008 143.299 43.3007 143.099 43.6007 142.899C43.9007 142.699 44.2007 142.599 44.5007 142.399C44.8007 142.299 45.1008 142.199 45.4008 142.099C47.0008 141.799 48.8008 142.299 49.9008 143.499C50.8008 144.399 51.4008 145.699 51.4008 146.999C51.4008 147.299 51.4008 147.699 51.3008 147.999C51.2008 148.299 51.1007 148.599 51.0007 148.899C50.9007 149.199 50.7007 149.499 50.5007 149.799C50.3007 150.099 50.1008 150.299 49.9008 150.599C49.0008 151.699 47.7008 152.199 46.4008 152.199Z" fill="#57AAFF"/>
<path d="M86.4008 114.599C86.1008 114.599 85.7008 114.599 85.4008 114.499C85.1008 114.399 84.8007 114.299 84.5007 114.199C84.2007 114.099 83.9007 113.899 83.6007 113.699C83.3007 113.499 83.1008 113.299 82.8008 113.099C82.5008 112.899 82.4007 112.599 82.2007 112.299C82.0007 111.999 81.9007 111.699 81.7007 111.399C81.6007 111.099 81.5008 110.799 81.4008 110.499C81.3008 110.199 81.3008 109.899 81.3008 109.499C81.3008 109.199 81.3008 108.899 81.4008 108.499C81.5008 108.199 81.6007 107.899 81.7007 107.599C81.8007 107.299 82.0007 106.999 82.2007 106.699C82.4007 106.399 82.6008 106.199 82.8008 105.899C83.0008 105.599 83.3007 105.499 83.6007 105.299C83.9007 105.099 84.2007 104.999 84.5007 104.799C84.8007 104.699 85.1008 104.599 85.4008 104.499C86.0008 104.399 86.7008 104.399 87.4008 104.499C87.7008 104.599 88.0008 104.699 88.3008 104.799C88.6008 104.899 88.9007 105.099 89.2007 105.299C89.5007 105.499 89.7007 105.699 90.0007 105.899C90.3007 106.099 90.4007 106.399 90.6007 106.699C90.8007 106.999 90.9007 107.299 91.1007 107.599C91.2007 107.899 91.3008 108.199 91.4008 108.499C91.5008 108.799 91.5007 109.099 91.5007 109.499C91.5007 110.799 91.0007 112.099 90.0007 112.999C89.8007 113.199 89.5007 113.399 89.2007 113.599C88.9007 113.799 88.6008 113.899 88.3008 114.099C88.0008 114.199 87.7008 114.299 87.4008 114.399C87.1008 114.499 86.8008 114.599 86.4008 114.599Z" fill="#57AAFF"/>
<path d="M86.4004 152.199C85.1004 152.199 83.8004 151.699 82.9004 150.699C82.7004 150.499 82.5004 150.199 82.3004 149.899C82.1004 149.599 82.0004 149.299 81.8004 148.999C81.7004 148.699 81.6004 148.399 81.5004 148.099C81.4004 147.799 81.4004 147.499 81.4004 147.099C81.4004 146.699 81.4004 146.499 81.5004 146.099C81.6004 145.799 81.7004 145.499 81.8004 145.199C81.9004 144.899 82.1004 144.599 82.3004 144.299C82.5004 143.999 82.7004 143.799 82.9004 143.499C83.1004 143.199 83.4003 143.099 83.7003 142.899C84.0003 142.699 84.3003 142.599 84.6003 142.399C84.9003 142.299 85.2004 142.199 85.5004 142.099C87.1004 141.799 88.9004 142.299 90.0004 143.499C90.2004 143.699 90.4003 143.999 90.6003 144.299C90.8003 144.599 90.9003 144.899 91.1003 145.199C91.2003 145.499 91.3004 145.799 91.4004 146.099C91.5004 146.399 91.5004 146.699 91.5004 147.099C91.5004 147.499 91.5004 147.799 91.4004 148.099C91.3004 148.399 91.2003 148.699 91.1003 148.999C91.0003 149.299 90.8003 149.599 90.6003 149.899C90.4003 150.199 90.2004 150.399 90.0004 150.699C89.0004 151.699 87.8004 152.199 86.4004 152.199Z" fill="#57AAFF"/>
<path d="M106.5 132.699C106.2 132.699 105.9 132.699 105.5 132.599C105.2 132.499 104.9 132.399 104.6 132.299C104.3 132.199 104 131.999 103.7 131.799C103.4 131.599 103.2 131.399 102.9 131.199C102 130.299 101.4 128.999 101.4 127.699C101.4 127.399 101.4 127.099 101.5 126.699C101.6 126.399 101.7 126.099 101.8 125.799C101.9 125.499 102.1 125.199 102.3 124.899C102.5 124.599 102.7 124.399 102.9 124.099C103.1 123.799 103.4 123.699 103.7 123.499C104 123.299 104.3 123.199 104.6 122.999C104.9 122.899 105.2 122.799 105.5 122.699C106.1 122.599 106.8 122.599 107.4 122.699C107.7 122.799 108 122.899 108.3 122.999C108.6 123.099 108.9 123.299 109.2 123.499C109.5 123.699 109.7 123.899 110 124.099C110.3 124.299 110.4 124.599 110.6 124.899C110.8 125.199 110.9 125.499 111.1 125.799C111.2 126.099 111.3 126.399 111.4 126.699C111.5 126.999 111.5 127.399 111.5 127.699C111.5 127.999 111.5 128.399 111.4 128.699C111.3 128.999 111.2 129.299 111.1 129.599C111 129.899 110.8 130.199 110.6 130.499C110.4 130.799 110.2 130.999 110 131.299C109.1 132.199 107.8 132.699 106.5 132.699Z" fill="#57AAFF"/>
<path d="M66.4008 132.699C66.1008 132.699 65.7008 132.699 65.4008 132.599C65.1008 132.499 64.8007 132.399 64.5007 132.299C64.2007 132.199 63.9007 131.999 63.6007 131.799C63.3007 131.599 63.1008 131.399 62.8008 131.199C61.9008 130.299 61.3008 128.999 61.3008 127.699C61.3008 127.399 61.3008 127.099 61.4008 126.699C61.5008 126.399 61.6007 126.099 61.7007 125.799C61.8007 125.499 62.0007 125.199 62.2007 124.899C62.4007 124.599 62.6008 124.399 62.8008 124.099C63.0008 123.899 63.3007 123.699 63.6007 123.499C63.9007 123.299 64.2007 123.199 64.5007 122.999C64.8007 122.899 65.1008 122.799 65.4008 122.699C67.0008 122.399 68.8008 122.899 69.9008 124.099C70.1008 124.299 70.3007 124.599 70.5007 124.899C70.7007 125.199 70.8008 125.499 70.9008 125.799C71.0008 126.099 71.1007 126.399 71.2007 126.699C71.3007 126.999 71.3008 127.399 71.3008 127.699C71.3008 128.999 70.8008 130.299 69.8008 131.199C69.0008 132.199 67.7008 132.699 66.4008 132.699Z" fill="#57AAFF"/>
<path d="M127.8 116.599C127.3 116.599 126.8 116.599 126.3 116.599C124.1 116.499 122.4 114.599 122.5 112.399C122.6 110.199 124.5 108.499 126.7 108.599C140.6 109.199 152.3 98.3993 153 84.5993C153.6 70.6993 142.8 58.9994 129 58.2994C126.7 58.1994 124.3 58.3993 122.1 58.9993C120.9 59.2993 119.7 58.9993 118.7 58.1993C117.7 57.3993 117.2 56.2993 117.2 55.0993C117.2 38.7993 104.4 25.3993 88.0995 24.6993C71.2995 23.8993 57.0996 36.9993 56.2996 53.6993L56.1995 56.0993C56.0995 58.2993 54.2996 59.9994 51.9996 59.8994C49.7996 59.7994 48.0995 57.8993 48.1995 55.6993L48.2996 53.2994C49.1996 32.0994 67.1996 15.6993 88.3996 16.5993C107.4 17.4993 122.6 31.8994 124.8 50.3994C126.3 50.2994 127.8 50.1994 129.3 50.2994C147.6 51.0994 161.8 66.5994 161 84.8994C160.2 102.699 145.5 116.599 127.8 116.599Z" fill="#3B404E"/>
<path d="M45.6002 117.799C45.5002 117.799 45.5003 117.799 45.4003 117.799C27.1003 116.999 12.9002 101.499 13.7002 83.199C14.5002 64.899 30.0003 50.699 48.3003 51.499C59.7003 51.999 69.9002 58.199 75.6002 68.099C76.7002 69.999 76.0002 72.499 74.1002 73.599C72.2002 74.699 69.7002 73.999 68.6002 72.099C64.3002 64.599 56.6003 59.899 47.9003 59.499C34.0003 58.899 22.3002 69.699 21.6002 83.499C21.0002 97.399 31.8002 109.099 45.6002 109.799C47.8002 109.899 49.5003 111.799 49.4003 113.999C49.4003 116.099 47.7002 117.799 45.6002 117.799Z" fill="#3B404E"/>
</svg>
