<svg width="158" height="149" viewBox="0 0 158 149" fill="none" xmlns="http://www.w3.org/2000/svg">
<path d="M63.3016 147.611C59.8016 147.611 56.5016 146.211 54.0016 143.711C48.8016 138.511 48.8016 130.211 54.0016 125.011L60.5016 118.511C62.1016 116.911 64.6015 116.911 66.2015 118.511L72.7015 125.011C77.8015 130.211 77.8015 138.511 72.7015 143.711C70.1015 146.211 66.8016 147.611 63.3016 147.611ZM63.2015 127.011L59.5016 130.711C57.5016 132.711 57.5016 136.011 59.5016 138.111C60.5016 139.111 61.8015 139.611 63.2015 139.611C64.6015 139.611 65.9015 139.111 66.9015 138.111C68.9015 136.111 68.9015 132.811 66.9015 130.711L63.2015 127.011Z" fill="#57AAFF"/>
<path d="M88.6016 118.311C85.1016 118.311 81.7016 117.011 79.1016 114.311C74.1016 109.211 74.1016 101.111 79.1016 95.9109L85.7014 89.3109C86.5014 88.5109 87.5015 88.1108 88.5015 88.1108C89.6015 88.1108 90.6015 88.5109 91.3015 89.3109L97.8015 95.8109C102.902 100.911 102.902 109.311 97.8015 114.411C95.2015 117.111 91.9016 118.311 88.6016 118.311ZM88.4014 97.9109L84.7014 101.611C82.8014 103.611 82.8015 106.811 84.8015 108.811C86.8015 110.911 90.1016 110.911 92.1016 108.911C94.1016 106.911 94.1016 103.611 92.1016 101.611L88.4014 97.9109Z" fill="#57AAFF"/>
<path d="M111.202 148.011H111.103C103.903 148.011 98.0023 142.111 97.9023 134.911C97.9023 131.411 99.3025 128.011 101.802 125.511L108.302 119.011C109.902 117.411 112.402 117.411 114.002 119.011L120.502 125.511C125.602 130.611 125.602 139.011 120.502 144.211C118.002 146.611 114.602 148.011 111.202 148.011ZM111.103 140.011C112.503 140.011 113.802 139.511 114.802 138.511C116.802 136.511 116.802 133.211 114.802 131.111L111.103 127.411L107.402 131.111C106.402 132.111 105.902 133.411 105.902 134.811C105.902 137.711 108.203 140.011 111.103 140.011Z" fill="#57AAFF"/>
<path d="M25.5997 65.1112C24.4997 65.1112 23.3997 64.6112 22.5997 63.8112C17.3997 57.9112 14.6996 50.3113 15.1996 42.4113C15.6996 34.5113 19.1997 27.3112 25.0997 22.1112C37.0997 11.5112 55.0997 12.3113 66.0997 23.9113C67.5997 25.5113 67.5996 28.0112 65.9996 29.6112C64.3996 31.1112 61.8997 31.1112 60.2997 29.5112C52.2997 21.0112 39.0995 20.5113 30.3995 28.2113C26.0995 32.0113 23.4996 37.3112 23.1996 43.0112C22.8996 48.7113 24.7997 54.3112 28.5997 58.6112C30.0997 60.3112 29.8997 62.8113 28.2997 64.2113C27.4997 64.8113 26.5997 65.1112 25.5997 65.1112Z" fill="#FFC44C"/>
<path d="M31.6001 9.01103C31.3001 9.01103 31.1 9.01106 30.8 8.91106C30.5 8.91106 30.3 8.81105 30 8.71105C29.8 8.61105 29.5 8.51102 29.3 8.31102C29.1 8.21102 28.9 8.01102 28.7 7.81102C28.5 7.61102 28.4 7.41105 28.2 7.21105C28.1 7.01105 27.9 6.81104 27.8 6.51103C27.7 6.31104 27.6001 6.01105 27.6001 5.71105C27.6001 5.41105 27.5 5.21106 27.5 4.91106C27.5 3.81106 27.9 2.81101 28.7 2.11101C28.9 1.91101 29.1 1.71101 29.3 1.61101C29.5 1.51101 29.8 1.31105 30 1.21105C30.2 1.11105 30.5 1.01104 30.8 1.01104C31.3 0.911035 31.8999 0.911035 32.3999 1.01104C32.6999 1.01104 32.9 1.11105 33.2 1.21105C33.4 1.31105 33.6999 1.41101 33.8999 1.61101C34.0999 1.71101 34.3 1.91101 34.5 2.11101C35.2 2.91101 35.7 3.91106 35.7 4.91106C35.7 5.21106 35.7001 5.41105 35.6001 5.71105C35.6001 6.01105 35.4999 6.21103 35.3999 6.51103C35.2999 6.71103 35.2 7.01105 35 7.21105C34.8 7.41105 34.7 7.61102 34.5 7.81102C33.7 8.61102 32.7001 9.01103 31.6001 9.01103Z" fill="#FFC44C"/>
<path d="M4.40039 55.9111C3.40039 55.9111 2.30059 55.5111 1.60059 54.7111C0.900586 54.0111 0.400391 52.9111 0.400391 51.9111C0.400391 50.9111 0.800586 49.811 1.60059 49.111C2.50059 48.211 3.90044 47.711 5.20044 48.011C5.50044 48.011 5.70049 48.1111 6.00049 48.2111C6.30049 48.3111 6.50044 48.411 6.70044 48.611C6.90044 48.711 7.10054 48.911 7.30054 49.111C7.50054 49.311 7.70054 49.5111 7.80054 49.7111C7.90054 49.9111 8.10044 50.2111 8.20044 50.4111C8.30044 50.6111 8.40039 50.9111 8.40039 51.2111C8.50039 51.5111 8.50049 51.711 8.50049 52.011C8.50049 53.011 8.10054 54.111 7.30054 54.811C7.10054 55.011 6.90044 55.211 6.70044 55.311C6.50044 55.411 6.20049 55.6111 6.00049 55.7111C5.80049 55.8111 5.50044 55.9111 5.20044 55.9111C4.90044 55.9111 4.70039 55.9111 4.40039 55.9111Z" fill="#FFC44C"/>
<path d="M60.7012 12.9109C59.6012 12.9109 58.6011 12.5109 57.9011 11.7109C57.1011 11.0109 56.7012 9.91095 56.7012 8.91095C56.7012 8.61095 56.7013 8.4109 56.8013 8.1109C56.9013 7.9109 56.9012 7.61091 57.0012 7.31091C57.1012 7.11091 57.2011 6.8109 57.4011 6.6109C57.5011 6.4109 57.7011 6.21093 57.9011 6.01093C58.8011 5.11093 60.2012 4.61095 61.5012 4.91095C61.7012 4.91095 62.0012 5.0109 62.2012 5.1109C62.4012 5.2109 62.7011 5.31093 62.9011 5.51093C63.1011 5.61093 63.3012 5.81093 63.5012 6.01093C64.3012 6.81093 64.7012 7.81091 64.7012 8.81091C64.7012 9.91091 64.3012 10.9109 63.5012 11.6109C63.3012 11.8109 63.1011 12.0109 62.9011 12.1109C62.7011 12.2109 62.4012 12.4109 62.2012 12.5109C62.0012 12.6109 61.7012 12.7109 61.5012 12.7109C61.3012 12.9109 61.0012 12.9109 60.7012 12.9109Z" fill="#FFC44C"/>
<path d="M8.30078 26.8109C7.30078 26.8109 6.20073 26.4109 5.50073 25.6109C4.80073 24.8109 4.30078 23.8109 4.30078 22.8109C4.30078 22.5109 4.30063 22.3109 4.40063 22.0109C4.40063 21.7109 4.50083 21.5109 4.60083 21.2109C4.70083 21.0109 4.80073 20.7109 5.00073 20.5109C5.10073 20.3109 5.30073 20.1109 5.50073 19.9109C6.30073 19.2109 7.30078 18.7109 8.30078 18.7109C9.40078 18.7109 10.4008 19.1109 11.1008 19.9109C11.8008 20.7109 12.3008 21.7109 12.3008 22.7109C12.3008 23.8109 11.9008 24.8109 11.1008 25.5109C10.4008 26.4109 9.40078 26.8109 8.30078 26.8109Z" fill="#FFC44C"/>
<path d="M132.101 115.411C130.301 115.411 128.701 114.211 128.201 112.511C127.601 110.411 128.901 108.211 131.001 107.611C137.401 105.811 142.701 101.711 145.901 96.0112C149.201 90.3112 150.001 83.6112 148.201 77.2112C144.601 64.3112 131.701 56.7112 118.701 59.7112C117.501 60.0112 116.301 59.7112 115.301 59.0112C114.301 58.2112 113.801 57.1113 113.801 55.9113C113.701 39.4113 100.301 26.0112 83.8008 26.1112C67.9008 26.2112 54.8008 38.7112 54.0008 54.6112L53.9007 56.9113C53.8007 59.1113 52.0007 60.8112 49.7007 60.7112C47.5007 60.6112 45.8007 58.7112 45.9007 56.5112L46.0008 54.1112C47.0008 33.9112 63.5007 18.1112 83.7007 18.0112H83.8008C103.101 18.0112 119.001 32.5112 121.401 51.1112C137.001 49.7112 151.601 59.5112 155.901 75.0112C158.201 83.4112 157.101 92.3113 152.801 99.9113C148.501 107.511 141.501 113.011 133.101 115.311C132.801 115.411 132.501 115.411 132.101 115.411Z" fill="#3B404E"/>
<path d="M43.4003 117.611C43.3003 117.611 43.3003 117.611 43.2003 117.611C32.0003 117.111 21.9004 111.011 16.3004 101.311C11.9004 93.7114 10.8004 84.9114 13.0004 76.5114C15.3004 68.1114 20.7004 61.0114 28.3004 56.6114C35.9004 52.2114 44.7005 51.1114 53.1005 53.3114C61.5005 55.6114 68.6004 61.0114 73.0004 68.6114C74.1004 70.5114 73.4004 73.0114 71.5004 74.1114C69.6004 75.2114 67.1004 74.5114 66.0004 72.6114C62.7004 66.9114 57.4004 62.8114 51.0004 61.1114C44.6004 59.4114 38.0003 60.3114 32.2003 63.6114C26.5003 66.9114 22.4003 72.2114 20.7003 78.6114C19.0003 85.0114 19.9003 91.6115 23.2003 97.4115C27.4003 104.811 35.0004 109.411 43.5004 109.811C45.7004 109.911 47.4004 111.811 47.3004 114.011C47.3004 115.911 45.6003 117.611 43.4003 117.611Z" fill="#3B404E"/>
</svg>
