<svg width="162" height="151" viewBox="0 0 162 151" fill="none" xmlns="http://www.w3.org/2000/svg">
<path d="M51.7011 147.311C50.7011 147.311 49.7012 146.911 48.9012 146.111C47.3012 144.511 47.3012 142.011 48.9012 140.411L59.3012 130.011C60.9012 128.411 63.4011 128.411 65.0011 130.011C66.6011 131.611 66.6011 134.111 65.0011 135.711L54.6011 146.111C53.8011 146.911 52.7011 147.311 51.7011 147.311Z" fill="#57AAFF"/>
<path d="M62.1011 147.311C61.1011 147.311 60.1012 146.911 59.3012 146.111L48.9012 135.711C47.3012 134.111 47.3012 131.611 48.9012 130.011C50.5012 128.411 53.0011 128.411 54.6011 130.011L65.0011 140.411C66.6011 142.011 66.6011 144.511 65.0011 146.111C64.1011 146.911 63.1011 147.311 62.1011 147.311Z" fill="#57AAFF"/>
<path d="M82.002 122.911C81.002 122.911 80.002 122.511 79.202 121.711C77.602 120.111 77.602 117.611 79.202 116.011L89.602 105.611C91.202 104.011 93.7021 104.011 95.3021 105.611C96.9021 107.211 96.9021 109.711 95.3021 111.311L84.902 121.711C84.102 122.611 83.002 122.911 82.002 122.911Z" fill="#57AAFF"/>
<path d="M92.402 122.911C91.402 122.911 90.402 122.511 89.602 121.711L79.202 111.311C77.602 109.711 77.602 107.211 79.202 105.611C80.802 104.011 83.302 104.011 84.902 105.611L95.3021 116.011C96.9021 117.611 96.9021 120.111 95.3021 121.711C94.5021 122.611 93.402 122.911 92.402 122.911Z" fill="#57AAFF"/>
<path d="M116.902 150.111C115.902 150.111 114.902 149.711 114.102 148.911L103.702 138.511C102.102 136.911 102.102 134.411 103.702 132.811C105.302 131.211 107.802 131.211 109.402 132.811L119.802 143.211C121.402 144.811 121.402 147.311 119.802 148.911C118.902 149.711 117.902 150.111 116.902 150.111Z" fill="#57AAFF"/>
<path d="M106.502 150.111C105.502 150.111 104.502 149.711 103.702 148.911C102.102 147.311 102.102 144.811 103.702 143.211L114.102 132.811C115.702 131.211 118.202 131.211 119.802 132.811C121.402 134.411 121.402 136.911 119.802 138.511L109.402 148.911C108.602 149.711 107.502 150.111 106.502 150.111Z" fill="#57AAFF"/>
<path d="M26.5999 65.0111C25.4999 65.0111 24.3999 64.5112 23.5999 63.7112C18.2999 57.7112 15.5999 50.0111 16.0999 42.0111C16.5999 34.0111 20.0999 26.7111 26.0999 21.4111C38.2999 10.6111 56.5999 11.4112 67.6999 23.2112C69.1999 24.8112 69.1999 27.3111 67.4999 28.9111C65.8999 30.4111 63.4 30.4112 61.8 28.7112C53.6 20.0112 40.2 19.5111 31.3 27.4111C26.9 31.3111 24.2999 36.7111 23.9999 42.5111C23.6999 48.4111 25.5999 54.0111 29.4999 58.4111C30.9999 60.1111 30.7999 62.6111 29.1999 64.0111C28.4999 64.7111 27.4999 65.0111 26.5999 65.0111Z" fill="#FFC44C"/>
<path d="M32.6996 8.01116C32.3996 8.01116 32.1997 8.01113 31.8997 7.91113C31.6997 7.91113 31.3996 7.81118 31.0996 7.71118C30.8996 7.61118 30.5997 7.51115 30.3997 7.31115C30.1997 7.11115 29.9997 7.01115 29.7997 6.81115C29.0997 6.01115 28.5996 5.01116 28.5996 4.01116C28.5996 2.91116 28.9997 1.91118 29.7997 1.21118C29.9997 1.01118 30.1997 0.811175 30.3997 0.711175C30.5997 0.611175 30.8996 0.411151 31.0996 0.311151C31.2996 0.211151 31.5997 0.111139 31.8997 0.111139C33.1997 -0.188861 34.5996 0.311175 35.4996 1.21118C35.6996 1.41118 35.7996 1.61115 35.9996 1.81115C36.0996 2.01115 36.2997 2.31116 36.3997 2.51116C36.4997 2.71116 36.5996 3.01115 36.5996 3.31115C36.6996 3.61115 36.6996 3.81114 36.6996 4.11114C36.6996 5.11114 36.2996 6.21113 35.4996 6.91113C35.2996 7.11113 35.0997 7.21113 34.8997 7.41113C34.6997 7.51113 34.4996 7.71115 34.1996 7.81115C33.9996 7.91115 33.6997 8.01116 33.3997 8.01116C33.1997 8.01116 32.8996 8.01116 32.6996 8.01116Z" fill="#FFC44C"/>
<path d="M5.00037 55.7114C4.70037 55.7114 4.50032 55.7114 4.20032 55.6114C3.90032 55.6114 3.70039 55.5113 3.40039 55.4113C3.20039 55.3113 2.90032 55.2113 2.70032 55.0113C2.50032 54.9113 2.30034 54.7113 2.10034 54.5113C1.40034 53.7113 0.900391 52.7114 0.900391 51.7114C0.900391 50.6114 1.30034 49.6113 2.10034 48.9113C2.30034 48.7113 2.50032 48.5113 2.70032 48.4113C2.90032 48.3113 3.20039 48.1113 3.40039 48.0113C3.60039 47.9113 3.90032 47.8113 4.20032 47.8113C4.70032 47.7113 5.30042 47.7113 5.80042 47.8113C6.10042 47.8113 6.30034 47.9113 6.60034 48.0113C6.80034 48.1113 7.10042 48.2113 7.30042 48.4113C7.50041 48.5113 7.70039 48.7113 7.90039 48.9113C8.60039 49.6113 9.10034 50.7114 9.10034 51.7114C9.10034 52.7114 8.70039 53.8113 7.90039 54.5113C7.70039 54.7113 7.50041 54.9113 7.30042 55.0113C7.10042 55.1113 6.90034 55.3113 6.60034 55.4113C6.40034 55.5113 6.10042 55.6114 5.80042 55.6114C5.50041 55.6114 5.30037 55.7114 5.00037 55.7114Z" fill="#FFC44C"/>
<path d="M62.1996 11.9113C61.8996 11.9113 61.6997 11.9113 61.3997 11.8113C61.0997 11.8113 60.8996 11.7113 60.5996 11.6113C60.3996 11.5113 60.0997 11.4114 59.8997 11.2114C59.6997 11.0114 59.4997 10.9114 59.2997 10.7114C59.0997 10.5114 58.9997 10.3113 58.7997 10.1113C58.6997 9.91133 58.4997 9.71132 58.3997 9.41132C58.2997 9.21132 58.1996 8.91133 58.1996 8.61133C58.0996 8.41133 58.0996 8.11134 58.0996 7.81134C58.0996 7.51134 58.0996 7.31135 58.1996 7.01135C58.1996 6.81135 58.2997 6.51136 58.3997 6.21136C58.4997 6.01136 58.5997 5.71135 58.7997 5.51135C58.9997 5.31135 59.0997 5.11132 59.2997 4.91132C59.4997 4.71132 59.6997 4.51132 59.8997 4.41132C60.0997 4.31132 60.2996 4.11135 60.5996 4.01135C60.7996 3.91135 61.0997 3.81134 61.3997 3.81134C62.6997 3.51134 64.0996 4.01132 64.9996 4.91132C65.1996 5.11132 65.3996 5.31135 65.4996 5.51135C65.5996 5.71135 65.7997 6.01136 65.8997 6.21136C65.9997 6.41136 66.0996 6.71135 66.0996 7.01135C66.1996 7.31135 66.1996 7.51134 66.1996 7.81134C66.1996 8.11134 66.1996 8.31133 66.0996 8.61133C66.0996 8.91133 65.9997 9.11132 65.8997 9.41132C65.7997 9.61132 65.6996 9.91133 65.4996 10.1113C65.3996 10.3113 65.1996 10.5114 64.9996 10.7114C64.2996 11.5114 63.2996 11.9113 62.1996 11.9113Z" fill="#FFC44C"/>
<path d="M9.00037 26.1111C8.70037 26.1111 8.50032 26.111 8.20032 26.011C8.00032 25.911 7.70039 25.9111 7.40039 25.8111C7.20039 25.7111 6.90032 25.6111 6.70032 25.4111C6.50032 25.3111 6.30034 25.1111 6.10034 24.9111C5.90034 24.7111 5.70034 24.5111 5.60034 24.3111C5.50034 24.1111 5.30032 23.9111 5.20032 23.6111C5.10032 23.4111 5.00037 23.1111 5.00037 22.9111C4.90037 22.6111 4.90039 22.4111 4.90039 22.1111C4.90039 21.8111 4.90037 21.6111 5.00037 21.3111C5.00037 21.1111 5.10032 20.811 5.20032 20.511C5.30032 20.311 5.40034 20.0111 5.60034 19.8111C5.70034 19.6111 5.90034 19.4111 6.10034 19.2111C6.30034 19.0111 6.50032 18.8111 6.70032 18.7111C6.90032 18.6111 7.20039 18.4111 7.40039 18.3111C7.60039 18.2111 7.90032 18.1111 8.20032 18.1111C8.70032 18.0111 9.30042 18.0111 9.80042 18.1111C10.1004 18.2111 10.3003 18.2111 10.6003 18.3111C10.8003 18.4111 11.1004 18.5111 11.3004 18.7111C11.5004 18.8111 11.7004 19.0111 11.9004 19.2111C12.1004 19.4111 12.2004 19.6111 12.4004 19.8111C12.5004 20.0111 12.7004 20.311 12.8004 20.511C12.9004 20.711 13.0004 21.0111 13.0004 21.3111C13.1004 21.6111 13.1003 21.8111 13.1003 22.1111C13.1003 22.4111 13.1004 22.6111 13.0004 22.9111C13.0004 23.1111 12.9004 23.4111 12.8004 23.6111C12.7004 23.8111 12.6004 24.1111 12.4004 24.3111C12.2004 24.5111 12.1004 24.7111 11.9004 24.9111C11.7004 25.1111 11.5004 25.3111 11.3004 25.4111C11.1004 25.5111 10.9003 25.7111 10.6003 25.8111C10.4003 25.9111 10.1004 26.011 9.80042 26.011C9.50041 26.111 9.20037 26.1111 9.00037 26.1111Z" fill="#FFC44C"/>
<path d="M127.901 115.611C127.401 115.611 126.901 115.611 126.401 115.611C124.201 115.511 122.501 113.611 122.601 111.411C122.701 109.211 124.601 107.511 126.801 107.611C133.501 107.911 139.901 105.611 144.901 101.011C149.901 96.5109 152.801 90.3109 153.101 83.5109C153.701 69.6109 142.901 57.911 129.101 57.211C126.801 57.111 124.401 57.311 122.201 57.9109C121.001 58.2109 119.801 57.911 118.801 57.111C117.801 56.311 117.301 55.2109 117.301 54.0109C117.301 37.7109 104.501 24.311 88.201 23.611C71.401 22.911 57.201 35.911 56.401 52.611L56.3011 55.0109C56.2011 57.2109 54.301 58.911 52.101 58.811C49.901 58.711 48.2011 56.811 48.3011 54.611L48.401 52.211C49.301 31.011 67.301 14.6109 88.501 15.5109C107.501 16.3109 122.701 30.811 124.901 49.311C126.401 49.211 127.901 49.111 129.401 49.211C147.701 50.011 161.901 65.511 161.101 83.811C160.701 92.711 156.901 100.811 150.401 106.811C144.001 112.611 136.201 115.611 127.901 115.611Z" fill="#3B404E"/>
<path d="M45.6002 116.811C45.5002 116.811 45.5003 116.811 45.4003 116.811C27.1003 116.011 12.9002 100.511 13.7002 82.2108C14.5002 63.9108 30.1003 49.7107 48.3003 50.5107C59.7003 51.0107 69.9002 57.2108 75.6002 67.1108C76.7002 69.0108 76.0002 71.5108 74.1002 72.6108C72.2002 73.7108 69.7002 73.0108 68.6002 71.1108C64.3002 63.6108 56.6003 58.9107 47.9003 58.5107C34.0003 57.9107 22.3002 68.7107 21.6002 82.5107C21.0002 96.4107 31.8002 108.111 45.6002 108.811C47.8002 108.911 49.5003 110.811 49.4003 113.011C49.5003 115.111 47.7002 116.811 45.6002 116.811Z" fill="#3B404E"/>
</svg>
