<svg width="162" height="157" viewBox="0 0 162 157" fill="none" xmlns="http://www.w3.org/2000/svg">
<path d="M26.4995 66.0111C25.3995 66.0111 24.2995 65.5112 23.4995 64.7112C12.4995 52.4112 13.6995 33.4111 25.9995 22.4111C38.1995 11.6111 56.4996 12.4112 67.5996 24.2112C69.0996 25.8112 69.0994 28.3111 67.3994 29.9111C65.7994 31.4111 63.2995 31.4112 61.6995 29.7112C53.4995 21.0112 40.0995 20.5111 31.1995 28.4111C22.1995 36.4111 21.2994 50.3111 29.3994 59.4111C30.8994 61.1111 30.6996 63.6111 29.0996 65.0111C28.3996 65.7111 27.3995 66.0111 26.4995 66.0111Z" fill="#FFC44C"/>
<path d="M32.6016 9.01097C31.5016 9.01097 30.5015 8.61096 29.8015 7.81096C29.6015 7.61096 29.5015 7.41099 29.3015 7.21099C29.2015 7.01099 29.0014 6.81097 28.9014 6.51097C28.8014 6.31097 28.7014 6.01099 28.7014 5.71099C28.6014 5.41099 28.6016 5.21094 28.6016 4.91094C28.6016 4.61094 28.6014 4.41095 28.7014 4.11095C28.7014 3.81095 28.8014 3.61096 28.9014 3.31096C29.0014 3.11096 29.1015 2.81095 29.3015 2.61095C29.5015 2.41095 29.6015 2.21097 29.8015 2.01097C30.0015 1.81097 30.2014 1.61097 30.4014 1.51097C30.6014 1.41097 30.8016 1.21095 31.1016 1.11095C31.3016 1.01095 31.6014 0.910938 31.9014 0.910938C32.4014 0.810938 32.9015 0.810938 33.5015 0.910938C33.7015 0.910938 34.0015 1.01095 34.3015 1.11095C34.5015 1.21095 34.8015 1.31097 35.0015 1.51097C35.2015 1.61097 35.4016 1.81097 35.6016 2.01097C35.8016 2.21097 36.0016 2.41095 36.1016 2.61095C36.2016 2.81095 36.4015 3.11096 36.5015 3.31096C36.6015 3.51096 36.7014 3.81095 36.7014 4.11095C36.7014 4.41095 36.8015 4.61094 36.8015 4.91094C36.8015 5.91094 36.4016 7.01099 35.6016 7.71099C35.4016 7.91099 35.2015 8.01099 35.0015 8.21099C34.8015 8.31099 34.5015 8.51095 34.3015 8.61095C34.1015 8.71095 33.8015 8.81096 33.5015 8.81096C33.1015 9.01096 32.8016 9.01097 32.6016 9.01097Z" fill="#FFC44C"/>
<path d="M4.90039 56.7108C3.80039 56.7108 2.80059 56.3107 2.10059 55.5107C1.30059 54.7107 0.900391 53.7108 0.900391 52.7108C0.900391 52.4108 0.900488 52.2108 1.00049 51.9108C1.00049 51.6108 1.10044 51.4108 1.20044 51.1108C1.30044 50.9108 1.40059 50.6108 1.60059 50.4108C1.70059 50.2108 1.90059 50.0108 2.10059 49.8108C2.80059 49.0108 3.90039 48.6108 4.90039 48.6108C6.00039 48.6108 7.00044 49.0108 7.70044 49.8108C7.90044 50.0108 8.00044 50.2108 8.20044 50.4108C8.30044 50.6108 8.50059 50.9108 8.60059 51.1108C8.70059 51.3108 8.80054 51.6108 8.80054 51.9108C8.80054 52.2108 8.90039 52.4108 8.90039 52.7108C8.90039 53.7108 8.50044 54.8107 7.70044 55.5107C7.00044 56.2107 6.00039 56.7108 4.90039 56.7108Z" fill="#FFC44C"/>
<path d="M62.1001 12.911C61.8001 12.911 61.6 12.911 61.3 12.811C61.1 12.811 60.8 12.711 60.5 12.611C60.3 12.511 60 12.4111 59.8 12.2111C59.6 12.0111 59.4 11.9111 59.2 11.7111C58.4 11.0111 58 9.91101 58 8.91101C58 8.61101 58.0001 8.41102 58.1001 8.11102C58.2001 7.91102 58.2 7.61104 58.3 7.31104C58.4 7.11104 58.5 6.81102 58.7 6.61102C58.8 6.41102 59 6.21105 59.2 6.01105C59.9 5.31105 61 4.81104 62 4.81104C63.1 4.81104 64.1 5.21105 64.8 6.01105C65 6.21105 65.2 6.41102 65.3 6.61102C65.4 6.81102 65.6 7.11104 65.7 7.31104C65.8 7.51104 65.8999 7.81102 65.8999 8.11102C65.9999 8.41102 66 8.61101 66 8.91101C66 10.011 65.6 11.0111 64.8 11.7111C64.2 12.5111 63.2001 12.911 62.1001 12.911Z" fill="#FFC44C"/>
<path d="M8.90063 27.1111C8.60063 27.1111 8.40083 27.111 8.10083 27.011C7.80083 26.911 7.60078 26.9111 7.30078 26.8111C7.00078 26.7111 6.80083 26.6111 6.60083 26.4111C6.40083 26.3111 6.20073 26.1111 6.00073 25.9111C5.30073 25.2111 4.80078 24.1111 4.80078 23.1111C4.80078 22.8111 4.80063 22.6111 4.90063 22.3111C4.90063 22.1111 5.00083 21.811 5.10083 21.511C5.20083 21.311 5.30073 21.0111 5.50073 20.8111C5.70073 20.6111 5.80073 20.4111 6.00073 20.2111C6.20073 20.0111 6.40083 19.8111 6.60083 19.7111C6.80083 19.6111 7.00078 19.4111 7.30078 19.3111C7.50078 19.2111 7.80083 19.1111 8.10083 19.1111C9.40083 18.8111 10.8007 19.3111 11.7007 20.2111C11.9007 20.4111 12.0007 20.6111 12.2007 20.8111C12.3007 21.0111 12.5008 21.311 12.6008 21.511C12.7008 21.711 12.8008 22.0111 12.8008 22.3111C12.8008 22.6111 12.9006 22.8111 12.9006 23.1111C12.9006 24.2111 12.5007 25.2111 11.7007 25.9111C11.0007 26.7111 9.90063 27.1111 8.90063 27.1111Z" fill="#FFC44C"/>
<path d="M151.701 103.711C150.901 103.711 150.002 103.411 149.302 102.911C147.502 101.611 147.202 99.111 148.502 97.311C151.402 93.411 153.102 88.711 153.302 83.811C153.602 77.211 151.301 71.011 146.901 66.111C142.501 61.311 136.401 58.411 129.901 58.111C127.601 58.011 125.402 58.211 123.102 58.711C121.902 59.011 120.701 58.711 119.701 57.911C118.701 57.111 118.201 56.011 118.201 54.811C118.201 38.911 105.702 25.811 89.8016 25.111C73.4016 24.411 59.5016 37.111 58.8016 53.411L58.7015 55.711C58.6015 57.911 56.8015 59.6109 54.5015 59.5109C52.3015 59.4109 50.6015 57.511 50.7015 55.311L50.8016 52.911C51.7016 32.111 69.3016 16.011 90.1016 16.911C108.702 17.711 123.602 31.911 125.802 49.911C127.202 49.811 128.702 49.711 130.102 49.811C138.802 50.211 146.801 53.911 152.701 60.311C158.601 66.711 161.601 75.011 161.201 83.711C160.901 90.211 158.702 96.411 154.802 101.611C154.202 103.111 153.001 103.711 151.701 103.711Z" fill="#3B404E"/>
<path d="M62.5014 116.711C58.4014 116.711 53.5015 116.611 48.1015 116.411C30.2015 115.611 16.2014 100.411 17.0014 82.4109C17.8014 64.5109 33.0014 50.511 51.0014 51.311C62.2014 51.811 72.6014 58.211 78.0014 68.111C79.1014 70.011 78.4013 72.5109 76.4013 73.5109C74.5013 74.6109 72.0014 73.9109 71.0014 71.9109C66.9014 64.5109 59.1015 59.611 50.6015 59.311C37.0015 58.711 25.6014 69.211 25.0014 82.711C24.4014 96.211 34.9013 107.711 48.4013 108.311C63.7013 109.011 75.3014 108.311 75.5014 108.311C77.7014 108.211 79.6014 109.811 79.7014 112.111C79.8013 114.311 78.2013 116.211 75.9013 116.311C75.7013 116.411 70.5014 116.711 62.5014 116.711Z" fill="#3B404E"/>
<g opacity="0.5">
<path opacity="0.5" d="M104 115.711C102 115.711 100.1 115.711 98.2004 115.611C96.4004 115.611 94.6004 115.511 92.9004 115.511C90.7004 115.511 88.9004 113.711 88.9004 111.511C88.9004 109.311 90.7004 107.511 92.9004 107.511C94.7004 107.511 96.5004 107.511 98.4004 107.611C107.4 107.811 116.6 108.011 123.5 103.511C128 100.611 129.101 95.9112 128.801 92.6112C128.401 89.0112 126.2 86.2111 122.9 84.9111C119.4 83.7111 116 84.2112 113.7 86.2112C111.4 88.2112 110.4 91.2112 111 94.6112C111.4 96.8112 109.9 98.8112 107.7 99.2112C105.5 99.6112 103.501 98.1111 103.101 95.9111C102.101 89.8111 104.1 83.9112 108.5 80.1112C113.1 76.2112 119.3 75.2112 125.5 77.3112H125.601C131.801 79.6112 136 84.9112 136.7 91.6112C137.5 98.9112 134.2 106.011 127.9 110.111C120.7 115.011 112.2 115.711 104 115.711Z" fill="#3B404E"/>
</g>
<g opacity="0.5">
<path opacity="0.5" d="M97.8996 156.511C96.8996 156.511 95.8997 156.411 94.7997 156.111C90.9997 155.111 87.9997 152.411 86.4997 148.811C85.6997 146.811 86.5997 144.411 88.6996 143.611C90.6996 142.811 93.0996 143.711 93.8996 145.811C94.3996 147.111 95.4996 148.011 96.8996 148.411C98.9996 148.911 101.2 147.811 102 145.711C102.6 143.811 102 141.311 100.3 139.211C98.0997 136.411 92.9997 134.611 85.9997 134.011C70.0997 132.611 53.6996 135.111 39.6996 137.611C37.4996 138.011 35.4998 136.511 35.0998 134.311C34.6998 132.111 36.1996 130.111 38.3996 129.711C52.9996 127.211 69.8997 124.611 86.7997 126.011C96.2997 126.811 103 129.611 106.7 134.211C110.1 138.511 111.2 143.911 109.7 148.411C107.6 153.311 103 156.511 97.8996 156.511Z" fill="#3B404E"/>
</g>
<g opacity="0.5">
<path opacity="0.5" d="M144.9 133.911H121.9C119.7 133.911 117.9 132.111 117.9 129.911C117.9 127.711 119.7 125.911 121.9 125.911H144.9C147.1 125.911 148.9 127.711 148.9 129.911C148.9 132.111 147.2 133.911 144.9 133.911Z" fill="#3B404E"/>
</g>
</svg>
