<svg width="148" height="138" viewBox="0 0 148 138" fill="none" xmlns="http://www.w3.org/2000/svg">
<path d="M127.501 69.0391H91.2012C89.0012 69.0391 87.2012 67.2391 87.2012 65.0391C87.2012 62.8391 89.0012 61.0391 91.2012 61.0391H127.501C134.101 61.0391 139.501 55.6391 139.501 49.0391C139.501 42.4391 134.101 37.0391 127.501 37.0391C122.301 37.0391 118.101 41.2391 118.101 46.4391C118.101 48.6391 116.301 50.4391 114.101 50.4391C111.901 50.4391 110.101 48.6391 110.101 46.4391C110.101 36.8391 117.901 29.0391 127.501 29.0391C138.501 29.0391 147.501 38.0391 147.501 49.0391C147.501 54.3391 145.401 59.4391 141.601 63.2391C137.901 67.0391 132.801 69.0391 127.501 69.0391Z" fill="#3B404E"/>
<path d="M101 88.2393H77.5C75.3 88.2393 73.5 86.4393 73.5 84.2393C73.5 82.0393 75.3 80.2393 77.5 80.2393H101C103.2 80.2393 105 82.0393 105 84.2393C105 86.4393 103.2 88.2393 101 88.2393Z" fill="#3B404E"/>
<path d="M109.101 137.539C108.001 137.539 106.8 137.439 105.701 137.139C101.601 136.039 98.1005 133.039 96.5005 129.139C95.7006 127.139 96.6005 124.739 98.7005 123.939C100.701 123.139 103.101 124.039 103.901 126.139C104.601 127.739 106.001 129.039 107.701 129.539C110.501 130.239 113.301 128.739 114.301 125.939C115.301 123.039 113.8 119.739 112.201 117.739C109.501 114.339 103.701 112.239 95.2005 111.539C76.7005 109.939 57.8005 112.839 41.5005 115.739C39.3005 116.139 37.3006 114.639 36.9006 112.439C36.5006 110.239 38.0005 108.239 40.2005 107.839C57.0005 104.939 76.5005 101.939 96.0005 103.639C106.801 104.539 114.401 107.639 118.601 112.839C122.401 117.639 123.701 123.639 121.901 128.639C119.901 134.039 114.701 137.539 109.101 137.539Z" fill="#3B404E"/>
<path d="M141.5 100.339H119.9C117.7 100.339 115.9 98.5389 115.9 96.3389C115.9 94.1389 117.7 92.3389 119.9 92.3389H141.5C143.7 92.3389 145.5 94.1389 145.5 96.3389C145.5 98.5389 143.7 100.339 141.5 100.339Z" fill="#3B404E"/>
<path d="M57.3997 93.7386C37.6997 93.7386 21.5996 77.6387 21.5996 57.9387C21.5996 38.2387 37.6997 22.1387 57.3997 22.1387C70.4997 22.1387 82.4997 29.2386 88.7997 40.7386C89.8997 42.6386 89.1996 45.1387 87.1996 46.1387C85.2996 47.2387 82.7997 46.5386 81.7997 44.5386C76.8997 35.6386 67.5996 30.1387 57.4996 30.1387C42.1996 30.1387 29.6996 42.6387 29.6996 57.9387C29.6996 73.2387 42.1996 85.7386 57.4996 85.7386C59.6996 85.7386 61.4996 87.5387 61.4996 89.7386C61.4996 91.9386 59.5997 93.7386 57.3997 93.7386Z" fill="#FFC44C"/>
<path d="M56.8008 9.03882C55.7008 9.03882 54.7007 8.63887 54.0007 7.83887C53.8007 7.63887 53.6007 7.43883 53.5007 7.23883C53.4007 7.03883 53.2007 6.83882 53.1007 6.53882C53.0007 6.33882 52.9008 6.03883 52.9008 5.73883C52.8008 5.43883 52.8008 5.23884 52.8008 4.93884C52.8008 4.63884 52.8008 4.43885 52.9008 4.13885C52.9008 3.83886 53.0007 3.63887 53.1007 3.33887C53.2007 3.13887 53.3007 2.83886 53.5007 2.63885C53.6007 2.43885 53.8007 2.23882 54.0007 2.03882C54.7007 1.33882 55.8008 0.838867 56.8008 0.838867C57.8008 0.838867 58.9007 1.23882 59.6007 2.03882C59.8007 2.23882 60.0007 2.43885 60.1007 2.63885C60.3007 2.83886 60.4007 3.13887 60.5007 3.33887C60.6007 3.53887 60.7007 3.83886 60.7007 4.13885C60.8007 4.43885 60.8008 4.63884 60.8008 4.93884C60.8008 5.23884 60.8007 5.43883 60.7007 5.73883C60.7007 6.03883 60.6007 6.23882 60.5007 6.53882C60.4007 6.73882 60.3007 7.03883 60.1007 7.23883C60.0007 7.43883 59.8007 7.63887 59.6007 7.83887C58.9007 8.53887 57.9008 9.03882 56.8008 9.03882Z" fill="#FFC44C"/>
<path d="M4.90039 60.8387C3.90039 60.8387 2.80034 60.4387 2.10034 59.6387C1.90034 59.4387 1.80034 59.2386 1.60034 59.0386C1.50034 58.8386 1.30032 58.5387 1.20032 58.3387C1.10032 58.1387 1.00037 57.8386 1.00037 57.5386C1.00037 57.3386 0.900391 57.0386 0.900391 56.7386C0.900391 56.4386 0.900366 56.2387 1.00037 55.9387C1.10037 55.6387 1.10032 55.4387 1.20032 55.1387C1.30032 54.9387 1.40034 54.6387 1.60034 54.4387C1.70034 54.2387 1.90034 54.0387 2.10034 53.8387C2.90034 53.1387 3.90039 52.6387 4.90039 52.6387C6.00039 52.6387 7.00032 53.0387 7.70032 53.8387C7.90032 54.0387 8.10032 54.2387 8.20032 54.4387C8.30032 54.6387 8.50034 54.9387 8.60034 55.1387C8.70034 55.3387 8.80042 55.6387 8.80042 55.9387C8.90042 56.2387 8.90039 56.4386 8.90039 56.7386C8.90039 57.0386 8.90042 57.2386 8.80042 57.5386C8.80042 57.8386 8.70034 58.0387 8.60034 58.3387C8.50034 58.5387 8.40032 58.8386 8.20032 59.0386C8.10032 59.2386 7.90032 59.4387 7.70032 59.6387C7.00032 60.4387 6.00039 60.8387 4.90039 60.8387Z" fill="#FFC44C"/>
<path d="M89.6 28.1389C89.3 28.1389 89.1 28.1389 88.8 28.0389C88.5 28.0389 88.3 27.9389 88 27.8389C87.8 27.7389 87.5 27.6389 87.3 27.4389C87.1 27.3389 86.9 27.1389 86.7 26.9389C86.5 26.7389 86.3 26.5389 86.2 26.3389C86.1 26.1389 85.9 25.8389 85.8 25.6389C85.7 25.4389 85.6 25.1389 85.6 24.8389C85.5 24.5389 85.5 24.3389 85.5 24.0389C85.5 23.7389 85.5 23.5389 85.6 23.2389C85.6 22.9389 85.7 22.7389 85.8 22.4389C85.9 22.2389 86 21.9389 86.2 21.7389C86.3 21.5389 86.5 21.3389 86.7 21.1389C86.9 20.9389 87.1 20.7389 87.3 20.6389C87.5 20.5389 87.8 20.3389 88 20.2389C88.2 20.1389 88.5 20.0389 88.8 20.0389C89.3 19.9389 89.8 19.9389 90.4 20.0389C90.6 20.0389 90.9 20.1389 91.2 20.2389C91.4 20.3389 91.7 20.4389 91.9 20.6389C92.1 20.7389 92.3 20.9389 92.5 21.1389C92.7 21.3389 92.9 21.5389 93 21.7389C93.2 21.9389 93.3 22.2389 93.4 22.4389C93.5 22.6389 93.6 22.9389 93.6 23.2389C93.7 23.5389 93.7 23.7389 93.7 24.0389C93.7 24.3389 93.7 24.5389 93.6 24.8389C93.6 25.1389 93.5 25.3389 93.4 25.6389C93.3 25.8389 93.2 26.1389 93 26.3389C92.9 26.5389 92.7 26.7389 92.5 26.9389C92.3 27.1389 92.1 27.3389 91.9 27.4389C91.7 27.5389 91.4 27.7389 91.2 27.8389C91 27.9389 90.7 28.0389 90.4 28.0389C90.1 28.1389 89.8 28.1389 89.6 28.1389Z" fill="#FFC44C"/>
<path d="M20.1 97.5389C19.8 97.5389 19.6 97.5389 19.3 97.4389C19 97.4389 18.8 97.3389 18.5 97.2389C18.3 97.1389 18 97.0389 17.8 96.8389C17.6 96.7389 17.4 96.5389 17.2 96.3389C16.5 95.5389 16 94.5389 16 93.5389C16 93.2389 16 93.0389 16.1 92.7389C16.1 92.4389 16.2 92.2389 16.3 91.9389C16.4 91.7389 16.5 91.4389 16.7 91.2389C16.8 91.0389 17 90.8389 17.2 90.6389C17.4 90.4389 17.6 90.3389 17.8 90.1389C18 90.0389 18.3 89.8389 18.5 89.7389C18.7 89.6389 19 89.5389 19.3 89.5389C20.6 89.2389 22 89.7389 22.9 90.6389C23.1 90.8389 23.3 91.0389 23.4 91.2389C23.5 91.4389 23.7 91.6389 23.8 91.9389C23.9 92.1389 24 92.4389 24 92.7389C24 92.9389 24.1 93.2389 24.1 93.5389C24.1 94.6389 23.7 95.6389 22.9 96.3389C22.2 97.1389 21.2 97.5389 20.1 97.5389Z" fill="#FFC44C"/>
<path d="M20.1 24.2386C19.8 24.2386 19.6 24.2387 19.3 24.1387C19 24.0387 18.8 24.0387 18.5 23.9387C18.3 23.8387 18 23.7386 17.8 23.5386C17.6 23.4386 17.4 23.2386 17.2 23.0386C16.5 22.2386 16 21.2386 16 20.2386C16 19.9386 16 19.7387 16.1 19.4387C16.1 19.2387 16.2 18.9386 16.3 18.7386C16.4 18.5386 16.5 18.2386 16.7 18.0386C16.8 17.8386 17 17.6387 17.2 17.4387C17.4 17.2387 17.6 17.0387 17.8 16.9387C18 16.8387 18.3 16.6386 18.5 16.5386C18.7 16.4386 19 16.3387 19.3 16.3387C20.6 16.0387 22 16.5387 22.9 17.4387C23.6 18.1387 24.1 19.2386 24.1 20.2386C24.1 21.3386 23.7 22.3386 22.9 23.0386C22.2 23.7386 21.2 24.2386 20.1 24.2386Z" fill="#FFC44C"/>
</svg>
