<svg width="158" height="144" viewBox="0 0 158 144" fill="none" xmlns="http://www.w3.org/2000/svg">
<path d="M83.3996 143.812C77.2996 143.812 71.5997 141.412 67.1997 137.212C58.1997 128.312 58.0997 113.712 66.9997 104.712L80.6997 91.012C81.4997 90.212 82.4997 89.812 83.4997 89.812C84.5997 89.812 85.5998 90.212 86.2998 91.012L99.6997 104.512C104 108.812 106.4 114.612 106.4 120.812C106.4 126.912 104 132.712 99.6997 137.012C95.3997 141.412 89.5997 143.812 83.4997 143.812H83.3996ZM83.4997 99.512L72.6997 110.312C66.8997 116.212 66.8998 125.712 72.7998 131.512C75.5998 134.312 79.3998 135.812 83.2998 135.812H83.3996C87.3996 135.812 91.0997 134.212 93.9997 131.412C93.9997 131.412 93.9998 131.412 94.0998 131.312C96.8998 128.512 98.4997 124.712 98.4997 120.712C98.4997 116.712 96.8998 112.912 94.0998 110.112L83.4997 99.512Z" fill="#57AAFF"/>
<path d="M25.6017 64.1122C24.5017 64.1122 23.4017 63.6122 22.6017 62.8122C17.4017 56.9122 14.7015 49.3123 15.2015 41.4123C15.7015 33.5123 19.2017 26.3122 25.1017 21.1122C37.1017 10.5122 55.1017 11.3123 66.1017 22.9123C67.6017 24.5123 67.6016 27.0122 66.0016 28.6122C64.4016 30.1122 61.9016 30.1122 60.3016 28.5122C52.3016 20.0122 39.1015 19.5122 30.4015 27.2122C26.1015 31.0122 23.5015 36.3122 23.2015 42.0122C22.9015 47.7122 24.8017 53.3122 28.6017 57.6122C30.1017 59.3122 29.9016 61.8122 28.3016 63.2122C27.5016 63.8122 26.6017 64.1122 25.6017 64.1122Z" fill="#FFC44C"/>
<path d="M31.6016 8.01214C30.6016 8.01214 29.5015 7.61213 28.8015 6.81213C28.1015 6.01213 27.6016 5.01214 27.6016 4.01214C27.6016 2.91214 28.0015 1.91215 28.8015 1.21215C29.7015 0.312152 31.1014 -0.187885 32.4014 0.112115C32.7014 0.112115 32.9014 0.212128 33.2014 0.312128C33.4014 0.412127 33.7014 0.512152 33.9014 0.712152C34.1014 0.812152 34.3015 1.01215 34.5015 1.21215C34.7015 1.41215 34.9015 1.61213 35.0015 1.81213C35.1015 2.01213 35.3014 2.31214 35.4014 2.51214C35.5014 2.71214 35.6016 3.01213 35.6016 3.31213C35.6016 3.61213 35.7014 3.81212 35.7014 4.11212C35.7014 5.11212 35.3015 6.21216 34.5015 6.91216C34.3015 7.11216 34.1014 7.21216 33.9014 7.41216C33.7014 7.51216 33.4014 7.71213 33.2014 7.81213C33.0014 7.91213 32.7014 8.01214 32.4014 8.01214C32.2014 8.01214 31.9016 8.01214 31.6016 8.01214Z" fill="#FFC44C"/>
<path d="M4.40063 54.9124C4.10063 54.9124 3.90083 54.9124 3.60083 54.8124C3.30083 54.7124 3.10078 54.7124 2.80078 54.6124C2.60078 54.5124 2.30083 54.4124 2.10083 54.2124C1.90083 54.1124 1.70073 53.9124 1.50073 53.7124C0.800732 53.0124 0.300781 51.9124 0.300781 50.9124C0.300781 50.6124 0.300635 50.4124 0.400635 50.1124C0.400635 49.9124 0.50083 49.6124 0.60083 49.3124C0.70083 49.1124 0.800732 48.8124 1.00073 48.6124C1.10073 48.4124 1.30073 48.2124 1.50073 48.0124C1.70073 47.8124 1.90083 47.6124 2.10083 47.5124C2.30083 47.3124 2.60078 47.2124 2.80078 47.1124C3.00078 47.0124 3.30083 46.9124 3.60083 46.9124C4.90083 46.6124 6.30068 47.1124 7.20068 48.0124C7.90068 48.7124 8.40063 49.8124 8.40063 50.8124C8.40063 51.1124 8.40078 51.3124 8.30078 51.6124C8.30078 51.9124 8.20083 52.1124 8.10083 52.4124C8.00083 52.6124 7.90068 52.9124 7.70068 53.1124C7.50068 53.3124 7.40068 53.5124 7.20068 53.7124C6.50068 54.5124 5.50063 54.9124 4.40063 54.9124Z" fill="#FFC44C"/>
<path d="M60.7012 11.912C59.7012 11.912 58.6011 11.512 57.9011 10.712C57.1011 10.012 56.7012 8.91205 56.7012 7.91205C56.7012 7.61205 56.7013 7.412 56.8013 7.112C56.9013 6.912 56.9012 6.61201 57.0012 6.31201C57.1012 6.11201 57.2011 5.812 57.4011 5.612C57.5011 5.412 57.7011 5.21202 57.9011 5.01202C58.6011 4.31202 59.7012 3.81201 60.7012 3.81201C61.8012 3.81201 62.8012 4.21202 63.5012 5.01202C63.7012 5.21202 63.9012 5.412 64.0012 5.612C64.1012 5.812 64.3011 6.11201 64.4011 6.31201C64.5011 6.51201 64.6013 6.812 64.6013 7.112C64.6013 7.412 64.7012 7.61205 64.7012 7.91205C64.7012 9.01205 64.3012 10.012 63.5012 10.712C62.8012 11.512 61.8012 11.912 60.7012 11.912Z" fill="#FFC44C"/>
<path d="M8.30127 25.8122C8.00127 25.8122 7.80122 25.8122 7.50122 25.7122C7.30122 25.7122 7.00117 25.6122 6.70117 25.5122C6.50117 25.4122 6.20122 25.3122 6.00122 25.1122C5.80122 25.0122 5.60112 24.8122 5.40112 24.6122C5.20112 24.4122 5.00112 24.2122 4.90112 24.0122C4.70112 23.8122 4.60122 23.5122 4.50122 23.3122C4.40122 23.1122 4.30127 22.8122 4.30127 22.5122C4.20127 22.2122 4.20117 22.0122 4.20117 21.7122C4.20117 21.4122 4.20127 21.2122 4.30127 20.9122C4.30127 20.6122 4.40122 20.4122 4.50122 20.1122C4.60122 19.9122 4.70112 19.6122 4.90112 19.4122C5.00112 19.2122 5.20112 19.0122 5.40112 18.8122C5.60112 18.6122 5.80122 18.5122 6.00122 18.3122C6.20122 18.2122 6.50117 18.0122 6.70117 17.9122C6.90117 17.8122 7.20122 17.7122 7.50122 17.7122C8.00122 17.6122 8.50132 17.6122 9.10132 17.7122C9.40132 17.7122 9.60112 17.8122 9.90112 17.9122C10.1011 18.0122 10.4013 18.1122 10.6013 18.3122C10.8013 18.5122 11.0012 18.6122 11.2012 18.8122C11.4012 19.0122 11.6012 19.2122 11.7012 19.4122C11.8012 19.6122 12.0013 19.8122 12.1013 20.1122C12.2013 20.3122 12.3013 20.6122 12.3013 20.9122C12.4013 21.2122 12.4011 21.4122 12.4011 21.7122C12.4011 22.8122 12.0012 23.8122 11.2012 24.5122C11.0012 24.7122 10.8013 24.9122 10.6013 25.0122C10.4013 25.1122 10.1011 25.3122 9.90112 25.4122C9.70112 25.5122 9.40132 25.6122 9.10132 25.6122C8.80132 25.8122 8.60127 25.8122 8.30127 25.8122Z" fill="#FFC44C"/>
<path d="M125.201 112.912C124.701 112.912 124.201 112.912 123.701 112.912C121.501 112.812 119.801 110.912 119.901 108.712C120.001 106.512 121.902 104.812 124.102 104.912C137.602 105.512 149.101 95.0119 149.701 81.5119C150.001 75.0119 147.702 68.7119 143.302 63.9119C138.902 59.1119 132.802 56.2119 126.302 55.9119C124.002 55.8119 121.702 56.0119 119.502 56.5119C118.302 56.8119 117.102 56.5119 116.102 55.7119C115.102 54.9119 114.602 53.8119 114.602 52.6119C114.602 36.2119 101.301 22.9119 84.9014 22.9119C69.0014 22.9119 56.0016 35.3119 55.3016 51.2119L55.2015 53.5119C55.1015 55.7119 53.2015 57.4119 51.0015 57.3119C48.8015 57.2119 47.1015 55.3119 47.2015 53.1119L47.3016 50.7119C48.2016 30.5119 64.7014 14.7119 84.9014 14.7119C104.101 14.7119 120.002 29.1119 122.302 47.7119C123.702 47.6119 125.202 47.5119 126.602 47.6119C135.302 48.0119 143.301 51.7119 149.201 58.1119C155.101 64.5119 158.101 72.8119 157.701 81.5119C156.901 99.3119 142.501 112.912 125.201 112.912Z" fill="#3B404E"/>
<path d="M44.7015 114.112C44.6015 114.112 44.6015 114.112 44.5015 114.112C33.3015 113.612 23.3016 107.512 17.8016 97.912C8.80155 82.412 14.2015 62.412 29.7015 53.512C45.2015 44.512 65.2016 49.912 74.1016 65.412C75.2016 67.312 74.5016 69.812 72.6016 70.912C70.7016 72.012 68.2016 71.312 67.1016 69.412C60.3016 57.712 45.3016 53.612 33.6016 60.412C21.9016 67.212 17.8016 82.212 24.6016 93.912C28.8016 101.212 36.3016 105.812 44.8016 106.212C47.0016 106.312 48.7016 108.212 48.6016 110.412C48.6016 112.412 46.9015 114.112 44.7015 114.112Z" fill="#3B404E"/>
</svg>
