<svg width="157" height="135" viewBox="0 0 157 135" fill="none" xmlns="http://www.w3.org/2000/svg">
<path d="M25.5009 64.8121C24.4009 64.8121 23.3009 64.3121 22.5009 63.5121C11.7009 51.4121 12.9009 32.7121 25.0009 22.0121C36.9009 11.4121 54.9009 12.2121 65.8009 23.8121C67.3009 25.4121 67.3008 27.9121 65.7008 29.5121C64.1008 31.0121 61.6009 31.0122 60.0009 29.4122C52.0009 21.0122 39.0009 20.4121 30.3009 28.1121C21.5009 35.9121 20.7009 49.5121 28.5009 58.3121C30.0009 60.0121 29.8008 62.5122 28.2008 63.9122C27.4008 64.5122 26.5009 64.8121 25.5009 64.8121Z" fill="#FFC44C"/>
<path d="M31.5 9.0119C30.4 9.0119 29.4 8.61189 28.7 7.81189C28.5 7.61189 28.3 7.41191 28.2 7.21191C28.1 7.01191 27.9 6.8119 27.8 6.5119C27.7 6.3119 27.6001 6.01191 27.6001 5.71191C27.5001 5.41191 27.5 5.21193 27.5 4.91193C27.5 4.61193 27.5001 4.41188 27.6001 4.11188C27.6001 3.81188 27.7 3.61189 27.8 3.31189C27.9 3.11189 28 2.81188 28.2 2.61188C28.3 2.41188 28.5 2.2119 28.7 2.0119C29.6 1.1119 31 0.611926 32.3 0.911926C32.5 0.911926 32.8001 1.01188 33.1001 1.11188C33.3001 1.21188 33.6 1.3119 33.8 1.5119C34 1.6119 34.1999 1.8119 34.3999 2.0119C34.5999 2.2119 34.7999 2.41188 34.8999 2.61188C35.0999 2.81188 35.2 3.11189 35.3 3.31189C35.4 3.51189 35.5 3.81188 35.5 4.11188C35.5 4.41188 35.6001 4.61193 35.6001 4.91193C35.6001 5.91193 35.1999 7.01191 34.3999 7.71191C34.1999 7.91191 34 8.01191 33.8 8.21191C33.6 8.31191 33.3001 8.51188 33.1001 8.61188C32.9001 8.71188 32.6 8.81189 32.3 8.81189C32 9.01189 31.8 9.0119 31.5 9.0119Z" fill="#FFC44C"/>
<path d="M4.40063 55.7117C4.10063 55.7117 3.90083 55.7117 3.60083 55.6117C3.30083 55.6117 3.10078 55.5117 2.80078 55.4117C2.50078 55.3117 2.30083 55.2117 2.10083 55.0117C1.90083 54.9117 1.70073 54.7117 1.50073 54.5117C0.800732 53.8117 0.300781 52.7117 0.300781 51.7117C0.300781 51.4117 0.300635 51.2117 0.400635 50.9117C0.400635 50.6117 0.50083 50.4117 0.60083 50.1117C0.70083 49.9117 0.800732 49.6117 1.00073 49.4117C1.10073 49.2117 1.30073 49.0117 1.50073 48.8117C1.70073 48.6117 1.90083 48.4117 2.10083 48.3117C2.30083 48.2117 2.60078 48.0117 2.80078 47.9117C3.00078 47.8117 3.30083 47.7117 3.60083 47.7117C4.10083 47.6117 4.60068 47.6117 5.20068 47.7117C5.40068 47.8117 5.70073 47.8117 6.00073 47.9117C6.20073 48.0117 6.50068 48.1117 6.70068 48.3117C6.90068 48.4117 7.10078 48.6117 7.30078 48.8117C8.00078 49.6117 8.50073 50.6117 8.50073 51.6117C8.50073 52.6117 8.10078 53.7117 7.30078 54.4117C7.10078 54.6117 6.90068 54.8117 6.70068 54.9117C6.50068 55.1117 6.20073 55.2117 6.00073 55.3117C5.80073 55.4117 5.50068 55.5117 5.20068 55.5117C4.90068 55.6117 4.70063 55.7117 4.40063 55.7117Z" fill="#FFC44C"/>
<path d="M60.4006 12.9119C60.1006 12.9119 59.9008 12.9119 59.6008 12.8119C59.4008 12.8119 59.1008 12.7119 58.8008 12.6119C58.6008 12.5119 58.3008 12.4119 58.1008 12.2119C57.9008 12.1119 57.7007 11.9119 57.5007 11.7119C57.3007 11.5119 57.1007 11.3119 57.0007 11.1119C56.8007 10.9119 56.7008 10.6119 56.6008 10.4119C56.5008 10.2119 56.4006 9.91188 56.4006 9.61188C56.4006 9.31188 56.3008 9.11189 56.3008 8.81189C56.3008 7.71189 56.7007 6.7119 57.5007 6.0119C57.7007 5.8119 57.9008 5.6119 58.1008 5.5119C58.3008 5.4119 58.6008 5.21188 58.8008 5.11188C59.0008 5.01188 59.3008 4.91193 59.6008 4.91193C60.9008 4.61193 62.3007 5.1119 63.2007 6.0119C64.0007 6.7119 64.4006 7.81189 64.4006 8.81189C64.4006 9.11189 64.4008 9.31188 64.3008 9.61188C64.3008 9.91188 64.2008 10.1119 64.1008 10.4119C64.0008 10.6119 63.9007 10.9119 63.7007 11.1119C63.6007 11.3119 63.4007 11.5119 63.2007 11.7119C62.5007 12.4119 61.5006 12.9119 60.4006 12.9119Z" fill="#FFC44C"/>
<path d="M8.30078 26.7117C7.20078 26.7117 6.20073 26.3117 5.50073 25.5117C5.30073 25.3117 5.10073 25.1117 5.00073 24.9117C4.90073 24.7117 4.70083 24.4117 4.60083 24.2117C4.50083 24.0117 4.40063 23.7117 4.40063 23.4117C4.30063 23.2117 4.30078 22.9116 4.30078 22.6116C4.30078 22.3116 4.30063 22.1116 4.40063 21.8116C4.40063 21.6116 4.50083 21.3117 4.60083 21.0117C4.70083 20.8117 4.80073 20.5116 5.00073 20.3116C5.10073 20.1116 5.30073 19.9117 5.50073 19.7117C6.40073 18.8117 7.80083 18.3116 9.10083 18.6116C9.30083 18.7116 9.60063 18.7116 9.90063 18.8116C10.1006 18.9116 10.4008 19.0117 10.6008 19.2117C10.8008 19.3117 11.0007 19.5117 11.2007 19.7117C12.0007 20.5117 12.4006 21.5117 12.4006 22.5117C12.4006 23.6117 12.0007 24.6116 11.2007 25.3116C11.0007 25.5116 10.8008 25.7116 10.6008 25.8116C10.4008 25.9116 10.1006 26.1117 9.90063 26.2117C9.70063 26.3117 9.40083 26.4117 9.10083 26.4117C8.80083 26.7117 8.50078 26.7117 8.30078 26.7117Z" fill="#FFC44C"/>
<path d="M102.5 130.212C101.5 130.212 100.5 129.812 99.7003 129.112C98.1003 127.612 98.0005 125.012 99.6005 123.412L117.9 104.312C119.4 102.712 122 102.612 123.6 104.212C125.2 105.712 125.3 108.312 123.7 109.912L105.4 129.012C104.6 129.812 103.5 130.212 102.5 130.212Z" fill="#57AAFF"/>
<path d="M35.5004 124.512C34.5004 124.512 33.5003 124.112 32.7003 123.412C31.1003 121.912 31.0005 119.312 32.6005 117.712L51.2003 98.2121C52.7003 96.6121 55.3003 96.5121 56.9003 98.1121C58.5003 99.6121 58.6004 102.212 57.0004 103.812L38.4003 123.312C37.6003 124.112 36.6004 124.512 35.5004 124.512Z" fill="#57AAFF"/>
<path d="M101.8 104.412C100.8 104.412 99.8 104.012 99 103.312C97.4 101.812 97.3999 99.2119 98.8999 97.6119L113.2 82.8119C114.7 81.2119 117.3 81.2119 118.9 82.7119C120.5 84.2119 120.5 86.8119 119 88.4119L104.7 103.212C103.9 104.012 102.9 104.412 101.8 104.412Z" fill="#57AAFF"/>
<path d="M70.7003 134.012C69.7003 134.012 68.7002 133.612 67.9002 132.912C66.3002 131.412 66.3004 128.812 67.8004 127.212L82.1004 112.412C83.6004 110.812 86.2004 110.812 87.8004 112.312C89.4004 113.812 89.4002 116.412 87.9002 118.012L73.6004 132.812C72.8004 133.612 71.8003 134.012 70.7003 134.012Z" fill="#57AAFF"/>
<path d="M69.1008 109.012C68.1008 109.012 67.1007 108.612 66.3007 107.912C64.7007 106.412 64.7006 103.812 66.2006 102.212L80.5007 87.412C82.0007 85.812 84.6006 85.812 86.2006 87.312C87.8006 88.812 87.8007 91.412 86.3007 93.012L72.0007 107.812C71.2007 108.612 70.1008 109.012 69.1008 109.012Z" fill="#57AAFF"/>
<path d="M135.702 110.912C134.202 110.912 132.702 110.012 132.102 108.612C131.202 106.612 132.102 104.212 134.102 103.312C140.102 100.612 144.602 95.7118 146.902 89.6118C149.202 83.5118 149.002 76.8119 146.202 70.9119C141.402 60.3119 129.602 54.5119 118.302 57.2119C117.102 57.5119 115.902 57.2119 114.902 56.4119C113.902 55.6119 113.402 54.5118 113.402 53.3118C113.402 45.4118 110.402 37.9118 104.802 32.3118C99.2018 26.7118 91.8017 23.6118 83.9017 23.6118H83.8018C67.9018 23.6118 54.9017 36.0118 54.2017 52.0118L54.1019 54.4119C54.0019 56.6119 52.1017 58.3119 49.9017 58.2119C47.7017 58.1119 46.0019 56.2118 46.1019 54.0118L46.2017 51.6118C47.1017 31.4118 63.6018 15.6118 83.8018 15.6118H83.9017C93.9017 15.6118 103.402 19.6119 110.502 26.7119C116.502 32.7119 120.202 40.4119 121.202 48.7119C134.702 47.5119 147.802 55.0118 153.602 67.6118C157.202 75.5118 157.502 84.3119 154.502 92.4119C151.502 100.512 145.402 107.012 137.502 110.612C136.802 110.812 136.202 110.912 135.702 110.912Z" fill="#3B404E"/>
<path d="M27.8009 109.012C27.0009 109.012 26.1007 108.712 25.4007 108.212C21.7007 105.412 18.6007 102.012 16.4007 98.012C7.70073 82.412 13.3007 62.512 28.9007 53.812C36.5007 49.612 45.2009 48.512 53.6009 50.912C61.9009 53.312 68.9009 58.712 73.1009 66.312C74.2009 68.212 73.5009 70.712 71.6009 71.712C69.7009 72.712 67.2008 72.112 66.2008 70.212C63.0008 64.512 57.8008 60.412 51.5008 58.612C45.2008 56.812 38.6007 57.612 32.9007 60.812C21.1007 67.412 16.9008 82.312 23.5008 94.112C25.2008 97.112 27.5009 99.712 30.3009 101.812C32.1009 103.112 32.4009 105.612 31.1009 107.412C30.3009 108.512 29.1009 109.012 27.8009 109.012Z" fill="#3B404E"/>
</svg>
