<svg width="158" height="148" viewBox="0 0 158 148" fill="none" xmlns="http://www.w3.org/2000/svg">
<path d="M26.5999 64.9999C25.4999 64.9999 24.3999 64.4999 23.5999 63.6999C18.2999 57.6999 15.5999 49.9999 16.0999 41.9999C16.5999 33.9999 20.0999 26.6999 26.0999 21.3999C38.2999 10.5999 56.5999 11.3999 67.6999 23.1999C69.1999 24.7999 69.1999 27.2999 67.4999 28.8999C65.8999 30.3999 63.4 30.3999 61.8 28.6999C53.6 19.9999 40.2 19.4999 31.3 27.3999C26.9 31.2999 24.2999 36.6999 23.9999 42.4999C23.6999 48.3999 25.5999 53.9999 29.4999 58.3999C30.9999 60.0999 30.7999 62.5999 29.1999 63.9999C28.4999 64.6999 27.4999 64.9999 26.5999 64.9999Z" fill="#FFC44C"/>
<path d="M32.6996 8C32.3996 8 32.1997 8.00002 31.8997 7.90002C31.5997 7.90002 31.3996 7.80001 31.0996 7.70001C30.8996 7.60001 30.5997 7.49999 30.3997 7.29999C30.1997 7.09999 29.9997 6.99999 29.7997 6.79999C29.0997 5.99999 28.5996 5 28.5996 4C28.5996 2.9 28.9997 1.90001 29.7997 1.20001C30.5997 0.500012 31.5996 0 32.5996 0C33.5996 0 34.6997 0.400012 35.3997 1.20001C35.5997 1.40001 35.6997 1.59999 35.8997 1.79999C35.9997 1.99999 36.1997 2.3 36.2997 2.5C36.3997 2.7 36.4996 2.99999 36.4996 3.29999C36.5996 3.59999 36.5996 3.79998 36.5996 4.09998C36.5996 4.39998 36.5996 4.60002 36.4996 4.90002C36.4996 5.20002 36.3997 5.40001 36.2997 5.70001C36.1997 5.90001 36.0997 6.20002 35.8997 6.40002C35.6997 6.60002 35.5997 6.8 35.3997 7C35.1997 7.2 34.9997 7.3 34.7997 7.5C34.5997 7.6 34.3996 7.80002 34.0996 7.90002C33.8996 8.00002 33.5997 8.09998 33.2997 8.09998C33.1997 7.99998 32.8996 8 32.6996 8Z" fill="#FFC44C"/>
<path d="M5.00037 55.7001C4.70037 55.7001 4.50032 55.7001 4.20032 55.6001C3.90032 55.6001 3.70039 55.5001 3.40039 55.4001C3.20039 55.3001 2.90032 55.2001 2.70032 55.0001C2.50032 54.9001 2.30034 54.7001 2.10034 54.5001C1.40034 53.7001 0.900391 52.7001 0.900391 51.7001C0.900391 51.4001 0.900366 51.2001 1.00037 50.9001C1.10037 50.6001 1.10032 50.4001 1.20032 50.1001C1.30032 49.9001 1.40034 49.6001 1.60034 49.4001C1.70034 49.2001 1.90034 49.0002 2.10034 48.8002C2.90034 48.0002 3.90039 47.6001 4.90039 47.6001C5.90039 47.6001 7.00032 48.0002 7.70032 48.8002C7.90032 49.0002 8.10032 49.2001 8.20032 49.4001C8.30032 49.6001 8.50034 49.9001 8.60034 50.1001C8.70034 50.3001 8.80042 50.6001 8.80042 50.9001C8.80042 51.1001 8.90039 51.4001 8.90039 51.7001C8.90039 52.7001 8.50032 53.8001 7.70032 54.5001C7.10032 55.2001 6.00037 55.7001 5.00037 55.7001Z" fill="#FFC44C"/>
<path d="M62.1996 11.9999C61.8996 11.9999 61.6997 12 61.3997 11.9C61.0997 11.8 60.8996 11.7999 60.5996 11.6999C60.3996 11.5999 60.0997 11.4999 59.8997 11.2999C59.6997 11.0999 59.4997 10.9999 59.2997 10.7999C58.5997 10.0999 58.0996 8.99993 58.0996 7.99993C58.0996 6.89993 58.4997 5.89994 59.2997 5.19994C59.4997 4.99994 59.6997 4.79994 59.8997 4.69994C60.0997 4.59994 60.2996 4.39992 60.5996 4.29992C60.7996 4.19992 61.0997 4.09991 61.3997 4.09991C62.6997 3.79991 64.0996 4.29994 64.9996 5.19994C65.6996 5.99994 66.1996 6.99993 66.1996 7.99993C66.1996 8.99993 65.7996 10.0999 64.9996 10.7999C64.2996 11.4999 63.2996 11.9999 62.1996 11.9999Z" fill="#FFC44C"/>
<path d="M9 26.1001C7.9 26.1001 6.89995 25.7001 6.19995 24.9001C5.99995 24.7001 5.79995 24.5002 5.69995 24.3002C5.59995 24.1002 5.40005 23.9001 5.30005 23.6001C5.20005 23.4001 5.09998 23.1001 5.09998 22.9001C4.99998 22.6001 5 22.4001 5 22.1001C5 21.0001 5.39995 20.0002 6.19995 19.3002C6.99995 18.6002 8 18.1001 9 18.1001C10.1 18.1001 11.1 18.5002 11.8 19.3002C12.6 20.1002 13 21.1001 13 22.1001C13 22.4001 13 22.6001 12.9 22.9001C12.8 23.1001 12.8 23.4001 12.7 23.6001C12.6 23.8001 12.5 24.1002 12.3 24.3002C12.1 24.5002 12 24.7001 11.8 24.9001C11 25.7001 10 26.1001 9 26.1001Z" fill="#FFC44C"/>
<path d="M132.001 113.2C130.201 113.2 128.601 112 128.101 110.2C127.601 108.1 128.901 105.9 131.001 105.4C137.301 103.8 142.601 99.8999 145.901 94.2999C149.201 88.6999 150.201 82.1998 148.601 75.8998C146.001 65.5998 136.801 57.9998 126.201 57.4998C124.001 57.3998 121.701 57.5998 119.501 58.0998C118.301 58.3998 117.101 58.0999 116.101 57.2999C115.101 56.4999 114.601 55.3998 114.601 54.1998C114.601 37.9998 101.401 24.7999 85.201 24.7999C69.401 24.7999 56.601 37.0998 55.901 52.8998L55.8011 55.1998C55.7011 57.3998 53.801 59.0998 51.601 58.9998C49.401 58.8998 47.7011 56.9999 47.8011 54.7999L47.901 52.4998C48.801 32.4998 65.201 16.7998 85.201 16.7998C104.201 16.7998 120.001 31.0998 122.301 49.5998C123.701 49.4998 125.101 49.3998 126.501 49.4998C126.501 49.4998 126.501 49.4998 126.601 49.4998C140.801 50.0998 153.001 60.1998 156.501 73.8998C158.601 82.2998 157.301 90.8999 152.801 98.2999C148.301 105.7 141.301 110.9 132.901 113C132.701 113.1 132.301 113.2 132.001 113.2Z" fill="#3B404E"/>
<path d="M38.2004 113.9C37.8004 113.9 37.4004 113.8 37.0004 113.7C23.1004 109.3 13.8005 96 14.4005 81.5C14.9005 70.4 20.9004 60.5 30.5004 55C38.0004 50.7 46.7004 49.6 55.0004 51.8C63.3004 54 70.3004 59.4 74.6004 66.9C75.7004 68.8 75.0004 71.3 73.1004 72.4C71.2004 73.5 68.7004 72.8 67.6004 70.9C60.9004 59.3 46.0005 55.3 34.4005 62C27.2005 66.2 22.6005 73.6 22.3005 82C21.8005 93 28.8005 102.9 39.3005 106.3C41.4005 107 42.6005 109.2 41.9005 111.3C41.5005 112.8 39.9004 113.9 38.2004 113.9Z" fill="#3B404E"/>
<path d="M107.1 115.8C105.8 115.8 104.5 115.3 103.6 114.3C103.4 114.1 103.2 113.8 103 113.5C102.8 113.2 102.7 112.9 102.5 112.6C102.4 112.3 102.3 112 102.2 111.7C102.1 111.4 102.1 111 102.1 110.7C102.1 110.4 102.1 110 102.2 109.7C102.3 109.4 102.4 109.1 102.5 108.8C102.6 108.5 102.8 108.2 103 107.9C103.2 107.6 103.4 107.4 103.6 107.1C104.8 106 106.5 105.4 108.1 105.7C108.4 105.8 108.7 105.9 109 106C109.3 106.1 109.6 106.3 109.9 106.5C110.2 106.7 110.4 106.9 110.7 107.1C110.9 107.3 111.1 107.6 111.3 107.9C111.5 108.2 111.6 108.5 111.8 108.8C111.9 109.1 112 109.4 112.1 109.7C112.2 110 112.2 110.4 112.2 110.7C112.2 111 112.2 111.4 112.1 111.7C112 112 111.9 112.3 111.8 112.6C111.7 112.9 111.5 113.2 111.3 113.5C111.1 113.8 110.9 114 110.7 114.3C109.7 115.3 108.4 115.8 107.1 115.8Z" fill="#57AAFF"/>
<path d="M107.1 137.8C105.8 137.8 104.5 137.3 103.6 136.3C102.7 135.4 102.1 134.1 102.1 132.8C102.1 132.5 102.1 132.1 102.2 131.8C102.3 131.5 102.4 131.2 102.5 130.9C102.6 130.6 102.8 130.3 103 130C103.2 129.7 103.4 129.5 103.6 129.2C104.8 128 106.5 127.5 108.1 127.8C108.4 127.9 108.7 128 109 128.1C109.3 128.2 109.6 128.4 109.9 128.6C110.2 128.8 110.4 129 110.7 129.2C110.9 129.4 111.1 129.7 111.3 130C111.5 130.3 111.6 130.6 111.8 130.9C111.9 131.2 112 131.5 112.1 131.8C112.2 132.1 112.2 132.5 112.2 132.8C112.2 134.1 111.7 135.4 110.7 136.3C109.7 137.3 108.4 137.8 107.1 137.8Z" fill="#57AAFF"/>
<path d="M65.0996 115.8C63.7996 115.8 62.4996 115.3 61.5996 114.3C61.3996 114.1 61.1996 113.8 60.9996 113.5C60.7996 113.2 60.6996 112.9 60.4996 112.6C60.3996 112.3 60.2996 112 60.1996 111.7C60.0996 111.4 60.0996 111 60.0996 110.7C60.0996 109.4 60.5996 108.1 61.5996 107.2C62.4996 106.3 63.7996 105.7 65.0996 105.7C66.3996 105.7 67.6996 106.2 68.5996 107.2C69.4996 108.1 70.0996 109.4 70.0996 110.7C70.0996 111 70.0996 111.4 69.9996 111.7C69.8996 112 69.7996 112.3 69.6996 112.6C69.5996 112.9 69.3996 113.2 69.1996 113.5C68.9996 113.8 68.7996 114 68.5996 114.3C67.6996 115.3 66.3996 115.8 65.0996 115.8Z" fill="#57AAFF"/>
<path d="M65.0996 137.8C63.7996 137.8 62.4996 137.3 61.5996 136.3C61.3996 136.1 61.1996 135.8 60.9996 135.5C60.7996 135.2 60.6996 134.9 60.4996 134.6C60.3996 134.3 60.2996 134 60.1996 133.7C60.0996 133.4 60.0996 133 60.0996 132.7C60.0996 132.4 60.0996 132 60.1996 131.7C60.2996 131.4 60.3996 131.1 60.4996 130.8C60.5996 130.5 60.7996 130.2 60.9996 129.9C61.1996 129.6 61.3996 129.4 61.5996 129.1C62.4996 128.2 63.7996 127.6 65.0996 127.6C66.3996 127.6 67.6996 128.1 68.5996 129.1C68.7996 129.3 68.9996 129.6 69.1996 129.9C69.3996 130.2 69.4996 130.5 69.6996 130.8C69.7996 131.1 69.8996 131.4 69.9996 131.7C70.0996 132 70.0996 132.3 70.0996 132.7C70.0996 133 70.0996 133.4 69.9996 133.7C69.8996 134 69.7996 134.3 69.6996 134.6C69.5996 134.9 69.3996 135.2 69.1996 135.5C68.9996 135.8 68.7996 136 68.5996 136.3C67.6996 137.3 66.3996 137.8 65.0996 137.8Z" fill="#57AAFF"/>
<path d="M86.1 104.8C85.8 104.8 85.4 104.8 85.1 104.7C84.8 104.6 84.5 104.5 84.2 104.4C83.9 104.3 83.6 104.1 83.3 103.9C83 103.7 82.8 103.5 82.5 103.3C81.6 102.4 81 101.1 81 99.8C81 98.5 81.5 97.2 82.5 96.3C83.7 95.1 85.4 94.6 87 94.9C87.3 95 87.6 95.0999 87.9 95.1999C88.2 95.2999 88.5 95.4999 88.8 95.6999C89.1 95.8999 89.3 96.1 89.6 96.3C89.8 96.5 90 96.7999 90.2 97.0999C90.4 97.3999 90.5 97.7 90.7 98C90.8 98.3 90.9 98.6 91 98.9C91.1 99.2 91.1 99.6 91.1 99.9C91.1 100.2 91.1 100.6 91 100.9C90.9 101.2 90.8 101.5 90.7 101.8C90.6 102.1 90.4 102.4 90.2 102.7C90 103 89.8 103.2 89.6 103.5C89.4 103.8 89.1 103.9 88.8 104.1C88.5 104.3 88.2 104.4 87.9 104.6C87.6 104.7 87.3 104.8 87 104.9C86.7 104.8 86.4 104.8 86.1 104.8Z" fill="#57AAFF"/>
<path d="M86.1 126.3C85.8 126.3 85.4 126.3 85.1 126.2C84.8 126.1 84.5 126 84.2 125.9C83.9 125.8 83.6 125.6 83.3 125.4C83 125.2 82.8 125 82.5 124.8C81.6 123.9 81 122.6 81 121.3C81 121 81 120.6 81.1 120.3C81.2 120 81.3 119.7 81.4 119.4C81.5 119.1 81.7 118.8 81.9 118.5C82.1 118.2 82.3 118 82.5 117.7C83.7 116.5 85.4 116 87 116.3C87.3 116.4 87.6 116.5 87.9 116.6C88.2 116.7 88.5 116.9 88.8 117.1C89.1 117.3 89.3 117.5 89.6 117.7C89.8 117.9 90 118.2 90.2 118.5C90.4 118.8 90.5 119.1 90.7 119.4C90.8 119.7 90.9 120 91 120.3C91.1 120.6 91.1 121 91.1 121.3C91.1 122.6 90.6 123.9 89.6 124.8C89.4 125 89.1 125.2 88.8 125.4C88.5 125.6 88.2 125.7 87.9 125.9C87.6 126 87.3 126.1 87 126.2C86.7 126.3 86.4 126.3 86.1 126.3Z" fill="#57AAFF"/>
<path d="M86.0996 147.8C84.7996 147.8 83.4996 147.3 82.5996 146.3C81.6996 145.4 81.0996 144.1 81.0996 142.8C81.0996 141.5 81.5996 140.2 82.5996 139.3C82.7996 139.1 83.0997 138.9 83.3997 138.7C83.6997 138.5 83.9997 138.4 84.2997 138.2C84.5997 138.1 84.8996 138 85.1996 137.9C85.7996 137.8 86.4996 137.8 87.1996 137.9C87.4996 138 87.7996 138.1 88.0996 138.2C88.3996 138.3 88.6996 138.5 88.9996 138.7C89.2996 138.9 89.4997 139.1 89.7997 139.3C89.9997 139.5 90.1997 139.8 90.3997 140.1C90.5997 140.4 90.6997 140.7 90.8997 141C90.9997 141.3 91.0996 141.6 91.1996 141.9C91.2996 142.2 91.2997 142.6 91.2997 142.9C91.2997 143.2 91.2996 143.6 91.1996 143.9C91.0996 144.2 90.9997 144.5 90.8997 144.8C90.7997 145.1 90.5997 145.4 90.3997 145.7C90.1997 146 89.9997 146.2 89.7997 146.5C89.5997 146.8 89.2996 146.9 88.9996 147.1C88.6996 147.3 88.3996 147.4 88.0996 147.6C87.7996 147.7 87.4996 147.8 87.1996 147.9C86.6996 147.8 86.3996 147.8 86.0996 147.8Z" fill="#57AAFF"/>
</svg>
