<svg width="161" height="134" viewBox="0 0 161 134" fill="none" xmlns="http://www.w3.org/2000/svg">
<path d="M94.2013 133.011C92.8013 133.011 91.5013 132.311 90.7013 131.011L72.0013 99.0111C70.9013 97.1111 71.5014 94.6111 73.4014 93.5111C75.3014 92.4111 77.8014 93.0111 78.9014 94.9111L97.6013 126.911C98.7013 128.811 98.1013 131.311 96.2013 132.411C95.6013 132.911 94.9013 133.011 94.2013 133.011Z" fill="#57AAFF"/>
<path d="M75.5005 133.011C74.8005 133.011 74.1005 132.811 73.5005 132.511C71.6005 131.411 70.9005 128.911 72.1005 127.011L90.8005 95.0111C91.9005 93.1111 94.4005 92.5112 96.3005 93.6112C98.2005 94.7112 98.9005 97.2112 97.7005 99.1112L79.0005 131.111C78.2005 132.311 76.9005 133.011 75.5005 133.011Z" fill="#57AAFF"/>
<path d="M103.401 117.011H66.3008C64.1008 117.011 62.3008 115.211 62.3008 113.011C62.3008 110.811 64.1008 109.011 66.3008 109.011H103.401C105.601 109.011 107.401 110.811 107.401 113.011C107.401 115.211 105.601 117.011 103.401 117.011Z" fill="#57AAFF"/>
<path d="M25.5999 65.0111C24.4999 65.0111 23.3999 64.5112 22.5999 63.7112C17.2999 57.7112 14.5999 50.0111 15.0999 42.0111C15.5999 34.0111 19.0999 26.7111 25.0999 21.4111C37.2999 10.6111 55.5999 11.4112 66.6999 23.2112C68.1999 24.8112 68.1999 27.3111 66.4999 28.9111C64.8999 30.4111 62.3999 30.4112 60.7999 28.7112C52.5999 20.0112 39.1999 19.5111 30.2999 27.4111C25.8999 31.3111 23.2999 36.7111 22.9999 42.5111C22.6999 48.4111 24.5999 54.0111 28.4999 58.4111C29.9999 60.1111 29.7999 62.6111 28.1999 64.0111C27.4999 64.7111 26.4999 65.0111 25.5999 65.0111Z" fill="#FFC44C"/>
<path d="M31.6996 8.0111C31.3996 8.0111 31.1997 8.01112 30.8997 7.91112C30.6997 7.91112 30.3996 7.81117 30.0996 7.71117C29.8996 7.61117 29.5997 7.51114 29.3997 7.31114C29.1997 7.11115 28.9996 7.01114 28.7996 6.81114C28.0996 6.01114 27.5996 5.01116 27.5996 4.01116C27.5996 2.91116 27.9996 1.91117 28.7996 1.21117C28.9996 1.01117 29.1997 0.811169 29.3997 0.711169C29.5997 0.611169 29.8996 0.411145 30.0996 0.311145C30.2996 0.211145 30.5997 0.111133 30.8997 0.111133C31.3997 0.0111328 31.9996 0.0111328 32.4996 0.111133C32.6996 0.111133 32.9996 0.211145 33.1996 0.311145C33.3996 0.411145 33.6997 0.511169 33.8997 0.711169C34.0997 0.811169 34.2996 1.01117 34.4996 1.21117C35.2996 1.91117 35.6996 3.01116 35.6996 4.01116C35.6996 5.01116 35.2996 6.11115 34.4996 6.81114C33.7996 7.61115 32.6996 8.0111 31.6996 8.0111Z" fill="#FFC44C"/>
<path d="M4 55.7112C2.9 55.7112 1.90001 55.3112 1.20001 54.5112C1.00001 54.3112 0.800012 54.1112 0.700012 53.9112C0.600012 53.7112 0.399988 53.5112 0.299988 53.2112C0.199988 53.0112 0.0999756 52.7112 0.0999756 52.4112C-2.44156e-05 52.1112 0 51.9113 0 51.6113C0 50.5113 0.400012 49.5112 1.20001 48.8112C2.10001 47.9112 3.49999 47.4112 4.79999 47.7112C5.09999 47.7112 5.29998 47.8112 5.59998 47.9112C5.79998 48.0112 6.09999 48.1112 6.29999 48.3112C6.49999 48.4112 6.70002 48.6112 6.90002 48.8112C7.60002 49.5112 8.09998 50.6113 8.09998 51.6113C8.09998 52.6113 7.70002 53.7112 6.90002 54.4112C6.10002 55.2112 5 55.7112 4 55.7112Z" fill="#FFC44C"/>
<path d="M61.1992 11.911C60.1992 11.911 59.0992 11.511 58.3992 10.711C57.6992 10.011 57.1992 8.911 57.1992 7.911C57.1992 6.811 57.5992 5.81107 58.3992 5.11107C58.5992 4.91107 58.7992 4.71101 58.9992 4.61101C59.1992 4.51101 59.3992 4.31105 59.6992 4.21105C59.8992 4.11105 60.1992 4.01104 60.4992 4.01104C60.9992 3.91104 61.4992 3.91104 62.0992 4.01104C62.3992 4.01104 62.5992 4.11105 62.8992 4.21105C63.0992 4.31105 63.3992 4.41101 63.5992 4.61101C63.7992 4.71101 63.9992 4.91107 64.1992 5.11107C64.8992 5.91107 65.3992 6.911 65.3992 7.911C65.3992 9.011 64.9992 10.011 64.1992 10.711C63.9992 10.911 63.7992 11.011 63.5992 11.211C63.3992 11.311 63.0992 11.5111 62.8992 11.6111C62.6992 11.7111 62.3992 11.811 62.0992 11.811C61.7992 11.911 61.4992 11.911 61.1992 11.911Z" fill="#FFC44C"/>
<path d="M8 26.1111C7.7 26.1111 7.50001 26.111 7.20001 26.011C7.00001 25.911 6.7 25.9111 6.5 25.8111C6.3 25.7111 5.99999 25.6111 5.79999 25.4111C5.59999 25.3111 5.40001 25.1111 5.20001 24.9111C4.40001 24.2111 4 23.1111 4 22.1111C4 21.8111 3.99998 21.6111 4.09998 21.3111C4.09998 21.1111 4.19999 20.811 4.29999 20.511C4.39999 20.311 4.50001 20.0111 4.70001 19.8111C4.90001 19.6111 5.00001 19.4111 5.20001 19.2111C5.40001 19.0111 5.59999 18.8111 5.79999 18.7111C5.99999 18.6111 6.2 18.4111 6.5 18.3111C6.7 18.2111 7.00001 18.1111 7.20001 18.1111C8.50001 17.8111 9.89999 18.3111 10.8 19.2111C11.6 19.9111 12 21.011 12 22.011C12 23.111 11.6 24.1111 10.8 24.8111C9.99999 25.7111 9 26.1111 8 26.1111Z" fill="#FFC44C"/>
<path d="M126.901 115.611C126.401 115.611 125.901 115.611 125.401 115.611C123.201 115.511 121.501 113.611 121.601 111.411C121.701 109.211 123.601 107.511 125.801 107.611C132.501 107.911 138.901 105.611 143.901 101.011C148.901 96.5109 151.801 90.3109 152.101 83.5109C152.701 69.6109 141.901 57.911 128.101 57.211C125.801 57.111 123.401 57.311 121.201 57.9109C120.001 58.2109 118.801 57.911 117.801 57.111C116.801 56.311 116.301 55.2109 116.301 54.0109C116.301 37.7109 103.501 24.311 87.2011 23.611C70.4011 22.811 56.2011 35.911 55.4011 52.611L55.3011 55.0109C55.2011 57.2109 53.4011 58.911 51.1011 58.811C48.9011 58.711 47.2011 56.811 47.3011 54.611L47.4011 52.211C48.3011 31.011 66.3011 14.6109 87.5011 15.5109C106.501 16.3109 121.701 30.811 123.901 49.311C125.401 49.211 126.901 49.111 128.401 49.211C146.701 50.011 160.901 65.511 160.101 83.811C159.701 92.711 155.901 100.811 149.401 106.811C143.001 112.611 135.201 115.611 126.901 115.611Z" fill="#3B404E"/>
<path d="M44.6001 116.811C44.5001 116.811 44.5002 116.811 44.4002 116.811C26.1002 116.011 11.9002 100.511 12.7002 82.2108C13.5002 63.9108 29.1002 49.7107 47.3002 50.5107C58.7002 51.0107 68.9001 57.2108 74.6001 67.1108C75.7001 69.0108 75.0001 71.5108 73.1001 72.6108C71.2001 73.7108 68.7001 73.0108 67.6001 71.1108C63.3001 63.6108 55.6002 58.9107 46.9002 58.5107C33.0002 57.9107 21.2001 68.7107 20.6001 82.5107C20.0001 96.4107 30.8001 108.111 44.6001 108.811C46.8001 108.911 48.5002 110.811 48.4002 113.011C48.5002 115.111 46.7001 116.811 44.6001 116.811Z" fill="#3B404E"/>
</svg>
