<svg width="164" height="150" viewBox="0 0 164 150" fill="none" xmlns="http://www.w3.org/2000/svg">
<path d="M26.5003 66.0111C25.4003 66.0111 24.3003 65.5112 23.5003 64.7112C18.2003 58.7112 15.5003 51.0111 16.0003 43.0111C16.5003 35.0111 20.0003 27.7111 26.0003 22.4111C38.2003 11.6111 56.5004 12.4112 67.6004 24.2112C69.1004 25.8112 69.1002 28.3111 67.4002 29.9111C65.8002 31.4111 63.3002 31.4112 61.7002 29.7112C53.5002 21.0112 40.1002 20.5111 31.2002 28.4111C26.8002 32.3111 24.2002 37.7111 23.9002 43.5111C23.6002 49.4111 25.5002 55.0111 29.4002 59.4111C30.9002 61.1111 30.7004 63.6111 29.1004 65.0111C28.4004 65.7111 27.4003 66.0111 26.5003 66.0111Z" fill="#FFC44C"/>
<path d="M32.6001 9.01105C32.3001 9.01105 32.1 9.01101 31.8 8.91101C31.5 8.91101 31.3 8.81106 31 8.71106C30.8 8.61106 30.5 8.51103 30.3 8.31104C30.1 8.11104 29.9 8.01103 29.7 7.81104C29 7.01103 28.5 6.01105 28.5 5.01105C28.5 4.71105 28.5001 4.51106 28.6001 4.21106C28.6001 3.91106 28.7 3.71101 28.8 3.41101C28.9 3.21101 29 2.91106 29.2 2.71106C29.3 2.51106 29.5 2.31102 29.7 2.11102C29.9 1.91102 30.1 1.71102 30.3 1.61102C30.5 1.51102 30.8 1.31106 31 1.21106C31.2 1.11106 31.5 1.01105 31.8 1.01105C33.1 0.711047 34.4999 1.21102 35.3999 2.11102C35.5999 2.31102 35.7999 2.51106 35.8999 2.71106C36.0999 2.91106 36.2 3.21101 36.3 3.41101C36.4 3.61101 36.5 3.91106 36.5 4.21106C36.6 4.51106 36.6001 4.71105 36.6001 5.01105C36.6001 6.01105 36.1999 7.11104 35.3999 7.81104C34.6999 8.61104 33.6001 9.01105 32.6001 9.01105Z" fill="#FFC44C"/>
<path d="M4.90063 56.7111C4.60063 56.7111 4.40083 56.7111 4.10083 56.6111C3.90083 56.6111 3.60078 56.5111 3.30078 56.4111C3.10078 56.3111 2.80083 56.211 2.60083 56.011C2.40083 55.911 2.20073 55.711 2.00073 55.511C1.80073 55.311 1.60073 55.1111 1.50073 54.9111C1.40073 54.7111 1.20083 54.5111 1.10083 54.2111C1.00083 54.0111 0.900635 53.7111 0.900635 53.4111C0.900635 53.1111 0.800781 52.9111 0.800781 52.6111C0.800781 52.3111 0.800635 52.1111 0.900635 51.8111C1.00063 51.5111 1.00083 51.311 1.10083 51.011C1.20083 50.811 1.30073 50.5111 1.50073 50.3111C1.60073 50.1111 1.80073 49.9111 2.00073 49.7111C2.90073 48.8111 4.30083 48.3111 5.60083 48.6111C5.80083 48.6111 6.10078 48.7111 6.30078 48.8111C6.50078 48.9111 6.80073 49.0111 7.00073 49.2111C7.20073 49.3111 7.40083 49.5111 7.60083 49.7111C7.80083 49.9111 8.00083 50.1111 8.10083 50.3111C8.20083 50.5111 8.40073 50.811 8.50073 51.011C8.60073 51.211 8.70068 51.5111 8.70068 51.8111C8.70068 52.0111 8.80078 52.3111 8.80078 52.6111C8.80078 52.9111 8.80068 53.1111 8.70068 53.4111C8.60068 53.6111 8.60073 53.9111 8.50073 54.2111C8.40073 54.4111 8.30083 54.7111 8.10083 54.9111C8.00083 55.1111 7.80083 55.311 7.60083 55.511C7.40083 55.711 7.20073 55.911 7.00073 56.011C6.80073 56.111 6.60078 56.3111 6.30078 56.4111C6.10078 56.5111 5.80083 56.6111 5.60083 56.6111C5.40083 56.6111 5.20063 56.7111 4.90063 56.7111Z" fill="#FFC44C"/>
<path d="M62.1016 12.9108C61.0016 12.9108 60.0015 12.5109 59.3015 11.7109C59.1015 11.5109 58.9015 11.3108 58.8015 11.1108C58.7015 10.9108 58.5014 10.7108 58.4014 10.4108C58.3014 10.2108 58.2014 9.91083 58.2014 9.61083C58.1014 9.41083 58.1016 9.11084 58.1016 8.81084C58.1016 8.51084 58.1014 8.31085 58.2014 8.01085C58.2014 7.81085 58.3014 7.51086 58.4014 7.21086C58.5014 7.01086 58.6015 6.71085 58.8015 6.51085C58.9015 6.31085 59.1015 6.11082 59.3015 5.91082C59.5015 5.71082 59.7014 5.51082 59.9014 5.41082C60.1014 5.31082 60.4016 5.11085 60.6016 5.01085C60.8016 4.91085 61.1014 4.81084 61.4014 4.81084C61.9014 4.71084 62.5015 4.71084 63.0015 4.81084C63.2015 4.81084 63.5014 4.91085 63.7014 5.01085C63.9014 5.11085 64.2014 5.21082 64.4014 5.41082C64.6014 5.51082 64.8015 5.71082 65.0015 5.91082C65.8015 6.71082 66.2014 7.71086 66.2014 8.71086C66.2014 9.01086 66.2016 9.21085 66.1016 9.51085C66.0016 9.81085 66.0014 10.0108 65.9014 10.3108C65.8014 10.5108 65.7015 10.8109 65.5015 11.0109C65.3015 11.2109 65.2015 11.4108 65.0015 11.6108C64.2015 12.5108 63.2016 12.9108 62.1016 12.9108Z" fill="#FFC44C"/>
<path d="M8.90063 27.1113C8.60063 27.1113 8.40083 27.1112 8.10083 27.0112C7.80083 26.9112 7.60078 26.9112 7.30078 26.8112C7.10078 26.7112 6.80083 26.6112 6.60083 26.4112C6.40083 26.3112 6.20073 26.1112 6.00073 25.9112C5.80073 25.7112 5.60073 25.5112 5.50073 25.3112C5.40073 25.1112 5.20083 24.9113 5.10083 24.6113C5.00083 24.4113 4.90063 24.1112 4.90063 23.9112C4.80063 23.6112 4.80078 23.4113 4.80078 23.1113C4.80078 22.0113 5.20073 21.0112 6.00073 20.3112C6.20073 20.1112 6.40083 19.9112 6.60083 19.8112C6.80083 19.7112 7.10078 19.5112 7.30078 19.4112C7.50078 19.3112 7.80083 19.2112 8.10083 19.2112C8.60083 19.1112 9.10068 19.1112 9.70068 19.2112C10.0007 19.3112 10.2007 19.3112 10.5007 19.4112C10.7007 19.5112 11.0007 19.6112 11.2007 19.8112C11.4007 19.9112 11.6008 20.1112 11.8008 20.3112C12.0008 20.5112 12.2008 20.7112 12.3008 20.9112C12.4008 21.1112 12.6007 21.4113 12.7007 21.6113C12.8007 21.8113 12.9006 22.1112 12.9006 22.4112C12.9006 22.7112 13.0007 22.9112 13.0007 23.2112C13.0007 24.3112 12.6008 25.3112 11.8008 26.0112C11.0008 26.7112 9.90063 27.1113 8.90063 27.1113Z" fill="#FFC44C"/>
<path d="M130.002 114.811C129.502 114.811 129.002 114.811 128.502 114.811C126.302 114.711 124.602 112.811 124.702 110.611C124.802 108.411 126.702 106.711 128.902 106.811C135.602 107.111 142.002 104.811 147.002 100.211C151.902 95.7112 154.802 89.5112 155.102 82.8112C155.702 69.0112 145.002 57.2112 131.102 56.6112C128.802 56.5112 126.402 56.7112 124.202 57.3112C123.002 57.6112 121.802 57.3111 120.802 56.5111C119.802 55.7111 119.302 54.6111 119.302 53.4111C119.302 36.7111 105.702 23.0111 89.0018 23.0111C72.7018 23.0111 59.4017 35.7111 58.7017 52.0111L58.6019 54.4111C58.5019 56.6111 56.7017 58.3112 54.4017 58.2112C52.2017 58.1112 50.5019 56.2111 50.6019 54.0111L50.7017 51.6112C51.6017 31.0112 68.4018 14.9111 89.0018 14.9111C108.602 14.9111 124.802 29.7112 127.102 48.6112C128.602 48.5112 130.102 48.4111 131.602 48.5111C149.802 49.3111 164.002 64.8112 163.202 83.1112C162.802 91.9112 159.002 100.111 152.502 106.111C146.102 111.811 138.302 114.811 130.002 114.811Z" fill="#3B404E"/>
<path d="M47.8015 116.011C47.7015 116.011 47.7015 116.011 47.6015 116.011C36.2015 115.511 26.1013 109.311 20.4013 99.5111C16.0013 91.8111 14.8015 82.9112 17.1015 74.4112C19.4015 65.9112 24.9014 58.7112 32.5014 54.3112C40.2014 49.9112 49.1015 48.7111 57.6015 51.0111C66.1015 53.3111 73.3014 58.8112 77.7014 66.4112C78.8014 68.3112 78.1014 70.8112 76.2014 71.9112C74.3014 73.0112 71.8014 72.3112 70.7014 70.4112C63.8014 58.4112 48.4013 54.3112 36.4013 61.2112C30.6013 64.6112 26.4014 70.0112 24.7014 76.4112C23.0014 82.9112 23.8014 89.6111 27.2014 95.5111C31.5014 103.011 39.2015 107.711 47.8015 108.011C50.0015 108.111 51.7015 110.011 51.6015 112.211C51.7015 114.311 49.9015 116.011 47.8015 116.011Z" fill="#3B404E"/>
<path d="M76.6004 149.311C76.0004 149.311 75.3003 149.211 74.8003 148.811C73.1003 147.911 72.3003 146.011 72.8003 144.211L78.8003 121.311H71.1004C69.7004 121.311 68.5002 120.611 67.7002 119.511C67.0002 118.411 66.8002 116.911 67.4002 115.711L79.7002 87.8112C80.3002 86.4112 81.8002 85.4111 83.4002 85.4111H105.6C107.1 85.4111 108.5 86.2112 109.2 87.6112C109.9 89.0112 109.8 90.6112 108.9 91.8112L99.5003 104.611H107.8C109.4 104.611 110.8 105.511 111.4 106.911C112.1 108.311 111.8 110.011 110.8 111.211L79.7002 147.811C78.9002 148.811 77.7004 149.311 76.6004 149.311ZM77.1004 113.411H83.9002C85.1002 113.411 86.3004 114.011 87.1004 115.011C87.9004 116.011 88.1003 117.311 87.8003 118.511L85.0003 129.411L99.2002 112.711H91.6004C90.1004 112.711 88.7003 111.911 88.0003 110.511C87.3003 109.111 87.4003 107.511 88.3003 106.311L97.7002 93.5111H86.0003L77.1004 113.411Z" fill="#FFC44C"/>
</svg>
