<svg width="157" height="121" viewBox="0 0 157 121" fill="none" xmlns="http://www.w3.org/2000/svg">
<path d="M56.3997 93.7386C46.7997 93.7386 37.8996 90.0387 31.0996 83.2386C24.2996 76.4386 20.5996 67.5387 20.5996 57.9387C20.5996 38.2387 36.6997 22.1387 56.3997 22.1387C69.4997 22.1387 81.4997 29.2386 87.7997 40.7386C88.8997 42.6386 88.1996 45.1387 86.1996 46.1387C84.2996 47.2387 81.7997 46.5386 80.7997 44.5386C75.8997 35.6386 66.5996 30.1387 56.4996 30.1387C41.1996 30.1387 28.6996 42.6387 28.6996 57.9387C28.6996 73.2387 41.1996 85.7386 56.4996 85.7386C58.6996 85.7386 60.4996 87.5387 60.4996 89.7386C60.4996 91.9386 58.5997 93.7386 56.3997 93.7386Z" fill="#FFC44C"/>
<path d="M55.9008 9.03876C55.6008 9.03876 55.4007 9.03878 55.1007 8.93878C54.9007 8.93878 54.6008 8.83877 54.3008 8.73877C54.1008 8.63877 53.8007 8.53881 53.6007 8.33881C53.4007 8.13881 53.2007 8.03881 53.0007 7.83881C52.8007 7.63881 52.6007 7.43877 52.5007 7.23877C52.3007 7.03877 52.2007 6.83876 52.1007 6.53876C52.0007 6.33876 51.9008 6.03877 51.9008 5.73877C51.8008 5.43877 51.8008 5.23878 51.8008 4.93878C51.8008 4.63878 51.8008 4.43879 51.9008 4.13879C51.9008 3.83879 52.0007 3.63881 52.1007 3.33881C52.2007 3.13881 52.3007 2.83879 52.5007 2.63879C52.6007 2.43879 52.8007 2.23876 53.0007 2.03876C53.2007 1.83876 53.4007 1.63876 53.6007 1.53876C53.8007 1.43876 54.1008 1.23879 54.3008 1.13879C54.5008 1.03879 54.8007 0.938782 55.1007 0.938782C56.4007 0.638782 57.8007 1.13876 58.7007 2.03876C58.9007 2.23876 59.1007 2.43879 59.2007 2.63879C59.3007 2.83879 59.5007 3.13881 59.6007 3.33881C59.7007 3.53881 59.8008 3.83879 59.8008 4.13879C59.8008 4.43879 59.9008 4.63878 59.9008 4.93878C59.9008 5.23878 59.9008 5.43877 59.8008 5.73877C59.8008 6.03877 59.7007 6.23876 59.6007 6.53876C59.5007 6.73876 59.4007 7.03877 59.2007 7.23877C59.1007 7.43877 58.9007 7.63881 58.7007 7.83881C58.0007 8.53881 56.9008 9.03876 55.9008 9.03876Z" fill="#FFC44C"/>
<path d="M4 60.8388C2.9 60.8388 1.89995 60.4388 1.19995 59.6388C0.999951 59.4388 0.799951 59.2388 0.699951 59.0388C0.599951 58.8388 0.400049 58.5388 0.300049 58.3388C0.200049 58.1388 0.0999756 57.8388 0.0999756 57.5388C-2.44156e-05 57.3388 0 57.0388 0 56.7388C0 55.7388 0.399951 54.6388 1.19995 53.9388C1.89995 53.2388 3 52.7388 4 52.7388C5.1 52.7388 6.10005 53.1388 6.80005 53.9388C7.50005 54.7388 8 55.7388 8 56.7388C8 57.0388 8.00002 57.2388 7.90002 57.5388C7.80002 57.8388 7.79995 58.0388 7.69995 58.3388C7.59995 58.5388 7.50005 58.8388 7.30005 59.0388C7.10005 59.2388 7.00005 59.4388 6.80005 59.6388C6.60005 59.8388 6.39995 60.0388 6.19995 60.1388C5.99995 60.2388 5.8 60.4388 5.5 60.5388C5.3 60.6388 4.99995 60.7388 4.69995 60.7388C4.49995 60.8388 4.3 60.8388 4 60.8388Z" fill="#FFC44C"/>
<path d="M88.5996 28.1386C87.5996 28.1386 86.4997 27.7386 85.7997 26.9386C85.5997 26.7386 85.3997 26.5386 85.2997 26.3386C85.0997 26.1386 84.9997 25.8386 84.8997 25.6386C84.7997 25.4386 84.6996 25.1386 84.6996 24.8386C84.5996 24.5386 84.5996 24.3386 84.5996 24.0386C84.5996 23.0386 84.9997 21.9386 85.7997 21.2386C86.4997 20.5386 87.5996 20.0386 88.5996 20.0386C89.6996 20.0386 90.6997 20.4386 91.3997 21.2386C92.1997 21.9386 92.5996 23.0386 92.5996 24.0386C92.5996 24.3386 92.5996 24.5386 92.4996 24.8386C92.3996 25.1386 92.3997 25.3386 92.2997 25.6386C92.1997 25.8386 92.0997 26.1386 91.8997 26.3386C91.7997 26.5386 91.5997 26.7386 91.3997 26.9386C90.6997 27.7386 89.6996 28.1386 88.5996 28.1386Z" fill="#FFC44C"/>
<path d="M19.1992 97.5387C18.8992 97.5387 18.6993 97.5388 18.3993 97.4388C18.1993 97.4388 17.8992 97.3388 17.6992 97.2388C17.4992 97.1388 17.1993 97.0388 16.9993 96.8388C16.7993 96.7388 16.5993 96.5388 16.3993 96.3388C16.1993 96.1388 15.9993 95.9388 15.8993 95.7388C15.7993 95.5388 15.5993 95.2387 15.4993 95.0387C15.3993 94.8387 15.2993 94.5388 15.2993 94.2388C15.1993 93.9388 15.1992 93.7388 15.1992 93.4388C15.1992 93.1388 15.1993 92.9388 15.2993 92.6388C15.3993 92.3388 15.3993 92.1388 15.4993 91.8388C15.5993 91.6388 15.6993 91.3388 15.8993 91.1388C15.9993 90.9388 16.1993 90.7387 16.3993 90.5387C16.5993 90.3387 16.7993 90.2387 16.9993 90.0387C17.1993 89.9387 17.4992 89.7388 17.6992 89.6388C17.8992 89.5388 18.1993 89.4388 18.3993 89.4388C18.8993 89.3388 19.4993 89.3388 19.9993 89.4388C20.1993 89.4388 20.4993 89.5388 20.7993 89.6388C20.9993 89.7388 21.2993 89.8387 21.4993 90.0387C21.6993 90.2387 21.8992 90.3387 22.0992 90.5387C22.2992 90.7387 22.4992 90.9388 22.5992 91.1388C22.6992 91.3388 22.8993 91.5388 22.9993 91.8388C23.0993 92.0388 23.1992 92.3388 23.1992 92.6388C23.2992 92.9388 23.2993 93.1388 23.2993 93.4388C23.2993 93.7388 23.2992 93.9388 23.1992 94.2388C23.0992 94.5388 23.0993 94.7387 22.9993 95.0387C22.8993 95.2387 22.7992 95.5388 22.5992 95.7388C22.4992 95.9388 22.2992 96.1388 22.0992 96.3388C21.8992 96.5388 21.6993 96.7388 21.4993 96.8388C21.2993 96.9388 20.9993 97.1388 20.7993 97.2388C20.5993 97.3388 20.2993 97.4388 19.9993 97.4388C19.6993 97.5388 19.4992 97.5387 19.1992 97.5387Z" fill="#FFC44C"/>
<path d="M19.1992 24.2386C18.8992 24.2386 18.6993 24.2386 18.3993 24.1386C18.1993 24.0386 17.8992 24.0386 17.6992 23.9386C17.4992 23.8386 17.1993 23.7386 16.9993 23.5386C16.7993 23.4386 16.5993 23.2386 16.3993 23.0386C16.1993 22.8386 15.9993 22.6386 15.8993 22.4386C15.7993 22.2386 15.5993 21.9386 15.4993 21.7386C15.3993 21.5386 15.2993 21.2386 15.2993 20.9386C15.1993 20.6386 15.1992 20.4386 15.1992 20.1386C15.1992 19.8386 15.1993 19.6386 15.2993 19.3386C15.3993 19.1386 15.3993 18.8386 15.4993 18.6386C15.5993 18.4386 15.6993 18.1386 15.8993 17.9386C15.9993 17.7386 16.1993 17.5386 16.3993 17.3386C16.5993 17.1386 16.7993 16.9386 16.9993 16.8386C17.1993 16.7386 17.4992 16.5386 17.6992 16.4386C17.8992 16.3386 18.1993 16.2386 18.3993 16.2386C18.8993 16.1386 19.4993 16.1386 19.9993 16.2386C20.1993 16.2386 20.4993 16.3386 20.7993 16.4386C20.9993 16.5386 21.2993 16.6386 21.4993 16.8386C21.6993 16.9386 21.8992 17.1386 22.0992 17.3386C22.2992 17.5386 22.4992 17.7386 22.5992 17.9386C22.6992 18.1386 22.8993 18.3386 22.9993 18.6386C23.0993 18.8386 23.1992 19.1386 23.1992 19.3386C23.2992 19.6386 23.2993 19.8386 23.2993 20.1386C23.2993 20.4386 23.2992 20.6386 23.1992 20.9386C23.0992 21.1386 23.0993 21.4386 22.9993 21.7386C22.8993 21.9386 22.7992 22.2386 22.5992 22.4386C22.4992 22.6386 22.2992 22.8386 22.0992 23.0386C21.8992 23.2386 21.6993 23.4386 21.4993 23.5386C21.2993 23.6386 20.9993 23.8386 20.7993 23.9386C20.5993 24.0386 20.2993 24.1386 19.9993 24.1386C19.6993 24.1386 19.4992 24.2386 19.1992 24.2386Z" fill="#FFC44C"/>
<path d="M105.2 120.638C101.2 120.638 97.2003 119.538 93.7003 117.238C89.4003 114.438 83.8003 114.438 79.5003 117.138C79.5003 117.138 79.4003 117.138 79.4003 117.238C72.4003 121.738 63.4003 121.738 56.4003 117.238C52.1003 114.438 46.5003 114.438 42.1003 117.238C40.2003 118.438 37.8003 117.938 36.6003 116.038C35.4003 114.138 35.9004 111.738 37.8004 110.538C44.8004 105.938 53.8004 105.938 60.8004 110.538C65.1004 113.338 70.7003 113.338 75.0003 110.538C75.0003 110.538 75.1003 110.538 75.1003 110.438C82.1003 105.938 91.1003 105.938 98.1003 110.438C102.5 113.238 108.1 113.238 112.4 110.438C114.3 109.238 116.7 109.738 117.9 111.638C119.1 113.538 118.6 115.938 116.7 117.138C113.2 119.538 109.2 120.638 105.2 120.638Z" fill="#3B404E"/>
<path d="M143.101 95.2386C139.101 95.2386 135.101 94.1386 131.601 91.8386C127.301 89.0386 121.701 89.0386 117.401 91.7386C117.401 91.7386 117.301 91.7386 117.301 91.8386C110.301 96.3386 101.301 96.3386 94.3008 91.8386C90.0008 89.0386 84.4007 89.0386 80.0007 91.8386C78.1007 93.0386 75.7007 92.5386 74.5007 90.6386C73.3007 88.7386 73.8007 86.3386 75.7007 85.1386C82.7007 80.5386 91.7007 80.5386 98.7007 85.1386C103.001 87.9386 108.601 87.9386 112.901 85.1386C112.901 85.1386 113.001 85.1386 113.001 85.0386C120.001 80.5386 129.001 80.5386 136.001 85.0386C140.401 87.8386 146.001 87.8386 150.301 85.0386C152.201 83.8386 154.601 84.3386 155.801 86.2386C157.001 88.1386 156.501 90.5386 154.601 91.7386C151.101 94.1386 147.101 95.2386 143.101 95.2386Z" fill="#3B404E"/>
<path d="M112.7 69.8387C108.7 69.8387 104.7 68.7387 101.3 66.4387C101.3 66.4387 101.2 66.4387 101.2 66.3387C96.8999 63.5387 91.2999 63.5387 86.9999 66.3387C86.9999 66.3387 87 66.3387 86.9 66.3387C79.9 70.8387 70.9 70.8387 63.9 66.3387C62 65.1387 61.4999 62.6387 62.6999 60.8387C63.8999 58.9387 66.3999 58.4387 68.1999 59.6387C72.4999 62.4387 78.1 62.4387 82.4 59.6387C82.4 59.6387 82.3999 59.6387 82.4999 59.6387C89.4999 55.1387 98.5 55.1387 105.4 59.6387C105.4 59.6387 105.5 59.6386 105.5 59.7386C109.8 62.5386 115.4 62.5386 119.7 59.7386C121.6 58.5386 124 59.0387 125.2 60.9387C126.4 62.8387 125.9 65.2387 124 66.4387C120.7 68.7387 116.7 69.8387 112.7 69.8387Z" fill="#3B404E"/>
</svg>
