<svg width="149" height="136" viewBox="0 0 149 136" fill="none" xmlns="http://www.w3.org/2000/svg">
<path d="M115 100.817C114.5 100.817 114 100.817 113.5 100.817C111.3 100.717 109.6 98.8169 109.7 96.6169C109.8 94.4169 111.7 92.7169 113.9 92.8169C120.6 93.1169 127 90.8168 132 86.2168C136.9 81.7168 139.8 75.5169 140.1 68.8169C140.4 62.1169 138.1 55.7168 133.5 50.7168C128.9 45.7168 122.8 42.9169 116.1 42.6169C113.8 42.5169 111.4 42.7169 109.2 43.3169C108 43.6169 106.8 43.3168 105.8 42.5168C104.8 41.7168 104.3 40.617 104.3 39.417C104.3 22.717 90.6998 9.01685 73.9998 9.01685C57.6998 9.01685 44.3998 21.7168 43.6998 38.0168L43.5999 40.417C43.4999 42.617 41.5997 44.3168 39.3997 44.2168C37.1997 44.1168 35.4999 42.2168 35.5999 40.0168L35.6998 37.6169C36.5998 17.0169 53.3998 0.916992 73.9998 0.916992C93.5998 0.916992 109.8 15.7169 112.1 34.6169C113.6 34.5169 115.1 34.4168 116.6 34.5168C134.8 35.3168 149 50.8169 148.2 69.1169C147.8 77.9169 144 86.1169 137.5 92.1169C131.1 97.8169 123.3 100.817 115 100.817Z" fill="#3B404E"/>
<path d="M32.7995 102.017C32.6995 102.017 32.6996 102.017 32.5996 102.017C21.1996 101.517 11.0994 95.3165 5.39938 85.5165C0.999378 77.8165 -0.200427 68.9166 2.09957 60.4166C4.39957 51.9166 9.89948 44.7166 17.4995 40.3166C25.1995 35.9166 34.0996 34.7165 42.5996 37.0165C51.0996 39.3165 58.2994 44.8166 62.6994 52.4166C63.7994 54.3166 63.0994 56.8166 61.1994 57.9166C59.2994 59.0166 56.7994 58.3166 55.6994 56.4166C52.3994 50.6166 46.8995 46.4165 40.4995 44.7165C33.9995 43.0165 27.2994 43.8165 21.3994 47.2165C15.5994 50.6165 11.3994 56.0166 9.69943 62.4166C7.99943 68.8167 8.79943 75.6165 12.1994 81.5165C16.4994 89.0165 24.1995 93.7165 32.7995 94.0165C34.9995 94.1165 36.6996 96.0165 36.5996 98.2165C36.6996 100.316 34.8995 102.017 32.7995 102.017Z" fill="#3B404E"/>
<path d="M61.6004 135.317C61.0004 135.317 60.3003 135.217 59.8003 134.817C58.1003 133.917 57.3003 132.017 57.8003 130.217L63.8003 107.317H56.1004C54.7004 107.317 53.5002 106.617 52.7002 105.517C52.0002 104.417 51.8002 102.917 52.4002 101.717L64.7002 73.8169C65.3002 72.4169 66.8002 71.417 68.4002 71.417H90.6004C92.1004 71.417 93.5002 72.2169 94.2002 73.6169C94.9002 75.0169 94.8002 76.6169 93.9002 77.8169L84.5003 90.6169H92.8003C94.4003 90.6169 95.8002 91.517 96.4002 92.917C97.1002 94.317 96.8003 96.0168 95.8003 97.2168L64.7002 133.817C63.9002 134.817 62.7004 135.317 61.6004 135.317ZM62.1004 99.417H68.9002C70.1002 99.417 71.3004 100.017 72.1004 101.017C72.9004 102.017 73.1003 103.317 72.8003 104.517L70.0003 115.417L84.2002 98.7168H76.6004C75.1004 98.7168 73.7003 97.9168 73.0003 96.5168C72.3003 95.1168 72.4003 93.5169 73.3003 92.3169L82.7002 79.5168H71.0003L62.1004 99.417Z" fill="#FFC44C"/>
</svg>
