<svg width="123" height="124" viewBox="0 0 123 124" fill="none" xmlns="http://www.w3.org/2000/svg">
<path d="M66.8999 72.0997C34.9999 72.0997 11 60.7998 11 45.8998C11 30.9998 34.9999 19.6997 66.8999 19.6997C98.7999 19.6997 122.8 30.9998 122.8 45.8998C122.8 60.7998 98.6999 72.0997 66.8999 72.0997ZM66.8999 27.6997C38.6999 27.6997 19 37.2998 19 45.8998C19 54.4998 38.6999 64.0997 66.8999 64.0997C95.0999 64.0997 114.8 54.4998 114.8 45.8998C114.8 37.2998 95.0999 27.6997 66.8999 27.6997Z" fill="#3B404E"/>
<path d="M65.1006 103C42.2006 103 24.9004 94.6 24.9004 83.5C24.9004 72.4 42.2006 64 65.1006 64C67.3006 64 69.1006 65.8 69.1006 68C69.1006 70.2 67.3006 72 65.1006 72C45.4006 72 32.9004 78.8 32.9004 83.5C32.9004 88.2 45.4006 95 65.1006 95C75.1006 95 84.4005 93.2 90.8005 90C92.8005 89 95.2004 89.8 96.2004 91.8C97.2004 93.8 96.4004 96.2 94.4004 97.2C87.0004 100.9 76.3006 103 65.1006 103Z" fill="#3B404E"/>
<path d="M66.5007 123.3C66.4007 123.3 66.3008 123.3 66.1008 123.3C52.3008 123.3 38.3008 118.4 38.3008 109.1C38.3008 102.1 47.8008 94.8999 66.1008 94.8999C68.3008 94.8999 70.1008 96.6999 70.1008 98.8999C70.1008 101.1 68.3008 102.9 66.1008 102.9C53.2008 102.9 46.3008 107.3 46.3008 109.1C46.3008 110.9 53.2008 115.3 66.1008 115.3C69.9008 115.3 73.7007 114.9 77.5007 113.9C79.6007 113.4 81.8008 114.7 82.3008 116.8C82.8008 118.9 81.5006 121.1 79.4006 121.6C75.2006 122.7 70.8007 123.3 66.5007 123.3Z" fill="#3B404E"/>
<path d="M112.5 83.8001C111.4 83.8001 110.4 83.4 109.7 82.6C109.5 82.4 109.3 82.2001 109.2 82.0001C109 81.8001 108.9 81.6001 108.8 81.3001C108.7 81.1001 108.6 80.8001 108.6 80.5001C108.6 80.2001 108.5 80 108.5 79.7C108.5 78.6 108.9 77.6001 109.7 76.9001C110.6 76.0001 112 75.5001 113.3 75.8001C113.6 75.8001 113.8 75.9001 114.1 76.0001C114.4 76.1001 114.6 76.2001 114.8 76.4001C115 76.5001 115.2 76.7001 115.4 76.9001C116.2 77.6001 116.6 78.7 116.6 79.7C116.6 80 116.6 80.2001 116.5 80.5001C116.4 80.7001 116.4 81.0001 116.3 81.3001C116.2 81.5001 116.1 81.8001 115.9 82.0001C115.8 82.2001 115.6 82.4 115.4 82.6C115.2 82.8 115 82.9 114.8 83.1C114.6 83.2 114.3 83.4001 114.1 83.5001C113.9 83.6001 113.6 83.7 113.3 83.7C113.1 83.7 112.8 83.8001 112.5 83.8001Z" fill="#3B404E"/>
<path d="M5.00049 72.0999C4.70049 72.0999 4.50044 72.0999 4.20044 71.9999C3.90044 71.8999 3.70039 71.9 3.40039 71.8C3.20039 71.7 2.90044 71.6 2.70044 71.4C2.50044 71.3 2.30059 71.1 2.10059 70.9C1.90059 70.7 1.70059 70.5 1.60059 70.3C1.50059 70.1 1.30044 69.7999 1.20044 69.5999C1.10044 69.3999 1.00049 69.1 1.00049 68.9C1.00049 68.6 0.900391 68.3999 0.900391 68.0999C0.900391 67.7999 0.900488 67.6 1.00049 67.3C1.10049 67.1 1.10044 66.7999 1.20044 66.4999C1.30044 66.2999 1.40059 66 1.60059 65.8C1.70059 65.6 1.90059 65.3999 2.10059 65.1999C2.30059 64.9999 2.50044 64.7999 2.70044 64.6999C2.90044 64.4999 3.20039 64.4 3.40039 64.3C3.60039 64.2 3.90044 64.0999 4.20044 64.0999C4.70044 63.9999 5.30054 63.9999 5.80054 64.0999C6.10054 64.1999 6.30059 64.2 6.60059 64.3C6.80059 64.4 7.10054 64.4999 7.30054 64.6999C7.50054 64.7999 7.70039 64.9999 7.90039 65.1999C8.10039 65.3999 8.30039 65.6 8.40039 65.8C8.50039 66 8.70054 66.2999 8.80054 66.4999C8.90054 66.6999 9.00049 67 9.00049 67.3C9.00049 67.6 9.10059 67.7999 9.10059 68.0999C9.10059 68.3999 9.10049 68.6 9.00049 68.9C8.90049 69.1 8.90054 69.3999 8.80054 69.5999C8.70054 69.7999 8.60039 70.1 8.40039 70.3C8.30039 70.5 8.10039 70.7 7.90039 70.9C7.70039 71.1 7.50054 71.3 7.30054 71.4C7.10054 71.5 6.90059 71.7 6.60059 71.8C6.40059 71.9 6.10054 71.9999 5.80054 71.9999C5.50054 72.0999 5.30049 72.0999 5.00049 72.0999Z" fill="#3B404E"/>
<path d="M103.4 8.99988C102.4 8.99988 101.301 8.59993 100.601 7.79993C100.401 7.59993 100.201 7.39983 100.101 7.19983C99.9006 6.99983 99.8004 6.79988 99.7004 6.49988C99.6004 6.29988 99.5005 5.99983 99.5005 5.69983C99.5005 5.39983 99.4004 5.1999 99.4004 4.8999C99.4004 3.7999 99.8006 2.79985 100.601 2.09985C101.301 1.39985 102.4 0.899902 103.4 0.899902C104.5 0.899902 105.5 1.29985 106.2 2.09985C106.4 2.29985 106.6 2.49983 106.7 2.69983C106.8 2.89983 107.001 3.1999 107.101 3.3999C107.201 3.5999 107.301 3.89983 107.301 4.19983C107.401 4.49983 107.4 4.69988 107.4 4.99988C107.4 5.29988 107.401 5.49993 107.301 5.79993C107.201 6.09993 107.201 6.29985 107.101 6.59985C107.001 6.79985 106.9 7.09993 106.7 7.29993C106.6 7.49993 106.4 7.6999 106.2 7.8999C105.5 8.5999 104.4 8.99988 103.4 8.99988Z" fill="#3B404E"/>
</svg>
