<svg width="149" height="112" viewBox="0 0 149 112" fill="none" xmlns="http://www.w3.org/2000/svg">
<path d="M26.9008 19.2031C26.6008 19.2031 26.4007 19.2031 26.1007 19.1031C25.9007 19.1031 25.6008 19.0031 25.3008 18.9031C25.1008 18.8031 24.8007 18.7031 24.6007 18.5031C24.4007 18.4031 24.2007 18.2031 24.0007 18.0031C23.3007 17.2031 22.8008 16.2031 22.8008 15.2031C22.8008 14.1031 23.2007 13.1031 24.0007 12.4031C24.2007 12.2031 24.4007 12.0031 24.6007 11.9031C24.8007 11.8031 25.1008 11.6031 25.3008 11.5031C25.5008 11.4031 25.8007 11.303 26.1007 11.303C27.4007 11.003 28.8007 11.5031 29.7007 12.4031C30.4007 13.1031 30.9008 14.2031 30.9008 15.2031C30.9008 16.2031 30.5007 17.3031 29.7007 18.0031C29.0007 18.8031 28.0008 19.2031 26.9008 19.2031Z" fill="#FFC44C"/>
<path d="M107 101.403C106.7 101.403 106.5 101.403 106.2 101.303C105.9 101.203 105.7 101.203 105.4 101.103C105.2 101.003 104.9 100.903 104.7 100.703C104.5 100.603 104.3 100.403 104.1 100.203C103.9 100.003 103.7 99.8032 103.6 99.6032C103.5 99.4032 103.3 99.2032 103.2 98.9032C103.1 98.7032 103 98.4032 103 98.2032C102.9 97.9032 102.9 97.7032 102.9 97.4032C102.9 96.4032 103.3 95.3032 104.1 94.6032C104.3 94.4032 104.5 94.2032 104.7 94.1032C104.9 93.9032 105.2 93.8032 105.4 93.7032C105.6 93.6032 105.9 93.5032 106.2 93.5032C106.7 93.4032 107.2 93.4032 107.8 93.5032C108 93.5032 108.3 93.6032 108.6 93.7032C108.8 93.8032 109.1 93.9032 109.3 94.1032C109.5 94.2032 109.7 94.4032 109.9 94.6032C110.6 95.3032 111.1 96.4032 111.1 97.4032C111.1 98.5032 110.7 99.5032 109.9 100.203C109.7 100.403 109.5 100.603 109.3 100.703C109.1 100.803 108.9 101.003 108.6 101.103C108.4 101.203 108.1 101.303 107.8 101.303C107.5 101.403 107.2 101.403 107 101.403Z" fill="#FFC44C"/>
<path d="M140.301 82.303C140.001 82.303 139.801 82.3031 139.501 82.2031C139.201 82.1031 139.001 82.1031 138.701 82.0031C138.501 81.9031 138.201 81.8031 138.001 81.6031C137.801 81.5031 137.601 81.3031 137.401 81.1031C136.701 80.4031 136.201 79.303 136.201 78.303C136.201 77.303 136.601 76.2031 137.401 75.5031C137.601 75.3031 137.801 75.1031 138.001 75.0031C138.201 74.9031 138.501 74.7031 138.701 74.6031C138.901 74.5031 139.201 74.4031 139.501 74.4031C140.801 74.1031 142.201 74.6031 143.101 75.5031C143.301 75.7031 143.501 75.9031 143.601 76.1031C143.701 76.3031 143.901 76.503 144.001 76.803C144.101 77.003 144.201 77.3031 144.201 77.6031C144.201 77.9031 144.301 78.1031 144.301 78.4031C144.301 78.7031 144.301 78.9031 144.201 79.2031C144.101 79.5031 144.101 79.7031 144.001 80.0031C143.901 80.2031 143.801 80.5031 143.601 80.7031C143.501 80.9031 143.301 81.103 143.101 81.303C142.301 81.903 141.301 82.303 140.301 82.303Z" fill="#FFC44C"/>
<path d="M49.3998 111.403C48.7998 111.403 48.0997 111.303 47.5997 110.903C45.8997 110.003 45.0997 108.103 45.5997 106.303L57.6997 59.7029H38.9998C37.5998 59.7029 36.3997 59.003 35.5997 57.903C34.7997 56.803 34.6998 55.3029 35.2998 54.1029L58.1997 2.40295C58.7997 1.00295 60.2998 0.00292969 61.8998 0.00292969H103C104.5 0.00292969 105.9 0.802881 106.6 2.20288C107.3 3.50288 107.2 5.20295 106.3 6.40295L84.9998 35.6029H107.1C108.7 35.6029 110.1 36.503 110.7 37.903C111.3 39.303 111.1 41.0029 110.1 42.2029L52.5997 110.003C51.6997 110.903 50.5998 111.403 49.3998 111.403ZM45.0997 51.7029H62.8998C64.0998 51.7029 65.2997 52.3029 66.0997 53.3029C66.8997 54.3029 67.0998 55.6029 66.7998 56.8029L57.7998 91.5029L98.3998 43.6029H76.9998C75.4998 43.6029 74.0998 42.803 73.3998 41.403C72.6998 40.103 72.7997 38.4029 73.6997 37.2029L94.9998 8.00293H64.2998L45.0997 51.7029Z" fill="#FFC44C"/>
<path d="M135.001 41.703C134.401 41.703 133.701 41.503 133.201 41.203C131.601 40.203 131.001 38.0031 132.101 36.4031L138.801 25.5031H125.101C123.801 25.5031 122.601 24.803 122.001 23.703C121.401 22.603 121.401 21.2031 122.101 20.1031L132.101 4.50309C133.101 2.90309 135.301 2.40311 136.901 3.40311C138.501 4.40311 139.001 6.60304 138.001 8.20304L131.501 18.5031H145.101C146.401 18.5031 147.501 19.203 148.201 20.303C148.801 21.403 148.801 22.803 148.101 23.803L138.001 40.0031C137.301 41.1031 136.101 41.703 135.001 41.703Z" fill="#FFC44C"/>
<path d="M15.9008 94.303C15.4008 94.303 14.9008 94.2031 14.4008 93.9031C12.7008 93.1031 11.9008 91.0031 12.8008 89.2031L18.5008 77.303H4.10075C2.90075 77.303 1.80075 76.7031 1.10075 75.6031C0.500753 74.6031 0.400778 73.3031 1.00078 72.2031L9.20073 56.0031C10.1007 54.3031 12.2008 53.6031 13.9008 54.5031C15.6008 55.4031 16.3008 57.5031 15.4008 59.2031L9.80083 70.303H24.1008C25.3008 70.303 26.4008 70.9031 27.1008 71.9031C27.7008 72.9031 27.8008 74.203 27.3008 75.303L19.1008 92.2031C18.4008 93.6031 17.2008 94.303 15.9008 94.303Z" fill="#FFC44C"/>
</svg>
